<?xml version="1.0" encoding="utf-8"?>
<!-- Generator: Adobe Illustrator 24.0.0, SVG Export Plug-In . SVG Version: 6.00 Build 0)  -->
<svg version="1.1" xmlns="http://www.w3.org/2000/svg" xmlns:xlink="http://www.w3.org/1999/xlink" x="0px" y="0px"
	 viewBox="0 0 640 420" style="enable-background:new 0 0 640 420;" xml:space="preserve">
<style type="text/css">
	.st0{fill:url(#SVGID_1_);}
	.st1{fill:#0098C3;}
	.st2{fill:#FFFFFF;}
	.st3{fill:#007099;}
	.st4{fill:#2E8AA5;}
	.st5{fill:#DEA700;}
	.st6{fill:url(#SVGID_2_);stroke:#35384D;stroke-width:2.3506;stroke-miterlimit:10;}
	.st7{fill:#2A2D3D;}
</style>
<g id="dark">
	
		<radialGradient id="SVGID_1_" cx="643.5404" cy="5.3362" r="407.0949" gradientTransform="matrix(0.9697 0 0 1 9.697 0)" gradientUnits="userSpaceOnUse">
		<stop  offset="0" style="stop-color:#007099"/>
		<stop  offset="2.704840e-02" style="stop-color:#026D95"/>
		<stop  offset="0.3173" style="stop-color:#13516F"/>
		<stop  offset="0.5856" style="stop-color:#203D54"/>
		<stop  offset="0.8217" style="stop-color:#273143"/>
		<stop  offset="1" style="stop-color:#2A2D3D"/>
	</radialGradient>
	<rect class="st0" width="640" height="420"/>
</g>
<g id="Software">
</g>
<g id="Product">
</g>
<g id="Solution_Blueprints">
</g>
<g id="start">
	<g>
		<g>
			<g>
				<polygon class="st1" points="127.8,157.7 136.2,179.8 128.7,188.9 121.2,198 109.6,196.1 98,194.2 89.6,172.2 97.1,163 
					104.6,153.9 116.2,155.8 				"/>
			</g>
		</g>
		<g>
			<g>
				<path class="st2" d="M136.1,148.6C136.1,148.7,136.1,148.7,136.1,148.6L113,176.9c-0.2,0.3-0.6,0.4-0.9,0.4l-35.9-5.9
					c-0.4-0.1-0.6-0.3-0.8-0.6c-0.1-0.3,0-0.7,0.2-1l23-28.2c0.2-0.3,0.6-0.4,0.9-0.4l35.9,5.9c0.4,0.1,0.6,0.3,0.8,0.6
					C136.3,148,136.3,148.4,136.1,148.6z M111.8,175.1l21.6-26.4l-33.6-5.5l-21.6,26.4L111.8,175.1z"/>
			</g>
			<g>
				<path class="st2" d="M149,182.7C148.9,182.7,148.9,182.7,149,182.7l-23.1,28.2c-0.1,0.1-0.1,0.1-0.2,0.2
					c-0.1,0.1-0.2,0.1-0.3,0.1c-0.1,0-0.3,0-0.4,0c-0.1,0-0.3-0.1-0.4-0.2c0,0,0,0,0,0c-0.1-0.1-0.2-0.1-0.2-0.2
					c-0.1-0.1-0.1-0.2-0.1-0.2l-12.7-33.5l-33.6-5.5l12.3,32.4c0.2,0.5-0.1,1.1-0.6,1.3c-0.5,0.2-1.1-0.1-1.3-0.6l-12.9-34
					c-0.1-0.3,0-0.7,0.2-1c0.2-0.3,0.6-0.4,0.9-0.4l35.4,5.8l22.7-27.7c0.2-0.3,0.6-0.4,0.9-0.4c0.4,0.1,0.6,0.3,0.8,0.6l12.9,34
					C149.2,182.1,149.2,182.4,149,182.7z M125.4,208.3l21.6-26.4L134.9,150l-21.6,26.4L125.4,208.3z"/>
			</g>
			<g>
				<path class="st2" d="M125.9,210.9c-0.2,0.3-0.6,0.5-1,0.4L89,205.4c-0.5-0.1-0.9-0.6-0.8-1.1c0.1-0.5,0.6-0.9,1.1-0.8l35.9,5.9
					c0.5,0.1,0.9,0.6,0.8,1.1C126.1,210.6,126,210.7,125.9,210.9z"/>
			</g>
		</g>
	</g>
	<g>
		<g>
			<g>
				<polygon class="st1" points="126.3,246 131.5,259 127.1,264.5 122.8,269.9 115.8,268.9 108.9,267.9 103.8,254.9 108.1,249.4 
					112.5,243.9 119.4,244.9 				"/>
			</g>
		</g>
		<g>
			<g>
				<path class="st2" d="M117.6,258c-0.2,0.1-0.3,0.1-0.5,0.1l-21.4-3.2c-0.4-0.1-0.7-0.3-0.8-0.6c-0.1-0.3-0.1-0.7,0.1-1l13.4-16.9
					c0.2-0.3,0.6-0.4,0.9-0.4l21.4,3.2c0.4,0.1,0.7,0.3,0.8,0.6c0.1,0.3,0.1,0.7-0.1,1L118,257.7C117.9,257.8,117.8,257.9,117.6,258
					z M97.7,253.2l19.1,2.8l12-15.1l-19.1-2.8L97.7,253.2z"/>
			</g>
			<g>
				<path class="st2" d="M125.5,278.1c0,0-0.1,0-0.1,0c-0.1,0-0.3,0-0.4,0c-0.1,0-0.3-0.1-0.4-0.1c-0.1-0.1-0.2-0.1-0.3-0.2
					c-0.1-0.1-0.1-0.2-0.1-0.2l-7.7-19.5l-19.1-2.8l7.3,18.5c0.2,0.5,0,1.1-0.6,1.3c0,0,0,0,0,0c-0.5,0.2-1.1,0-1.3-0.6l-7.9-20.1
					c-0.1-0.3-0.1-0.7,0.1-1c0.2-0.3,0.6-0.4,0.9-0.4l20.8,3.1l13.1-16.4c0.2-0.3,0.6-0.4,0.9-0.4c0.4,0.1,0.7,0.3,0.8,0.6l7.9,20.1
					c0.1,0.3,0.1,0.7-0.1,1l-13.4,16.9c-0.1,0.1-0.1,0.1-0.2,0.2C125.7,278,125.6,278.1,125.5,278.1z M118.4,257.2l7.1,17.9l12-15.1
					l-7.1-17.9L118.4,257.2z"/>
			</g>
			<g>
				<path class="st2" d="M125.5,278.1c-0.2,0.1-0.3,0.1-0.5,0.1l-21.4-3.2c-0.5-0.1-0.9-0.6-0.8-1.1c0.1-0.5,0.6-0.9,1.1-0.8
					l21.4,3.2c0.5,0.1,0.9,0.6,0.8,1.1C126.1,277.7,125.8,278,125.5,278.1z"/>
			</g>
		</g>
	</g>
	<path class="st2" d="M459.2,200.1c-0.8,5.8-2.7,11.5-5.5,16.5c-2.8,5.1-6.6,9.6-11.1,13.2c-8.8,7.4-20.4,11.2-31.6,10.5
		c-28.8,0.8-57.7,1.2-86.4,1.1c-14.4,0.1-28.8-0.1-43.2-0.2l-43.2-0.5c-3.5-0.1-7.4-0.2-11.1-0.7c-3.8-0.5-7.5-1.5-11.1-2.8
		c-7.2-2.6-13.8-6.6-19.4-11.8c-11.1-10.3-18-25.2-18.2-40.3c-0.2-7.5,1.1-15.1,3.9-22c2.8-7,6.9-13.3,12.1-18.5
		c10.4-10.5,25.1-16.6,39.6-16.2c2-11.3,7.4-22.1,15.5-30.6c4.1-4.2,8.7-8,13.8-10.9c5.1-3,10.7-5.1,16.5-6.4c11.5-2.8,24-2,35.3,2
		c10.6,3.8,20,10.6,27.1,19.3c7.9-2.9,16.5-4.2,24.9-3.6c4.6,0.2,9.1,1.1,13.6,2.3c4.4,1.4,8.7,3,12.7,5.3
		c8.1,4.4,15,10.8,20.4,18.2c5,6.9,8.5,15,10.3,23.3c10.9,2.9,20.6,9.8,27,19C457.9,176.2,460.9,188.5,459.2,200.1z"/>
	<g>
		<path class="st3" d="M300.4,147.6c7.1,0,12.8,5.7,12.9,12.8c0,0,0,0.1,0,0.1c0,7-5.8,12.7-12.9,12.7c-7.1,0-12.9-5.7-12.9-12.7
			C287.5,153.3,293.3,147.6,300.4,147.6C300.4,147.6,300.4,147.6,300.4,147.6z M300.4,168.9c4.7,0,8.3-4,8.3-8.5
			c0-4.7-3.7-8.6-8.3-8.6c-4.6,0-8.3,3.9-8.3,8.6C292.1,165,295.7,168.9,300.4,168.9L300.4,168.9z"/>
		<path class="st3" d="M315.1,154.2h4.1v2.2h0.1c1.4-1.8,3.7-2.9,6-2.8c6,0,9.3,5.2,9.3,9.8c0,5.4-4,9.9-9.3,9.9
			c-3.1,0-4.5-1.3-5.7-2.4v7.9h-4.4L315.1,154.2L315.1,154.2z M324.6,169.2c2.4,0,5.4-2,5.4-5.8c0-3.4-2.6-5.8-5.3-5.8
			s-5.4,2.2-5.4,5.8C319.2,167.5,322.5,169.2,324.6,169.2z"/>
		<path class="st3" d="M340.8,165.4c0.2,1.2,1.9,3.8,5.1,3.8c2,0,3.4-0.8,4.3-2.4h4.7c-1.1,3.3-4.6,6.4-8.9,6.4
			c-5.4,0-9.7-4.3-9.7-9.7c0-0.1,0-0.1,0-0.1c0-5.2,4-10,9.7-10c5.8,0,9.5,5,9.5,9.7c0,0.8-0.1,1.5-0.3,2.2L340.8,165.4z
			 M350.8,161.9c-0.5-3-2.8-4.3-5-4.3c-1.6,0-4.4,0.9-5.2,4.3H350.8z"/>
		<path class="st3" d="M357,154.2h4.1v1.6c0.7-0.7,2.3-2.2,5.1-2.2c1.6,0,4,0.7,5.5,2.6c1.7,2,1.7,5.1,1.7,6.5v10H369v-9.1
			c0-1.5,0-5.9-3.7-5.9c-1.2,0-2.3,0.6-3,1.6c-0.8,1.1-0.8,3.1-0.8,4.6v8.8H357V154.2z"/>
		<path class="st3" d="M290.5,181.3h5.2l10.2,17.9h0.1v-17.9h4.6v24.6h-5.1L295.1,188H295v17.9h-4.5L290.5,181.3L290.5,181.3z"/>
		<path class="st3" d="M317.9,198.6c0.2,1.2,1.9,3.8,5.1,3.8c2,0,3.4-0.8,4.3-2.4h4.7c-1.1,3.3-4.6,6.4-8.9,6.4
			c-5.4,0-9.7-4.3-9.7-9.7c0-0.1,0-0.1,0-0.1c0-5.2,4-10,9.7-10c5.8,0,9.6,5.1,9.6,9.7c0,0.8-0.1,1.5-0.3,2.2H317.9z M327.9,195.1
			c-0.5-3-2.8-4.3-5-4.3c-1.6,0-4.4,0.9-5.2,4.3H327.9z"/>
		<path class="st3" d="M335,181.3h4.4v7.8c1.6-1.5,3.6-2.3,5.7-2.3c5.6,0,9.3,4.9,9.3,9.8c0,3.7-2.4,9.9-9.2,9.9
			c-3.6,0-5.1-1.6-6.2-2.8v2.2H335L335,181.3z M344.7,202.4c2.9,0,5.3-2.2,5.3-5.8c0-3.6-2.6-5.7-5.4-5.7c-3.4,0-5.5,2.9-5.5,5.5
			C339.2,200.5,342.1,202.4,344.7,202.4L344.7,202.4z"/>
		<path class="st3" d="M373.4,187.4v18.5h-4V204h-0.1c-0.7,1-1.9,2.5-4.8,2.5c-3.4,0-5.2-1.7-6.2-2.9c-1.3-2-1.3-4.9-1.3-6.5v-9.6
			h4.4v9.4c0,1.5,0,5.6,3.9,5.6c2.8,0,3.7-2.6,3.7-5.5v-9.4L373.4,187.4L373.4,187.4z"/>
		<path class="st3" d="M377,181.3h4.4v24.6H377V181.3z"/>
		<path class="st3" d="M403.4,205.9h-4.1v-2.3c-1.4,1.7-4.1,2.9-6.4,2.9c-4.7,0-9-3.8-9-9.9c0-5.6,4.1-9.7,9.2-9.7
			c3.8,0,6,2.7,6.1,3h0.1v-2.3h4.1V205.9z M393.9,190.9c-3.6,0-5.5,3.1-5.5,5.9c0,3.1,2.3,5.7,5.5,5.7c3.1,0,5.4-2.4,5.4-5.8
			C399.2,192.8,396.5,190.9,393.9,190.9L393.9,190.9z"/>
		<path class="st3" d="M245.5,206.5h31.3c0.2,0,0.4-0.1,0.5-0.2l0,0c0.2-0.1,0.3-0.3,0.3-0.6l0,0v-29.1
			c-12.7,11.7-29,18.5-46.2,19.2C233.2,202.1,239,206.5,245.5,206.5z"/>
		<path class="st3" d="M276.8,147.5L276.8,147.5c-6.8,0.4-12.5,5.4-13.6,12.1l0,0c-0.1,0.4-0.4,0.6-0.7,0.6c-0.1,0-0.3,0-0.4-0.1
			l0,0l0,0l-0.1,0c-6.9-4.3-15.9-2.3-20.3,4.5c-2.4,3.7-2.9,8.4-1.5,12.6l0,0c0,0.1,0.1,0.2,0.1,0.2c0,0.3-0.2,0.6-0.5,0.7l0,0
			c-6.9,2.9-10.5,10.5-8.5,17.7c25.2-1.7,45.3-22.2,46.2-47.6C277.5,147.8,277.2,147.5,276.8,147.5z"/>
	</g>
	<g>
		<g>
			<path class="st4" d="M571.8,196.7L570,162c-0.1-1.8-1-3.5-2.5-4.6l-28.5-20.3c-0.8-0.6-1.8-1-2.7-1.1c-0.8-0.1-1.6,0-2.4,0.2
				l-33.8,9.4c-1.8,0.5-3.2,1.8-3.9,3.4l-13.5,32.1c-0.6,1.5-0.6,3.2,0,4.7c0.1,0.2,0.2,0.3,0.2,0.5l16.9,30.6
				c0.9,1.6,2.5,2.7,4.3,3l34.6,6.1c1.8,0.3,3.7-0.2,5.1-1.4l26.2-23C571.2,200.3,571.9,198.6,571.8,196.7z M559.9,194.4
				c-0.5,0.9-1.6,1.3-2.6,0.8l0,0c-0.1-0.1-0.3-0.1-0.5-0.2c-0.5-0.3-1.1-0.6-1.6-0.9c-1-0.6-2-1.1-3.1-1.5c-0.4-0.1-0.8,0-1.1,0.2
				l-0.8-0.3c-2.8,5.3-7.4,9.5-13.1,11.6c0,0.3,0.1,0.5,0.2,0.8c-0.3,0.3-0.4,0.7-0.4,1.1c0.3,1.1,0.7,2.2,1.2,3.2
				c0.3,0.5,0.5,1.1,0.7,1.7l0.2,0.5c0.2,0.7,0.1,1.4-0.4,2c-0.3,0.3-0.6,0.5-1,0.6c-1,0.2-2-0.5-2.2-1.5l-0.1-0.5
				c-0.1-0.6-0.2-1.2-0.2-1.8c-0.1-1.1-0.4-2.3-0.7-3.4c-0.2-0.3-0.5-0.6-0.9-0.7l-0.2-0.8c-5.9,1.1-12,0-17.2-3.1l-0.6,0.7
				c-0.3,0-0.6,0.1-0.9,0.3c-0.8,0.7-1.3,2-2,3.1c-0.2,0.5-0.5,1.1-0.8,1.6l-0.3,0.4c-0.4,0.6-1,1-1.8,0.9c-0.4,0-0.8-0.2-1.1-0.4
				c-0.8-0.7-0.9-1.9-0.2-2.7l0.3-0.5c0.4-0.5,0.8-0.9,1.3-1.3c0.8-0.8,1.6-1.8,2.2-2.8c0.1-0.4,0.1-0.7,0-1.1l0.5-0.7
				c-4.6-3.9-7.6-9.4-8.4-15.3l-0.9,0c-0.3-0.3-0.6-0.5-1-0.6c-1.1,0-2.3,0.1-3.4,0.4c-0.6,0.1-1.2,0.2-1.8,0.3l-0.5,0l0,0
				c-0.7,0.1-1.4-0.2-1.8-0.8c-0.2-0.3-0.3-0.7-0.3-1.1c0-1,0.9-1.9,2-1.8l0,0l0.5,0c0.6,0,1.2,0.1,1.8,0.2c1.1,0.1,2.3,0.1,3.4,0
				c0.4-0.1,0.7-0.4,0.9-0.7l0.8-0.1c0.2-6,2.6-11.8,6.7-16.1l-0.5-0.7c0-0.4,0-0.8-0.2-1.1c-0.7-0.9-1.6-1.7-2.5-2.5
				c-0.5-0.4-0.9-0.7-1.4-1.2l-0.3-0.4c-0.8-0.8-0.8-2.1,0-2.8c0.4-0.4,1-0.5,1.6-0.4c0.5,0.1,0.9,0.4,1.2,0.7l0.4,0.4
				c0.4,0.5,0.7,1,1,1.5c0.6,1,1.3,1.9,2.1,2.7c0.3,0.2,0.7,0.4,1.1,0.3l0.6,0.6c3.9-2.9,8.6-4.6,13.4-4.8c1.2-0.1,2.3,0,3.5,0.1
				l0.2-0.8c0.3-0.2,0.6-0.5,0.8-0.9c0.2-1.1,0.4-2.3,0.4-3.4c0-0.6,0-1.2,0.1-1.8l0.1-0.5c0.1-1.1,1.1-1.9,2.2-1.7l0,0
				c1.1,0.3,1.7,1.3,1.5,2.4l-0.1,0.6c-0.2,0.6-0.3,1.2-0.6,1.7c-0.4,1.1-0.6,2.2-0.8,3.3c0,0.4,0.2,0.8,0.5,1
				c0,0.1-0.1,0.6-0.1,0.8c5.8,1.6,10.8,5.2,14.2,10.2l0.8-0.4c0.4,0.1,0.8,0.2,1.2,0.1c1-0.5,2-1.2,2.8-1.9
				c0.5-0.4,0.9-0.7,1.5-1.1l0.5-0.3c0.6-0.4,1.4-0.5,2-0.1c0.4,0.2,0.7,0.6,0.8,1c0.4,1-0.1,2.1-1.1,2.5l-0.5,0.3
				c-0.6,0.2-1.1,0.5-1.7,0.6c-1.1,0.4-2.1,0.9-3.1,1.5c-0.3,0.2-0.5,0.6-0.5,1l-0.8,0.5c2.4,5.5,2.8,11.7,0.9,17.5l0.7,0.4
				c0.1,0.4,0.4,0.7,0.7,0.9c1,0.5,2.1,0.9,3.2,1.1c0.6,0.1,1.2,0.3,1.8,0.5l0.5,0.2c0.7,0.2,1.2,0.8,1.3,1.5
				C560.2,193.6,560.1,194.1,559.9,194.4z"/>
		</g>
		<path class="st4" d="M547.5,186.4l-8.9-4.4l0,0c-0.6-0.3-0.9-0.8-1-1.4c0-0.6,0.3-1.2,0.8-1.5l8.4-5.2
			C548.4,177.8,548.6,182.2,547.5,186.4z"/>
		<path class="st4" d="M544.5,169.6l-8.9,4.2c-0.6,0.3-1.2,0.3-1.8-0.1c-0.5-0.4-0.8-1-0.7-1.6l1.2-9.9
			C538.4,163.5,542,166.1,544.5,169.6z"/>
		<polygon class="st4" points="532,180.9 530.9,183.7 527.9,184.5 525.5,182.7 525.3,179.7 527.6,177.7 530.6,178.2 		"/>
		<path class="st4" d="M545.6,190.7c-2.1,3.8-5.5,6.7-9.5,8.4l-2.2-9.7c-0.2-0.9,0.4-1.8,1.3-2c0.2,0,0.4-0.1,0.6,0l0,0
			c0.1,0,0.3,0,0.4,0.1L545.6,190.7z"/>
		<path class="st4" d="M531.6,200.4l-2,0.2c-3.6,0.2-7.2-0.6-10.4-2.4l6.3-7.7c0.4-0.5,1-0.7,1.5-0.6l0-0.1c0.6,0.1,1.1,0.5,1.4,1.1
			l0,0L531.6,200.4z"/>
		<path class="st4" d="M520.6,187.1L520.6,187.1l-5.3,8.4c-3.2-2.9-5.3-6.8-6-11l9.9,0.1c0.1,0,0.2,0,0.3,0.1l0,0
			c0.6,0.1,1,0.5,1.2,1C521,186,520.9,186.6,520.6,187.1z"/>
		<path class="st4" d="M520.3,177.6c-0.2,0.6-0.8,1-1.4,1l0,0l-9.9,1.1c0.3-4.3,2-8.4,4.8-11.7l6.2,7.8l0,0
			C520.5,176.4,520.5,177,520.3,177.6z"/>
		<path class="st4" d="M529.6,161.5l-2.3,9.7l0,0c-0.1,0.6-0.6,1.1-1.2,1.2c-0.6,0.2-1.2,0-1.7-0.4l-7-7.1c3-2.1,6.5-3.2,10.1-3.4
			C528.2,161.4,528.9,161.4,529.6,161.5L529.6,161.5z"/>
	</g>
	<g>
		<polygon class="st5" points="420.1,248.3 424.2,249.1 424.2,249.2 		"/>
		<polygon class="st5" points="430.3,250.4 434.4,251.4 434.3,251.8 430.2,250.7 		"/>
		<polygon class="st5" points="440.4,253 444.5,254.1 444.3,254.8 440.3,253.5 		"/>
		<polygon class="st5" points="450.4,256 454.4,257.4 454.1,258.2 450.2,256.8 		"/>
		<polygon class="st5" points="460.3,259.7 464.1,261.3 463.6,262.4 459.8,260.6 		"/>
		<polygon class="st5" points="469.7,264.2 473.3,266.4 472.6,267.5 469.1,265.3 		"/>
		<path class="st5" d="M478.4,270.2c1.1,0.9,2.1,1.9,3,3l-1.2,1c-0.9-1-1.8-2-2.8-2.9L478.4,270.2z"/>
		<path class="st5" d="M484.9,278.7c0.5,1.4,0.9,2.8,1,4.3l-1.7,0.1c-0.1-1.3-0.3-2.6-0.8-3.8L484.9,278.7z"/>
		<path class="st5" d="M484.7,289.5c-0.6,1.3-1.4,2.6-2.2,3.8l-1.5-1.1c0.8-1.1,1.5-2.2,2.1-3.4L484.7,289.5z"/>
		<polygon class="st5" points="478,297.9 474.6,300.5 473.5,298.9 476.7,296.4 		"/>
		<polygon class="st5" points="469.3,303.9 465.5,305.9 464.6,304 468.2,302.1 		"/>
		<polygon class="st5" points="459.8,308.5 455.9,310.1 455.1,308 458.9,306.5 		"/>
		<polygon class="st5" points="450,312.3 446,313.7 445.3,311.4 449.2,310.1 		"/>
		<polygon class="st5" points="440,315.5 436,316.7 435.3,314.2 439.3,313.1 		"/>
		<polygon class="st5" points="429.9,318.2 425.8,319.2 425.2,316.6 429.3,315.7 		"/>
		<polygon class="st5" points="419.7,320.5 415.6,321.3 415.1,318.7 419.1,317.9 		"/>
		<polygon class="st5" points="409.4,322.5 405.3,323.2 404.8,320.5 408.9,319.8 		"/>
		<polygon class="st5" points="399.1,324.2 394.9,324.8 394.6,322 398.7,321.4 		"/>
		<polygon class="st5" points="388.7,325.6 384.6,326.1 384.2,323.3 388.4,322.8 		"/>
		<polygon class="st5" points="378.3,326.8 374.2,327.2 373.9,324.4 378,323.9 		"/>
		<polygon class="st5" points="367.9,327.8 363.8,328.1 363.5,325.2 367.7,324.9 		"/>
		<polygon class="st5" points="357.5,328.6 353.3,328.9 353.2,325.9 357.3,325.6 		"/>
		<polygon class="st5" points="347.1,329.2 342.9,329.4 342.8,326.3 346.9,326.2 		"/>
		<polygon class="st5" points="336.6,329.6 332.4,329.7 332.4,326.6 336.5,326.5 		"/>
		<polygon class="st5" points="326.2,329.8 322,329.9 322,326.8 326.1,326.7 		"/>
		<polygon class="st5" points="315.7,329.9 311.5,329.9 311.6,326.8 315.7,326.8 		"/>
		<polygon class="st5" points="305.3,329.7 301.1,329.6 301.2,326.6 305.3,326.7 		"/>
		<polygon class="st5" points="294.8,329.4 290.6,329.2 290.8,326.2 294.9,326.4 		"/>
		<polygon class="st5" points="284.4,328.9 280.2,328.6 280.4,325.7 284.5,325.9 		"/>
		<polygon class="st5" points="273.9,328.2 269.8,327.9 270,325 274.1,325.3 		"/>
		<polygon class="st5" points="263.5,327.3 259.4,326.9 259.6,324.1 263.8,324.5 		"/>
		<polygon class="st5" points="253.1,326.2 249,325.7 249.3,322.9 253.4,323.4 		"/>
		<polygon class="st5" points="242.7,324.9 238.6,324.3 239,321.6 243.1,322.2 		"/>
		<polygon class="st5" points="232.4,323.4 228.3,322.7 228.7,320 232.8,320.6 		"/>
		<polygon class="st5" points="222.1,321.5 218,320.7 218.5,318.1 222.6,318.9 		"/>
		<polygon class="st5" points="211.8,319.4 207.7,318.4 208.3,315.9 212.4,316.8 		"/>
		<polygon class="st5" points="201.7,316.9 197.6,315.8 198.3,313.4 202.3,314.5 		"/>
		<polygon class="st5" points="191.6,314 187.6,312.6 188.3,310.4 192.3,311.7 		"/>
		<polygon class="st5" points="181.7,310.5 177.8,308.9 178.6,306.9 182.5,308.4 		"/>
		<polygon class="st5" points="172,306.3 168.3,304.4 169.2,302.6 172.9,304.4 		"/>
		<polygon class="st5" points="162.8,301 159.4,298.5 160.6,297 163.9,299.4 		"/>
		<path class="st5" d="M154.8,294c-0.9-1.1-1.7-2.3-2.4-3.6l1.5-0.8c0.6,1.2,1.4,2.3,2.3,3.3L154.8,294z"/>
		<path class="st5" d="M150.7,284c0-1.5,0.2-3,0.7-4.4l1.5,0.5c-0.4,1.3-0.6,2.6-0.5,3.8L150.7,284z"/>
		<path class="st5" d="M154.6,274c0.9-1.1,1.9-2.1,2.9-3.1l1,1c-1,0.9-1.9,1.9-2.7,3L154.6,274z"/>
		<polygon class="st5" points="162.5,267 166.1,264.7 166.7,265.7 163.2,268 		"/>
		<polygon class="st5" points="171.7,261.8 175.5,260.1 175.9,261 172.1,262.7 		"/>
		<polygon class="st5" points="181.3,257.8 185.3,256.4 185.5,257 181.6,258.5 		"/>
		<polygon class="st5" points="191.2,254.5 195.2,253.3 195.4,253.8 191.4,255 		"/>
		<polygon class="st5" points="201.3,251.7 205.4,250.7 205.4,250.9 201.4,252 		"/>
	</g>
	<g>
		<g>
			<path class="st2" d="M420,83c0,0.7,0.3,1.4,0.9,1.8c1,0.8,2.4,0.6,3.2-0.4l12.4-16.2c0.8-1,0.6-2.4-0.4-3.2
				c-1-0.8-2.4-0.6-3.2,0.4l-12.4,16.2C420.2,82.1,420,82.6,420,83z"/>
		</g>
		<g>
			<path class="st2" d="M427.6,103.5c0,1.1,0.8,2.1,2,2.3l20.2,2.7c1.3,0.2,2.4-0.7,2.6-2c0.2-1.2-0.7-2.4-2-2.6l-20.2-2.7
				c-1.3-0.2-2.4,0.7-2.6,2C427.6,103.3,427.6,103.4,427.6,103.5z"/>
		</g>
		<g>
			<path class="st2" d="M393.7,61.7c0,0.3,0.1,0.6,0.2,0.9l7.5,18.1c0.5,1.2,1.8,1.7,3,1.2c1.2-0.5,1.7-1.8,1.2-3l-7.5-18.1
				c-0.5-1.2-1.8-1.7-3-1.2C394.2,60,393.7,60.8,393.7,61.7z"/>
		</g>
	</g>
	<linearGradient id="SVGID_2_" gradientUnits="userSpaceOnUse" x1="267.0461" y1="314.2238" x2="369.5617" y2="314.2238">
		<stop  offset="5.327789e-07" style="stop-color:#005675"/>
		<stop  offset="1" style="stop-color:#007099"/>
	</linearGradient>
	<circle class="st6" cx="318.3" cy="314.2" r="51.3"/>
	<g>
		<g>
			<path class="st2" d="M336.5,334.1h-36.2c-3.4,0-6.1-2.7-6.1-6.1v-5.1c0-0.8,0.7-1.5,1.5-1.5s1.5,0.7,1.5,1.5v5.1
				c0,1.7,1.4,3.1,3.1,3.1h36.2c1.6,0,2.8-1.3,2.8-2.8v-5.4c0-0.8,0.7-1.5,1.5-1.5s1.5,0.7,1.5,1.5v5.4
				C342.4,331.5,339.7,334.1,336.5,334.1z"/>
		</g>
		<g>
			<g>
				<path class="st2" d="M318.3,323.3c-0.8,0-1.5-0.7-1.5-1.5v-26c0-0.8,0.7-1.5,1.5-1.5s1.5,0.7,1.5,1.5v26
					C319.8,322.6,319.1,323.3,318.3,323.3z"/>
			</g>
			<g>
				<path class="st2" d="M318.3,323.3c-0.4,0-0.8-0.1-1.1-0.4l-12.3-12.3c-0.6-0.6-0.6-1.5,0-2.1s1.5-0.6,2.1,0l12.3,12.3
					c0.6,0.6,0.6,1.5,0,2.1C319.1,323.2,318.7,323.3,318.3,323.3z"/>
			</g>
			<g>
				<path class="st2" d="M318.3,323.3c-0.4,0-0.8-0.1-1.1-0.4c-0.6-0.6-0.6-1.5,0-2.1l12.3-12.3c0.6-0.6,1.5-0.6,2.1,0
					s0.6,1.5,0,2.1l-12.3,12.3C319.1,323.2,318.7,323.3,318.3,323.3z"/>
			</g>
		</g>
	</g>
	<g>
		<g>
			<path class="st4" d="M527.6,285.4l-9.3-23.7c-0.5-1.3-1.5-2.2-2.8-2.6l-24.5-7.5c-0.7-0.2-1.4-0.3-2.2-0.1
				c-0.6,0.1-1.1,0.4-1.6,0.7l-21.3,14.3c-1.1,0.8-1.8,2-1.9,3.3l-2,25.4c-0.1,1.2,0.3,2.4,1.1,3.3c0.1,0.1,0.2,0.2,0.3,0.3
				l18.8,17.3c1,0.9,2.3,1.3,3.7,1.1l25.4-3.8c1.3-0.2,2.5-1,3.2-2.1l12.9-22C528,288,528.1,286.6,527.6,285.4z M518.8,286.5
				c-0.1,0.8-0.8,1.3-1.6,1.1l0,0c-0.1,0-0.3,0-0.4,0c-0.4-0.1-0.9-0.2-1.3-0.3c-0.8-0.2-1.7-0.3-2.5-0.4c-0.3,0-0.5,0.2-0.7,0.4
				l-0.6,0c-0.7,4.3-3,8.3-6.4,11.1c0.1,0.2,0.2,0.3,0.3,0.5c-0.1,0.3-0.1,0.6,0,0.8c0.5,0.7,1,1.4,1.5,2c0.3,0.3,0.6,0.6,0.9,1
				l0.2,0.4c0.3,0.4,0.4,1,0.2,1.4c-0.1,0.3-0.3,0.5-0.6,0.6c-0.7,0.4-1.5,0.1-1.9-0.5l-0.2-0.3c-0.2-0.4-0.4-0.8-0.6-1.2
				c-0.4-0.8-0.8-1.5-1.3-2.2c-0.2-0.2-0.5-0.3-0.8-0.3l-0.4-0.5c-3.8,2.1-8.3,2.8-12.6,1.8l-0.2,0.6c-0.2,0.1-0.4,0.2-0.5,0.4
				c-0.4,0.7-0.5,1.7-0.7,2.6c0,0.4-0.1,0.9-0.2,1.3l-0.1,0.4c-0.1,0.5-0.5,0.9-1,1.1c-0.3,0.1-0.6,0.1-0.9,0
				c-0.7-0.3-1.1-1.1-0.8-1.8l0.1-0.4c0.2-0.4,0.4-0.8,0.6-1.2c0.4-0.8,0.7-1.6,0.9-2.4c0-0.3-0.1-0.5-0.2-0.8l0.2-0.6
				c-4.1-1.7-7.4-4.8-9.4-8.7l-0.6,0.2c-0.3-0.1-0.5-0.2-0.8-0.2c-0.8,0.3-1.6,0.6-2.3,1c-0.4,0.2-0.8,0.4-1.2,0.6l-0.4,0.1h0
				c-0.5,0.2-1,0.2-1.5-0.1c-0.2-0.2-0.4-0.4-0.5-0.7c-0.2-0.7,0.2-1.5,0.9-1.7h0l0.3-0.1c0.4-0.1,0.9-0.2,1.3-0.3
				c0.8-0.2,1.6-0.4,2.4-0.8c0.2-0.2,0.4-0.4,0.5-0.7l0.5-0.3c-1.3-4.2-0.9-8.8,1-12.8l-0.5-0.3c-0.1-0.3-0.2-0.5-0.4-0.8
				c-0.7-0.5-1.5-0.8-2.3-1.1c-0.4-0.1-0.8-0.3-1.2-0.5l-0.3-0.2c-0.7-0.4-1-1.3-0.6-2c0.2-0.4,0.6-0.6,1-0.7c0.3,0,0.7,0,1,0.2
				l0.3,0.2c0.4,0.3,0.7,0.5,1,0.8c0.7,0.5,1.4,1,2.1,1.4c0.3,0.1,0.6,0.1,0.8,0l0.5,0.3c2-2.9,4.9-5.2,8.2-6.4
				c0.8-0.3,1.6-0.6,2.4-0.8l-0.1-0.6c0.2-0.2,0.3-0.5,0.3-0.8c-0.1-0.8-0.3-1.7-0.5-2.5c-0.2-0.4-0.3-0.8-0.4-1.3l-0.1-0.4
				c-0.2-0.8,0.3-1.5,1.1-1.7l0,0c0.8-0.1,1.5,0.5,1.6,1.3l0.1,0.4c0,0.4,0,0.9,0,1.3c0,0.8,0.1,1.7,0.2,2.5
				c0.1,0.3,0.3,0.5,0.5,0.6c0,0.1,0.1,0.4,0.1,0.6c4.4-0.3,8.7,1.1,12.2,3.8l0.5-0.5c0.3,0,0.6-0.1,0.8-0.2c0.6-0.6,1.1-1.3,1.5-2
				c0.2-0.4,0.5-0.7,0.8-1.1l0.3-0.3c0.3-0.4,0.8-0.6,1.4-0.5c0.3,0.1,0.6,0.2,0.8,0.5c0.5,0.6,0.4,1.5-0.2,2l-0.3,0.3
				c-0.3,0.3-0.7,0.6-1,0.8c-0.7,0.5-1.3,1.1-1.8,1.7c-0.2,0.2-0.2,0.5-0.2,0.8l-0.4,0.5c3,3.3,4.6,7.5,4.7,11.9l0.6,0.1
				c0.2,0.2,0.4,0.4,0.7,0.5c0.8,0.1,1.7,0.1,2.5,0c0.4-0.1,0.9-0.1,1.3-0.1l0.4,0c0.5,0,1,0.3,1.3,0.8
				C518.8,285.9,518.8,286.3,518.8,286.5z"/>
			<path class="st7" d="M518.6,285.7c-0.2-0.5-0.7-0.8-1.3-0.8l-0.4,0c-0.4,0-0.9,0-1.3,0.1c-0.8,0.1-1.7,0.1-2.5,0
				c-0.3-0.1-0.5-0.3-0.7-0.5l-0.6-0.1c0-4.4-1.7-8.7-4.7-11.9l0.4-0.5c-0.1-0.3,0-0.6,0.2-0.8c0.6-0.6,1.2-1.2,1.8-1.7
				c0.4-0.3,0.7-0.5,1-0.8l0.3-0.3c0.6-0.5,0.7-1.4,0.2-2c-0.2-0.2-0.5-0.4-0.8-0.5c-0.5-0.1-1.1,0.1-1.4,0.5l-0.3,0.3
				c-0.3,0.4-0.5,0.7-0.8,1.1c-0.5,0.7-1,1.4-1.5,2c-0.3,0.2-0.5,0.2-0.8,0.2l-0.5,0.5c-3.5-2.7-7.8-4.1-12.2-3.8
				c0-0.2-0.1-0.5-0.1-0.6c-0.3-0.1-0.4-0.3-0.5-0.6c-0.2-0.8-0.2-1.7-0.2-2.5c0-0.4,0-0.9,0-1.3l-0.1-0.4c-0.1-0.8-0.8-1.4-1.6-1.3
				l0,0c-0.8,0.2-1.3,0.9-1.1,1.7l0.1,0.4c0.1,0.4,0.2,0.9,0.4,1.3c0.3,0.8,0.4,1.6,0.5,2.5c0,0.3-0.2,0.5-0.3,0.8l0.1,0.6
				c-0.8,0.2-1.6,0.4-2.4,0.8c-3.3,1.3-6.2,3.5-8.2,6.4l-0.5-0.3c-0.3,0.1-0.5,0.1-0.8,0c-0.7-0.4-1.4-0.9-2.1-1.4
				c-0.3-0.3-0.7-0.6-1-0.8l-0.3-0.2c-0.3-0.2-0.7-0.3-1-0.2c-0.4,0-0.8,0.3-1,0.7c-0.4,0.7-0.1,1.6,0.6,2l0.3,0.2
				c0.4,0.2,0.8,0.4,1.2,0.5c0.8,0.3,1.6,0.7,2.3,1.1c0.2,0.2,0.3,0.5,0.4,0.8l0.5,0.3c-1.9,4-2.2,8.5-1,12.8l-0.5,0.3
				c-0.1,0.3-0.3,0.5-0.5,0.7c-0.8,0.3-1.6,0.6-2.4,0.8c-0.4,0.1-0.9,0.2-1.3,0.3l-0.3,0.1h0c-0.7,0.2-1.2,1-0.9,1.7
				c0.1,0.3,0.3,0.5,0.5,0.7c0.4,0.3,1,0.4,1.5,0.1h0l0.4-0.1c0.4-0.2,0.8-0.4,1.2-0.6c0.7-0.4,1.5-0.8,2.3-1c0.3,0,0.6,0,0.8,0.2
				l0.6-0.2c1.9,4,5.3,7,9.4,8.7l-0.2,0.6c0.1,0.2,0.2,0.5,0.2,0.8c-0.2,0.8-0.5,1.7-0.9,2.4c-0.2,0.4-0.4,0.8-0.6,1.2l-0.1,0.4
				c-0.3,0.7,0.1,1.5,0.8,1.8c0.3,0.1,0.6,0.1,0.9,0c0.5-0.1,0.9-0.5,1-1.1l0.1-0.4c0.1-0.4,0.2-0.9,0.2-1.3c0.2-1,0.3-1.9,0.7-2.6
				c0.1-0.2,0.3-0.3,0.5-0.4l0.2-0.6c4.3,1,8.8,0.3,12.6-1.8l0.4,0.5c0.3,0,0.6,0.1,0.8,0.3c0.5,0.7,0.9,1.4,1.3,2.2
				c0.2,0.4,0.4,0.8,0.6,1.2l0.2,0.3c0.4,0.7,1.2,0.9,1.9,0.5c0.3-0.2,0.5-0.4,0.6-0.6c0.2-0.5,0.1-1-0.2-1.4l-0.2-0.4
				c-0.3-0.3-0.6-0.7-0.9-1c-0.6-0.6-1.1-1.3-1.5-2c-0.1-0.3-0.1-0.6,0-0.8c-0.1-0.2-0.2-0.3-0.3-0.5c3.4-2.8,5.7-6.7,6.4-11.1
				l0.6,0c0.2-0.2,0.4-0.4,0.7-0.4c0.8,0,1.7,0.2,2.5,0.4c0.4,0.1,0.9,0.2,1.3,0.3c0.1,0,0.3,0,0.4,0l0,0c0.8,0.1,1.5-0.4,1.6-1.1
				C518.8,286.3,518.8,285.9,518.6,285.7z M480.7,278.8l6.1,4v0c0.4,0.2,0.6,0.7,0.6,1.1c0,0.5-0.3,0.8-0.7,1v0l-6.6,3
				C479.2,285,479.4,281.7,480.7,278.8z M489.8,290.5l-1.8,7c-2.9-1.3-5.2-3.5-6.7-6.3l6.9-2.3c0.1,0,0.2,0,0.2,0l0,0
				c0.4-0.1,0.8,0.1,1.1,0.4C489.8,289.7,489.9,290.1,489.8,290.5L489.8,290.5z M490.7,277.9c0,0.5-0.2,0.9-0.5,1.1
				c-0.4,0.3-0.9,0.3-1.3,0.1l-6.5-3.3c1.6-2.1,3.8-3.7,6.3-4.7c0.5-0.2,0.9-0.3,1.4-0.5h0L490.7,277.9L490.7,277.9z M502.3,272.9
				l-5.2,5c-0.3,0.3-0.8,0.5-1.3,0.3c-0.4-0.1-0.8-0.5-0.8-1l-1.5-7.1C496.7,270.1,499.8,271,502.3,272.9z M492.5,282.4l2.2-0.3
				l1.6,1.5l-0.2,2.2l-1.8,1.3l-2.1-0.7l-0.8-2.1L492.5,282.4z M499.1,297.8c-2.5,1-5.2,1.2-7.8,0.7l2.6-6.8
				c0.2-0.4,0.5-0.7,0.9-0.8l0,0c0.5-0.1,0.9,0.1,1.2,0.5h0l4.4,5.8L499.1,297.8z M503.3,295.3l-3.8-6.3c-0.3-0.6-0.2-1.3,0.4-1.7
				c0.1-0.1,0.3-0.1,0.4-0.1v0c0.1,0,0.2,0,0.3,0l7.3,0.1C507.4,290.4,505.7,293.2,503.3,295.3z M501,282.9L501,282.9
				c-0.4-0.1-0.8-0.4-1-0.8c-0.2-0.4-0.1-0.9,0.2-1.2l4.6-5.6c2,2.4,3.2,5.4,3.4,8.6L501,282.9z"/>
		</g>
		<path class="st4" d="M501,282.9L501,282.9c-0.4-0.1-0.8-0.4-1-0.8c-0.2-0.4-0.1-0.9,0.2-1.2l4.6-5.6c2,2.4,3.2,5.4,3.4,8.6
			L501,282.9z"/>
		<path class="st4" d="M502.3,272.9l-5.2,5c-0.3,0.3-0.8,0.5-1.3,0.3c-0.4-0.1-0.8-0.5-0.8-1l-1.5-7.1
			C496.7,270.1,499.8,271,502.3,272.9z"/>
		<polygon class="st4" points="496.3,283.6 496.1,285.8 494.3,287 492.1,286.4 491.3,284.3 492.5,282.4 494.7,282.1 		"/>
		<path class="st4" d="M508,287.3c-0.6,3.1-2.2,5.9-4.6,8l-3.8-6.3c-0.3-0.6-0.2-1.3,0.4-1.7c0.1-0.1,0.3-0.1,0.4-0.1v0
			c0.1,0,0.2,0,0.3,0L508,287.3z"/>
		<path class="st4" d="M500.5,297.2l-1.3,0.6c-2.5,1-5.2,1.2-7.8,0.7l2.6-6.8c0.2-0.4,0.5-0.7,0.9-0.8l0,0c0.5-0.1,0.9,0.1,1.2,0.5
			h0L500.5,297.2z"/>
		<path class="st4" d="M489.8,290.5L489.8,290.5l-1.8,7c-2.9-1.3-5.2-3.5-6.7-6.3l6.9-2.3c0.1,0,0.2,0,0.2,0l0,0
			c0.4-0.1,0.8,0.1,1.1,0.4C489.8,289.7,489.9,290.1,489.8,290.5z"/>
		<path class="st4" d="M487.4,284c0,0.5-0.3,0.8-0.7,1v0l-6.6,3c-0.8-3.1-0.6-6.3,0.7-9.2l6.1,4v0
			C487.2,283.1,487.4,283.5,487.4,284z"/>
		<path class="st4" d="M490.7,277.9L490.7,277.9c0,0.5-0.2,0.9-0.6,1.1c-0.4,0.3-0.9,0.3-1.3,0.1l-6.5-3.3c1.6-2.1,3.8-3.7,6.3-4.7
			c0.5-0.2,0.9-0.3,1.4-0.5h0L490.7,277.9z"/>
	</g>
</g>
</svg>
