<svg width="162" height="162" viewBox="0 0 162 162" fill="none" xmlns="http://www.w3.org/2000/svg">
<g clip-path="url(#clip0_751_2086)">
<mask id="mask0_751_2086" style="mask-type:luminance" maskUnits="userSpaceOnUse" x="0" y="0" width="162" height="162">
<path d="M162 0H0V162H162V0Z" fill="white"/>
</mask>
<g mask="url(#mask0_751_2086)">
<mask id="mask1_751_2086" style="mask-type:luminance" maskUnits="userSpaceOnUse" x="0" y="0" width="162" height="162">
<path d="M162 0H0V162H162V0Z" fill="white"/>
</mask>
<g mask="url(#mask1_751_2086)">
<path d="M52.1273 11.9474C52.2162 11.9212 52.3151 11.9536 52.425 11.9704C52.6769 12.6628 53.1246 15.9768 53.2623 16.8702L54.8728 27.3129L57.4052 43.3736C57.8271 45.9311 58.498 49.0752 58.7951 51.5757C54.1294 52.7707 47.4203 54.1386 43.0855 56.0326C32.8581 60.5014 22.6556 67.9248 14.6854 75.5155C13.4925 76.6514 11.2492 78.6855 10.2921 79.86L9.92465 78.7036C7.56661 69.2513 5.46931 59.741 3.6351 50.182C3.05009 47.1128 1.82465 41.1932 1.85 38.2372C1.98355 38.0456 2.12219 37.8573 2.26556 37.6724C4.25204 35.0882 7.39715 32.7604 10.012 30.856C19.7482 23.7653 30.3116 18.8207 41.828 14.977C45.2897 13.8217 48.4179 12.489 52.1273 11.9474Z" fill="#58D2FF"/>
<path d="M52.5079 18.7295C52.7569 18.9345 53.3015 23.0276 53.4024 23.6687C54.3809 29.8934 55.4264 36.1085 56.5386 42.3127C57.0439 45.1093 57.5165 48.0441 58.1198 50.8071C51.6333 52.3537 44.2489 54.1882 38.4024 57.3324C28.813 62.4892 19.2789 69.0293 11.9048 76.8901C11.5769 77.2393 10.9381 78.1889 10.4786 78.1942L10.3919 77.8058C8.35087 69.6167 7.05661 60.9898 5.29274 52.7259C4.70339 49.9647 4.15192 46.9461 3.76953 44.1528C8.12228 40.4747 10.5219 39.0993 14.9222 35.9559C27.5342 26.9465 37.0558 22.0093 52.5079 18.7295Z" fill="#40435C"/>
<path d="M17.3795 38.5713C17.7056 38.8162 18.6818 43.7605 18.9335 44.6356C16.4074 46.4157 11.5908 50.19 9.091 51.5351L8.88577 51.6175C8.32861 50.0918 7.85786 47.581 7.68359 45.9596C8.36165 45.1922 10.1705 43.9224 11.0504 43.2602C13.1418 41.6867 15.3022 40.1632 17.3795 38.5713Z" fill="#58D2FF"/>
<path d="M17.1062 39.2783C17.1157 39.2819 17.1262 39.2835 17.1344 39.2893C17.4988 39.5486 18.1544 43.779 18.4283 44.5981C15.1768 46.8177 12.4402 48.7246 9.33108 51.1184C8.75936 50.569 8.1941 46.8647 8.03906 45.9748C8.39635 45.6813 8.79101 45.4266 9.17206 45.1623C11.8826 43.2814 14.4638 41.2446 17.1062 39.2783Z" fill="#40435C"/>
<path d="M19.7993 46.9053C19.9627 47.9157 20.1243 49.1221 20.3676 50.1027L20.4749 50.2328C20.4251 50.6597 20.914 52.5555 21.0465 53.1192C18.4068 54.9274 13.5023 58.8216 11.0019 60.0905C10.5084 58.2222 10.1386 56.2558 9.75977 54.3576C11.2496 53.1349 13.2125 51.858 14.8038 50.6182C14.6263 50.0274 14.2878 49.0754 14.3895 48.4898L14.5901 48.83L14.3806 48.5532L14.3835 48.6938C14.832 49.094 14.8901 49.8444 15.0445 50.4886C16.6054 49.265 18.1906 48.0705 19.7993 46.9053Z" fill="#58D2FF"/>
<path d="M19.3688 47.6113C19.6522 47.8325 19.787 49.5854 19.904 50.1038C20.1316 51.1111 20.2931 52.1122 20.5649 53.1213C17.1474 55.4279 14.6178 57.2685 11.3545 59.7872C11.1602 59.4208 10.3563 55.3688 10.082 54.4612C12.2321 53.2181 17.392 49.2977 19.3688 47.6113Z" fill="#40435C"/>
<path d="M44.6132 45.8857L44.786 45.9719C45.224 47.1203 45.5669 48.5403 45.8879 49.7424C44.4047 50.5605 39.7912 52.6465 38.2743 53.1178C37.6873 52.5755 37.1547 50.0236 37.002 49.2074C38.9065 48.0181 42.4238 46.6842 44.6132 45.8857Z" fill="#58D2FF"/>
<path d="M44.3972 46.3164L44.6201 46.4119C44.9374 47.0882 45.2708 48.7359 45.6046 49.6631C43.855 50.3845 40.0066 51.9445 38.5625 52.8645L38.4517 52.8379C38.0429 52.4481 37.4824 50.0157 37.2988 49.3296L44.3972 46.3164Z" fill="#40435C"/>
<path d="M41.0437 35.7177C41.265 35.7059 41.1519 35.6948 41.3903 35.8711C41.6786 36.5162 42.4479 38.9209 42.2501 39.5152C41.3885 40.1696 36.027 42.4349 34.9182 42.6364L34.8141 42.6946L34.6501 42.626C34.2218 41.6972 33.5583 40.1405 33.7203 39.1137C34.4257 38.2095 39.7309 36.2265 41.0437 35.7177Z" fill="#58D2FF"/>
<path d="M40.8756 36.0859C41.4439 36.2595 41.6861 38.296 42.2905 39.3853C41.0161 39.8258 36.2272 41.8383 35.165 42.4642C34.5479 41.9741 34.1256 39.9856 33.8418 39.0594C36.2021 38.1027 38.547 37.1115 40.8756 36.0859Z" fill="#40435C"/>
<path d="M42.8101 40.623L43.0397 40.6349C43.4718 41.0827 43.878 43.7927 43.9833 44.5439C42.4377 45.4395 39.2446 46.7418 37.476 47.3463C38.0503 46.7955 42.7515 44.7563 43.7899 44.2877C43.3724 43.384 43.0902 41.8781 42.9533 40.9L41.504 41.4985C39.4524 42.3368 37.4062 43.1868 35.3651 44.0485C35.6784 44.7636 36.4503 46.929 36.3917 47.6266C35.8595 46.6987 35.4274 44.9067 35.1602 43.8478C36.9871 42.7685 40.7752 41.3786 42.8101 40.623Z" fill="#58D2FF"/>
<path d="M29.8106 41.3181C28.3183 42.1951 25.1698 44.5696 23.8262 45.0494L23.8323 44.951C25.7973 43.5242 27.8131 42.1629 29.876 40.8691C30.1374 41.5661 30.3298 42.3286 30.5275 43.0485L30.5022 43.2584L31.0329 45.1767C29.3068 46.4041 26.5898 48.0708 24.7514 49.1619L24.7407 49.1086C26.0317 47.9669 29.1359 46.0803 30.6779 45.1991C30.1941 43.8742 29.9908 42.705 29.8106 41.3181Z" fill="#58D2FF"/>
<path d="M51.6086 32.1377C51.943 32.876 51.8506 34.924 51.8322 35.8145C49.8325 36.7795 48.9479 37.0961 46.852 37.7296L46.8477 37.6592C48.4022 36.9682 49.9742 36.4508 51.5504 35.7932C51.5315 34.6268 51.4739 33.2846 51.6086 32.1377Z" fill="#58D2FF"/>
<path d="M43.6031 25.8984L43.7806 26.0929C43.661 27.356 43.3678 30.4919 43.0537 31.6019L42.9347 31.5089C42.6389 30.982 43.3696 26.7 43.6031 25.8984Z" fill="#58D2FF"/>
<path d="M44.7344 34.2527C45.4094 33.7948 50.6443 31.8998 51.4101 31.9978L51.6083 32.1376C50.7228 32.2338 45.6127 34.0238 44.7628 34.4542L44.7344 34.2527Z" fill="#58D2FF"/>
<path d="M39.803 28.5508C39.9774 29.5136 38.759 30.4521 38.6263 31.0136L38.7771 31.2153C39.7412 31.6156 40.4619 31.0849 41.1662 31.8291C40.3926 31.7893 38.6454 31.8795 38.293 31.22C38.3658 30.6172 39.412 29.1582 39.803 28.5508Z" fill="#58D2FF"/>
<path d="M24.2546 47.574C24.1445 46.9995 24.0537 46.4915 23.8871 45.9282L23.9537 45.8574C24.3448 46.2638 24.658 47.6546 24.4561 48.1649C24.183 48.1096 24.2602 48.1158 24.0091 47.9505C23.3185 48.2192 21.4284 50.0146 20.4725 50.2319L20.3652 50.1018C21.5575 49.3251 23.0516 48.2807 24.2546 47.574Z" fill="#58D2FF"/>
<path d="M45.6055 26.7852C46.03 26.8017 47.4014 27.2228 47.8826 27.3581C47.773 28.4792 47.5039 29.2215 47.1748 30.2905L47.025 30.0694C47.1543 29.0931 47.374 28.5349 47.6943 27.612C46.9171 27.4462 46.241 27.2671 45.6055 26.7852Z" fill="#58D2FF"/>
<path d="M44.6068 34.8633L44.7501 34.9926C44.862 35.5855 45.3897 37.809 45.2671 38.2635L45.0571 38.1971C44.9615 37.8252 44.7891 37.0142 44.5919 36.6934C44.5179 36.573 44.1954 36.5795 44.002 36.5561L44.0336 36.4104C44.8275 36.1335 44.604 35.6282 44.6068 34.8633Z" fill="#58D2FF"/>
<path d="M30.5273 43.0484C31.5491 42.4173 32.2542 41.9546 33.3765 41.4893L33.4321 41.5332C32.687 42.0468 31.3491 42.9121 30.502 43.2583L30.5273 43.0484Z" fill="#58D2FF"/>
<path d="M36.5941 18.4631L37.1909 18.4375C37.4067 18.5128 37.4593 18.5326 37.6179 18.6931C39.5246 20.485 37.0623 21.2867 35.5902 21.9343C26.5862 25.8956 18.5506 30.9577 10.5644 36.5318C10.1631 36.6774 10.1364 36.7055 9.73552 36.6202C9.42345 36.3695 9.18045 36.1218 9.03386 35.7497C8.83772 35.2517 8.95782 34.7064 9.19402 34.2414C11.0151 30.6563 31.9755 19.8904 36.5941 18.4631Z" fill="#40435C"/>
<path d="M46.4551 16.1004C46.9698 15.9954 47.4766 16.3075 47.5911 16.7998C47.7057 17.2922 47.3852 17.7812 46.8729 17.8959C46.3534 18.0122 45.8347 17.6997 45.7185 17.2004C45.6024 16.7012 45.9334 16.2069 46.4551 16.1004Z" fill="#40435C"/>
<path d="M43.2005 16.9583C43.5346 16.8356 43.9122 16.9015 44.1798 17.1291C44.4475 17.3567 44.5608 17.7083 44.4737 18.0409C44.3867 18.3737 44.1138 18.6322 43.7657 18.7118C43.2743 18.8242 42.7762 18.5516 42.627 18.0887C42.4778 17.6259 42.7286 17.1315 43.2005 16.9583Z" fill="#40435C"/>
<path d="M49.2283 15.273C49.7153 15.1328 50.2306 15.3855 50.3976 15.8458C50.564 16.3063 50.3225 16.8108 49.85 16.9899C49.5257 17.1125 49.1575 17.0551 48.8909 16.8401C48.6242 16.6251 48.5019 16.2873 48.5723 15.9601C48.6428 15.633 48.8947 15.3691 49.2283 15.273Z" fill="#40435C"/>
<path d="M15.2852 107.747C15.843 108.024 19.6045 111.971 20.3844 112.74C22.0484 114.373 23.7339 115.986 25.4405 117.578C30.0252 121.811 38.1801 127.876 43.8108 130.461C49.2559 132.962 60.0457 134.911 66.1227 135.37C74.4747 136.004 84.5182 133.729 92.9094 132.752C92.8721 135.884 92.6912 138.869 92.5869 141.977C92.399 147.48 92.3026 152.986 92.2976 158.491L92.2922 160.155C90.6543 160.291 88.8738 160.633 87.1529 160.87C66.9442 164.128 38.2429 159.7 25.6098 142.611C21.8083 137.469 16.573 114.229 15.2852 107.747Z" fill="#58D2FF"/>
<path d="M19.1934 120.244C19.5939 120.48 22.1144 123.465 22.7514 124.069C26.7726 127.879 31.3861 132.434 36.5004 134.961C49.6909 141.48 66.3157 143.495 80.9151 141.484C84.8085 140.948 88.0078 140.022 91.6896 139.016C91.3884 141.682 91.4506 144.544 91.3278 147.236C91.1767 150.561 91.382 153.93 91.4341 157.255C91.5007 157.776 91.5246 158.392 91.5584 158.924C80.3078 161.051 69.3753 160.893 58.0989 158.821C55.2068 158.289 52.5124 157.287 49.5816 156.5C40.6601 154.106 32.5555 149.468 27.2107 142.066C24.0319 137.202 20.7668 126.013 19.1934 120.244Z" fill="#40435C"/>
<path d="M79.4486 136.851C81.485 136.746 82.4679 138.176 80.9915 139.669C80.8266 139.686 80.6611 139.7 80.4951 139.71C78.7856 139.81 78.1809 138.126 79.4486 136.851Z" fill="#40435C"/>
<path d="M85.7981 135.894C86.297 135.706 86.8626 135.789 87.28 136.112C87.6969 136.435 87.9011 136.947 87.8142 137.455C87.7277 137.962 87.3635 138.385 86.8606 138.564C86.0943 138.835 85.243 138.465 84.9518 137.733C84.6606 137.001 85.0378 136.181 85.7981 135.894Z" fill="#40435C"/>
<path d="M74.0928 137.575C74.8511 137.301 75.6984 137.658 75.9995 138.38C76.3006 139.101 75.9448 139.92 75.1989 140.224C74.7025 140.425 74.131 140.355 73.7052 140.038C73.2793 139.721 73.0651 139.208 73.1456 138.697C73.2256 138.186 73.5884 137.756 74.0928 137.575Z" fill="#40435C"/>
<path d="M100.924 63.7422L101.605 63.665L101.73 63.4453C102.74 63.8708 104.288 64.0404 105.376 64.383C112.137 66.5119 118.898 70.6414 123.358 76.0146C128.107 81.738 131.858 89.1466 135.234 95.6771C134.732 95.9916 133.329 96.8211 132.93 97.1394C136.035 104.853 143.66 118.65 131.692 123.173C127.292 124.836 120.798 124.136 116.169 124.355C115.246 124.3 113.17 124.183 112.327 124.029C107.002 123.903 102.125 121.62 97.4609 119.538L97.5524 119.248C97.4972 118.249 97.4565 117.25 97.4291 116.25C96.2638 115.705 94.8709 114.768 95.5214 113.346L95.6889 113.494C95.7445 113.786 95.6914 114.203 95.8161 114.489C96.559 116.19 99.4859 116.532 100.182 114.623C100.442 113.909 100.118 113.385 99.7742 112.768L99.9953 112.564L100.136 112.222L99.8984 112.019C104.786 111.667 110.912 110.295 115.933 109.758C115.568 109.119 114.691 107.407 114.723 106.739C114.123 106.847 113.732 107.09 113.196 107.372C111.606 105.3 108.482 98.423 107.591 95.8772C105.52 89.98 104.831 83.368 107.848 77.6365C108.706 76.0075 111.208 72.6417 113.041 72.0609L113.112 72.1457C111.951 73.0943 110.969 73.8185 110.016 75.004C102.119 84.835 108.269 97.5115 113.312 106.785C120.752 103.753 127.691 99.3045 134.709 95.5518C133.913 94.1524 133.244 92.6048 132.447 91.1754C130.01 86.7986 127.565 82.497 124.613 78.4222C119.186 70.9292 110.376 65.2726 100.924 63.7422Z" fill="#40435C"/>
<path d="M100.924 63.7422L101.605 63.665L101.73 63.4453C102.74 63.8708 104.288 64.0404 105.376 64.383C112.137 66.5119 118.897 70.6414 123.357 76.0146C128.107 81.738 131.857 89.1466 135.234 95.6771C134.732 95.9916 133.328 96.8211 132.93 97.1394C136.036 104.853 143.66 118.65 131.692 123.173C127.292 124.836 120.798 124.136 116.169 124.355L116.301 124.208L116.265 124.024C116.855 124.086 117.705 124.06 118.317 124.054C124.953 123.985 134.118 124.912 137.188 117.81C137.781 116.436 138.042 114.954 137.953 113.47C137.742 109.308 134.368 101.318 132.663 97.3343C127.43 100.381 120.286 104.301 114.723 106.739C114.123 106.847 113.732 107.09 113.196 107.372C111.606 105.3 108.482 98.423 107.591 95.8772C105.52 89.98 104.831 83.368 107.848 77.6365C108.705 76.0075 111.207 72.6417 113.041 72.0609L113.112 72.1457C111.951 73.0943 110.969 73.8185 110.016 75.004C102.119 84.835 108.269 97.5115 113.312 106.785C120.752 103.753 127.691 99.3045 134.708 95.5518C133.913 94.1524 133.244 92.6048 132.448 91.1754C130.01 86.7986 127.565 82.497 124.613 78.4222C119.186 70.9292 110.376 65.2726 100.924 63.7422Z" fill="#58D2FF"/>
<path d="M99.9953 112.563C101.055 113.74 100.981 114.64 99.9247 115.833C100.109 117.332 100.351 119.002 100.41 120.493C104.55 122.411 107.891 123.289 112.48 123.793C112.424 123.895 112.408 123.955 112.327 124.029C107.002 123.903 102.125 121.619 97.4609 119.538L97.5524 119.247C97.4972 118.249 97.4565 117.25 97.4291 116.249C96.2638 115.705 94.8709 114.767 95.5214 113.345L95.6889 113.494C95.7445 113.786 95.6914 114.203 95.8161 114.488C96.559 116.189 99.4859 116.532 100.182 114.623C100.442 113.909 100.118 113.384 99.7742 112.767L99.9953 112.563Z" fill="#58D2FF"/>
<path d="M115.933 109.758L116.276 109.839C115.733 110.563 101.685 112.528 100.136 112.223L99.8984 112.019C104.785 111.668 110.911 110.295 115.933 109.758Z" fill="#58D2FF"/>
<path d="M112.479 123.793L116.264 124.025L116.3 124.208L116.168 124.356C115.246 124.299 113.169 124.183 112.326 124.029C112.407 123.955 112.423 123.896 112.479 123.793Z" fill="#58D2FF"/>
<path d="M114.724 106.739C115.203 107.285 115.966 109.107 116.276 109.839L115.934 109.758C115.568 109.119 114.691 107.407 114.724 106.739Z" fill="#58D2FF"/>
<path d="M97.9445 37.5771C102.19 41.8296 104.978 47.0358 100.825 52.2986C102.922 54.4498 104.839 57.9895 103.628 60.9594C103.192 62.0282 102.566 62.6523 101.73 63.4442L101.605 63.6638L100.924 63.7411C100.368 65.5784 104.371 69.1461 98.9424 71.8829C100.252 74.8933 99.4115 77.7018 96.1223 78.9272L95.9797 78.9795C97.5271 83.1905 95.5871 85.7539 91.6171 87.5002C92.6318 88.7557 93.41 89.9056 93.3623 91.5576C93.3231 92.905 91.2866 95.149 91.4799 96.1429C91.7304 97.4303 95.522 101.598 91.1868 101.311C91.1132 100.758 91.8815 100.482 91.5336 99.492C89.0827 97.7905 86.9121 97.2662 86.294 93.7041C85.9913 91.8658 86.4654 89.9869 87.6103 88.4841C87.8677 88.1413 88.153 87.8186 88.4641 87.5195C86.2602 83.8545 85.9223 79.6828 90.1825 77.2733C90.009 76.7836 89.8609 76.2012 89.5225 75.8229C86.5866 76.0506 86.2482 76.5752 84.1914 74.1123C83.2264 78.2738 83.0212 83.0695 83.1911 87.3063C83.2239 88.1344 82.8726 89.0216 83.3119 89.7854C83.7079 90.5034 84.7684 90.4506 85.1197 90.9227C84.6158 91.2605 83.7497 90.9057 83.3134 90.5698C82.4303 89.1976 82.9089 80.2326 83.0843 78.4115C83.2006 77.0698 83.4028 75.7366 83.69 74.4192C83.5057 74.4139 82.083 75.2089 81.6044 75.3599C75.0896 77.4197 69.3158 72.7513 71.794 66.3032C67.2262 68.1662 62.7319 69.9251 58.9567 73.1513C56.5312 75.2244 54.1981 77.3647 52.3068 79.9153C51.1176 81.5191 50.3464 83.3049 49.2656 84.9397C50.3285 80.8982 51.9897 79.1393 54.8491 76.1995C60.9757 69.9005 70.1312 65.493 78.9602 64.1231L79.1227 64.1755C78.9736 64.6735 76.6664 64.9136 76.1053 65.0075C79.0999 68.5292 80.8585 70.1924 84.0463 73.3138C86.9097 70.8842 91.2171 67.076 93.5407 64.3582C89.5429 57.5938 96.9214 50.2236 96.242 47.2864C96.1536 46.9039 95.5553 46.5038 95.2169 46.3083C94.8839 46.1161 94.4983 45.9698 94.1097 46.0939C92.603 46.5756 92.9201 48.4208 92.3491 48.9468C91.8129 49.4399 90.8414 49.4083 90.4339 50.1373C90.1243 50.691 90.413 51.3299 90.1452 51.7859C88.0591 51.1026 90.495 47.0332 91.0108 45.7739C90.2858 43.8326 88.8835 42.57 87.1084 41.4576C91.4119 41.2773 94.5401 40.1337 97.9445 37.5771Z" fill="#58D2FF"/>
<path d="M75.793 65.1689C76.1155 65.2623 77.2098 67.1687 77.5079 67.5789C79.3282 70.0823 81.5306 71.79 83.9979 73.6196C82.5478 74.342 81.6459 74.7608 80.0155 74.8823C73.3357 75.9886 70.8292 72.144 72.2206 66.242C73.4311 65.7922 74.5457 65.4996 75.793 65.1689Z" fill="#40435C"/>
<path d="M91.9982 66.5654C92.0305 66.6131 92.0628 66.6607 92.0951 66.7084C91.9922 67.9915 91.8928 68.8592 92.3167 70.0908L92.2451 70.1547C90.4696 71.7556 89.5846 73.0635 89.507 75.4473C87.9328 75.8275 87.2062 75.9519 85.7626 75.1424C85.0063 74.5554 84.8508 74.3719 84.2227 73.6301C86.838 71.8395 89.9776 68.9525 91.9982 66.5654Z" fill="#40435C"/>
<path d="M96.9026 60.225C97.6559 59.3163 97.9406 59.1929 98.9961 58.6536L99.0871 58.695C98.4932 59.3868 97.9665 59.5236 97.3518 60.1521C97.0104 60.8606 98.2502 61.7263 97.9784 62.6154C97.6231 62.3753 97.2559 61.3327 96.9632 60.8739C96.4205 60.0229 95.703 59.3049 95.0117 58.5645C95.8893 58.9228 96.339 59.5236 96.9026 60.225Z" fill="#58D2FF"/>
<path d="M92.9355 72.3652C93.5766 72.6578 93.678 74.0081 93.7957 74.6613C94.7638 73.8275 95.7616 73.4354 96.9806 73.0666C96.3395 73.5331 95.8053 73.8118 95.1042 74.1939C94.6738 74.4893 94.4244 74.5927 93.9557 74.8043C93.922 75.4108 93.9473 75.8668 93.676 76.4062C93.4996 76.0417 93.1274 73.1162 92.9355 72.3652Z" fill="#58D2FF"/>
<path d="M94.5391 65.4863C95.291 66.1391 95.6717 67.5013 95.9191 68.3971C95.9788 68.3323 96.0399 68.268 96.102 68.2046C96.5631 67.7377 97.7573 66.7828 98.3934 66.7633C98.281 67.0144 97.8974 67.1964 97.6191 67.3784C97.0432 67.7996 96.6282 68.1083 96.0061 68.4595C96.017 68.875 96.1005 69.8994 95.8898 70.2096C95.6483 69.8975 95.7601 69.7703 95.7238 69.3157C95.6269 68.0921 94.9754 66.6599 94.5391 65.4863Z" fill="#58D2FF"/>
<path d="M91.0586 78.7061C91.5784 79.0386 91.7136 79.6023 91.9262 80.1679C92.3362 80.2446 93.7743 78.8118 94.4715 79.0291C94.2409 79.3931 93.8255 79.5161 93.4036 79.7119C92.8674 80.0821 92.6642 80.2212 92.0644 80.5052L92.0142 82.8032C91.7374 82.1543 91.3523 79.6981 91.0586 78.7061Z" fill="#58D2FF"/>
<path d="M97.51 51.9932C97.8062 52.2524 98.1153 54.6652 98.4865 55.2208C98.64 55.4509 98.9352 56.2056 99.0053 56.4586C97.6645 55.8454 97.4628 53.2167 97.51 51.9932Z" fill="#58D2FF"/>
<path d="M109.429 17.624C112.533 17.6549 115.463 17.9565 118.464 18.6808C132.894 22.1624 146.483 28.871 157.842 38.0853C158.996 39.0217 160.372 40.3486 161.585 41.1571C161.408 41.998 160.496 45.3989 160.445 45.9253L160.179 45.9059C159.593 45.4799 158.91 44.962 158.375 44.5059C145.438 33.4721 130.353 26.3616 113.249 23.6191C112.623 23.5188 109.766 22.8623 109.328 22.9978L108.932 22.9754C109.004 21.5619 109.221 19.0152 109.429 17.624Z" fill="#58D2FF"/>
<path d="M155.837 39.0347C157.251 38.9919 157.59 39.8512 156.805 40.9193C155.764 40.7427 155.036 39.9877 155.837 39.0347Z" fill="#40435C"/>
<path d="M158.248 41.1826C159.671 41.2098 159.88 41.9689 159.213 43.0723C158.021 42.9303 157.519 42.1875 158.248 41.1826Z" fill="#40435C"/>
<path d="M153.493 37.1348C153.769 37.1514 154.036 37.1682 154.282 37.2994C154.504 37.4197 154.667 37.6204 154.733 37.8565C154.866 38.3203 154.646 38.6828 154.403 39.0678C153.258 38.7939 152.54 38.1442 153.493 37.1348Z" fill="#40435C"/>
<path d="M15.0918 84.8969C28.3783 85.0003 41.6655 84.8778 54.9475 84.53C56.0879 84.4938 62.7419 84.0754 63.211 84.5219C64.0379 85.309 79.9213 118.032 80.1728 119.711C82.4552 119.62 86.8903 119.659 88.8427 119.442L89.1663 119.359C89.605 119.497 89.5285 119.375 89.7124 119.362C90.9319 119.273 93.7788 119.377 94.883 119.599C95.4992 120.364 95.763 120.9 96.2182 121.749L49.5835 122.215C44.6598 122.224 38.7229 122.527 33.8868 122.309C33.716 121.981 32.7604 119.966 32.7132 119.639C32.7514 119.655 33.4383 119.991 33.4042 119.991C36.5634 119.989 39.7617 119.827 42.9142 119.818L66.3039 119.587C70.2614 119.553 74.4521 119.67 78.3768 119.563C77.0789 116.376 75.1344 112.589 73.6162 109.443L65.8477 93.3142C65.1495 91.8714 61.9875 85.5763 61.8255 84.5719C50.6326 85.146 39.4262 85.4434 28.2174 85.4639C24.0612 85.46 19.9502 85.2623 15.8449 85.268C19.7472 92.5523 23.2198 100.113 27.0306 107.447C27.1771 107.729 27.3386 107.926 27.6411 108.041C28.1912 107.823 28.012 107.374 28.5246 107.208C29.4983 107.767 30.0605 110.958 29.8503 111.904L29.6926 112.025C29.0051 110.83 29.5538 108.471 28.6123 107.686C27.9236 107.966 27.757 109.241 27.6259 109.916C26.6705 114.838 26.2867 117.905 32.1815 118.943C33.0643 118.653 33.3812 118.595 34.0375 117.94C34.1087 117.565 34.1428 117.05 34.411 116.809L34.4989 116.98L34.3389 116.992L34.4927 117.138C34.1959 118.402 33.8162 118.779 32.6168 119.292C30.8006 119.142 29.1105 118.825 27.8795 117.418C25.79 115.031 26.9769 112.044 27.4597 109.353C23.2273 101.258 19.2674 92.9907 15.0918 84.8969Z" fill="#58D2FF"/>
<path d="M93.416 119.77C93.6207 119.755 94.6171 119.874 94.8819 119.901C95.1702 120.527 95.3913 120.871 95.768 121.457C93.417 121.297 89.2258 121.457 86.765 121.471L69.1831 121.572L48.5608 121.715C44.4423 121.732 40.0721 121.602 35.9905 121.844L34.026 121.857L33.3242 120.284C34.307 120.501 36.3356 120.429 37.4097 120.436C40.3382 120.456 43.2621 120.318 46.1941 120.312L74.1141 120.069C78.0469 120.051 81.8673 120.056 85.801 119.891C88.223 119.791 91.0317 119.975 93.416 119.77Z" fill="#40435C"/>
<path d="M62.2953 84.4551C62.6829 84.5156 63.1048 84.6037 63.2912 84.9678C63.727 85.8211 64.128 86.6978 64.54 87.5617L67.6274 94.0002L75.2191 109.667C75.8343 110.935 79.9111 118.917 79.7739 119.8C79.5995 119.773 79.0733 119.672 78.9923 119.515C77.579 116.772 76.2462 113.898 74.911 111.121L67.0082 94.8288C65.3917 91.503 63.8025 88.0901 62.1035 84.8062L62.2953 84.4551Z" fill="#40435C"/>
<path d="M88.1492 28.3718C91.7102 27.9406 98.6732 32.2231 97.737 36.8839C97.5119 38.007 92.6976 39.9248 91.2998 40.3367C86.4562 41.7637 82.7292 41.3528 81.2433 36.0589C81.1474 35.7042 81.1271 35.6418 80.97 35.3096C80.73 35.3709 79.1488 37.1762 78.7602 37.5334C77.7514 38.4618 77.2465 38.9263 75.9808 39.523C74.5641 39.0057 71.8787 38.0993 71.6744 36.4491C71.1914 32.5516 74.4672 30.1159 78.2225 29.7835C79.5751 29.6637 80.8349 29.7357 82.024 30.4423C82.2024 30.5587 82.4295 30.878 82.673 30.7114C84.5887 29.4016 85.7992 28.7567 88.1492 28.3718Z" fill="#58D2FF"/>
<path d="M118.758 130.574C122.81 130.13 126.479 132.902 126.975 136.784C127.472 140.666 124.612 144.206 120.567 144.713C116.475 145.228 112.73 142.447 112.228 138.518C111.725 134.591 114.658 131.023 118.758 130.574Z" fill="#58D2FF"/>
<path d="M118.437 131.01C122.261 130.388 125.888 132.854 126.541 136.52C127.194 140.187 124.626 143.666 120.804 144.298C116.975 144.929 113.337 142.462 112.684 138.79C112.029 135.117 114.607 131.633 118.437 131.01Z" fill="#40435C"/>
<path d="M117.054 133.873C117.172 133.893 117.096 133.872 117.26 133.985C117.08 134.08 116.518 134.389 116.474 134.612C116.029 136.816 116.464 139.013 116.963 141.171C117.013 141.388 117.707 141.764 117.928 142.264C114.968 141.059 117.212 140.118 115.646 137.975C115.5 137.775 115.532 137.885 115.547 137.642L115.928 137.488C116.26 136.676 115.892 135.35 116.201 134.502C116.34 134.123 116.671 134.054 117.054 133.873Z" fill="#58D2FF"/>
<path d="M121.545 133.9C123.611 133.704 122.614 135.407 122.989 136.573C123.033 136.712 123.421 137.139 123.538 137.265L123.665 137.402C122.103 139.499 124.182 140.167 122.207 141.792C122.015 141.804 121.914 141.787 121.721 141.772C121.639 141.41 122.266 141.448 122.344 140.99C122.562 139.714 122.775 138.497 123.072 137.237C122.965 137.16 122.671 136.924 122.668 136.814C122.647 136.033 122.685 135.288 122.531 134.517C122.333 134.168 121.948 134.074 121.545 133.9Z" fill="#58D2FF"/>
<path d="M90.0552 10.0236C91.8059 9.93593 93.0905 10.1043 94.6573 10.9687C96.3558 11.9126 97.5827 13.4757 98.0598 15.3014C99.2221 19.6037 96.318 21.9086 92.3123 22.886C83.282 25.045 81.1388 12.138 90.0552 10.0236Z" fill="#58D2FF"/>
<path d="M90.2899 10.2593C91.6778 10.1479 93.0687 10.4426 94.2787 11.1046C97.147 12.6488 99.0344 16.773 97.2588 19.6983C96.1864 21.4653 94.1227 22.1224 92.1628 22.6011C85.8865 23.9984 83.0167 18.0656 85.7529 13.1916C86.7393 11.4348 88.3508 10.7532 90.2899 10.2593Z" fill="#40435C"/>
<path d="M93.8237 13.3709C94.352 13.3332 94.5711 13.2671 94.9592 13.5314C95.1366 14.3703 95.3245 18.4774 94.8305 19.0408C94.3873 19.3224 93.951 19.3251 93.4332 19.2371L93.5594 19.1027C94.0503 19.0184 94.1194 19.0249 94.5413 18.7928C94.7878 18.3025 94.8186 14.4071 94.7023 13.7733C94.2774 13.5838 93.9226 13.6814 93.4346 13.7779L93.3477 13.7956L93.4674 13.7367L93.5107 13.5416L93.8237 13.3709Z" fill="#58D2FF"/>
<path d="M86.881 14.25C87.3457 14.2568 87.8521 14.2177 88.262 14.392C87.9415 14.5741 87.4282 14.513 87.0326 14.5066C87.0585 15.4957 87.13 18.7588 87.4287 19.5717L87.7184 19.6089C88.1795 19.541 88.2665 19.5044 88.7098 19.5966L88.6904 19.7024C88.2267 19.9986 87.8362 20.1527 87.2786 20.0166C86.6207 19.2621 86.7787 15.3552 86.881 14.25Z" fill="#58D2FF"/>
<path d="M92.364 13.0723L92.4793 13.2681C91.5496 15.5644 91.1028 17.9061 89.9445 20.2095C89.8376 20.1385 89.8789 20.142 89.8242 19.9657C90.1557 18.7381 91.7543 14.0226 92.364 13.0723Z" fill="#58D2FF"/>
<path d="M88.8429 119.443C88.6098 119.105 88.1969 118.867 87.9509 118.538C87.4758 117.904 88.2058 117.384 87.695 116.677C86.9605 116.765 84.4262 119.527 83.5004 118.718C83.2425 117.318 87.1767 112.443 88.4349 111.515C90.6806 109.858 92.8382 112.325 95.3483 112.687L95.4596 112.701C96.7625 112.005 97.3146 111.571 98.8725 111.943C99.2338 112.029 99.5414 112.101 99.8987 112.019L100.137 112.223L99.9956 112.565L99.7744 112.768C100.118 113.385 100.442 113.909 100.182 114.624C99.4862 116.532 96.5593 116.191 95.8164 114.49C95.6916 114.204 95.7448 113.787 95.6892 113.495L95.5217 113.346L95.5883 113.04L95.4516 112.899C92.8984 113.203 90.2045 109.139 87.6016 112.661C86.6837 113.902 84.1345 116.993 83.9049 118.336L84.0023 118.516C85.1075 118.567 87.7253 116.036 88.8658 115.29C88.6248 115.652 88.3917 116.024 88.1134 116.358C88.0761 116.773 88.0443 117.18 88.0245 117.596C87.9817 118.493 88.8305 118.644 89.1664 119.359L88.8429 119.443Z" fill="#40435C"/>
<path d="M88.8429 119.443C88.6098 119.105 88.1969 118.867 87.9509 118.538C87.4758 117.904 88.2058 117.384 87.695 116.677C86.9605 116.765 84.4262 119.527 83.5004 118.718C83.2425 117.318 87.1767 112.443 88.4349 111.515C90.6806 109.858 92.8382 112.325 95.3483 112.687L95.4596 112.701C96.7625 112.005 97.3146 111.571 98.8725 111.943C99.2338 112.029 99.5414 112.101 99.8987 112.019L100.137 112.223L99.9956 112.565L99.7744 112.768C99.2492 112.442 98.714 112.206 98.0794 112.295C97.3926 112.958 98.6091 113.959 98.3542 114.557C97.6416 114.631 97.4105 114.593 96.8942 114.251L96.932 114.143L97.6545 114.31C98.0436 113.913 97.8439 112.76 97.6341 112.282C96.8793 112.001 96.044 112.928 95.6892 113.495L95.5217 113.346L95.5883 113.04L95.4516 112.899C92.8984 113.203 90.2045 109.139 87.6016 112.661C86.6837 113.902 84.1345 116.993 83.9049 118.336L84.0023 118.516C85.1075 118.567 87.7253 116.036 88.8658 115.29C88.6248 115.652 88.3917 116.024 88.1134 116.358C88.0761 116.773 88.0443 117.18 88.0245 117.596C87.9817 118.493 88.8305 118.644 89.1664 119.359L88.8429 119.443Z" fill="#58D2FF"/>
<path d="M108.933 22.9746L109.329 22.997L107.942 38.4171C107.746 40.5758 107.561 44.2632 107.234 46.2651C120.485 50.4899 129.714 54.0573 141.485 61.909L141.381 62.092C133.943 57.1157 126.11 53.3692 117.67 50.194C115.694 49.4512 113.701 48.7527 111.691 48.1C110.484 47.7021 107.877 46.908 106.889 46.326C107.156 44.4587 107.265 42.3709 107.419 40.4721L108.349 29.4066C108.516 27.4311 108.659 24.9008 108.933 22.9746Z" fill="#58D2FF"/>
<path d="M49.6248 0.099992C50.3612 -0.129072 51.1692 0.0418625 51.7372 0.546683C52.3047 1.0515 52.5432 1.81124 52.3604 2.53273C52.178 3.25411 51.6026 3.82432 50.8562 4.02325C49.7361 4.32176 48.5728 3.70699 48.2377 2.6397C47.9026 1.57229 48.5189 0.443884 49.6248 0.099992Z" fill="#58D2FF"/>
<path d="M49.9578 0.0742188C50.7141 0.151764 51.6295 0.6629 51.9316 1.35878C52.1324 1.81405 52.1184 2.33019 51.8933 2.77486C51.5703 3.40737 51.1643 3.55198 50.5297 3.782C49.0996 3.8219 48.853 3.09552 48.2363 2.01798C48.8054 1.04146 48.9638 0.659207 49.9578 0.0742188Z" fill="#40435C"/>
<path d="M3.42188 79.3008C3.43691 79.6419 2.00364 82.5236 1.77256 83.3751C0.97474 86.3144 0.75435 89.0027 0.682667 92.0306C0.607134 95.517 1.11003 98.9928 2.17272 102.328C2.41025 103.064 3.41095 105.386 3.43406 105.783L3.33219 105.755C-0.843288 98.4049 -1.40197 86.4855 3.42188 79.3008Z" fill="#58D2FF"/>
<path d="M55.4355 6.22133C62.7693 4.17857 71.5729 3.58894 79.2058 3.87887C80.393 3.92401 82.4751 3.94414 83.5644 4.24778L83.5778 4.33414C82.4155 4.42657 81.2114 4.27803 80.0431 4.26576C74.0909 4.20323 68.1471 4.3707 62.248 5.19811C60.1136 5.49757 57.5162 5.86145 55.4614 6.49825L55.4355 6.22133Z" fill="#58D2FF"/>
<path d="M15.2069 141.043C16.1736 141.01 16.9546 140.945 17.5635 141.833C17.783 142.15 17.8582 142.539 17.7716 142.909C17.603 143.657 17.1593 144.036 16.5475 144.436C16.2394 144.546 15.9676 144.65 15.6365 144.583C15.1765 144.49 14.7752 144.222 14.523 143.842C13.8351 142.82 14.1999 141.706 15.2069 141.043Z" fill="#58D2FF"/>
<path d="M15.3162 141.259C15.4291 141.255 15.5421 141.252 15.6552 141.25C17.9252 141.209 17.933 143.005 16.4674 144.229C14.6483 144.824 13.7476 142.348 15.3162 141.259Z" fill="#40435C"/>
<path d="M152.433 85.4756C152.608 85.67 152.639 85.6295 152.608 85.903C151.751 93.4055 147.992 99.5553 142.405 104.717L142.307 104.501C143.146 103.526 144.15 102.605 145.032 101.581C147.805 98.3322 149.887 94.5933 151.161 90.5762C151.496 89.5361 152.033 86.055 152.433 85.4756Z" fill="#58D2FF"/>
<path d="M71.8356 38.3896C72.4051 38.593 73.5281 39.5449 74.4753 39.9368C73.4193 40.7295 73.055 41.5546 72.5815 42.7184L72.4831 43.6451L72.3494 43.7044C71.8152 43.5056 71.2944 42.3691 71.1493 41.8368C70.7851 40.5017 71.1389 39.5465 71.8356 38.3896Z" fill="#58D2FF"/>
<path d="M160.179 45.9062L160.445 45.9258C160.297 46.8286 159.813 48.581 159.579 49.5382L157.708 57.0958L155.287 66.9397C155.058 67.8998 154.236 72.0966 153.791 72.6998C153.677 72.3524 153.744 71.7907 153.83 71.4366C155.875 62.9622 158.266 54.3933 160.179 45.9062Z" fill="#58D2FF"/>
<path d="M154.196 91.5791C156.645 92.3748 156.209 93.9538 154.238 95.0121C152.496 95.2632 151.992 92.493 154.196 91.5791Z" fill="#58D2FF"/>
<path d="M154.054 91.9189C156.138 92.0681 155.692 93.6604 154.342 94.6329C152.987 94.9979 152.374 92.8733 154.054 91.9189Z" fill="#40435C"/>
<path d="M78.3853 60.2134C75.8564 59.1704 74.8198 57.8791 73.7057 55.4425C72.5906 53.0029 71.6623 46.6493 72.4017 44.2842L72.4658 44.3046C72.6517 45.2657 72.4589 46.5367 72.523 47.5471C72.8465 52.6732 73.3077 57.6595 78.7113 60.0328C78.8619 61.1925 79.1113 63.025 79.1223 64.1771L78.9598 64.1247C78.7704 62.8892 78.6015 61.4164 78.3853 60.2134Z" fill="#58D2FF"/>
<path d="M114.738 31.6035C117.851 32.0319 121.317 32.8999 123.929 34.6476C123.131 34.7112 120.123 33.3992 119.124 33.1176C118.465 32.9317 115.007 31.9627 114.738 31.6035Z" fill="#58D2FF"/>
<path d="M130.851 44.2422L131.156 44.3689C131.959 45.3212 131.917 46.8359 131.353 47.8922C130.908 48.7327 130.125 49.3626 129.185 49.6361C128.225 49.9015 127.194 49.7804 126.329 49.3011C125.139 48.6407 124.914 47.8722 124.6 46.7272L124.619 46.4276C124.842 46.4888 125.192 47.6687 125.58 48.1523C126.483 49.2816 127.25 49.2859 128.61 49.5022C130.163 48.9442 131.276 48.2214 131.393 46.4703C131.456 45.5282 131.144 45.1004 130.851 44.2422Z" fill="#58D2FF"/>
<path d="M75.4121 40.0156C76.7414 40.0432 79.3394 40.985 81.0155 41.1272C82.0273 41.2131 85.5898 41.2709 86.2492 41.5291C83.938 42.3725 77.6299 41.0731 75.4121 40.0156Z" fill="#58D2FF"/>
<path d="M141.485 61.9102C145.209 64.3911 148.698 67.2757 151.866 70.3851C152.219 70.7311 153.311 71.6406 153.332 72.1038L153.158 72.1204C150.154 68.9028 147.125 66.2465 143.509 63.6555C142.853 63.1852 141.99 62.6001 141.381 62.0931L141.485 61.9102Z" fill="#58D2FF"/>
<path d="M70.4126 16.4802C71.2062 16.3653 74.1371 16.7203 74.9227 17.0055L74.9575 17.1668C74.226 17.2431 73.1989 17.0602 72.4321 16.9993C70.9259 16.8798 69.7805 16.8523 68.2867 17.0572C66.9798 17.1848 65.3225 17.6265 64.1895 17.6517L64.2064 17.5745C66.4152 16.8501 68.1162 16.6633 70.4126 16.4802Z" fill="#58D2FF"/>
<path d="M151.617 100.97C151.629 101.043 151.636 101.116 151.641 101.189C151.781 103.293 148.168 108.228 146.59 109.835C146.575 109.392 147.276 108.67 147.573 108.263C149.214 106.006 150.635 103.56 151.617 100.97Z" fill="#58D2FF"/>
<path d="M111.631 41.752C111.936 41.902 112.81 44.1076 113.836 44.6722C115.923 45.8221 116.614 45.1856 118.558 44.8832L118.779 45.0413C116.799 46.3231 113.947 45.7239 112.491 43.9694C111.872 43.2242 111.772 42.6602 111.631 41.752Z" fill="#58D2FF"/>
<path d="M30.4178 111.537C31.7595 111.424 34.8026 111.304 35.3382 112.748C35.1804 114.424 32.7385 114.204 31.3256 114.432C31.2472 114.351 31.2939 114.41 31.2405 114.222C32.2358 113.753 34.2052 114.02 34.7964 112.995C34.7065 111.459 31.3765 111.888 30.3984 111.663L30.4178 111.537Z" fill="#58D2FF"/>
<path d="M141.053 41.8206C141.937 41.7813 148.705 45.4157 149.308 46.0998C148.313 46.1073 142.372 42.55 141.053 41.8206Z" fill="#58D2FF"/>
<path d="M140.26 48.0889C141.614 48.6092 142.309 50.9367 141.246 52.0264C140.233 53.0642 139.802 53.0851 138.457 53.2586C138.29 53.1032 138.325 53.1256 138.203 52.9279C138.459 52.6863 139.314 52.7025 139.751 52.5906C142.785 51.8144 140.519 49.3091 140.26 48.0889Z" fill="#58D2FF"/>
<path d="M137.579 47.4157C137.986 47.3984 138.32 47.3381 138.617 47.5245C136.045 48.3675 133.621 49.6373 136.417 52.3089C136.563 52.4328 136.499 52.3637 136.57 52.5648C136.458 52.5571 136.382 52.56 136.272 52.5085C134.152 51.5218 134.486 49.6373 135.986 48.2379C136.535 47.7257 136.883 47.6383 137.579 47.4157Z" fill="#58D2FF"/>
<path d="M5.96981 90.0088C6.05792 90.3442 6.23816 93.6962 6.27692 94.4509C6.34043 95.6874 6.89202 97.4236 6.93103 98.2865C5.7775 96.6136 5.45102 91.9861 5.96981 90.0088Z" fill="#58D2FF"/>
<path d="M110.717 27.166C112.387 27.3637 117.408 28.3533 118.664 29.2936C117.5 29.1785 111.789 27.6889 110.717 27.166Z" fill="#58D2FF"/>
<path d="M145.623 51.8066C146.554 51.9167 151.384 54.4086 151.82 55.1052C150.771 54.9633 146.604 52.4904 145.623 51.8066Z" fill="#58D2FF"/>
<path d="M147.91 41.0742C149.242 41.2319 154.045 44.1092 154.842 45.0343C154.569 45.0132 148.602 41.5372 147.91 41.0742Z" fill="#58D2FF"/>
<path d="M86.4304 53.7393L86.6829 53.8994C86.905 54.2634 87.0739 54.615 87.0655 55.0505C87.0546 55.496 86.8583 55.9191 86.5204 56.225C86.4811 55.8853 86.7728 54.7832 86.8657 54.3815C86.2729 54.9157 85.8445 55.2892 85.203 55.7638C84.4869 56.1855 84.2732 56.3622 83.4434 56.3737C84.6802 55.7557 86.1059 55.1553 86.4304 53.7393Z" fill="#58D2FF"/>
<path d="M128.003 42.658C128.756 42.5524 129.578 42.8702 130.152 43.3282C129.715 43.6298 128.322 42.4435 126.361 43.5149C125.903 43.8599 125.399 44.4187 124.948 44.8327L124.9 44.728C125.481 43.434 126.641 42.9141 128.003 42.658Z" fill="#58D2FF"/>
<path d="M123.934 30.5166C125.024 30.7186 129.93 32.1969 130.484 32.8316C129.877 32.8586 124.642 30.9245 123.934 30.5166Z" fill="#58D2FF"/>
<path d="M95.4379 118.672C94.9166 118.793 94.6875 118.85 94.1369 118.88L94.0703 118.789C94.4728 118.519 94.7576 118.384 95.1869 118.174C95.9418 118.47 96.8079 118.9 97.5518 119.247L97.4604 119.537L95.4379 118.672Z" fill="#58D2FF"/>
<path d="M133.469 33.8232C134.393 33.91 138.51 35.6226 138.934 36.3345C138.544 36.3132 134.073 34.1052 133.469 33.8232Z" fill="#58D2FF"/>
<path d="M130.768 37.0703C131.952 37.2884 135.236 38.3314 135.833 39.2839C135.252 39.1138 131.178 37.3395 130.768 37.0703Z" fill="#58D2FF"/>
<path d="M34.6657 114.165C34.8488 114.296 34.7899 114.258 34.915 114.463C34.8484 116.845 34.19 116.2 32.2481 116.731L32.1283 116.764L31.9648 116.665C32.2179 116.127 33.7189 116.393 34.2665 115.865C34.6822 115.464 34.6391 114.715 34.6657 114.165Z" fill="#58D2FF"/>
<path d="M79.5639 49.0352C79.6822 49.6265 79.0774 50.6995 79.2558 51.6205C79.6186 51.9454 79.8014 51.7949 80.3779 52.0355L80.3615 52.2413C79.8322 52.2556 79.7224 52.2837 79.2315 52.1332C78.3479 51.3155 79.137 49.9643 79.5639 49.0352Z" fill="#58D2FF"/>
<path d="M141.604 37.5185L141.74 37.4717C142.514 37.6949 145.728 39.2949 146.166 39.8933C145.537 39.7679 142.192 37.9067 141.604 37.5185Z" fill="#58D2FF"/>
<path d="M115.655 38.2559C115.838 38.3652 115.772 38.2864 115.836 38.5059C115.052 39.083 114.264 38.2917 112.164 40.3957L112.062 40.4399C112.226 39.2062 114.639 38.5057 115.655 38.2559Z" fill="#58D2FF"/>
<path d="M119.72 41.2891C120.578 41.8462 120.14 43.7661 119.486 44.4124C119.389 44.2993 119.315 44.2675 119.344 44.1558C119.682 42.8362 119.942 42.6779 119.72 41.2891Z" fill="#58D2FF"/>
<path d="M148.174 55.0186C149.002 55.0686 150.472 55.8657 151.009 56.468C150.385 56.4537 148.565 55.4864 148.174 55.0186Z" fill="#58D2FF"/>
<path d="M117.322 38.4844C117.783 38.5331 118.226 38.6861 118.613 38.9305C119.312 39.368 119.628 39.8942 119.799 40.6518C119.401 40.4783 118.564 39.102 117.938 38.8719C117.889 38.8536 117.413 38.542 117.322 38.4844Z" fill="#58D2FF"/>
<path d="M75.708 47.0684L75.9967 47.2562C76.1254 47.7249 76.18 48.6235 76.2268 49.1376C76.0449 49.109 76.0816 49.0995 75.9112 48.9937C75.5564 48.309 75.6279 47.7997 75.708 47.0684Z" fill="#58D2FF"/>
<path d="M76.3577 44.2754L76.476 44.383C76.3716 44.662 74.9002 45.6824 74.5211 45.9758L74.4336 45.8046C74.8838 45.1461 75.6734 44.6924 76.3577 44.2754Z" fill="#58D2FF"/>
<path d="M147.379 57.4141C148.025 57.5098 148.936 58.0254 149.246 58.5871C148.692 58.4537 147.602 57.9468 147.379 57.4141Z" fill="#58D2FF"/>
<path d="M143.475 55.5166C144.132 55.6324 145.015 55.9368 145.29 56.5577C145.046 56.4672 144.803 56.3733 144.562 56.277C144.08 56.0826 143.656 55.9421 143.475 55.5166Z" fill="#58D2FF"/>
<path d="M83.3258 46.8486L83.5474 47.0241C83.7243 47.6286 83.7069 48.126 83.7238 48.7511C83.203 48.3366 83.3243 47.4609 83.3258 46.8486Z" fill="#58D2FF"/>
<path d="M144.457 53.3488C145.025 53.324 145.936 53.7109 146.351 54.0764C145.771 54.2365 144.889 53.6795 144.457 53.3488Z" fill="#58D2FF"/>
<path d="M55.4625 6.49958C54.9616 6.62918 54.2659 6.85017 53.7734 6.79571C54.4135 6.44207 54.7166 6.41548 55.4367 6.22266L55.4625 6.49958Z" fill="#58D2FF"/>
</g>
<path d="M44.7171 105.38L46.5915 104.878C46.6024 104.875 46.6118 104.868 46.6177 104.858C46.6212 104.853 46.6235 104.847 46.6245 104.841C46.6255 104.835 46.6252 104.828 46.6236 104.822L46.1571 103.081C45.5872 103.982 44.7173 104.652 43.7012 104.973C43.8037 105.142 43.9582 105.272 44.1413 105.346C44.3245 105.419 44.5265 105.431 44.7171 105.38Z" fill="#58D2FF"/>
<path d="M45.6487 101.354L45.6454 101.355C45.4514 101.42 45.2849 101.548 45.1725 101.719C45.0601 101.89 45.0084 102.094 45.0257 102.298C45.0264 102.308 45.0235 102.319 45.0174 102.327C45.0112 102.336 45.0023 102.342 44.992 102.345C44.9843 102.347 44.9762 102.347 44.9685 102.345L44.9658 102.344C44.786 102.288 44.5932 102.288 44.4138 102.346C44.2345 102.403 44.0774 102.515 43.9643 102.666C43.8511 102.817 43.7875 102.999 43.7821 103.187C43.7767 103.375 43.8298 103.561 43.9342 103.717C43.937 103.722 43.939 103.726 43.9403 103.731C43.9427 103.74 43.9424 103.749 43.9394 103.758C43.9364 103.766 43.9309 103.774 43.9236 103.779C43.7468 103.916 43.6266 104.113 43.5857 104.333C43.5448 104.553 43.5862 104.78 43.7019 104.971C45.1832 104.468 46.0542 102.919 45.7042 101.385C45.7007 101.374 45.693 101.364 45.6826 101.359C45.6723 101.353 45.6601 101.351 45.6487 101.354Z" fill="#58D2FF"/>
</g>
</g>
<defs>
<clipPath id="clip0_751_2086">
<rect width="162" height="162" fill="white"/>
</clipPath>
</defs>
</svg>
