<svg xmlns="http://www.w3.org/2000/svg" width="162" height="162" viewBox="0 0 162 162" fill="none">
  <path d="M108.405 94.1054C111.817 93.9704 114.98 94.172 118.314 94.9277C119.587 95.2161 120.791 95.6376 122.071 95.9033C121.983 96.1494 121.906 96.3995 121.842 96.6529C120.838 100.57 121.748 103.75 126.006 104.823C130.502 105.958 134.116 103.958 137.817 101.738C140.951 103.58 143.347 105.662 145.585 108.542C147.371 110.84 148.809 113.665 149.816 116.39C150.08 117.106 150.704 119.012 150.848 119.73C151.831 124.646 153.781 135.471 153.161 140.19C152.523 140.376 151.741 140.537 151.079 140.635C143.073 141.817 135.642 141.564 128.897 136.769C129.194 135.129 129.524 133.495 129.884 131.868C130.008 131.305 130.984 127.373 130.969 127.159L130.827 127.063C130.096 127.342 129.531 130.245 129.303 131.094C128.967 132.336 128.397 134.93 127.888 135.994C126.627 136.575 123.603 137.441 122.158 137.896C116.992 139.524 111.692 141.051 106.373 142.078C104.51 142.437 102.792 142.545 100.943 142.792C99.5326 140.745 98.8421 140.02 96.8421 138.588C97.0507 137.713 97.1218 136.779 97.2921 135.878C98.4299 129.854 98.9203 123.536 100.72 117.677C101.141 116.304 101.613 115.668 101.718 114.175C101.245 114.139 101.249 114.599 101.039 115.075C100.689 116.021 100.204 117.132 99.9506 118.096C99.2392 120.802 98.874 121.19 96.6338 122.731C91.6843 116.88 88.1033 108.75 89.2886 100.968C89.3427 100.9 89.3979 100.832 89.4544 100.765C89.9093 100.227 91.1179 99.5585 91.778 99.2199C97.1728 96.4521 102.349 94.6219 108.405 94.1054Z" fill="#58D2FF"/>
  <path d="M69.5883 6.94207C70.1472 6.90744 71.3059 6.75421 71.7054 7.0469C72.1511 8.24722 71.8092 18.3321 71.6443 19.7336C68.0414 19.8725 63.4595 19.8463 59.8256 19.8529C59.9757 20.943 60.0019 22.5321 60.0733 23.6808C60.1692 25.2253 60.5578 27.9598 60.2139 29.4378C62.3061 29.3139 65.2557 29.3621 67.3803 29.3512L76.7979 29.2372L88.0295 29.1521C88.9767 29.1534 93.8577 29.0216 94.412 29.4639C94.9005 30.4151 95.0062 34.6755 94.9488 35.8135C97.493 35.6029 100.094 35.6456 102.644 35.4861C103.848 35.4108 104.965 35.3182 106.167 35.4806C106.204 36.0855 106.277 36.6609 106.352 37.2623C106.785 40.7511 106.938 44.2533 106.918 47.762C103.381 48.0782 98.7605 48.2534 95.1794 48.2775C95.1766 51.134 95.1623 54.0015 95.2206 56.8572C95.2923 60.3651 95.6102 64.0706 95.5641 67.562C97.0817 67.3828 108.159 66.2302 108.628 66.5384C108.963 67.3988 108.95 76.9103 108.952 78.0815C107.284 78.9769 87.8069 81.7965 86.0789 81.336C85.4554 80.6317 84.6032 70.3571 84.1704 68.5827C87.2057 68.1761 91.3374 67.9368 94.5034 67.6338C94.0147 60.8709 93.9999 55.0392 94.2007 48.2728C90.0618 48.4916 85.9292 48.8148 81.8067 49.2424C81.1364 47.3623 80.8731 42.6396 80.8688 40.5404C80.8666 39.4455 81.0064 38.4776 80.8982 37.2844C82.1919 36.9761 83.6555 36.8359 84.9852 36.6755C88.0326 36.3067 91.0921 36.0448 94.158 35.8906C93.9566 34.5592 93.7305 31.5595 93.7997 30.2602C86.7628 30.4414 79.7235 30.5168 72.6842 30.4865C69.214 30.4829 65.5527 30.4029 62.0999 30.4884C57.3097 30.5688 52.5206 30.7023 47.7335 30.8887C43.3521 31.0821 36.7843 31.4655 32.4382 31.2699C32.7521 33.3761 33.0924 41.9985 32.651 43.8094L40.1315 43.7001C41.2118 43.6751 44.2114 43.5421 45.0951 43.6634C45.3501 44.3387 45.7031 52.9643 45.651 54.2392C41.6718 54.5364 37.1903 54.1066 33.4328 54.4654C33.6075 56.607 33.6403 59.11 33.6164 61.2357C35.0709 61.0545 38.5896 61.0587 40.0884 61.0402C41.8276 61.0187 51.9079 60.4615 52.6202 60.9024C53.0249 61.5883 53.0013 64.2519 52.9827 65.1219C54.5253 64.5602 58.052 63.7001 59.7237 63.2995C60.1504 63.175 60.3643 63.0978 60.7337 63.2914C61.1403 64.0982 63.0244 70.8378 63.1019 71.7781C62.9607 72.1353 62.9808 72.038 62.6302 72.3112L62.4534 72.2778C61.3271 71.1832 60.5832 65.4786 59.8769 64.3644C58.6774 64.513 55.8694 65.3695 54.5263 65.7077C49.6436 66.9377 44.8198 68.5917 39.9296 69.7659C40.7773 72.3246 41.7716 74.8492 42.6778 77.3877C42.9813 78.2378 43.4177 79.2079 43.4937 80.0968L43.6208 80.0365C47.707 78.129 52.627 76.9712 56.79 75.1047C57.4145 74.8246 58.7159 74.3546 59.3775 74.5965L59.4414 74.7612C59.3058 75.0642 59.1622 75.3121 58.8383 75.4466C55.1972 76.9586 51.4538 78.3421 47.7248 79.6289C46.2145 80.1501 44.6717 80.5561 43.1601 81.0477C41.7789 79.549 41.3352 76.6781 40.6684 74.76C40.1333 73.2213 39.6016 71.6498 39.142 70.0889C39.0472 69.7668 39.0382 69.6803 39.1636 69.3963C40.4814 68.3499 49.812 65.9462 52.0201 65.3722C51.726 64.2157 51.8268 62.8446 51.9435 61.6652C49.4065 62.1078 44.4626 62.0028 41.7159 62.1002L15.3192 62.8102C15.4118 63.9554 15.4169 68.7489 15.2406 69.7965C17.7058 69.788 20.2061 69.8744 22.6711 69.9472C23.6566 69.9762 27.1573 69.6269 27.766 70.0473C27.8695 70.3193 27.9541 70.715 27.9455 71.0091C27.8549 74.1103 27.9513 77.1722 28.0851 80.2672C28.0954 80.5052 28.0207 81.4861 27.7035 81.4868C22.9643 81.4758 18.0652 81.4251 13.341 81.3265C12.2676 81.3041 4.71111 81.6168 4.37569 81.4621C3.80059 80.5784 4.05098 71.326 4.32126 69.8279C5.29719 69.7576 7.08774 69.8169 8.11991 69.8168C10.2607 69.8168 12.4771 69.7945 14.6133 69.8378C14.5071 68.7324 14.1694 63.0217 14.516 62.2842C15.8722 61.7684 30.533 61.2308 32.684 61.2588C32.4268 60.089 32.4932 55.8068 32.5387 54.4391C30.9411 54.6364 29.31 54.6684 27.7029 54.7867C25.5875 54.9424 23.4721 55.1508 21.3565 55.2967C20.9092 51.9569 20.6693 47.6532 20.8722 44.3152C22.2509 44.1873 23.9743 44.1762 25.3892 44.1063C27.5103 44.0014 29.6932 43.8911 31.8123 43.9192C31.6361 42.6479 31.7141 40.3257 31.7094 38.9726L31.6116 30.6181C33.555 30.273 38.093 30.1663 40.1985 30.0697C46.5325 29.8011 52.869 29.5954 59.2072 29.4524C58.9709 26.911 58.8206 22.3763 58.8456 19.8409C55.7366 19.8345 52.3983 19.8976 49.2927 20.0751C48.465 20.1224 47.6447 20.2518 46.7994 20.2921C46.7116 19.6614 46.6466 19.0435 46.5922 18.4089C46.2912 14.8972 45.7928 11.3595 45.7561 7.8301C53.8212 6.92831 61.5047 7.35908 69.5883 6.94207ZM46.5422 8.61815C46.8968 11.7937 47.3508 15.9322 47.8377 19.0647C48.1507 19.1732 48.1218 19.12 48.4985 19.0551C50.0249 18.9383 51.5031 18.9614 53.0286 18.9266L61.4114 18.8048C64.4958 18.789 67.5027 18.6432 70.6522 18.6587C70.4051 16.7162 70.6598 13.5713 70.6751 11.5687C70.6822 10.6457 70.6404 8.81706 70.7148 7.98539L69.0459 8.04353C64.0604 8.3503 58.8551 8.16462 53.8371 8.32151C51.5001 8.39457 48.8352 8.6579 46.5422 8.61815ZM81.689 37.8476C81.9924 40.1281 81.8537 42.6239 82.2397 44.936C82.4058 45.9301 82.3972 47.0378 82.6958 48.0269L82.8421 48.0722C84.4292 47.7836 86.6439 47.7606 88.2948 47.6226C94.13 47.0967 99.9847 46.8136 105.844 46.7741C105.599 45.1481 105.415 36.9624 104.982 36.4344L104.905 36.4138C103.317 36.5734 101.794 36.4784 100.219 36.5579C94.6044 36.8412 88.988 37.1353 83.3974 37.7395C82.8412 37.7999 82.2487 37.8382 81.689 37.8476ZM85.2123 69.3922C85.6144 71.0642 85.866 73.1825 86.1145 74.8933C86.3285 76.3666 86.6496 77.9966 86.8098 79.4575C86.8638 79.8419 86.877 80.0193 86.8755 80.4073C88.073 80.2031 88.9847 80.1657 90.168 80.0284C92.4656 79.7827 94.7577 79.4877 97.0426 79.1436C100.325 78.6472 104.63 77.6594 107.776 77.389C107.601 74.2275 107.814 70.7907 107.705 67.5885C107.542 67.4511 107.635 67.476 107.428 67.4828C105.064 67.8008 102.509 67.9398 100.127 68.1457L85.2123 69.3922ZM41.3937 44.7114C39.8368 44.8531 37.9627 44.7739 36.3688 44.7763C31.5636 44.7837 26.3461 45.2443 21.5741 45.0415C21.8288 46.3078 21.8095 48.5314 21.9095 49.9099C22.0049 51.224 22.2754 53.0229 22.2543 54.251C22.9976 54.1408 23.5764 54.0723 24.3254 54.0209C28.57 53.6561 33.054 53.4399 37.3103 53.3283C39.0509 53.2826 42.8791 53.0715 44.5038 53.4159C44.1903 51.1952 44.1453 46.7919 44.2307 44.5856C43.374 44.6584 42.1153 44.602 41.3937 44.7114ZM26.8297 80.5248C26.9933 80.2274 26.8122 78.6116 26.8207 78.1255C26.8614 75.8016 26.6649 73.309 26.8718 71.0022C21.0203 70.6887 14.7791 70.9594 8.89907 70.7074C7.66262 70.6544 6.3337 70.7626 5.10674 70.6766C5.14035 71.6769 5.14787 72.6734 5.15268 73.6741C5.16387 76.0022 5.33079 78.3151 5.23536 80.6452C6.46992 80.4372 7.62099 80.4896 8.85678 80.432C12.544 80.26 16.2936 80.3311 19.9829 80.4608C22.2317 80.5398 24.5708 80.4486 26.8297 80.5248Z" fill="#58D2FF"/>
  <path d="M63.5789 9.47266C64.2547 9.72392 69.2557 13.0162 69.5206 13.4595C69.3209 14.0056 65.4037 16.6551 64.6501 17.2313C64.3163 17.5744 63.9931 17.6187 63.6181 17.3478C63.327 16.2155 66.9395 14.0096 67.8601 13.5461C66.8925 12.9929 63.3611 10.8081 63.2852 9.78582L63.5789 9.47266Z" fill="#58D2FF"/>
  <path d="M53.1281 9.67285C53.4399 9.74806 53.3171 9.67056 53.5226 9.88962C53.5285 10.1007 53.5398 10.3032 53.3672 10.4792C52.2897 11.5774 51.2039 12.4178 50.1211 13.5625C51.0864 14.0847 54.4629 15.8413 54.9958 16.5829C55.0663 16.9473 55.0936 16.7758 54.8804 17.1093C54.5418 17.2817 54.7156 17.2561 54.3406 17.1867C52.8642 16.395 50.579 15.0363 49.1939 14.2068C47.8187 13.3833 52.3442 10.2613 53.1281 9.67285Z" fill="#58D2FF"/>
  <path d="M61.4527 8.55762C61.5415 8.60227 61.6853 8.70139 61.7746 8.75852C62.1993 10.1789 58.8663 15.4881 58.1775 17.0917C58.0395 17.4129 57.6752 17.7935 57.3855 17.9961C57.1732 17.9154 57.1899 17.9045 57.0556 17.7151C56.866 16.5163 60.7027 9.68025 61.4527 8.55762Z" fill="#58D2FF"/>
  <path d="M96.6527 38.5255C97.035 38.499 98.7651 38.363 98.8493 38.5694C99.5727 40.5959 99.4164 43.3089 99.6021 45.4799C99.7085 46.7243 97.4266 46.5973 96.6417 46.4478C96.3003 46.1778 96.0924 46.0528 96.1949 45.6028C96.6866 45.2042 97.8625 45.336 98.5211 45.3597C98.3073 43.698 98.0489 41.0993 98.0775 39.4708C97.4037 39.5089 96.8681 39.5796 96.2377 39.305C96.0198 39.0233 96.0633 39.1782 96.1021 38.8251C96.3162 38.5383 96.2224 38.6298 96.6527 38.5255Z" fill="#58D2FF"/>
  <path d="M87.6727 38.906C88.5977 38.8654 89.7575 38.7232 90.5408 39.2592L90.5609 39.4216C90.0328 39.814 89.3085 39.7716 88.6566 39.7977C88.5694 41.4453 88.7579 43.7218 88.6954 45.551C89.1441 45.5497 89.6376 45.5142 90.0894 45.4914C90.4717 45.5216 90.6919 45.5853 90.8554 45.9314C90.5057 46.8397 88.516 46.877 87.9003 46.2406C87.5935 45.4151 87.4498 39.6431 87.6727 38.906Z" fill="#58D2FF"/>
  <path d="M95.3851 70.4141C96.2925 70.9792 95.4495 72.0255 95.0534 72.761C95.7333 72.7546 96.4391 72.7821 97.1207 72.7989C97.4749 72.1538 97.7824 71.4088 98.5913 71.2847L98.7252 71.4052C98.7483 72.0709 98.4529 72.3425 98.0507 72.8777C98.73 72.8892 100.025 72.8187 100.343 73.5305C100.177 74.2693 99.4552 74.0285 98.8711 74.0489C98.451 74.0636 98.0174 74.0552 97.5962 74.06C97.412 74.359 97.1633 74.7032 97.1687 75.0414C97.5814 75.2868 97.9745 74.9685 98.6658 75.2186C98.9206 75.4918 99.0832 75.6167 98.856 75.9594C98.3025 76.2337 97.3213 76.16 96.6634 76.1595L96.2716 77.1773C96.0809 77.6697 95.9785 78.0194 95.4852 78.2363C94.4671 77.2944 95.4578 76.9774 95.2442 76.3078C94.9709 76.1765 94.9397 76.1507 94.6443 76.1463L93.6552 76.125C93.4144 76.7065 93.197 77.5706 92.5158 77.625C91.8841 77.2017 92.124 76.7708 92.2929 76.1107C91.832 75.8698 91.1379 76.302 90.581 75.8631C90.4399 75.5403 90.4515 75.699 90.5195 75.3735C91.0381 74.9155 92.2024 75.2451 92.9849 75.0013C93.2562 74.7024 93.4871 74.0148 93.6497 73.6065C93.0764 73.6225 91.5822 73.7072 91.3801 73.0438C91.8772 72.4381 93.427 72.6789 94.1523 72.7365C94.508 71.7266 94.7032 71.2395 95.3851 70.4141ZM94.0517 75.0377C94.6388 74.9953 95.258 74.9307 95.8414 74.9842C96.1722 74.681 96.3254 74.5782 96.3619 74.1517C96.033 73.6917 95.2105 73.7551 94.6822 73.7309C94.5024 74.112 94.2498 74.6873 94.0517 75.0377Z" fill="#58D2FF"/>
  <path d="M12.4382 72.5319C14.4366 72.2526 14.4684 74.3724 14.3861 75.7741C14.2965 77.3017 14.4439 78.7715 12.8222 79.4306C9.70216 79.4026 10.6958 77.1534 10.5282 74.7833C10.3857 72.7657 10.6293 72.7889 12.4382 72.5319ZM11.6542 76.9213C11.8857 75.8575 12.3013 74.4318 12.7432 73.4371C12.5397 73.2478 12.661 73.3194 12.3399 73.2741C12.0322 73.4639 11.7634 73.5803 11.6826 73.9338C11.5672 74.4389 11.3608 76.6511 11.5131 77.046L11.6232 77.0123L11.6542 76.9213Z" fill="#58D2FF"/>
  <path d="M17.4027 72.1328C17.8122 72.1417 17.9314 72.1814 18.1672 72.4873C18.3689 74.2386 18.1571 76.3124 18.218 78.0968C18.236 78.6224 18.2152 79.1809 17.6754 79.3959C17.0991 79.2035 17.1604 79.0452 17.1033 78.4946C16.9783 77.1739 17.2128 75.7654 17.066 74.5097L16.9401 74.427C16.6425 74.6364 16.3264 74.9038 15.997 74.8616C15.7868 74.188 16.995 72.6793 17.4027 72.1328Z" fill="#58D2FF" fill-opacity="0.988235"/>
  <path d="M26.5764 46.6484C26.9123 46.8001 26.7951 46.6832 26.9564 46.9945C26.8358 47.6081 24.8187 49.514 24.2709 50.1061C25.2984 50.4547 27.686 51.1481 28.2732 51.977C28.3192 52.366 28.3499 52.1824 28.1541 52.543C27.7906 52.6651 27.9286 52.6397 27.5087 52.5284C26.6922 52.1062 23.033 50.9668 22.7402 50.4692C23.0784 49.6205 25.7168 47.2722 26.5764 46.6484Z" fill="#58D2FF"/>
  <path d="M38.1215 46.3926C39.3906 46.5964 41.704 47.9769 42.5667 48.9498C43.2205 49.6872 39.9474 51.5359 39.4159 51.8025C39.1126 51.8767 39.1256 51.867 38.8159 51.791C38.5579 51.5045 38.6201 51.6668 38.6088 51.2929C38.9285 50.618 40.5832 49.7118 41.2899 49.2614C40.6572 48.8972 37.6388 47.2484 37.8076 46.576L38.1215 46.3926Z" fill="#58D2FF"/>
  <path d="M31.9679 48.2238C32.3171 48.0786 32.7181 48.1382 33.01 48.3787C33.302 48.6192 33.4372 49.0012 33.3617 49.3719C33.2861 49.7425 33.012 50.0411 32.6492 50.148C32.1282 50.3016 31.578 50.0208 31.3967 49.5088C31.2154 48.9968 31.4663 48.4323 31.9679 48.2238Z" fill="#58D2FF"/>
  <path d="M28.6383 48.3466C29.1464 48.2006 29.6779 48.4878 29.8341 48.9929C29.9903 49.4979 29.7138 50.035 29.212 50.2014C28.8783 50.312 28.511 50.2336 28.2515 49.9965C27.992 49.7592 27.881 49.4004 27.9612 49.0581C28.0415 48.7159 28.3005 48.4437 28.6383 48.3466Z" fill="#58D2FF"/>
  <path d="M35.4707 48.0735C35.7978 47.9568 36.1622 48.0256 36.4242 48.2532C36.6863 48.4808 36.8054 48.832 36.7356 49.172C36.666 49.5121 36.4184 49.7882 36.0879 49.8945C35.5881 50.0551 35.0518 49.785 34.8832 49.2878C34.7146 48.7904 34.9762 48.2499 35.4707 48.0735Z" fill="#58D2FF"/>
  <path d="M50.5286 116.359C51.5924 116.218 54.2496 116.467 55.3998 116.559L62.7785 117.152L73.8245 118.008C75.8849 118.163 77.9681 118.311 80.025 118.499C80.4821 118.541 81.1188 118.639 81.4898 118.893C81.9156 119.185 82.2458 119.657 82.3671 120.161C82.9359 122.525 83.2965 125.071 83.7649 127.455C84.8784 133.118 85.7975 138.918 87.0022 144.553C89.9761 144.274 93.3205 144.301 96.3077 144.385C98.292 144.44 99.1254 146.14 98.0424 147.882C97.4071 148.164 97.2553 148.201 96.5685 148.332C93.7533 148.804 89.7455 149.275 86.9074 149.349C85.7653 149.378 82.8345 148.985 81.5632 148.843L72.7395 147.847L62.5738 146.712C60.7387 146.511 56.6414 146.304 55.1894 145.487C54.4337 144.461 54.0638 141.951 53.7816 140.626L52.177 133.095L50.2024 123.851C49.838 122.151 49.4411 120.441 49.1518 118.729C48.9492 117.529 49.4823 116.822 50.5286 116.359ZM80.9127 127.595C81.0399 126.078 80.7683 122.255 79.8799 120.891C79.525 120.345 77.7262 120.186 77.1093 120.161C72.7862 120.074 68.317 119.614 64.0031 119.701C64.146 119.974 64.1596 120.117 64.5397 120.192C65.3991 120.363 66.4649 120.393 67.3353 120.452C69.6369 120.63 71.9412 120.773 74.2471 120.88C75.5938 120.945 76.9702 121 78.3125 121.124C80.9075 121.364 78.9096 127.959 80.9127 127.595ZM66.1629 134.225C67.1966 133.94 67.8031 132.87 67.5175 131.837C67.2318 130.803 66.1623 130.196 65.1287 130.482C64.0949 130.767 63.4883 131.837 63.7739 132.87C64.0596 133.904 65.1292 134.511 66.1629 134.225Z" fill="#58D2FF"/>
  <path d="M137.022 58.4486C141.913 58.1094 144.639 59.5827 148.524 62.1806C157.618 68.2626 161.191 78.8433 154.509 88.2792C152.598 90.9783 149.035 92.7315 145.787 93.2939C143.115 93.7563 141.082 93.1204 138.914 91.5124C137.604 94.2151 136.6 96.8568 135.488 99.6301C135.393 99.8654 135.225 99.9046 135.009 99.9443C134.712 99.767 134.807 99.8882 134.689 99.5884C134.791 98.9071 135.137 98.1487 135.389 97.4675C136.567 94.2789 138.155 91.2514 139.559 88.1702C139.749 87.7526 140.713 89.226 141.847 89.2098C142.969 89.1937 144.538 88.2746 144.547 87.0501C144.554 86.0324 143.376 86.2606 142.889 85.7879L142.996 85.6137C143.373 85.4068 143.482 85.4193 143.918 85.3969L144.17 85.3826C144.054 84.9742 138.184 80.6458 137.48 80.1518C137.4 80.2803 137.317 80.4067 137.23 80.5306C134.582 84.3011 129.375 82.149 131.565 77.8472C131.955 77.0829 133.056 76.4849 132.92 75.5315C132.196 74.174 131.139 75.5782 130.248 76.0181C127.726 77.2628 125.128 75.3413 126.436 72.5414C128.719 67.6526 129.746 71.639 131.782 73.8328C132.008 74.0776 133.178 74.3895 133.45 74.7649C133.923 75.3308 133.881 75.9396 134.371 76.4676C136.544 78.4671 139.002 80.4423 141.515 82.0035C141.85 81.4451 142.666 80.4867 143.03 79.9632C145.496 76.3883 143.675 74.7849 140.11 73.3436C135.284 71.3926 127.287 67.9826 131.699 61.4601C132.932 59.6381 134.875 58.8046 137.022 58.4486ZM131.877 79.4488C132.237 80.9349 133.255 82.2118 134.882 81.308C135.483 80.9347 137.112 80.0395 136.238 79.3214C135.71 78.8862 133.983 77.0964 133.416 77.0264C132.439 77.8186 132.195 78.2229 131.877 79.4488ZM128.651 75.6188L129.677 75.3175C130.299 74.962 130.606 74.7723 131.17 74.3384C130.593 73.6156 128.998 71.4522 128.288 71.2096C127.07 72.8742 125.839 74.7865 128.651 75.6188ZM136.151 62.4764C138.259 61.3472 139.984 60.9724 142.336 61.6783C142.863 61.8364 143.613 62.1531 144.119 62.1568L144.359 62.0239C144.38 60.8785 141.07 60.4269 140.263 60.3856C137.651 60.5991 135.963 60.9945 134.008 63.0615C133.716 63.3696 133.388 63.8675 133.225 64.2614L133.243 64.4397C133.732 64.5282 135.524 62.8853 136.151 62.4764Z" fill="#58D2FF"/>
  <path d="M133.775 78.4355C134.223 78.6183 134.155 78.514 134.386 78.8516C134.436 79.5769 133.879 79.9358 133.289 80.2134C132.859 80.1618 132.693 80.1423 132.623 79.6921C132.841 79.1242 133.306 78.8015 133.775 78.4355Z" fill="#58D2FF"/>
  <path d="M128.522 72.9932C128.826 73.0021 128.817 73.0113 129.081 73.1333C129.535 73.8473 128.696 74.4688 128.126 74.7772C127.736 74.7415 127.899 74.8146 127.614 74.5652C127.471 73.8899 127.999 73.3348 128.522 72.9932Z" fill="#58D2FF" fill-opacity="0.988235"/>
  <path d="M147.148 142.082C147.762 142.333 147.458 143.173 147.367 143.694C146.244 150.051 140.851 152.162 135.249 152.983C124.316 154.584 113.446 154.869 102.428 155.017C98.4526 155.07 94.5387 155.305 90.5763 154.755C86.133 154.144 82.4095 152.54 78.5062 150.452C78.2663 150.304 78.2805 150.318 78.1633 150.06C78.1719 149.685 78.0991 149.823 78.316 149.599C78.8881 149.486 80.2173 150.346 80.7915 150.645C81.9047 151.231 83.0547 151.745 84.2343 152.184C92.0905 155.074 100.772 154.092 108.974 153.935C115.911 153.803 122.867 153.399 129.775 152.671C135.843 152.031 143.688 151.805 146.237 145.048C146.603 144.071 146.797 143.062 147.148 142.082Z" fill="#58D2FF"/>
  <path d="M59.543 85.9416C59.8084 84.635 60.5608 83.5467 60.9539 81.958C61.3839 83.1766 59.4355 85.3257 59.8835 86.2814L60.0411 86.3574C60.2478 86.2151 60.2416 86.2287 60.3803 86.0219C60.1766 85.5346 60.1205 86.126 60.1069 85.5221C60.2605 85.3189 60.3104 85.306 60.4058 85.1899C60.7803 84.7333 61.4401 82.3474 61.801 82.0778C61.6743 83.6185 60.0442 85.2333 60.8559 86.5103C61.22 87.0833 61.855 87.8144 62.2822 88.3723C63.2721 89.6677 64.2426 90.9779 65.1933 92.3022C68.9873 97.6467 73.5283 104.425 76.5209 110.285C79.2352 109.605 81.4531 108.979 83.9614 107.648C85.0353 107.078 85.9696 106.36 87.0558 105.875C87.325 105.756 87.358 105.809 87.5737 105.912C87.5903 106.091 87.6312 106.129 87.5122 106.254C85.2026 108.685 79.7642 110.311 76.7677 110.961C77.2033 111.572 78.1522 113.546 77.8977 114.246L77.6983 114.205C76.9914 113.693 74.9679 109.702 74.413 108.673C72.9502 105.945 71.3965 103.267 69.7546 100.643C67.7776 97.5618 65.7143 94.5367 63.5669 91.5714C62.7815 90.4869 59.9397 86.8604 59.543 85.9416Z" fill="#58D2FF" fill-opacity="0.980392"/>
  <path d="M126.869 138.328C127.205 138.281 127.433 138.23 127.659 138.511L127.614 138.727C127.428 138.929 127.15 139.138 126.884 139.209C122.184 140.473 117.502 141.937 112.758 143.024C110.908 143.452 109.041 143.817 107.165 144.116C105.051 144.451 102.89 144.463 100.777 144.742C100.535 144.775 100.946 145.217 100.71 145.613C100.608 145.609 100.506 145.605 100.403 145.6C99.055 144.488 97.622 142.319 96.4405 141.168C95.1279 139.888 92.189 140.339 90.3919 140.449C89.8461 140.52 89.112 140.631 88.6022 140.459L88.5527 140.314C89.3947 139.509 93.3404 139.532 94.5405 139.554C96.903 139.598 98.5805 142.367 100.019 144.118C102.592 143.998 104.849 143.83 107.392 143.393C114.031 142.251 120.358 139.999 126.869 138.328Z" fill="#58D2FF"/>
  <path d="M125.286 73.7764C125.646 74.1609 125.238 74.6626 124.97 75.0585C120.036 82.3904 116.841 90.1024 128.935 91.6152C129.652 91.7048 131.376 91.4036 131.818 91.7162C131.735 92.8778 127.591 92.3506 126.664 92.3129C126.384 92.5037 126.469 92.4654 126.337 92.8734C126.049 93.6054 125.045 96.1589 124.26 96.2883L124.123 96.1437C123.998 95.1281 125.375 92.9013 125.979 92.072C118.432 89.953 118.567 84.367 122.093 78.6108C123.076 77.0049 123.994 75.1786 125.286 73.7764Z" fill="#58D2FF" fill-opacity="0.988235"/>
  <path d="M51.796 97.3867C53.162 100.309 54.1459 102.826 55.6678 105.809C56.5271 107.496 57.4376 109.157 58.3982 110.788C58.8098 111.483 60.372 113.766 60.2682 114.443L60.1181 114.486C59.0522 113.847 55.5495 107.43 54.838 106.035C53.6718 103.751 52.1013 100.478 51.2598 98.0905C51.3771 97.9169 51.4398 97.9445 51.6893 97.8593L51.796 97.3867Z" fill="#58D2FF" fill-opacity="0.976471"/>
  <path d="M60.9542 81.958C61.2201 79.2835 61.5946 76.7589 60.6719 74.1235C60.4647 73.5317 59.6294 72.2908 59.8873 71.8417C62.2508 71.6593 62.5637 80.3743 61.8013 82.0778C61.4404 82.3474 60.7806 84.7332 60.4061 85.1899C60.3107 85.306 60.2608 85.3189 60.1072 85.5221C60.1208 86.1259 60.1769 85.5345 60.3806 86.0219C60.2419 86.2287 60.2481 86.215 60.0414 86.3574L59.8838 86.2814C59.4358 85.3257 61.3842 83.1765 60.9542 81.958Z" fill="#58D2FF"/>
  <path d="M51.2593 98.0898C49.4261 93.6265 48.026 88.5493 47.6285 83.7283C47.5903 83.2644 47.4518 81.7162 47.8117 81.4531C48.282 82.0814 48.3389 84.9903 48.4801 85.9325C48.9362 88.9775 49.8206 91.8657 50.8063 94.7737C51.1014 95.6444 51.5376 96.5255 51.7955 97.386L51.6888 97.8586C51.4393 97.9438 51.3766 97.9162 51.2593 98.0898Z" fill="#58D2FF"/>
  <path d="M94.2478 122.275C94.4244 122.391 94.3665 122.352 94.4965 122.537C94.4688 122.772 94.4172 122.987 94.2518 123.164C92.4088 125.14 90.4484 126.428 87.8097 126.751C87.5332 126.567 87.611 126.688 87.5254 126.409C87.8041 125.972 89.1713 125.646 89.7009 125.457C91.5964 124.779 92.7915 123.613 94.2478 122.275Z" fill="#58D2FF" fill-opacity="0.984314"/>
  <path d="M134.931 75.0439C135.748 75.0868 136.097 75.0612 136.859 75.3757C138.12 75.8965 139.203 77.1483 138.573 78.5783C138.004 78.4813 137.605 77.0019 137.07 76.4394C136.435 75.7712 135.321 75.8926 134.877 75.3304L134.931 75.0439Z" fill="#58D2FF" fill-opacity="0.988235"/>
  <path d="M127.359 76.6494L127.586 76.7449L127.652 76.9455C127.219 78.0053 124.077 77.7794 125.454 79.5003C125.808 79.9442 125.748 80.0535 125.414 80.4477C122.525 78.3891 125.542 77.2665 127.359 76.6494Z" fill="#58D2FF" fill-opacity="0.984314"/>
  <path d="M130.575 69.7583C132.21 69.6471 134.009 71.2719 133.212 72.9624C132.373 72.7065 132.459 71.6078 131.862 70.9826C131.491 70.5923 130.952 70.5267 130.541 70.0478L130.575 69.7583Z" fill="#58D2FF" fill-opacity="0.988235"/>
  <path d="M46.8533 72.2466C47.1874 72.1349 47.5557 72.2122 47.8168 72.4489C48.0778 72.6855 48.1907 73.0446 48.1121 73.3881C48.0334 73.7315 47.7757 74.0058 47.4377 74.1054C46.928 74.2556 46.392 73.9698 46.2326 73.463C46.0732 72.9561 46.3493 72.415 46.8533 72.2466Z" fill="#58D2FF"/>
  <path d="M52.8769 78.1885C53.208 78.2712 53.0796 78.189 53.3009 78.3992C53.5383 78.9807 53.9203 82.0818 53.8567 82.7138C53.5874 82.6744 53.5816 82.6889 53.3492 82.5269C52.8093 81.5747 52.8127 79.317 52.8769 78.1885Z" fill="#58D2FF"/>
  <path d="M50.0478 79.3027L50.4059 79.403C50.536 79.6557 50.671 80.4758 50.6826 80.7872C50.7112 81.5627 51.2187 83.1135 51.0045 83.7731C49.8101 83.5465 49.9561 80.2202 50.0478 79.3027Z" fill="#58D2FF"/>
  <path d="M127.064 85.0146C127.448 85.0369 128.368 85.4413 128.874 85.5933C129.371 85.4869 130.334 85.1467 130.738 85.327C130.817 85.6337 130.805 85.5193 130.659 85.8678C129.604 86.5997 127.287 86.5334 127.064 85.0146Z" fill="#58D2FF" fill-opacity="0.988235"/>
  <path d="M55.9657 69.2876C56.2971 69.1882 56.6565 69.2793 56.9006 69.5247C57.1446 69.77 57.2338 70.1298 57.1325 70.4607C57.0313 70.7917 56.7562 71.04 56.4166 71.1069C55.9255 71.2036 55.445 70.8978 55.3246 70.412C55.2042 69.9262 55.4863 69.4315 55.9657 69.2876Z" fill="#58D2FF"/>
  <path d="M55.5916 77.3799C55.7199 77.4228 55.9283 77.4829 55.9397 77.6249C55.9988 78.3595 56.7514 80.7673 56.6051 81.33C55.404 81.0641 55.3808 78.2835 55.5916 77.3799Z" fill="#58D2FF"/>
  <path d="M51.4578 70.9219C51.7449 70.8545 52.0459 70.9482 52.2439 71.1667C52.4421 71.3851 52.506 71.6938 52.4109 71.9729C52.3159 72.252 52.0769 72.4575 51.7866 72.5097C51.354 72.5874 50.9381 72.3063 50.849 71.8759C50.7599 71.4454 51.0299 71.0224 51.4578 70.9219Z" fill="#58D2FF"/>
  <path d="M70 129H63V137H70V129Z" fill="#58D2FF"/>
  <path d="M65.105 135.552L67.9735 135.264C67.9902 135.262 68.0056 135.255 68.0167 135.242C68.0229 135.235 68.0278 135.227 68.0307 135.218C68.0337 135.209 68.0348 135.199 68.034 135.19L67.7668 132.526C66.7156 133.71 65.2797 134.484 63.7129 134.711C63.8229 134.983 64.018 135.212 64.269 135.364C64.52 135.515 64.8134 135.581 65.105 135.552Z" fill="#40435C"/>
  <path d="M67.4315 129.871L67.4264 129.872C67.1265 129.92 66.8516 130.068 66.6459 130.292C66.4403 130.516 66.3156 130.802 66.2921 131.105C66.2908 131.12 66.2839 131.135 66.2729 131.146C66.2618 131.158 66.2472 131.165 66.2315 131.166C66.2197 131.167 66.2078 131.165 66.197 131.161L66.1932 131.159C65.9432 131.033 65.6603 130.987 65.3835 131.029C65.1067 131.071 64.8496 131.197 64.6477 131.391C64.4457 131.585 64.3088 131.836 64.2558 132.111C64.2028 132.386 64.2363 132.67 64.3518 132.925C64.3549 132.932 64.3568 132.939 64.3576 132.947C64.3589 132.96 64.3562 132.974 64.3498 132.986C64.3434 132.998 64.3335 133.007 64.3215 133.013C64.0295 133.172 63.806 133.432 63.6934 133.744C63.5809 134.057 63.5871 134.4 63.711 134.708C66.0035 134.324 67.6514 132.262 67.5055 129.929C67.5031 129.912 67.494 129.896 67.4802 129.885C67.4664 129.874 67.4489 129.869 67.4315 129.871Z" fill="#40435C"/>
</svg>