<?xml version="1.0" encoding="utf-8"?>
<!-- Generator: Adobe Illustrator 24.0.0, SVG Export Plug-In . SVG Version: 6.00 Build 0)  -->
<svg version="1.1" xmlns="http://www.w3.org/2000/svg" xmlns:xlink="http://www.w3.org/1999/xlink" x="0px" y="0px"
	 viewBox="0 0 640 420" style="enable-background:new 0 0 640 420;" xml:space="preserve">
<style type="text/css">
	.st0{fill:url(#SVGID_1_);}
	.st1{fill:#00AED7;}
	.st2{fill:#FFFFFF;}
	.st3{fill:#80CAE3;}
	.st4{fill:url(#SVGID_2_);}
	.st5{enable-background:new    ;}
	.st6{fill:#DEA700;}
	.st7{fill:url(#SVGID_3_);}
	.st8{fill:url(#SVGID_4_);}
	.st9{fill:url(#SVGID_5_);}
	.st10{fill:url(#SVGID_6_);}
	.st11{fill:#222431;}
	.st12{fill:url(#SVGID_7_);}
	.st13{fill:#80CCE5;}
	.st14{opacity:0.3;fill:url(#SVGID_8_);}
	.st15{fill:#64656E;}
	.st16{fill:url(#SVGID_9_);}
	.st17{fill:url(#SVGID_10_);}
	.st18{fill:#0098C3;}
</style>
<g id="dark">
	
		<radialGradient id="SVGID_1_" cx="643.5404" cy="5.3362" r="407.0949" gradientTransform="matrix(0.9697 0 0 1 9.697 0)" gradientUnits="userSpaceOnUse">
		<stop  offset="0" style="stop-color:#007099"/>
		<stop  offset="2.704840e-02" style="stop-color:#026D95"/>
		<stop  offset="0.3173" style="stop-color:#13516F"/>
		<stop  offset="0.5856" style="stop-color:#203D54"/>
		<stop  offset="0.8217" style="stop-color:#273143"/>
		<stop  offset="1" style="stop-color:#2A2D3D"/>
	</radialGradient>
	<rect class="st0" width="640" height="420"/>
</g>
<g id="Software">
	<g>
		<g>
			<path class="st1" d="M181.2,192.4c1.3-0.7,1.3-1.9,0-2.7l-24-13.9c-1.3-0.7-3.3-0.7-4.6,0l-24.1,13.9c-1.3,0.7-1.3,1.9,0,2.7
				l24,13.9c1.3,0.7,3.3,0.7,4.6,0L181.2,192.4z"/>
		</g>
		<path class="st2" d="M127.6,191.2c0,0,0,0.1,0,0.1c0,0,0,0.1,0,0.1c0,0,0,0.1,0,0.1c0,0,0,0.1,0,0.1c0,0,0,0.1,0,0.1
			c0,0,0.1,0.1,0.1,0.1c0,0,0,0,0,0c0,0,0.1,0.1,0.1,0.1c0,0,0,0,0,0c0,0,0.1,0.1,0.1,0.1c0,0,0.1,0.1,0.1,0.1c0,0,0.1,0,0.1,0.1
			c0,0,0.1,0.1,0.1,0.1c0,0,0.1,0.1,0.1,0.1l24,13.9l0,17.2l-24-13.9c0,0,0,0,0,0c0,0-0.1,0-0.1-0.1c0,0-0.1-0.1-0.1-0.1
			c0,0-0.1,0-0.1-0.1c0,0-0.1-0.1-0.1-0.1c0,0,0,0,0,0c0,0-0.1-0.1-0.1-0.1c0,0,0,0,0,0c0,0,0,0-0.1-0.1c0,0,0,0,0-0.1c0,0,0,0,0,0
			c0,0-0.1-0.1-0.1-0.1c0,0,0,0,0,0c0,0,0-0.1,0-0.1c0,0,0,0,0-0.1c0,0,0,0,0,0c0,0,0-0.1,0-0.1c0,0,0,0,0-0.1c0,0,0,0,0,0
			c0,0,0-0.1,0-0.1c0,0,0,0,0-0.1v0L127.6,191.2C127.6,191.1,127.6,191.1,127.6,191.2z"/>
		<path class="st3" d="M181.2,192.4c0.6-0.4,1-0.9,1-1.3l0,17.2c0,0.5-0.3,1-1,1.3l-24.1,13.9l0-17.2L181.2,192.4z"/>
		<g>
			<path class="st2" d="M181.2,191c1.3-0.7,1.3-1.9,0-2.7l-24-13.9c-1.3-0.7-3.3-0.7-4.6,0l-24.1,13.9c-1.3,0.7-1.3,1.9,0,2.7
				l24,13.9c1.3,0.7,3.3,0.7,4.6,0L181.2,191z"/>
		</g>
		<linearGradient id="SVGID_2_" gradientUnits="userSpaceOnUse" x1="152.2968" y1="215.0848" x2="157.4894" y2="215.0848">
			<stop  offset="0" style="stop-color:#FFFFFF"/>
			<stop  offset="1" style="stop-color:#80CAE3"/>
		</linearGradient>
		<path class="st4" d="M152.9,223.7c-0.1,0-0.5-0.3-0.6-0.3v-17.1c0.1,0.1,0.4,0.2,0.5,0.3c0,0,0.1,0,0.1,0c0.1,0,0.2,0.1,0.3,0.1
			c0,0,0.1,0,0.1,0c0.1,0,0.1,0,0.2,0.1c0,0,0.1,0,0.1,0c0.1,0,0.1,0,0.2,0c0,0,0.1,0,0.1,0c0.1,0,0.2,0,0.4,0.1c0,0,0.1,0,0.1,0
			c0.1,0,0.1,0,0.2,0c0.1,0,0.1,0,0.1,0c0.1,0,0.1,0,0.2,0c0.1,0,0.1,0,0.2,0c0.1,0,0.1,0,0.2,0c0.1,0,0.1,0,0.2,0
			c0.1,0,0.1,0,0.2,0c0,0,0.1,0,0.1,0c0.1,0,0.1,0,0.2,0c0,0,0.1,0,0.1,0c0.1,0,0.1,0,0.2-0.1c0,0,0.1,0,0.1,0
			c0.1,0,0.2-0.1,0.3-0.1c0.1,0,0.1,0,0.2-0.1c0,0,0.1,0,0.1,0c0.1,0,0.5-0.3,0.6-0.3v17.2c-0.1,0-0.5,0.3-0.6,0.3c0,0-0.1,0-0.1,0
			c0,0-0.1,0-0.1,0.1c0,0,0,0,0,0c-0.1,0-0.2,0.1-0.3,0.1c0,0,0,0,0,0c0,0-0.1,0-0.1,0c-0.1,0-0.1,0-0.2,0c0,0,0,0-0.1,0
			c0,0-0.1,0-0.1,0c-0.1,0-0.1,0-0.2,0c0,0-0.1,0-0.1,0c0,0-0.1,0-0.1,0c-0.1,0-0.1,0-0.2,0c0,0-0.1,0-0.1,0c0,0-0.1,0-0.1,0
			c-0.1,0-0.1,0-0.2,0c0,0-0.1,0-0.1,0c0,0,0,0-0.1,0c-0.1,0-0.1,0-0.2,0c0,0-0.1,0-0.1,0c0,0,0,0-0.1,0c-0.1,0-0.1,0-0.2,0
			c0,0-0.1,0-0.1,0c0,0,0,0,0,0c-0.1,0-0.3,0-0.4-0.1c0,0,0,0,0,0c0,0-0.1,0-0.1,0c-0.1,0-0.1,0-0.2,0c0,0-0.1,0-0.1,0
			c-0.1,0-0.1,0-0.2,0c0,0,0,0,0,0c0,0,0,0-0.1,0C153.1,223.8,153.1,223.7,152.9,223.7C152.9,223.7,152.9,223.7,152.9,223.7z"/>
		<g>
			<g class="st5">
				<g>
					<path class="st2" d="M163.4,206.9l1.2-0.7c0.4-0.2,0.7,0,0.7,0.4c0,0.4-0.3,1-0.7,1.2l-1.2,0.7c-0.4,0.2-0.7,0-0.7-0.4
						C162.7,207.7,163,207.1,163.4,206.9L163.4,206.9z"/>
				</g>
			</g>
		</g>
		<g>
			<g class="st5">
				<g>
					<path class="st1" d="M163.4,210.7l1.2-0.7c0.4-0.2,0.7,0,0.7,0.4c0,0.4-0.3,1-0.7,1.2l-1.2,0.7c-0.4,0.2-0.7,0.1-0.7-0.4
						C162.7,211.4,163,210.9,163.4,210.7L163.4,210.7z"/>
				</g>
			</g>
		</g>
		<g>
			<g class="st5">
				<g>
					<path class="st2" d="M163.4,214.6l1.2-0.7c0.4-0.2,0.7,0,0.7,0.4c0,0.4-0.3,1-0.7,1.2l-1.2,0.7c-0.4,0.2-0.7,0-0.7-0.4
						C162.7,215.4,163,214.8,163.4,214.6L163.4,214.6z"/>
				</g>
			</g>
		</g>
		<g>
			<g class="st5">
				<g>
					<path class="st1" d="M159.9,208.7l1.2-0.7c0.4-0.2,0.7,0,0.7,0.4c0,0.4-0.3,1-0.7,1.2l-1.2,0.7c-0.4,0.2-0.7,0-0.7-0.4
						C159.2,209.5,159.5,208.9,159.9,208.7L159.9,208.7z"/>
				</g>
			</g>
		</g>
		<g>
			<g class="st5">
				<g>
					<path class="st2" d="M159.9,212.5l1.2-0.7c0.4-0.2,0.7-0.1,0.7,0.4c0,0.4-0.3,1-0.7,1.2l-1.2,0.7c-0.4,0.2-0.7,0-0.7-0.4
						C159.2,213.3,159.5,212.7,159.9,212.5L159.9,212.5z"/>
				</g>
			</g>
		</g>
		<g>
			<g class="st5">
				<g>
					<path class="st1" d="M159.9,216.4l1.2-0.7c0.4-0.2,0.7,0,0.7,0.4c0,0.4-0.3,1-0.7,1.2l-1.2,0.7c-0.4,0.2-0.7,0-0.7-0.4
						C159.2,217.2,159.5,216.7,159.9,216.4L159.9,216.4z"/>
				</g>
			</g>
		</g>
		<g>
			<g class="st5">
				<g>
					<path class="st1" d="M167.8,204.8l12.2-7c0.4-0.2,0.7,0,0.7,0.4c0,0.4-0.3,1-0.7,1.2l-12.2,7c-0.4,0.2-0.7,0-0.7-0.4
						C167.2,205.5,167.5,205,167.8,204.8L167.8,204.8z"/>
				</g>
			</g>
		</g>
		<g>
			<g class="st5">
				<g>
					<path class="st1" d="M167.8,208.4l12.2-7c0.4-0.2,0.7,0,0.7,0.4c0,0.4-0.3,1-0.7,1.2l-12.2,7c-0.4,0.2-0.7,0-0.7-0.4
						C167.2,209.2,167.5,208.6,167.8,208.4L167.8,208.4z"/>
				</g>
			</g>
		</g>
		<g>
			<g class="st5">
				<g>
					<path class="st1" d="M167.8,212l12.2-7c0.4-0.2,0.7,0,0.7,0.4c0,0.4-0.3,1-0.7,1.2l-12.2,7c-0.4,0.2-0.7,0-0.7-0.4
						C167.2,212.8,167.5,212.2,167.8,212L167.8,212z"/>
				</g>
			</g>
		</g>
		<polygon class="st1" points="133,208.9 148.3,217.8 148.3,207.5 133,198.6 		"/>
		<g>
			<g>
				<path class="st3" d="M153.8,196.6l-10.1-5.9c-0.3-0.2-0.5-0.4-0.5-0.7c0-0.3,0.2-0.5,0.5-0.7l10.1-5.9c0.6-0.3,1.6-0.3,2.1,0
					l10.1,5.9c0.3,0.2,0.5,0.4,0.5,0.7c0,0.3-0.2,0.5-0.5,0.7l-10.1,5.8c-0.3,0.2-0.7,0.3-1.1,0.3
					C154.5,196.9,154.1,196.8,153.8,196.6z M154.1,183.8l-10.1,5.9c-0.2,0.1-0.3,0.2-0.3,0.4s0.1,0.3,0.3,0.4l10.1,5.9
					c0.4,0.3,1.3,0.3,1.7,0l10.1-5.8c0.2-0.1,0.3-0.3,0.3-0.4c0-0.1-0.1-0.3-0.3-0.4l-10.1-5.9c-0.2-0.1-0.5-0.2-0.9-0.2
					C154.6,183.6,154.3,183.7,154.1,183.8z"/>
			</g>
		</g>
		<g>
			<path class="st6" d="M160.6,190.3c0.3-0.2,0.3-0.4,0-0.6l-5.2-3c-0.3-0.2-0.7-0.2-1,0l-5.2,3c-0.3,0.2-0.3,0.4,0,0.6l5.2,3
				c0.3,0.2,0.7,0.2,1,0L160.6,190.3z"/>
		</g>
	</g>
	<g>
		<g>
			<path class="st2" d="M488.6,91.4c-0.7,0-1.4-0.3-1.8-0.9c-0.8-1-0.6-2.4,0.4-3.2l16.2-12.4c1-0.8,2.4-0.6,3.2,0.4
				c0.8,1,0.6,2.4-0.4,3.2L490,90.9C489.6,91.2,489.1,91.4,488.6,91.4z"/>
		</g>
		<g>
			<path class="st2" d="M468.2,83.8c-1.1,0-2.1-0.8-2.3-2l-2.7-20.2c-0.2-1.3,0.7-2.4,2-2.6c1.2-0.2,2.4,0.7,2.6,2l2.7,20.2
				c0.2,1.3-0.7,2.4-2,2.6C468.4,83.8,468.3,83.8,468.2,83.8z"/>
		</g>
		<g>
			<path class="st2" d="M509.9,117.7c-0.3,0-0.6-0.1-0.9-0.2l-18.1-7.5c-1.2-0.5-1.7-1.8-1.2-3c0.5-1.2,1.8-1.7,3-1.2l18.1,7.5
				c1.2,0.5,1.7,1.8,1.2,3C511.7,117.2,510.8,117.7,509.9,117.7z"/>
		</g>
	</g>
	<g>
		<g>
			<linearGradient id="SVGID_3_" gradientUnits="userSpaceOnUse" x1="168.0419" y1="233.8577" x2="468.5659" y2="233.8577">
				<stop  offset="9.483465e-07" style="stop-color:#222431"/>
				<stop  offset="1" style="stop-color:#005675"/>
			</linearGradient>
			<path class="st7" d="M468.6,145.4v160c0,9.2-7.3,16.8-16.1,16.8H184.2c-8.9,0-16.1-7.6-16.1-16.8v-160H468.6z"/>
			<g>
				<linearGradient id="SVGID_4_" gradientUnits="userSpaceOnUse" x1="330.2729" y1="276.9936" x2="467.0078" y2="276.9936">
					<stop  offset="0" style="stop-color:#007099;stop-opacity:0"/>
					<stop  offset="1" style="stop-color:#007099"/>
				</linearGradient>
				<path class="st8" d="M372.1,321.2h86.1c0.5,0,8.8-11.3,8.8-11.9v-76.4c-37.4,34.5-85.9,54.7-136.7,56.9
					C335.7,308.4,352.8,321.2,372.1,321.2z"/>
				<linearGradient id="SVGID_5_" gradientUnits="userSpaceOnUse" x1="328.5366" y1="218.283" x2="467.0194" y2="218.283">
					<stop  offset="0" style="stop-color:#007099;stop-opacity:0"/>
					<stop  offset="1" style="stop-color:#007099"/>
				</linearGradient>
				<path class="st9" d="M464.8,146.9h-0.2c-20.1,1.2-36.7,16-40.2,35.8l0,0c-0.2,1-1.1,1.8-2.1,1.8c-0.4,0-0.8-0.1-1.1-0.3l0,0l0,0
					c0,0-0.1,0-0.1-0.1c-20.3-12.9-47.2-6.9-60.1,13.4c-7.1,11.1-8.7,24.8-4.5,37.3l0,0c0.1,0.2,0.1,0.5,0.1,0.7
					c0,0.9-0.5,1.7-1.4,2l0,0c-20.4,8.5-31.1,31-25,52.3c74.6-4.9,133.9-65.6,136.8-140.7C467,147.8,466,146.9,464.8,146.9z"/>
			</g>
			<linearGradient id="SVGID_6_" gradientUnits="userSpaceOnUse" x1="168.0419" y1="124.351" x2="468.5659" y2="124.351">
				<stop  offset="0.1512" style="stop-color:#C7C9C8"/>
				<stop  offset="0.4552" style="stop-color:#E2E3E2"/>
				<stop  offset="0.7702" style="stop-color:#F7F7F7"/>
				<stop  offset="0.976" style="stop-color:#FFFFFF"/>
			</linearGradient>
			<path class="st10" d="M468.6,119.4v26.1H168v-26.1c0-8.9,7.3-16.1,16.1-16.1h268.3C461.3,103.3,468.6,110.5,468.6,119.4z"/>
			<circle class="st11" cx="193" cy="125.6" r="6.6"/>
			<circle class="st11" cx="214.3" cy="125.6" r="6.6"/>
			<circle class="st11" cx="235.7" cy="125.6" r="6.6"/>
			<linearGradient id="SVGID_7_" gradientUnits="userSpaceOnUse" x1="166.5419" y1="212.7597" x2="470.0663" y2="212.7597">
				<stop  offset="0.1512" style="stop-color:#C7C9C8"/>
				<stop  offset="0.4552" style="stop-color:#E2E3E2"/>
				<stop  offset="0.7702" style="stop-color:#F7F7F7"/>
				<stop  offset="0.976" style="stop-color:#FFFFFF"/>
			</linearGradient>
			<path class="st12" d="M452.4,101.8H184.2c-9.7,0-17.6,7.9-17.6,17.6v24.4v3.1v158.5c0,10.1,7.9,18.3,17.6,18.3h268.3
				c9.7,0,17.6-8.2,17.6-18.3V146.9v-3.1v-24.4C470.1,109.7,462.2,101.8,452.4,101.8z M467.1,305.5c0,8.4-6.6,15.3-14.6,15.3H184.2
				c-8.1,0-14.6-6.9-14.6-15.3V146.9h297.5V305.5z M169.5,143.8v-24.4c0-8.1,6.6-14.6,14.6-14.6h268.3c8.1,0,14.6,6.6,14.6,14.6
				v24.4H169.5z"/>
		</g>
		<g>
			<path class="st2" d="M225.2,184.7c-0.1-0.4-0.5-0.7-0.9-0.7c-1.3,0-2.5-0.7-3-1.9c-0.5-1.2-0.2-2.6,0.7-3.5
				c0.3-0.3,0.3-0.8,0.1-1.1c-0.7-0.8-1.5-1.6-2.3-2.2c-0.3-0.3-0.8-0.2-1.1,0.1c-0.8,1-2.3,1.3-3.5,0.9c-1.2-0.5-2-1.7-2-3.1
				c0-0.4-0.3-0.8-0.7-0.8c-1.1-0.1-2.1-0.1-3.2,0c-0.4,0.1-0.7,0.4-0.7,0.8c0.1,1.3-0.7,2.6-1.9,3.1c-1.2,0.5-2.7,0.2-3.5-0.7
				c-0.3-0.3-0.8-0.3-1.1-0.1c-0.8,0.7-1.6,1.5-2.3,2.3c-0.3,0.3-0.2,0.8,0.1,1.1c1,0.9,1.3,2.3,0.9,3.5c-0.5,1.2-1.7,2-3.1,2
				c-0.5,0-0.8,0.3-0.8,0.7c-0.1,1.1-0.1,2.2,0,3.2c0.1,0.4,0.5,0.7,0.9,0.7c1.2-0.1,2.4,0.7,3,1.9c0.5,1.2,0.2,2.6-0.7,3.5
				c-0.3,0.3-0.3,0.8-0.1,1.1c0.7,0.8,1.4,1.6,2.3,2.2c0.3,0.3,0.8,0.2,1.1-0.1c0.8-1,2.4-1.3,3.5-0.9c1.2,0.5,2,1.7,2,3.1
				c0,0.4,0.3,0.8,0.7,0.8c0.5,0.1,1.1,0.1,1.6,0.1c0.5,0,1,0,1.6-0.1c0.4-0.1,0.7-0.4,0.7-0.8c-0.1-1.3,0.7-2.6,1.9-3.1
				c1.2-0.5,2.7-0.2,3.5,0.7c0.3,0.3,0.8,0.3,1.1,0.1c0.8-0.7,1.6-1.5,2.3-2.3c0.3-0.3,0.2-0.8-0.1-1.1c-1-0.9-1.4-2.3-0.9-3.5
				c0.5-1.2,1.6-2,2.9-2l0.2,0c0.4,0,0.8-0.3,0.8-0.7C225.3,186.9,225.3,185.8,225.2,184.7z M211.2,194.7c-4.5,0.1-8.3-3.5-8.3-8.1
				c-0.1-4.5,3.5-8.3,8.1-8.3c4.5-0.1,8.3,3.5,8.3,8.1S215.7,194.7,211.2,194.7z"/>
			<path class="st13" d="M245.1,179.3c0-0.3-0.4-0.5-0.7-0.5c-1,0-1.9-0.5-2.2-1.4c-0.4-0.9-0.2-2,0.6-2.7c0.2-0.2,0.2-0.6,0.1-0.8
				c-0.5-0.6-1.1-1.2-1.7-1.7c-0.2-0.2-0.6-0.2-0.8,0.1c-0.6,0.7-1.8,1-2.7,0.6c-0.9-0.4-1.5-1.3-1.5-2.3c0-0.3-0.2-0.6-0.5-0.6
				c-0.8-0.1-1.6-0.1-2.4,0c-0.3,0-0.5,0.3-0.5,0.6c0.1,1-0.5,1.9-1.4,2.3c-0.9,0.4-2,0.1-2.7-0.6c-0.2-0.2-0.6-0.2-0.8-0.1
				c-0.6,0.5-1.2,1.1-1.7,1.7c-0.2,0.2-0.2,0.6,0.1,0.8c0.8,0.7,1,1.7,0.6,2.7c-0.4,0.9-1.3,1.5-2.3,1.5c-0.3,0-0.6,0.2-0.6,0.5
				c-0.1,0.8-0.1,1.6,0,2.4c0,0.3,0.4,0.5,0.7,0.5c0.9,0,1.8,0.5,2.2,1.4c0.4,0.9,0.2,2-0.6,2.7c-0.2,0.2-0.2,0.6-0.1,0.8
				c0.5,0.6,1.1,1.2,1.7,1.7c0.2,0.2,0.6,0.2,0.8-0.1c0.6-0.7,1.8-1,2.7-0.6c0.9,0.4,1.5,1.3,1.5,2.3c0,0.3,0.2,0.6,0.5,0.6
				c0.4,0,0.8,0.1,1.2,0.1c0.4,0,0.8,0,1.2-0.1c0.3,0,0.5-0.3,0.5-0.6c-0.1-1,0.5-1.9,1.4-2.3c0.9-0.4,2-0.1,2.7,0.6
				c0.2,0.2,0.6,0.2,0.8,0.1c0.6-0.5,1.2-1.1,1.7-1.7c0.2-0.2,0.2-0.6-0.1-0.8c-0.8-0.7-1-1.7-0.6-2.7c0.3-0.9,1.2-1.5,2.2-1.5
				l0.1,0c0.3,0,0.6-0.2,0.6-0.5C245.2,180.9,245.2,180.1,245.1,179.3z M234.5,186.8c-3.4,0.1-6.2-2.7-6.3-6.1s2.7-6.2,6.1-6.3
				c3.4-0.1,6.2,2.7,6.3,6.1S237.9,186.8,234.5,186.8z"/>
		</g>
		<g>
			<linearGradient id="SVGID_8_" gradientUnits="userSpaceOnUse" x1="318.893" y1="225.017" x2="318.893" y2="294.7283">
				<stop  offset="2.663895e-07" style="stop-color:#DEA700"/>
				<stop  offset="1" style="stop-color:#DEA700;stop-opacity:0"/>
			</linearGradient>
			<polyline class="st14" points="444.1,238.4 437.6,260.6 428.9,251.6 407.5,257.8 403.1,239.6 388,235.1 380.1,252 365.3,257.8 
				341.3,239.2 319.5,257.8 294.9,257.8 271.1,234 242.4,225 226.3,234 218.3,229.4 193.7,257.8 193.7,294.7 444.1,294.7 			"/>
			<g>
				<path class="st15" d="M444.1,258.2h-2.8v-0.8h2.8V258.2z M438.6,258.2H435v-0.8h3.6V258.2z M432.3,258.2h-3.6v-0.8h3.6V258.2z
					 M425.9,258.2h-3.6v-0.8h3.6V258.2z M419.6,258.2h-3.6v-0.8h3.6V258.2z M413.2,258.2h-3.6v-0.8h3.6V258.2z M406.9,258.2h-3.6
					v-0.8h3.6V258.2z M400.5,258.2h-3.6v-0.8h3.6V258.2z M394.2,258.2h-3.6v-0.8h3.6V258.2z M387.8,258.2h-3.6v-0.8h3.6V258.2z
					 M381.5,258.2h-3.6v-0.8h3.6V258.2z M375.1,258.2h-3.6v-0.8h3.6V258.2z M368.8,258.2h-3.6v-0.8h3.6V258.2z M362.4,258.2h-3.6
					v-0.8h3.6V258.2z M356.1,258.2h-3.6v-0.8h3.6V258.2z M349.7,258.2h-3.6v-0.8h3.6V258.2z M343.4,258.2h-3.6v-0.8h3.6V258.2z
					 M337,258.2h-3.6v-0.8h3.6V258.2z M330.7,258.2H327v-0.8h3.6V258.2z M324.3,258.2h-3.6v-0.8h3.6V258.2z M318,258.2h-3.6v-0.8
					h3.6V258.2z M311.6,258.2H308v-0.8h3.6V258.2z M305.3,258.2h-3.6v-0.8h3.6V258.2z M298.9,258.2h-3.6v-0.8h3.6V258.2z
					 M292.6,258.2h-3.6v-0.8h3.6V258.2z M286.2,258.2h-3.6v-0.8h3.6V258.2z M279.9,258.2h-3.6v-0.8h3.6V258.2z M273.5,258.2h-3.6
					v-0.8h3.6V258.2z M267.2,258.2h-3.6v-0.8h3.6V258.2z M260.8,258.2h-3.6v-0.8h3.6V258.2z M254.5,258.2h-3.6v-0.8h3.6V258.2z
					 M248.1,258.2h-3.6v-0.8h3.6V258.2z M241.8,258.2h-3.6v-0.8h3.6V258.2z M235.4,258.2h-3.6v-0.8h3.6V258.2z M229.1,258.2h-3.6
					v-0.8h3.6V258.2z M222.7,258.2h-3.6v-0.8h3.6V258.2z M216.4,258.2h-3.6v-0.8h3.6V258.2z M210,258.2h-3.6v-0.8h3.6V258.2z
					 M203.7,258.2H200v-0.8h3.6V258.2z M197.3,258.2h-3.6v-0.8h3.6V258.2z"/>
			</g>
			<g>
				<path class="st15" d="M444.1,239.7h-2.8v-0.8h2.8V239.7z M438.6,239.7H435v-0.8h3.6V239.7z M432.3,239.7h-3.6v-0.8h3.6V239.7z
					 M425.9,239.7h-3.6v-0.8h3.6V239.7z M419.6,239.7h-3.6v-0.8h3.6V239.7z M413.2,239.7h-3.6v-0.8h3.6V239.7z M406.9,239.7h-3.6
					v-0.8h3.6V239.7z M400.5,239.7h-3.6v-0.8h3.6V239.7z M394.2,239.7h-3.6v-0.8h3.6V239.7z M387.8,239.7h-3.6v-0.8h3.6V239.7z
					 M381.5,239.7h-3.6v-0.8h3.6V239.7z M375.1,239.7h-3.6v-0.8h3.6V239.7z M368.8,239.7h-3.6v-0.8h3.6V239.7z M362.4,239.7h-3.6
					v-0.8h3.6V239.7z M356.1,239.7h-3.6v-0.8h3.6V239.7z M349.7,239.7h-3.6v-0.8h3.6V239.7z M343.4,239.7h-3.6v-0.8h3.6V239.7z
					 M337,239.7h-3.6v-0.8h3.6V239.7z M330.7,239.7H327v-0.8h3.6V239.7z M324.3,239.7h-3.6v-0.8h3.6V239.7z M318,239.7h-3.6v-0.8
					h3.6V239.7z M311.6,239.7H308v-0.8h3.6V239.7z M305.3,239.7h-3.6v-0.8h3.6V239.7z M298.9,239.7h-3.6v-0.8h3.6V239.7z
					 M292.6,239.7h-3.6v-0.8h3.6V239.7z M286.2,239.7h-3.6v-0.8h3.6V239.7z M279.9,239.7h-3.6v-0.8h3.6V239.7z M273.5,239.7h-3.6
					v-0.8h3.6V239.7z M267.2,239.7h-3.6v-0.8h3.6V239.7z M260.8,239.7h-3.6v-0.8h3.6V239.7z M254.5,239.7h-3.6v-0.8h3.6V239.7z
					 M248.1,239.7h-3.6v-0.8h3.6V239.7z M241.8,239.7h-3.6v-0.8h3.6V239.7z M235.4,239.7h-3.6v-0.8h3.6V239.7z M229.1,239.7h-3.6
					v-0.8h3.6V239.7z M222.7,239.7h-3.6v-0.8h3.6V239.7z M216.4,239.7h-3.6v-0.8h3.6V239.7z M210,239.7h-3.6v-0.8h3.6V239.7z
					 M203.7,239.7H200v-0.8h3.6V239.7z M197.3,239.7h-3.6v-0.8h3.6V239.7z"/>
			</g>
			<g>
				<path class="st15" d="M444.1,221.2h-2.8v-0.8h2.8V221.2z M438.6,221.2H435v-0.8h3.6V221.2z M432.3,221.2h-3.6v-0.8h3.6V221.2z
					 M425.9,221.2h-3.6v-0.8h3.6V221.2z M419.6,221.2h-3.6v-0.8h3.6V221.2z M413.2,221.2h-3.6v-0.8h3.6V221.2z M406.9,221.2h-3.6
					v-0.8h3.6V221.2z M400.5,221.2h-3.6v-0.8h3.6V221.2z M394.2,221.2h-3.6v-0.8h3.6V221.2z M387.8,221.2h-3.6v-0.8h3.6V221.2z
					 M381.5,221.2h-3.6v-0.8h3.6V221.2z M375.1,221.2h-3.6v-0.8h3.6V221.2z M368.8,221.2h-3.6v-0.8h3.6V221.2z M362.4,221.2h-3.6
					v-0.8h3.6V221.2z M356.1,221.2h-3.6v-0.8h3.6V221.2z M349.7,221.2h-3.6v-0.8h3.6V221.2z M343.4,221.2h-3.6v-0.8h3.6V221.2z
					 M337,221.2h-3.6v-0.8h3.6V221.2z M330.7,221.2H327v-0.8h3.6V221.2z M324.3,221.2h-3.6v-0.8h3.6V221.2z M318,221.2h-3.6v-0.8
					h3.6V221.2z M311.6,221.2H308v-0.8h3.6V221.2z M305.3,221.2h-3.6v-0.8h3.6V221.2z M298.9,221.2h-3.6v-0.8h3.6V221.2z
					 M292.6,221.2h-3.6v-0.8h3.6V221.2z M286.2,221.2h-3.6v-0.8h3.6V221.2z M279.9,221.2h-3.6v-0.8h3.6V221.2z M273.5,221.2h-3.6
					v-0.8h3.6V221.2z M267.2,221.2h-3.6v-0.8h3.6V221.2z M260.8,221.2h-3.6v-0.8h3.6V221.2z M254.5,221.2h-3.6v-0.8h3.6V221.2z
					 M248.1,221.2h-3.6v-0.8h3.6V221.2z M241.8,221.2h-3.6v-0.8h3.6V221.2z M235.4,221.2h-3.6v-0.8h3.6V221.2z M229.1,221.2h-3.6
					v-0.8h3.6V221.2z M222.7,221.2h-3.6v-0.8h3.6V221.2z M216.4,221.2h-3.6v-0.8h3.6V221.2z M210,221.2h-3.6v-0.8h3.6V221.2z
					 M203.7,221.2H200v-0.8h3.6V221.2z M197.3,221.2h-3.6v-0.8h3.6V221.2z"/>
			</g>
			<g>
				<path class="st15" d="M444.1,276.6h-2.8v-0.8h2.8V276.6z M438.6,276.6H435v-0.8h3.6V276.6z M432.3,276.6h-3.6v-0.8h3.6V276.6z
					 M425.9,276.6h-3.6v-0.8h3.6V276.6z M419.6,276.6h-3.6v-0.8h3.6V276.6z M413.2,276.6h-3.6v-0.8h3.6V276.6z M406.9,276.6h-3.6
					v-0.8h3.6V276.6z M400.5,276.6h-3.6v-0.8h3.6V276.6z M394.2,276.6h-3.6v-0.8h3.6V276.6z M387.8,276.6h-3.6v-0.8h3.6V276.6z
					 M381.5,276.6h-3.6v-0.8h3.6V276.6z M375.1,276.6h-3.6v-0.8h3.6V276.6z M368.8,276.6h-3.6v-0.8h3.6V276.6z M362.4,276.6h-3.6
					v-0.8h3.6V276.6z M356.1,276.6h-3.6v-0.8h3.6V276.6z M349.7,276.6h-3.6v-0.8h3.6V276.6z M343.4,276.6h-3.6v-0.8h3.6V276.6z
					 M337,276.6h-3.6v-0.8h3.6V276.6z M330.7,276.6H327v-0.8h3.6V276.6z M324.3,276.6h-3.6v-0.8h3.6V276.6z M318,276.6h-3.6v-0.8
					h3.6V276.6z M311.6,276.6H308v-0.8h3.6V276.6z M305.3,276.6h-3.6v-0.8h3.6V276.6z M298.9,276.6h-3.6v-0.8h3.6V276.6z
					 M292.6,276.6h-3.6v-0.8h3.6V276.6z M286.2,276.6h-3.6v-0.8h3.6V276.6z M279.9,276.6h-3.6v-0.8h3.6V276.6z M273.5,276.6h-3.6
					v-0.8h3.6V276.6z M267.2,276.6h-3.6v-0.8h3.6V276.6z M260.8,276.6h-3.6v-0.8h3.6V276.6z M254.5,276.6h-3.6v-0.8h3.6V276.6z
					 M248.1,276.6h-3.6v-0.8h3.6V276.6z M241.8,276.6h-3.6v-0.8h3.6V276.6z M235.4,276.6h-3.6v-0.8h3.6V276.6z M229.1,276.6h-3.6
					v-0.8h3.6V276.6z M222.7,276.6h-3.6v-0.8h3.6V276.6z M216.4,276.6h-3.6v-0.8h3.6V276.6z M210,276.6h-3.6v-0.8h3.6V276.6z
					 M203.7,276.6H200v-0.8h3.6V276.6z M197.3,276.6h-3.6v-0.8h3.6V276.6z"/>
			</g>
			<g>
				<path class="st15" d="M444.1,295.1h-2.8v-0.8h2.8V295.1z M438.6,295.1H435v-0.8h3.6V295.1z M432.3,295.1h-3.6v-0.8h3.6V295.1z
					 M425.9,295.1h-3.6v-0.8h3.6V295.1z M419.6,295.1h-3.6v-0.8h3.6V295.1z M413.2,295.1h-3.6v-0.8h3.6V295.1z M406.9,295.1h-3.6
					v-0.8h3.6V295.1z M400.5,295.1h-3.6v-0.8h3.6V295.1z M394.2,295.1h-3.6v-0.8h3.6V295.1z M387.8,295.1h-3.6v-0.8h3.6V295.1z
					 M381.5,295.1h-3.6v-0.8h3.6V295.1z M375.1,295.1h-3.6v-0.8h3.6V295.1z M368.8,295.1h-3.6v-0.8h3.6V295.1z M362.4,295.1h-3.6
					v-0.8h3.6V295.1z M356.1,295.1h-3.6v-0.8h3.6V295.1z M349.7,295.1h-3.6v-0.8h3.6V295.1z M343.4,295.1h-3.6v-0.8h3.6V295.1z
					 M337,295.1h-3.6v-0.8h3.6V295.1z M330.7,295.1H327v-0.8h3.6V295.1z M324.3,295.1h-3.6v-0.8h3.6V295.1z M318,295.1h-3.6v-0.8
					h3.6V295.1z M311.6,295.1H308v-0.8h3.6V295.1z M305.3,295.1h-3.6v-0.8h3.6V295.1z M298.9,295.1h-3.6v-0.8h3.6V295.1z
					 M292.6,295.1h-3.6v-0.8h3.6V295.1z M286.2,295.1h-3.6v-0.8h3.6V295.1z M279.9,295.1h-3.6v-0.8h3.6V295.1z M273.5,295.1h-3.6
					v-0.8h3.6V295.1z M267.2,295.1h-3.6v-0.8h3.6V295.1z M260.8,295.1h-3.6v-0.8h3.6V295.1z M254.5,295.1h-3.6v-0.8h3.6V295.1z
					 M248.1,295.1h-3.6v-0.8h3.6V295.1z M241.8,295.1h-3.6v-0.8h3.6V295.1z M235.4,295.1h-3.6v-0.8h3.6V295.1z M229.1,295.1h-3.6
					v-0.8h3.6V295.1z M222.7,295.1h-3.6v-0.8h3.6V295.1z M216.4,295.1h-3.6v-0.8h3.6V295.1z M210,295.1h-3.6v-0.8h3.6V295.1z
					 M203.7,295.1H200v-0.8h3.6V295.1z M197.3,295.1h-3.6v-0.8h3.6V295.1z"/>
			</g>
			<g>
				<path class="st6" d="M437.6,261.5c-0.2,0-0.5-0.1-0.7-0.3l-8.3-8.6l-21,6c-0.2,0.1-0.5,0-0.7-0.1c-0.2-0.1-0.4-0.3-0.4-0.6
					l-4.3-17.7l-13.8-4.1l-7.5,16.2c-0.1,0.2-0.3,0.4-0.5,0.5l-14.8,5.8c-0.3,0.1-0.6,0.1-0.9-0.1l-23.5-18.2l-21.2,18.1
					c-0.2,0.1-0.4,0.2-0.6,0.2h-24.6c-0.2,0-0.5-0.1-0.6-0.3l-23.7-23.7l-28.1-8.8l-15.8,8.8c-0.3,0.2-0.6,0.2-0.9,0l-7.3-4.2
					l-24.2,27.9c-0.3,0.4-0.9,0.4-1.3,0.1c-0.4-0.3-0.4-0.9-0.1-1.3l24.6-28.4c0.3-0.3,0.8-0.4,1.1-0.2l7.5,4.3l15.7-8.7
					c0.2-0.1,0.5-0.1,0.7-0.1l28.7,8.9c0.1,0,0.3,0.1,0.4,0.2l23.6,23.6h23.9l21.5-18.4c0.3-0.3,0.8-0.3,1.1,0l23.6,18.3l14-5.4
					l7.7-16.5c0.2-0.4,0.7-0.6,1.1-0.5l15.1,4.5c0.3,0.1,0.5,0.3,0.6,0.7l4.2,17.2l20.6-5.9c0.3-0.1,0.7,0,0.9,0.2l7.6,7.9l6-20.7
					c0.1-0.5,0.6-0.8,1.1-0.6c0.5,0.1,0.8,0.6,0.6,1.1l-6.5,22.2c-0.1,0.3-0.3,0.5-0.7,0.6C437.7,261.5,437.7,261.5,437.6,261.5z"/>
			</g>
		</g>
	</g>
	<g>
		<g>
			<path class="st1" d="M174.8,262.2c1.8-1,1.8-2.7,0-3.7l-33.4-19.4c-1.7-1-4.6-1-6.4,0l-33.6,19.4c-1.8,1-1.8,2.7,0,3.7l33.4,19.4
				c1.7,1,4.6,1,6.4,0L174.8,262.2z"/>
		</g>
		<path class="st2" d="M100.1,260.5c0,0,0,0.1,0,0.1c0,0,0,0.1,0,0.1c0,0.1,0,0.1,0,0.1c0,0,0,0.1,0,0.1c0,0.1,0,0.1,0.1,0.1
			c0,0.1,0.1,0.1,0.1,0.2c0,0,0,0,0,0c0,0.1,0.1,0.1,0.1,0.2c0,0,0,0,0,0c0.1,0.1,0.1,0.1,0.2,0.2c0,0,0.1,0.1,0.1,0.1
			c0,0,0.1,0.1,0.1,0.1c0.1,0,0.1,0.1,0.2,0.1c0,0,0.1,0.1,0.2,0.1l33.4,19.4l0.1,23.9l-33.4-19.4c0,0,0,0-0.1,0
			c0,0-0.1-0.1-0.1-0.1c-0.1,0-0.1-0.1-0.2-0.1c0,0-0.1-0.1-0.1-0.1c0,0-0.1-0.1-0.1-0.1c0,0,0,0,0,0c-0.1-0.1-0.1-0.1-0.2-0.2
			c0,0,0,0,0,0c0,0-0.1-0.1-0.1-0.1c0,0,0,0-0.1-0.1c0,0,0,0,0,0c0-0.1-0.1-0.1-0.1-0.2c0,0,0,0,0,0c0,0,0-0.1-0.1-0.1
			c0,0,0-0.1,0-0.1c0,0,0,0,0,0c0,0,0-0.1,0-0.1c0,0,0-0.1,0-0.1c0,0,0,0,0,0c0-0.1,0-0.1,0-0.1c0,0,0-0.1,0-0.1v0l-0.1-23.9
			C100,260.4,100.1,260.4,100.1,260.5z"/>
		<path class="st3" d="M174.8,262.2c0.9-0.5,1.3-1.2,1.3-1.9l0.1,23.9c0,0.7-0.4,1.4-1.3,1.9l-33.6,19.4l-0.1-23.9L174.8,262.2z"/>
		<g>
			<path class="st2" d="M174.8,260.3c1.8-1,1.8-2.7,0-3.7l-33.4-19.4c-1.7-1-4.6-1-6.4,0l-33.6,19.4c-1.8,1-1.8,2.7,0,3.7l33.4,19.4
				c1.7,1,4.6,1,6.4,0L174.8,260.3z"/>
		</g>
		<linearGradient id="SVGID_9_" gradientUnits="userSpaceOnUse" x1="134.4252" y1="293.81" x2="141.663" y2="293.81">
			<stop  offset="0" style="stop-color:#FFFFFF"/>
			<stop  offset="1" style="stop-color:#80CAE3"/>
		</linearGradient>
		<path class="st16" d="M135.3,305.8c-0.2-0.1-0.7-0.4-0.8-0.4v-23.9c0.1,0.1,0.6,0.3,0.8,0.4c0,0,0.1,0,0.1,0.1
			c0.1,0,0.2,0.1,0.4,0.1c0,0,0.1,0,0.1,0c0.1,0,0.2,0,0.2,0.1c0.1,0,0.1,0,0.2,0c0.1,0,0.2,0,0.2,0.1c0.1,0,0.1,0,0.2,0
			c0.2,0,0.3,0.1,0.5,0.1c0.1,0,0.1,0,0.2,0c0.1,0,0.2,0,0.3,0c0.1,0,0.1,0,0.2,0c0.1,0,0.2,0,0.2,0c0.1,0,0.1,0,0.2,0
			c0.1,0,0.1,0,0.2,0c0.1,0,0.1,0,0.2,0c0.1,0,0.2,0,0.2,0c0.1,0,0.1,0,0.2,0c0.1,0,0.2,0,0.2,0c0.1,0,0.1,0,0.2,0
			c0.1,0,0.2,0,0.3-0.1c0.1,0,0.1,0,0.2,0c0.2-0.1,0.3-0.1,0.5-0.2c0.1,0,0.2-0.1,0.2-0.1c0,0,0.1,0,0.1-0.1
			c0.1-0.1,0.7-0.4,0.8-0.5v24c-0.1,0.1-0.7,0.4-0.8,0.4c0,0-0.1,0-0.1,0c-0.1,0-0.1,0.1-0.2,0.1c0,0,0,0,0,0
			c-0.2,0-0.3,0.1-0.5,0.2c0,0,0,0,0,0c0,0-0.1,0-0.1,0c-0.1,0-0.2,0-0.3,0.1c0,0,0,0-0.1,0c0,0-0.1,0-0.1,0c-0.1,0-0.2,0-0.2,0
			c0,0-0.1,0-0.1,0c0,0-0.1,0-0.1,0c-0.1,0-0.1,0-0.2,0c0,0-0.1,0-0.1,0c0,0-0.1,0-0.1,0c-0.1,0-0.1,0-0.2,0c0,0-0.1,0-0.1,0
			c0,0-0.1,0-0.1,0c-0.1,0-0.2,0-0.2,0c0,0-0.1,0-0.1,0c0,0,0,0-0.1,0c-0.1,0-0.2,0-0.3,0c0,0-0.1,0-0.1,0c0,0,0,0,0,0
			c-0.2,0-0.4,0-0.5-0.1c0,0,0,0,0,0c-0.1,0-0.1,0-0.2,0c-0.1,0-0.2,0-0.2,0c-0.1,0-0.1,0-0.2,0c-0.1,0-0.2,0-0.2-0.1c0,0,0,0-0.1,0
			c0,0-0.1,0-0.1,0c-0.1,0-0.2-0.1-0.3-0.1C135.3,305.8,135.3,305.8,135.3,305.8z"/>
		<g>
			<g class="st5">
				<g>
					<path class="st2" d="M149.8,282.4l1.7-1c0.5-0.3,1-0.1,1,0.6c0,0.6-0.4,1.4-1,1.7l-1.7,1c-0.5,0.3-1,0.1-1-0.5
						C148.9,283.5,149.3,282.7,149.8,282.4L149.8,282.4z"/>
				</g>
			</g>
		</g>
		<g>
			<g class="st5">
				<g>
					<path class="st1" d="M149.8,287.7l1.7-1c0.5-0.3,1-0.1,1,0.6c0,0.6-0.4,1.4-1,1.7l-1.7,1c-0.5,0.3-1,0.1-1-0.6
						C148.9,288.7,149.3,288,149.8,287.7L149.8,287.7z"/>
				</g>
			</g>
		</g>
		<g>
			<g class="st5">
				<g>
					<path class="st2" d="M149.8,293.2l1.7-1c0.5-0.3,1-0.1,1,0.6c0,0.6-0.4,1.4-1,1.7l-1.7,1c-0.5,0.3-1,0.1-1-0.6
						C148.9,294.2,149.3,293.5,149.8,293.2L149.8,293.2z"/>
				</g>
			</g>
		</g>
		<g>
			<g class="st5">
				<g>
					<path class="st1" d="M145,284.9l1.7-1c0.5-0.3,1-0.1,1,0.6c0,0.6-0.4,1.4-1,1.7l-1.7,1c-0.5,0.3-1,0.1-1-0.5
						C144,286,144.5,285.3,145,284.9L145,284.9z"/>
				</g>
			</g>
		</g>
		<g>
			<g class="st5">
				<g>
					<path class="st2" d="M145,290.2l1.7-1c0.5-0.3,1-0.1,1,0.5c0,0.6-0.4,1.4-1,1.7l-1.7,1c-0.5,0.3-1,0.1-1-0.6
						C144,291.3,144.5,290.5,145,290.2L145,290.2z"/>
				</g>
			</g>
		</g>
		<g>
			<g class="st5">
				<g>
					<path class="st1" d="M145,295.7l1.7-1c0.5-0.3,1-0.1,1,0.5c0,0.6-0.4,1.4-1,1.7l-1.7,1c-0.5,0.3-1,0.1-1-0.5
						C144,296.7,144.5,296,145,295.7L145,295.7z"/>
				</g>
			</g>
		</g>
		<g>
			<g class="st5">
				<g>
					<path class="st1" d="M156.1,279.4l17-9.8c0.5-0.3,1-0.1,1,0.6c0,0.6-0.4,1.4-1,1.7l-17,9.8c-0.5,0.3-1,0.1-1-0.6
						C155.1,280.5,155.6,279.7,156.1,279.4L156.1,279.4z"/>
				</g>
			</g>
		</g>
		<g>
			<g class="st5">
				<g>
					<path class="st1" d="M156.1,284.5l17-9.8c0.5-0.3,1-0.1,1,0.6c0,0.6-0.4,1.3-1,1.7l-17,9.8c-0.5,0.3-1,0-1-0.6
						C155.1,285.5,155.6,284.8,156.1,284.5L156.1,284.5z"/>
				</g>
			</g>
		</g>
		<g>
			<g class="st5">
				<g>
					<path class="st1" d="M156.1,289.5l17-9.8c0.5-0.3,1-0.1,1,0.5c0,0.6-0.4,1.4-1,1.7l-17,9.8c-0.5,0.3-1,0.1-1-0.5
						C155.1,290.6,155.6,289.9,156.1,289.5L156.1,289.5z"/>
				</g>
			</g>
		</g>
		<polygon class="st1" points="107.5,285.2 128.8,297.6 128.8,283.2 107.5,270.8 		"/>
		<g>
			<g>
				<path class="st3" d="M136.5,268l-14-8.2c-0.4-0.3-0.7-0.6-0.7-1c0-0.4,0.2-0.8,0.7-1l14.1-8.2c0.8-0.5,2.2-0.5,3,0l14,8.2
					c0.4,0.3,0.7,0.6,0.7,1c0,0.4-0.2,0.8-0.7,1l-14.1,8.1c-0.4,0.2-0.9,0.4-1.5,0.4C137.5,268.4,136.9,268.3,136.5,268z
					 M136.9,250.2l-14.1,8.2c-0.3,0.1-0.4,0.3-0.4,0.5s0.1,0.4,0.4,0.5l14,8.2c0.6,0.4,1.8,0.4,2.4,0l14.1-8.2
					c0.3-0.2,0.4-0.3,0.4-0.5c0-0.2-0.2-0.4-0.4-0.5l-14-8.2c-0.3-0.2-0.7-0.3-1.2-0.3C137.7,249.9,137.2,250,136.9,250.2z"/>
			</g>
		</g>
		<g>
			<path class="st6" d="M146,259.3c0.4-0.2,0.4-0.6,0-0.8l-7.2-4.2c-0.4-0.2-1-0.2-1.4,0l-7.3,4.2c-0.4,0.2-0.4,0.6,0,0.8l7.2,4.2
				c0.4,0.2,1,0.2,1.4,0L146,259.3z"/>
		</g>
	</g>
	<g>
		<g>
			<path class="st1" d="M265,322.2c1.9-1.1,1.9-2.9,0-4L228.6,297c-1.9-1.1-5-1.1-7,0L185,318.1c-1.9,1.1-1.9,2.9,0,4l36.4,21.1
				c1.9,1.1,5,1.1,7,0L265,322.2z"/>
		</g>
		<path class="st2" d="M183.6,320.4c0,0.1,0,0.1,0,0.2c0,0,0,0.1,0,0.1c0,0.1,0,0.1,0,0.2c0,0,0,0.1,0.1,0.1c0,0.1,0,0.1,0.1,0.2
			c0,0.1,0.1,0.1,0.1,0.2c0,0,0,0,0,0c0,0.1,0.1,0.1,0.2,0.2c0,0,0,0,0,0c0.1,0.1,0.1,0.1,0.2,0.2c0,0,0.1,0.1,0.2,0.1
			c0,0,0.1,0.1,0.1,0.1c0.1,0,0.1,0.1,0.2,0.1c0.1,0,0.1,0.1,0.2,0.1l36.4,21.1l0.1,26.1l-36.4-21.1c0,0,0,0-0.1,0
			c0,0-0.1-0.1-0.1-0.1c-0.1,0-0.1-0.1-0.2-0.1c-0.1,0-0.1-0.1-0.1-0.1c-0.1-0.1-0.1-0.1-0.1-0.1c0,0,0,0,0,0
			c-0.1-0.1-0.1-0.1-0.2-0.2c0,0,0,0,0,0c0,0-0.1-0.1-0.1-0.1c0,0,0-0.1-0.1-0.1c0,0,0,0,0,0c0-0.1-0.1-0.1-0.1-0.2c0,0,0,0,0,0
			c0-0.1,0-0.1-0.1-0.1c0,0,0-0.1,0-0.1c0,0,0,0,0,0c0-0.1,0-0.1,0-0.1c0,0,0-0.1,0-0.1c0,0,0,0,0,0c0-0.1,0-0.1,0-0.2
			c0,0,0-0.1,0-0.1v0l-0.1-26.1C183.6,320.3,183.6,320.3,183.6,320.4z"/>
		<path class="st3" d="M265,322.2c1-0.6,1.4-1.3,1.4-2l0.1,26.1c0,0.7-0.5,1.5-1.4,2l-36.6,21.1l-0.1-26.1L265,322.2z"/>
		<g>
			<path class="st2" d="M265,320.1c1.9-1.1,1.9-2.9,0-4l-36.4-21.1c-1.9-1.1-5-1.1-7,0L185,316.1c-1.9,1.1-1.9,2.9,0,4l36.4,21.1
				c1.9,1.1,5,1.1,7,0L265,320.1z"/>
		</g>
		<linearGradient id="SVGID_10_" gradientUnits="userSpaceOnUse" x1="221.0307" y1="356.6449" x2="228.9139" y2="356.6449">
			<stop  offset="0" style="stop-color:#FFFFFF"/>
			<stop  offset="1" style="stop-color:#80CAE3"/>
		</linearGradient>
		<path class="st17" d="M221.9,369.7c-0.2-0.1-0.8-0.4-0.9-0.5v-26c0.1,0.1,0.7,0.4,0.8,0.4c0.1,0,0.1,0,0.1,0.1
			c0.1,0,0.3,0.1,0.4,0.1c0,0,0.1,0,0.1,0.1c0.1,0,0.2,0,0.3,0.1c0.1,0,0.1,0,0.2,0c0.1,0,0.2,0,0.3,0.1c0.1,0,0.1,0,0.2,0
			c0.2,0,0.4,0.1,0.6,0.1c0.1,0,0.1,0,0.2,0c0.1,0,0.2,0,0.3,0c0.1,0,0.1,0,0.2,0c0.1,0,0.2,0,0.3,0c0.1,0,0.2,0,0.2,0
			c0.1,0,0.2,0,0.2,0c0.1,0,0.2,0,0.2,0c0.1,0,0.2,0,0.2,0c0.1,0,0.1,0,0.2,0c0.1,0,0.2,0,0.3,0c0.1,0,0.1,0,0.2,0
			c0.1,0,0.2,0,0.3-0.1c0.1,0,0.1,0,0.2,0c0.2-0.1,0.4-0.1,0.5-0.2c0.1,0,0.2-0.1,0.2-0.1c0.1,0,0.1,0,0.1-0.1
			c0.1-0.1,0.8-0.4,0.9-0.5v26.1c-0.1,0.1-0.7,0.4-0.9,0.5c0,0-0.1,0-0.1,0.1c-0.1,0-0.1,0.1-0.2,0.1c0,0,0,0,0,0
			c-0.2,0.1-0.3,0.1-0.5,0.2c0,0,0,0,0,0c0,0-0.1,0-0.1,0c-0.1,0-0.2,0.1-0.3,0.1c0,0-0.1,0-0.1,0c0,0-0.1,0-0.1,0
			c-0.1,0-0.2,0-0.2,0c0,0-0.1,0-0.1,0c-0.1,0-0.1,0-0.1,0c-0.1,0-0.2,0-0.2,0c0,0-0.1,0-0.1,0c0,0-0.1,0-0.1,0c-0.1,0-0.2,0-0.2,0
			c-0.1,0-0.1,0-0.1,0c0,0-0.1,0-0.1,0c-0.1,0-0.2,0-0.3,0c-0.1,0-0.1,0-0.1,0c0,0-0.1,0-0.1,0c-0.1,0-0.2,0-0.3,0c0,0-0.1,0-0.1,0
			c0,0,0,0,0,0c-0.2,0-0.4,0-0.6-0.1c0,0,0,0,0,0c-0.1,0-0.1,0-0.2,0c-0.1,0-0.2,0-0.3-0.1c-0.1,0-0.1,0-0.2-0.1
			c-0.1,0-0.2-0.1-0.2-0.1c0,0,0,0-0.1,0c0,0-0.1,0-0.1,0c-0.1-0.1-0.3-0.1-0.4-0.1C222,369.7,222,369.7,221.9,369.7z"/>
		<g>
			<g class="st5">
				<g>
					<path class="st2" d="M237.8,344.2l1.8-1.1c0.6-0.3,1-0.1,1.1,0.6c0,0.7-0.5,1.5-1.1,1.8l-1.8,1.1c-0.6,0.3-1.1,0.1-1.1-0.6
						C236.8,345.4,237.2,344.6,237.8,344.2L237.8,344.2z"/>
				</g>
			</g>
		</g>
		<g>
			<g class="st5">
				<g>
					<path class="st1" d="M237.8,350l1.8-1.1c0.6-0.3,1-0.1,1.1,0.6c0,0.7-0.5,1.5-1.1,1.8l-1.8,1.1c-0.6,0.3-1.1,0.1-1.1-0.6
						C236.8,351.1,237.2,350.3,237.8,350L237.8,350z"/>
				</g>
			</g>
		</g>
		<g>
			<g class="st5">
				<g>
					<path class="st2" d="M237.8,355.9l1.8-1.1c0.6-0.3,1-0.1,1.1,0.6c0,0.7-0.5,1.5-1.1,1.8l-1.8,1.1c-0.6,0.3-1.1,0.1-1.1-0.6
						C236.8,357.1,237.2,356.3,237.8,355.9L237.8,355.9z"/>
				</g>
			</g>
		</g>
		<g>
			<g class="st5">
				<g>
					<path class="st1" d="M232.5,347l1.8-1.1c0.6-0.3,1.1-0.1,1.1,0.6c0,0.7-0.5,1.5-1.1,1.8l-1.8,1.1c-0.6,0.3-1.1,0.1-1.1-0.6
						C231.5,348.1,232,347.3,232.5,347L232.5,347z"/>
				</g>
			</g>
		</g>
		<g>
			<g class="st5">
				<g>
					<path class="st2" d="M232.5,352.7l1.8-1.1c0.6-0.3,1.1-0.1,1.1,0.6c0,0.7-0.5,1.5-1.1,1.8l-1.8,1.1c-0.6,0.3-1.1,0.1-1.1-0.6
						C231.5,353.9,232,353.1,232.5,352.7L232.5,352.7z"/>
				</g>
			</g>
		</g>
		<g>
			<g class="st5">
				<g>
					<path class="st1" d="M232.5,358.7l1.8-1.1c0.6-0.3,1.1-0.1,1.1,0.6c0,0.7-0.5,1.5-1.1,1.8l-1.8,1.1c-0.6,0.3-1.1,0.1-1.1-0.6
						C231.5,359.8,232,359,232.5,358.7L232.5,358.7z"/>
				</g>
			</g>
		</g>
		<g>
			<g class="st5">
				<g>
					<path class="st1" d="M244.6,341l18.5-10.7c0.6-0.3,1.1-0.1,1.1,0.6c0,0.7-0.5,1.5-1,1.8l-18.5,10.7c-0.6,0.3-1,0.1-1-0.6
						C243.6,342.1,244.1,341.3,244.6,341L244.6,341z"/>
				</g>
			</g>
		</g>
		<g>
			<g class="st5">
				<g>
					<path class="st1" d="M244.6,346.5l18.5-10.7c0.6-0.3,1.1-0.1,1.1,0.6c0,0.7-0.5,1.5-1,1.8l-18.5,10.7c-0.6,0.3-1,0.1-1-0.6
						C243.6,347.6,244.1,346.8,244.6,346.5L244.6,346.5z"/>
				</g>
			</g>
		</g>
		<g>
			<g class="st5">
				<g>
					<path class="st1" d="M244.6,352l18.5-10.7c0.6-0.3,1.1-0.1,1.1,0.6c0,0.7-0.5,1.5-1,1.8l-18.5,10.7c-0.6,0.3-1,0.1-1-0.6
						C243.6,353.1,244.1,352.3,244.6,352L244.6,352z"/>
				</g>
			</g>
		</g>
		<polygon class="st1" points="191.7,347.2 214.9,360.7 214.9,345.1 191.7,331.6 		"/>
		<g>
			<g>
				<path class="st3" d="M223.3,328.6l-15.3-8.9c-0.5-0.3-0.8-0.7-0.8-1.1c0-0.4,0.3-0.8,0.8-1.1l15.4-8.9c0.9-0.5,2.4-0.5,3.2,0
					l15.3,8.9c0.5,0.3,0.8,0.7,0.8,1.1c0,0.4-0.3,0.8-0.8,1.1l-15.4,8.9c-0.4,0.3-1,0.4-1.6,0.4C224.3,329,223.8,328.8,223.3,328.6z
					 M223.7,309.1l-15.4,8.9c-0.3,0.2-0.5,0.4-0.5,0.6c0,0.2,0.2,0.4,0.4,0.6l15.3,8.9c0.7,0.4,1.9,0.4,2.6,0l15.4-8.9
					c0.3-0.2,0.5-0.4,0.5-0.6c0-0.2-0.2-0.4-0.4-0.6l-15.3-8.9c-0.3-0.2-0.8-0.3-1.3-0.3C224.6,308.8,224.1,308.9,223.7,309.1z"/>
			</g>
		</g>
		<g>
			<path class="st6" d="M233.7,319c0.4-0.2,0.4-0.6,0-0.9l-7.9-4.6c-0.4-0.2-1.1-0.2-1.5,0l-7.9,4.6c-0.4,0.2-0.4,0.6,0,0.9l7.9,4.6
				c0.4,0.2,1.1,0.2,1.5,0L233.7,319z"/>
		</g>
	</g>
	<g>
		<g>
			<g>
				<polygon class="st18" points="544.8,172.7 531.9,192.4 520.1,191.7 508.3,191 503,180.5 497.7,169.9 510.7,150.2 522.5,150.9 
					534.3,151.6 539.5,162.1 				"/>
			</g>
		</g>
		<g>
			<g>
				<path class="st2" d="M557,174C557,174,557,174,557,174l-36.4-2.1c-0.4,0-0.7-0.2-0.8-0.5l-16.3-32.5c-0.2-0.3-0.1-0.7,0.1-1
					c0.2-0.3,0.6-0.5,0.9-0.4l36.3,2.1c0.4,0,0.7,0.2,0.8,0.5l16.3,32.5c0.2,0.3,0.1,0.7-0.1,1C557.7,173.8,557.4,174,557,174z
					 M521.3,169.9l34,2l-15.3-30.5l-34-2L521.3,169.9z"/>
			</g>
			<g>
				<path class="st2" d="M537,204.4C537,204.4,537,204.4,537,204.4l-36.4-2.1c-0.1,0-0.2,0-0.3-0.1c-0.1,0-0.2-0.1-0.3-0.2
					c-0.1-0.1-0.2-0.2-0.3-0.3c-0.1-0.1-0.1-0.3-0.1-0.4c0,0,0,0,0,0c0-0.1,0-0.2,0.1-0.3c0-0.1,0.1-0.2,0.1-0.2l19.7-29.9
					l-15.3-30.5l-19.1,29c-0.3,0.5-0.9,0.6-1.4,0.3c-0.5-0.3-0.6-0.9-0.3-1.4l20-30.4c0.2-0.3,0.6-0.5,0.9-0.4
					c0.4,0,0.7,0.2,0.8,0.5l16.1,32l35.8,2.1c0.4,0,0.7,0.2,0.8,0.5s0.1,0.7-0.1,1l-20,30.4C537.7,204.2,537.4,204.4,537,204.4z
					 M502.5,200.4l34,2l18.7-28.5l-34-2L502.5,200.4z"/>
			</g>
			<g>
				<path class="st2" d="M500.7,202.3c-0.4,0-0.7-0.2-0.9-0.6l-16.3-32.5c-0.2-0.5,0-1.1,0.4-1.3c0.5-0.2,1.1,0,1.3,0.4l16.3,32.5
					c0.2,0.5,0,1.1-0.4,1.3C501,202.3,500.8,202.3,500.7,202.3z"/>
			</g>
		</g>
	</g>
	<g>
		<g>
			<g>
				<polygon class="st18" points="431.6,50.1 431.5,64.1 425.4,67.5 419.3,71 413.3,67.5 407.2,63.9 407.3,49.9 413.4,46.5 
					419.5,43 425.5,46.5 				"/>
			</g>
		</g>
		<g>
			<g>
				<path class="st2" d="M419,58c-0.2,0-0.3,0-0.5-0.1L399.8,47c-0.3-0.2-0.5-0.5-0.5-0.9c0-0.4,0.2-0.7,0.5-0.9l18.8-10.7
					c0.3-0.2,0.7-0.2,1,0l18.6,10.9c0.3,0.2,0.5,0.5,0.5,0.9c0,0.4-0.2,0.7-0.5,0.9l-18.8,10.7C419.3,57.9,419.1,58,419,58z
					 M402.3,46.1l16.6,9.7l16.7-9.5l-16.6-9.7L402.3,46.1z"/>
			</g>
			<g>
				<path class="st2" d="M418.8,79.6c0,0-0.1,0-0.1,0c-0.1,0-0.3-0.1-0.4-0.1c-0.1-0.1-0.2-0.2-0.3-0.3c-0.1-0.1-0.1-0.2-0.2-0.3
					c0-0.1,0-0.2,0-0.3l0.1-21l-16.6-9.7l-0.1,19.9c0,0.6-0.5,1-1,1c0,0,0,0,0,0c-0.6,0-1-0.5-1-1l0.1-21.6c0-0.4,0.2-0.7,0.5-0.9
					c0.3-0.2,0.7-0.2,1,0L419,55.8l18.3-10.4c0.3-0.2,0.7-0.2,1,0c0.3,0.2,0.5,0.5,0.5,0.9l-0.1,21.6c0,0.4-0.2,0.7-0.5,0.9
					l-18.7,10.7c-0.1,0-0.2,0.1-0.3,0.1C419,79.6,418.9,79.6,418.8,79.6z M420,57.6l-0.1,19.3l16.7-9.5l0.1-19.3L420,57.6z"/>
			</g>
			<g>
				<path class="st2" d="M418.8,79.6c-0.2,0-0.3,0-0.5-0.1l-18.6-10.9c-0.5-0.3-0.6-0.9-0.4-1.4c0.3-0.5,0.9-0.6,1.4-0.4l18.6,10.9
					c0.5,0.3,0.6,0.9,0.4,1.4C419.5,79.4,419.2,79.6,418.8,79.6z"/>
			</g>
		</g>
	</g>
</g>
<g id="Product">
</g>
<g id="Solution_Blueprints">
</g>
<g id="start">
</g>
</svg>
