<?xml version="1.0" encoding="utf-8"?>
<!-- Generator: Adobe Illustrator 24.0.0, SVG Export Plug-In . SVG Version: 6.00 Build 0)  -->
<svg version="1.1" xmlns="http://www.w3.org/2000/svg" xmlns:xlink="http://www.w3.org/1999/xlink" x="0px" y="0px"
	 viewBox="0 0 640 420" style="enable-background:new 0 0 640 420;" xml:space="preserve">
<style type="text/css">
	.st0{fill:url(#SVGID_1_);}
	.st1{fill:#DEA700;}
	.st2{fill:#FFFFFF;}
	.st3{fill:#40435C;}
	.st4{fill:#007099;}
	.st5{enable-background:new    ;}
	.st6{clip-path:url(#SVGID_3_);}
	.st7{fill:#005575;}
	.st8{clip-path:url(#SVGID_5_);}
	.st9{clip-path:url(#SVGID_7_);}
	.st10{clip-path:url(#SVGID_9_);}
	.st11{clip-path:url(#SVGID_11_);}
	.st12{fill:#004761;}
	.st13{clip-path:url(#SVGID_13_);}
	.st14{fill:#FCFCFC;}
	.st15{fill:#005675;}
	.st16{fill:#005675;stroke:#FFFFFF;stroke-width:2.2772;stroke-miterlimit:10;}
	.st17{clip-path:url(#SVGID_15_);}
	.st18{clip-path:url(#SVGID_17_);}
	.st19{clip-path:url(#SVGID_19_);}
	.st20{clip-path:url(#SVGID_21_);}
	.st21{clip-path:url(#SVGID_23_);}
	.st22{opacity:0.26;clip-path:url(#SVGID_25_);}
	.st23{fill:url(#SVGID_26_);}
	.st24{fill:url(#SVGID_27_);}
</style>
<g id="dark">
	
		<radialGradient id="SVGID_1_" cx="664.3489" cy="5.3362" r="407.0949" gradientTransform="matrix(0.9697 0 0 1 -10.481 0)" gradientUnits="userSpaceOnUse">
		<stop  offset="0" style="stop-color:#007099"/>
		<stop  offset="2.704840e-02" style="stop-color:#026D95"/>
		<stop  offset="0.3173" style="stop-color:#13516F"/>
		<stop  offset="0.5856" style="stop-color:#203D54"/>
		<stop  offset="0.8217" style="stop-color:#273143"/>
		<stop  offset="1" style="stop-color:#2A2D3D"/>
	</radialGradient>
	<rect class="st0" width="640" height="420"/>
</g>
<g id="Software">
</g>
<g id="Product">
</g>
<g id="Solution_Blueprints">
	<g>
		<path class="st1" d="M464.6,204.5c-0.3,0-0.7,0-1,0c-0.8,0-1.6,0-2.4-0.1l0.1-2c0.8,0,1.5,0.1,2.3,0.1c0.3,0,0.7,0,1,0V204.5z
			 M470.1,204.3l-0.2-2c1.1-0.1,2.2-0.3,3.3-0.4l0.3,2C472.4,204,471.2,204.1,470.1,204.3z M455.6,203.8c-1.1-0.2-2.3-0.4-3.4-0.7
			l0.4-2c1.1,0.2,2.2,0.5,3.3,0.6L455.6,203.8z M478.9,202.7l-0.5-1.9c1.1-0.3,2.1-0.6,3.2-1l0.6,1.9
			C481.1,202,480,202.4,478.9,202.7z M446.9,201.7c-1.1-0.4-2.2-0.8-3.2-1.2l0.8-1.9c1,0.4,2.1,0.8,3.1,1.2L446.9,201.7z
			 M487.3,199.7l-0.8-1.8c1-0.5,2-0.9,3-1.5l0.9,1.8C489.4,198.7,488.4,199.2,487.3,199.7z M438.7,198.1c-1-0.5-2-1.1-3-1.7l1-1.7
			c0.9,0.6,1.9,1.1,2.9,1.6L438.7,198.1z M495.2,195.4l-1.1-1.7c0.9-0.6,1.8-1.3,2.7-1.9l1.2,1.6
			C497.1,194.1,496.2,194.7,495.2,195.4z M431.1,193.3c-0.9-0.7-1.8-1.4-2.7-2.2l1.3-1.5c0.8,0.7,1.7,1.4,2.6,2.1L431.1,193.3z
			 M502.3,189.8l-1.4-1.5c0.8-0.7,1.6-1.5,2.4-2.3l1.4,1.4C504,188.3,503.1,189.1,502.3,189.8z M424.4,187.4
			c-0.8-0.8-1.6-1.7-2.3-2.6l1.5-1.3c0.7,0.8,1.5,1.7,2.2,2.5L424.4,187.4z M508.4,183.3l-1.6-1.2c0.7-0.9,1.3-1.8,2-2.7l1.6,1.1
			C509.8,181.4,509.1,182.4,508.4,183.3z M418.7,180.5c-0.6-0.9-1.3-1.9-1.9-2.9l1.7-1c0.6,1,1.2,1.9,1.8,2.8L418.7,180.5z
			 M513.4,175.8l-1.7-1c0.5-1,1-2,1.5-3l1.8,0.9C514.4,173.8,513.9,174.8,513.4,175.8z M414.2,172.7c-0.5-1-1-2.1-1.4-3.2l1.9-0.7
			c0.4,1,0.9,2.1,1.3,3.1L414.2,172.7z M517.1,167.6l-1.9-0.7c0.4-1,0.7-2.1,1-3.2l1.9,0.6C517.8,165.5,517.4,166.6,517.1,167.6z
			 M411,164.3c-0.3-1.1-0.6-2.2-0.9-3.3l2-0.4c0.2,1.1,0.5,2.2,0.8,3.2L411,164.3z M519.4,159l-2-0.4c0.2-1.1,0.4-2.2,0.5-3.3l2,0.2
			C519.8,156.7,519.6,157.9,519.4,159z M409.2,155.5c-0.1-1.1-0.2-2.3-0.3-3.4l2-0.1c0.1,1.1,0.2,2.2,0.3,3.3L409.2,155.5z
			 M520.3,150.1l-2-0.1l0-0.2c0-0.4,0-0.7,0-1.1c0-0.8,0-1.5,0-2.3l2-0.1c0,0.8,0,1.6,0,2.4c0,0.4,0,0.7,0,1.1L520.3,150.1z
			 M410.9,146.6l-2-0.1c0-1.2,0.1-2.3,0.2-3.4l2,0.2C411,144.4,410.9,145.5,410.9,146.6z M517.8,141.2c-0.2-1.1-0.3-2.2-0.6-3.3
			l2-0.4c0.2,1.1,0.4,2.3,0.6,3.4L517.8,141.2z M411.9,138l-2-0.4c0.2-1.1,0.5-2.3,0.8-3.4l1.9,0.5C412.4,135.9,412.1,137,411.9,138
			z M515.9,132.7c-0.3-1.1-0.7-2.1-1.1-3.1l1.9-0.7c0.4,1.1,0.8,2.2,1.1,3.3L515.9,132.7z M414.3,129.7l-1.9-0.7
			c0.4-1.1,0.8-2.1,1.3-3.2l1.8,0.8C415.1,127.7,414.7,128.7,414.3,129.7z M512.7,124.7c-0.5-1-1-2-1.6-2.9l1.7-1c0.6,1,1.1,2,1.6,3
			L512.7,124.7z M418,121.9l-1.7-1c0.6-1,1.2-2,1.8-2.9l1.7,1.1C419.1,120,418.5,121,418,121.9z M508.2,117.3
			c-0.6-0.9-1.3-1.8-2-2.6l1.5-1.3c0.7,0.9,1.4,1.8,2.1,2.7L508.2,117.3z M422.9,114.8l-1.5-1.3c0.7-0.9,1.5-1.8,2.3-2.6l1.5,1.4
			C424.3,113.1,423.6,114,422.9,114.8z M502.6,110.7c-0.8-0.8-1.6-1.6-2.4-2.3l1.3-1.5c0.9,0.8,1.7,1.6,2.5,2.4L502.6,110.7z
			 M428.9,108.6l-1.3-1.5c0.9-0.8,1.7-1.5,2.7-2.2l1.2,1.6C430.6,107.1,429.7,107.8,428.9,108.6z M496,105.1
			c-0.9-0.6-1.8-1.3-2.8-1.9l1.1-1.7c1,0.6,1.9,1.3,2.9,1.9L496,105.1z M435.8,103.4l-1.1-1.7c1-0.6,2-1.2,3-1.8l1,1.8
			C437.7,102.2,436.7,102.8,435.8,103.4z M488.6,100.7c-1-0.5-2-1-3-1.4l0.8-1.8c1.1,0.4,2.1,0.9,3.1,1.4L488.6,100.7z M443.4,99.3
			l-0.8-1.8c1.1-0.5,2.1-0.9,3.2-1.3l0.7,1.9C445.5,98.5,444.5,98.9,443.4,99.3z M480.6,97.4c-1-0.3-2.1-0.6-3.2-0.9l0.5-1.9
			c1.1,0.3,2.2,0.6,3.3,0.9L480.6,97.4z M451.6,96.6l-0.5-1.9c1.1-0.3,2.2-0.5,3.4-0.7l0.4,2C453.8,96.1,452.7,96.3,451.6,96.6z
			 M472.1,95.5c-1.1-0.2-2.2-0.3-3.3-0.4l0.2-2c1.1,0.1,2.3,0.2,3.4,0.4L472.1,95.5z M460.2,95.2l-0.2-2c1.1-0.1,2.3-0.1,3.4-0.2
			l0,2C462.4,95,461.3,95.1,460.2,95.2z"/>
	</g>
	<g>
		<path class="st1" d="M462,225.4c-1.1,0-2.3-0.1-3.4-0.2l0.2-2c1.1,0.1,2.2,0.2,3.3,0.2L462,225.4z M467.4,225.4l-0.1-2
			c1.1,0,2.2-0.1,3.3-0.2l0.2,2C469.7,225.3,468.6,225.3,467.4,225.4z M453.1,224.6c-1.1-0.2-2.3-0.4-3.4-0.6l0.4-2
			c1.1,0.2,2.2,0.4,3.3,0.6L453.1,224.6z M476.3,224.5l-0.3-2c1.1-0.2,2.2-0.4,3.3-0.6l0.4,2C478.6,224.2,477.4,224.4,476.3,224.5z
			 M444.4,222.7c-1.1-0.3-2.2-0.6-3.3-1l0.6-1.9c1.1,0.3,2.1,0.7,3.2,1L444.4,222.7z M485,222.7l-0.5-1.9c1.1-0.3,2.1-0.6,3.2-1
			l0.6,1.9C487.2,222,486.1,222.4,485,222.7z M435.9,219.9c-1.1-0.4-2.1-0.9-3.1-1.4l0.8-1.8c1,0.5,2,0.9,3.1,1.3L435.9,219.9z
			 M493.5,219.8l-0.8-1.9c1-0.4,2.1-0.9,3.1-1.3l0.8,1.8C495.6,218.9,494.5,219.3,493.5,219.8z M427.9,216.1c-1-0.5-2-1.1-3-1.7
			l1-1.7c0.9,0.6,1.9,1.1,2.9,1.7L427.9,216.1z M501.5,215.9l-1-1.8c1-0.5,1.9-1.1,2.9-1.7l1,1.7
			C503.5,214.8,502.5,215.4,501.5,215.9z M420.3,211.4c-0.9-0.7-1.9-1.3-2.8-2l1.2-1.6c0.9,0.7,1.8,1.3,2.7,2L420.3,211.4z
			 M509.1,211.2l-1.2-1.6c0.9-0.6,1.8-1.3,2.7-2l1.2,1.6C510.9,209.8,510,210.5,509.1,211.2z M413.4,205.8c-0.8-0.8-1.7-1.6-2.5-2.3
			l1.4-1.4c0.8,0.8,1.6,1.5,2.4,2.3L413.4,205.8z M516,205.6l-1.3-1.5c0.8-0.8,1.6-1.5,2.4-2.3l1.4,1.4
			C517.7,204,516.9,204.8,516,205.6z M407.1,199.5c-0.8-0.9-1.5-1.7-2.2-2.6l1.6-1.3c0.7,0.9,1.4,1.7,2.2,2.6L407.1,199.5z
			 M522.3,199.2l-1.5-1.3c0.7-0.8,1.5-1.7,2.1-2.6l1.6,1.2C523.8,197.5,523,198.4,522.3,199.2z M401.6,192.5
			c-0.7-0.9-1.3-1.9-1.9-2.9l1.7-1.1c0.6,0.9,1.2,1.9,1.8,2.8L401.6,192.5z M527.7,192.2l-1.6-1.1c0.6-0.9,1.2-1.9,1.8-2.8l1.7,1.1
			C529,190.3,528.4,191.3,527.7,192.2z M396.9,184.8c-0.5-1-1.1-2.1-1.5-3.1l1.8-0.9c0.5,1,1,2,1.5,3L396.9,184.8z M532.4,184.6
			l-1.8-0.9c0.5-1,1-2,1.5-3l1.8,0.9C533.4,182.6,532.9,183.6,532.4,184.6z M393.2,176.7c-0.4-1.1-0.8-2.2-1.2-3.2l1.9-0.6
			c0.4,1,0.7,2.1,1.2,3.1L393.2,176.7z M536.1,176.5l-1.9-0.7c0.4-1,0.8-2.1,1.1-3.1l1.9,0.6C536.9,174.4,536.5,175.4,536.1,176.5z
			 M390.4,168.3c-0.3-1.1-0.6-2.2-0.8-3.3l2-0.4c0.2,1.1,0.5,2.2,0.8,3.2L390.4,168.3z M538.8,168l-1.9-0.5c0.3-1.1,0.5-2.2,0.8-3.3
			l2,0.4C539.3,165.8,539.1,166.9,538.8,168z M388.7,159.5c-0.2-1.1-0.3-2.3-0.4-3.4l2-0.2c0.1,1.1,0.2,2.2,0.4,3.3L388.7,159.5z
			 M540.5,159.3l-2-0.3c0.2-1.1,0.3-2.2,0.4-3.3l2,0.2C540.8,157,540.7,158.1,540.5,159.3z M388,150.7c0-0.6,0-1.2,0-1.9
			c0-0.5,0-1,0-1.5l1-0.1l1,0.1c0,0.5,0,1,0,1.5c0,0.6,0,1.2,0,1.8L388,150.7z M541.2,150.4l-2,0l0-0.2c0-0.5,0-1,0-1.5
			c0-0.6,0-1.3,0-1.9l2,0c0,0.6,0,1.3,0,1.9c0,0.5,0,1,0,1.5L541.2,150.4z M390.2,141.9l-2-0.2c0.1-1.1,0.2-2.3,0.4-3.4l2,0.3
			C390.5,139.7,390.3,140.8,390.2,141.9z M538.9,141.5c-0.1-1.1-0.2-2.2-0.4-3.3l2-0.3c0.2,1.1,0.3,2.3,0.4,3.4L538.9,141.5z
			 M391.5,133.3l-2-0.4c0.2-1.1,0.5-2.2,0.8-3.3l1.9,0.5C392,131.2,391.8,132.3,391.5,133.3z M537.6,133c-0.2-1.1-0.5-2.2-0.8-3.2
			l1.9-0.5c0.3,1.1,0.6,2.2,0.8,3.3L537.6,133z M393.8,125l-1.9-0.6c0.4-1.1,0.8-2.2,1.2-3.2l1.9,0.7
			C394.5,122.9,394.2,123.9,393.8,125z M535.2,124.6c-0.4-1-0.7-2.1-1.2-3.1l1.9-0.7c0.4,1.1,0.8,2.2,1.2,3.2L535.2,124.6z
			 M397,116.9l-1.8-0.9c0.5-1,1-2,1.5-3.1l1.8,0.9C398,114.9,397.5,115.9,397,116.9z M531.9,116.5c-0.5-1-1-2-1.5-3l1.8-0.9
			c0.5,1,1.1,2,1.6,3.1L531.9,116.5z M401.2,109.3l-1.7-1.1c0.6-1,1.2-1.9,1.9-2.9l1.6,1.1C402.4,107.5,401.8,108.4,401.2,109.3z
			 M527.7,109c-0.6-0.9-1.2-1.9-1.8-2.8l1.6-1.1c0.7,0.9,1.3,1.9,1.9,2.9L527.7,109z M406.2,102.2l-1.6-1.2c0.7-0.9,1.5-1.8,2.2-2.6
			l1.5,1.3C407.6,100.5,406.9,101.4,406.2,102.2z M522.7,101.9c-0.7-0.9-1.4-1.7-2.2-2.6L522,98c0.8,0.8,1.5,1.7,2.2,2.6
			L522.7,101.9z M412,95.8l-1.4-1.4c0.8-0.8,1.6-1.6,2.5-2.4l1.3,1.5C413.6,94.2,412.8,95,412,95.8z M516.8,95.5
			c-0.8-0.8-1.6-1.5-2.4-2.3l1.3-1.5c0.9,0.8,1.7,1.6,2.5,2.3L516.8,95.5z M418.5,90l-1.2-1.6c0.9-0.7,1.8-1.4,2.7-2.1l1.2,1.6
			C420.3,88.7,419.4,89.3,418.5,90z M510.3,89.8c-0.9-0.7-1.8-1.3-2.7-2l1.2-1.6c0.9,0.7,1.9,1.3,2.8,2L510.3,89.8z M425.6,85.1
			l-1-1.7c1-0.6,2-1.2,3-1.7l1,1.8C427.6,83.9,426.6,84.5,425.6,85.1z M503.1,84.8c-1-0.6-1.9-1.1-2.9-1.7l1-1.8c1,0.5,2,1.1,3,1.7
			L503.1,84.8z M433.3,81l-0.8-1.8c1-0.5,2.1-0.9,3.1-1.4l0.8,1.9C435.3,80.1,434.3,80.5,433.3,81z M495.5,80.8
			c-1-0.5-2-0.9-3.1-1.3l0.7-1.9c1,0.4,2.1,0.9,3.1,1.3L495.5,80.8z M441.4,77.8l-0.6-1.9c1.1-0.4,2.2-0.7,3.3-1l0.5,1.9
			C443.5,77.1,442.4,77.5,441.4,77.8z M487.4,77.7c-1.1-0.3-2.1-0.7-3.2-0.9l0.5-1.9c1.1,0.3,2.2,0.6,3.3,1L487.4,77.7z M449.8,75.6
			l-0.4-2c1.1-0.2,2.2-0.4,3.4-0.6l0.3,2C452,75.2,450.9,75.4,449.8,75.6z M479,75.5c-1.1-0.2-2.2-0.4-3.3-0.6l0.3-2
			c1.1,0.2,2.3,0.4,3.4,0.6L479,75.5z M458.4,74.4l-0.2-2c1.1-0.1,2.3-0.2,3.4-0.2l0.1,2C460.6,74.2,459.5,74.3,458.4,74.4z
			 M470.4,74.4c-1.1-0.1-2.2-0.1-3.3-0.2l0.1-2c1.1,0,2.3,0.1,3.4,0.2L470.4,74.4z"/>
	</g>
	<g>
		<g>
			<path class="st2" d="M363.5,131.5c0.5,0.3,0.8,1.1,0.6,1.8c-0.2,0.7-0.9,1-1.4,0.7L343,122.5c-0.5-0.3-0.8-1.1-0.6-1.8
				c0.2-0.7,0.9-1,1.4-0.7L363.5,131.5z"/>
		</g>
		<g>
			<path class="st2" d="M381,156.4c0.5,0.3,0.8,1.1,0.6,1.8c-0.2,0.7-0.9,1-1.4,0.7l-41.3-24c-0.5-0.3-0.8-1.1-0.6-1.8
				c0.2-0.7,0.9-1,1.4-0.7L381,156.4z"/>
		</g>
		<g>
			<path class="st2" d="M378.3,164.7c0.5,0.3,0.8,1.1,0.6,1.8c-0.2,0.7-0.9,1-1.4,0.7l-41.3-24c-0.5-0.3-0.8-1.1-0.6-1.8
				c0.2-0.7,0.9-1,1.4-0.7L378.3,164.7z"/>
		</g>
		<g>
			<path class="st2" d="M364.5,206.3c0.5,0.3,0.8,1.1,0.6,1.8c-0.2,0.7-0.9,1-1.4,0.7l-41.3-24c-0.5-0.3-0.8-1.1-0.6-1.8
				c0.2-0.7,0.9-1,1.4-0.7L364.5,206.3z"/>
		</g>
		<g>
			<path class="st2" d="M367.3,198c0.5,0.3,0.8,1.1,0.6,1.8c-0.2,0.7-0.9,1-1.4,0.7l-41.3-24c-0.5-0.3-0.8-1.1-0.6-1.8
				c0.2-0.7,0.9-1,1.4-0.7L367.3,198z"/>
		</g>
		<g>
			<path class="st2" d="M370,189.7c0.5,0.3,0.8,1.1,0.6,1.8c-0.2,0.7-0.9,1-1.4,0.7l-41.3-24c-0.5-0.3-0.8-1.1-0.6-1.8
				c0.2-0.7,0.9-1,1.4-0.7L370,189.7z"/>
		</g>
		<g>
			<path class="st2" d="M372.8,181.3c0.5,0.3,0.8,1.1,0.6,1.8c-0.2,0.7-0.9,1-1.4,0.7l-41.3-24c-0.5-0.3-0.8-1.1-0.6-1.8
				c0.2-0.7,0.9-1,1.4-0.7L372.8,181.3z"/>
		</g>
		<g>
			<path class="st2" d="M375.5,173c0.5,0.3,0.8,1.1,0.6,1.8c-0.2,0.7-0.9,1-1.4,0.7l-41.3-24c-0.5-0.3-0.8-1.1-0.6-1.8
				c0.2-0.7,0.9-1,1.4-0.7L375.5,173z"/>
		</g>
		<g>
			<path class="st3" d="M395.7,128.7c3.5,2,5.1,7.4,3.6,11.9l-26.3,80c-1.5,4.5-5.6,6.6-9.1,4.5l-50.6-29.5c-3.5-2-5.1-7.4-3.6-11.9
				l26.3-80c1.5-4.5,5.6-6.6,9.1-4.5L395.7,128.7z M371.4,219.6l26.3-80c1.1-3.3-0.1-7.3-2.7-8.8l-50.6-29.5c-2.6-1.5-5.6,0-6.7,3.3
				l-26.3,80c-1.1,3.3,0.1,7.3,2.7,8.8l50.6,29.5C367.3,224.4,370.3,222.9,371.4,219.6"/>
		</g>
		<g>
			<path class="st4" d="M395,130.8c2.6,1.5,3.8,5.4,2.7,8.8l-26.3,80c-1.1,3.3-4.1,4.8-6.7,3.3l-50.6-29.5c-2.6-1.5-3.8-5.4-2.7-8.8
				l26.3-80c1.1-3.3,4.1-4.8,6.7-3.3L395,130.8z M363.7,208.8c0.5,0.3,1.2,0,1.4-0.7c0.2-0.7,0-1.5-0.6-1.8l-41.3-24
				c-0.5-0.3-1.2,0-1.4,0.7c-0.2,0.7,0,1.5,0.6,1.8L363.7,208.8 M366.5,200.5c0.5,0.3,1.2,0,1.4-0.7c0.2-0.7,0-1.5-0.6-1.8L326,174
				c-0.5-0.3-1.2,0-1.4,0.7c-0.2,0.7,0,1.5,0.6,1.8L366.5,200.5 M369.2,192.2c0.5,0.3,1.2,0,1.4-0.7c0.2-0.7,0-1.5-0.6-1.8l-41.3-24
				c-0.5-0.3-1.2,0-1.4,0.7c-0.2,0.7,0,1.5,0.6,1.8L369.2,192.2 M371.9,183.9c0.5,0.3,1.2,0,1.4-0.7c0.2-0.7,0-1.5-0.6-1.8l-41.3-24
				c-0.5-0.3-1.2,0-1.4,0.7c-0.2,0.7,0,1.5,0.6,1.8L371.9,183.9 M374.7,175.5c0.5,0.3,1.2,0,1.4-0.7c0.2-0.7,0-1.5-0.6-1.8l-41.3-24
				c-0.5-0.3-1.2,0-1.4,0.7c-0.2,0.7,0,1.5,0.6,1.8L374.7,175.5 M377.4,167.2c0.5,0.3,1.2,0,1.4-0.7c0.2-0.7,0-1.5-0.6-1.8l-41.3-24
				c-0.5-0.3-1.2,0-1.4,0.7c-0.2,0.7,0,1.5,0.6,1.8L377.4,167.2 M380.2,158.9c0.5,0.3,1.2,0,1.4-0.7c0.2-0.7,0-1.5-0.6-1.8l-41.3-24
				c-0.5-0.3-1.2,0-1.4,0.7c-0.2,0.7,0,1.5,0.6,1.8L380.2,158.9 M343.8,120c-0.5-0.3-1.2,0-1.4,0.7c-0.2,0.7,0,1.5,0.6,1.8
				l19.7,11.5c0.5,0.3,1.2,0,1.4-0.7c0.2-0.7,0-1.5-0.6-1.8L343.8,120"/>
		</g>
	</g>
	<g>
		<g class="st5">
			<g class="st5">
				<defs>
					<path id="SVGID_2_" class="st5" d="M360,348.2l-3.4,2.1c0.8-0.5,1.4-1.3,1.8-2.2l3.4-2.1C361.4,346.9,360.8,347.7,360,348.2z"
						/>
				</defs>
				<clipPath id="SVGID_3_">
					<use xlink:href="#SVGID_2_"  style="overflow:visible;"/>
				</clipPath>
				<g class="st6">
					<path class="st7" d="M358.4,348l3.4-2.1c0,0.1-0.1,0.2-0.1,0.2l-3.4,2.1C358.3,348.2,358.3,348.1,358.4,348"/>
					<path class="st7" d="M358.3,348.3l3.4-2.1c0,0.1-0.1,0.2-0.1,0.3l-3.4,2.1C358.2,348.5,358.2,348.4,358.3,348.3"/>
					<path class="st7" d="M358.1,348.6l3.4-2.1c-0.1,0.1-0.1,0.2-0.2,0.3l-3.4,2.1C358,348.8,358.1,348.7,358.1,348.6"/>
					<path class="st7" d="M358,348.9l3.4-2.1c-0.1,0.1-0.2,0.3-0.3,0.4l-3.4,2.1C357.8,349.1,357.9,349,358,348.9"/>
					<path class="st7" d="M357.7,349.3l3.4-2.1c-0.3,0.4-0.7,0.7-1.1,1l-3.4,2.1C357,350,357.4,349.7,357.7,349.3"/>
				</g>
			</g>
			<g>
				<polygon class="st7" points="244.3,226.5 247.7,224.4 324.4,247.5 321,249.6 				"/>
			</g>
			<g class="st5">
				<defs>
					<path id="SVGID_4_" class="st5" d="M331.8,247.3l-3.4,2.1c-1.5,0.9-4.8,0.8-6.8,0.3c-0.2,0-0.4-0.1-0.6-0.2l3.4-2.1
						c0.2,0.1,0.4,0.1,0.6,0.2C327,248.1,330.3,248.2,331.8,247.3z"/>
				</defs>
				<clipPath id="SVGID_5_">
					<use xlink:href="#SVGID_4_"  style="overflow:visible;"/>
				</clipPath>
				<g class="st8">
					<path class="st7" d="M321,249.6l3.4-2.1c0,0,0,0,0.1,0L321,249.6C321,249.6,321,249.6,321,249.6"/>
					<path class="st7" d="M321,249.6l3.4-2.1c0.1,0,0.2,0.1,0.4,0.1l-3.4,2.1C321.3,249.6,321.1,249.6,321,249.6"/>
					<path class="st7" d="M321.4,249.7l3.4-2.1c0.1,0,0.1,0,0.2,0c0.1,0,0.2,0,0.3,0.1l-3.4,2.1c-0.1,0-0.2,0-0.3-0.1
						C321.5,249.7,321.4,249.7,321.4,249.7"/>
					<path class="st7" d="M321.9,249.8l3.4-2.1c0.2,0,0.4,0.1,0.7,0.1l-3.4,2.1C322.3,249.9,322.1,249.8,321.9,249.8"/>
					<path class="st7" d="M322.6,249.9l3.4-2.1c0.3,0,0.6,0.1,0.9,0.1l-3.4,2.1C323.1,250,322.8,249.9,322.6,249.9"/>
					<path class="st7" d="M323.4,250l3.4-2.1c0.3,0,0.6,0,0.9,0.1l-3.4,2.1C324,250,323.7,250,323.4,250"/>
					<path class="st7" d="M324.4,250l3.4-2.1c0.3,0,0.6,0,0.9,0l-3.4,2.1C325,250.1,324.7,250.1,324.4,250"/>
					<path class="st7" d="M325.3,250l3.4-2.1c0.3,0,0.5,0,0.8,0l-3.4,2.1C325.8,250,325.5,250,325.3,250"/>
					<path class="st7" d="M326.1,250l3.4-2.1c0.2,0,0.5-0.1,0.7-0.1l-3.4,2.1C326.5,249.9,326.3,250,326.1,250"/>
					<path class="st7" d="M326.8,249.9l3.4-2.1c0.2,0,0.4-0.1,0.6-0.1l-3.4,2.1C327.2,249.8,327,249.9,326.8,249.9"/>
					<path class="st7" d="M327.3,249.8l3.4-2.1c0.2,0,0.4-0.1,0.5-0.2l-3.4,2.1C327.7,249.7,327.5,249.7,327.3,249.8"/>
					<path class="st7" d="M327.9,249.6l3.4-2.1c0.2-0.1,0.3-0.1,0.5-0.2l-3.4,2.1C328.2,249.5,328,249.5,327.9,249.6"/>
				</g>
			</g>
			<g class="st5">
				<defs>
					<path id="SVGID_6_" class="st5" d="M335.6,242.2l3.4-2.1c1-0.6,2.2-0.8,3.5-0.5l-3.4,2.1C337.8,241.4,336.6,241.6,335.6,242.2z
						"/>
				</defs>
				<clipPath id="SVGID_7_">
					<use xlink:href="#SVGID_6_"  style="overflow:visible;"/>
				</clipPath>
				<g class="st9">
					<path class="st7" d="M335.6,242.2l3.4-2.1c0.2-0.1,0.4-0.2,0.6-0.3l-3.4,2.1C336,242,335.8,242.1,335.6,242.2"/>
					<path class="st7" d="M336.2,241.9l3.4-2.1c0.2-0.1,0.3-0.1,0.5-0.2l-3.4,2.1C336.5,241.8,336.4,241.8,336.2,241.9"/>
					<path class="st7" d="M336.7,241.7l3.4-2.1c0.1,0,0.3-0.1,0.4-0.1l-3.4,2.1C337,241.7,336.8,241.7,336.7,241.7"/>
					<path class="st7" d="M337.1,241.6l3.4-2.1c0.1,0,0.2,0,0.4,0l-3.4,2.1C337.3,241.6,337.2,241.6,337.1,241.6"/>
					<path class="st7" d="M337.5,241.6l3.4-2.1c0.1,0,0.2,0,0.3,0l-3.4,2.1C337.7,241.6,337.6,241.6,337.5,241.6"/>
					<path class="st7" d="M337.8,241.6l3.4-2.1c0.1,0,0.2,0,0.3,0l-3.4,2.1C338,241.6,337.9,241.6,337.8,241.6"/>
					<path class="st7" d="M338.1,241.6l3.4-2.1c0.1,0,0.2,0,0.3,0l-3.4,2.1C338.3,241.6,338.2,241.6,338.1,241.6"/>
					<path class="st7" d="M338.4,241.6l3.4-2.1c0.1,0,0.2,0,0.3,0l-3.4,2.1C338.6,241.6,338.5,241.6,338.4,241.6"/>
					<path class="st7" d="M338.7,241.6l3.4-2.1c0.1,0,0.2,0,0.3,0l-3.4,2.1C338.9,241.7,338.8,241.6,338.7,241.6"/>
					<path class="st7" d="M339,241.7l3.4-2.1c0.1,0,0.1,0,0.2,0l-3.4,2.1C339.1,241.7,339,241.7,339,241.7"/>
				</g>
			</g>
			<g class="st5">
				<defs>
					<path id="SVGID_8_" class="st5" d="M339.1,241.7l3.4-2.1c0.1,0,0.3,0.1,0.4,0.1l-3.4,2.1C339.4,241.8,339.3,241.7,339.1,241.7z
						"/>
				</defs>
				<clipPath id="SVGID_9_">
					<use xlink:href="#SVGID_8_"  style="overflow:visible;"/>
				</clipPath>
				<g class="st10">
					<path class="st7" d="M339.1,241.7l3.4-2.1c0,0,0.1,0,0.1,0l-3.4,2.1C339.2,241.7,339.2,241.7,339.1,241.7"/>
					<path class="st7" d="M339.2,241.7l3.4-2.1c0.1,0,0.2,0,0.3,0.1l-3.4,2.1C339.4,241.8,339.3,241.8,339.2,241.7"/>
					<path class="st7" d="M339.5,241.8l3.4-2.1c0,0,0,0,0,0L339.5,241.8C339.6,241.8,339.5,241.8,339.5,241.8"/>
				</g>
			</g>
			<g>
				<polygon class="st7" points="375.4,275.2 378.9,273.2 361.8,346 358.4,348 				"/>
			</g>
			<g>
				<polygon class="st7" points="339.6,241.8 343,239.8 374.5,249.2 371.1,251.3 				"/>
			</g>
			<g class="st5">
				<defs>
					<path id="SVGID_10_" class="st5" d="M376.4,257.4l3.4-2.1c1.2,5.3,0.3,10.4-1,17.9l-3.4,2.1
						C376.7,267.8,377.6,262.7,376.4,257.4z"/>
				</defs>
				<clipPath id="SVGID_11_">
					<use xlink:href="#SVGID_10_"  style="overflow:visible;"/>
				</clipPath>
				<g class="st11">
					<path class="st7" d="M376.4,257.4l3.4-2.1c0,0.1,0,0.1,0,0.2l-3.4,2.1C376.4,257.5,376.4,257.4,376.4,257.4"/>
					<path class="st7" d="M376.4,257.5l3.4-2.1c0.1,0.3,0.1,0.6,0.2,1l-3.4,2.1C376.6,258.2,376.5,257.8,376.4,257.5"/>
					<path class="st7" d="M376.6,258.5l3.4-2.1c0.1,0.3,0.1,0.6,0.1,0.9l-3.4,2.1C376.7,259.1,376.7,258.8,376.6,258.5"/>
					<path class="st7" d="M376.8,259.4l3.4-2.1c0,0.3,0.1,0.6,0.1,1l-3.4,2.1C376.8,260.1,376.8,259.7,376.8,259.4"/>
					<path class="st7" d="M376.9,260.4l3.4-2.1c0,0.3,0.1,0.7,0.1,1l-3.4,2.1C376.9,261.1,376.9,260.7,376.9,260.4"/>
					<path class="st7" d="M376.9,261.4l3.4-2.1c0,0.4,0,0.8,0,1.1l-3.4,2.1C377,262.2,377,261.8,376.9,261.4"/>
					<path class="st7" d="M377,262.5l3.4-2.1c0,0.4,0,0.9,0,1.3l-3.4,2.1C377,263.4,377,263,377,262.5"/>
					<path class="st7" d="M376.9,263.8l3.4-2.1c0,0.5-0.1,1.1-0.1,1.7l-3.4,2.1C376.9,264.9,376.9,264.4,376.9,263.8"/>
					<path class="st7" d="M376.8,265.5l3.4-2.1c-0.1,0.8-0.2,1.6-0.3,2.5l-3.4,2.1C376.7,267.1,376.8,266.3,376.8,265.5"/>
					<path class="st7" d="M376.6,268l3.4-2.1c-0.3,2.2-0.7,4.6-1.1,7.2l-3.4,2.1C375.9,272.6,376.3,270.2,376.6,268"/>
				</g>
			</g>
			<g>
				<path class="st12" d="M339.1,241.7c0.1,0,0.3,0.1,0.4,0.1l31.5,9.5c2.6,0.8,4.8,3.3,5.3,6.1c1.2,5.3,0.3,10.4-1,17.9L358.4,348
					c-0.8,2.4-3.3,3.5-7,2.7c-0.3-0.1-0.6-0.2-1-0.3l-116.3-35c-4.2-1.3-7.5-5.8-7.3-10.2l17.4-78.8l76.7,23.1
					c0.2,0.1,0.4,0.1,0.6,0.2c2.3,0.5,6.3,0.6,7.3-0.8l5.6-5.7C335.5,241.9,337.2,241.3,339.1,241.7z"/>
			</g>
			<g class="st5">
				<defs>
					<path id="SVGID_12_" class="st5" d="M371.1,251.3l3.4-2.1c2.6,0.8,4.8,3.3,5.3,6.1l-3.4,2.1
						C375.9,254.6,373.7,252.1,371.1,251.3z"/>
				</defs>
				<clipPath id="SVGID_13_">
					<use xlink:href="#SVGID_12_"  style="overflow:visible;"/>
				</clipPath>
				<g class="st13">
					<path class="st7" d="M371.1,251.3l3.4-2.1c0.1,0,0.2,0.1,0.2,0.1l-3.4,2.1C371.2,251.3,371.1,251.3,371.1,251.3"/>
					<path class="st7" d="M371.3,251.4l3.4-2.1c0.1,0,0.2,0.1,0.3,0.1l-3.4,2.1C371.5,251.4,371.4,251.4,371.3,251.4"/>
					<path class="st7" d="M371.6,251.5l3.4-2.1c0.1,0,0.2,0.1,0.3,0.1l-3.4,2.1C371.8,251.6,371.7,251.5,371.6,251.5"/>
					<path class="st7" d="M371.9,251.6l3.4-2.1c0.1,0,0.2,0.1,0.3,0.1l-3.4,2.1C372.1,251.7,372,251.6,371.9,251.6"/>
					<path class="st7" d="M372.2,251.7l3.4-2.1c0.1,0.1,0.2,0.1,0.3,0.2l-3.4,2.1C372.4,251.8,372.3,251.8,372.2,251.7"/>
					<path class="st7" d="M372.5,251.9l3.4-2.1c0.1,0.1,0.2,0.1,0.3,0.2l-3.4,2.1C372.7,252,372.6,251.9,372.5,251.9"/>
					<path class="st7" d="M372.8,252.1l3.4-2.1c0.1,0.1,0.2,0.1,0.3,0.2l-3.4,2.1C373,252.2,372.9,252.1,372.8,252.1"/>
					<path class="st7" d="M373.1,252.3l3.4-2.1c0.1,0.1,0.2,0.2,0.3,0.3l-3.4,2.1C373.3,252.5,373.2,252.4,373.1,252.3"/>
					<path class="st7" d="M373.4,252.5l3.4-2.1c0.1,0.1,0.3,0.2,0.4,0.3l-3.4,2.1C373.7,252.8,373.6,252.6,373.4,252.5"/>
					<path class="st7" d="M373.8,252.9l3.4-2.1c0.2,0.1,0.3,0.3,0.5,0.4l-3.4,2.1C374.1,253.2,374,253,373.8,252.9"/>
					<path class="st7" d="M374.3,253.3l3.4-2.1c0.6,0.6,1.1,1.4,1.5,2.1l-3.4,2.1C375.4,254.7,374.9,253.9,374.3,253.3"/>
					<path class="st7" d="M375.8,255.4l3.4-2.1c0.1,0.2,0.2,0.4,0.2,0.6L376,256C375.9,255.8,375.8,255.6,375.8,255.4"/>
					<path class="st7" d="M376,256l3.4-2.1c0.1,0.1,0.1,0.3,0.2,0.4l-3.4,2.1C376.1,256.3,376.1,256.1,376,256"/>
					<path class="st7" d="M376.2,256.4l3.4-2.1c0,0.1,0.1,0.2,0.1,0.4l-3.4,2.1C376.2,256.7,376.2,256.6,376.2,256.4"/>
					<path class="st7" d="M376.3,256.8l3.4-2.1c0,0.1,0.1,0.2,0.1,0.3l-3.4,2.1C376.3,257,376.3,256.9,376.3,256.8"/>
					<path class="st7" d="M376.4,257.1l3.4-2.1c0,0.1,0,0.2,0,0.2l-3.4,2.1C376.4,257.3,376.4,257.2,376.4,257.1"/>
				</g>
			</g>
		</g>
	</g>
	<g>
		<g>
			<path class="st14" d="M322.2,173.6c0.6,0.3,1,1.1,0.9,1.9c-0.1,0.8-0.8,1.2-1.4,1l-23.2-9.6c-0.6-0.3-1-1.1-0.9-1.9
				c0.1-0.8,0.8-1.2,1.4-1L322.2,173.6z"/>
		</g>
		<g>
			<path class="st2" d="M344.9,198c0.6,0.3,1,1.1,0.9,1.9c-0.1,0.8-0.8,1.2-1.4,1l-48.5-20c-0.6-0.3-1-1.1-0.9-1.9
				c0.1-0.8,0.8-1.2,1.4-1L344.9,198z"/>
		</g>
		<g>
			<path class="st2" d="M343.1,207.5c0.6,0.3,1,1.1,0.9,1.9c-0.1,0.8-0.8,1.2-1.4,1l-48.5-20c-0.6-0.3-1-1.1-0.9-1.9
				c0.1-0.8,0.8-1.2,1.4-1L343.1,207.5z"/>
		</g>
		<g>
			<path class="st2" d="M334.4,254.8c0.6,0.3,1,1.1,0.9,1.9c-0.1,0.8-0.8,1.2-1.4,1l-48.5-20c-0.6-0.3-1-1.1-0.9-1.9
				c0.1-0.8,0.8-1.2,1.4-1L334.4,254.8z"/>
		</g>
		<g>
			<path class="st2" d="M336.1,245.4c0.6,0.3,1,1.1,0.9,1.9s-0.8,1.2-1.4,1l-48.5-20c-0.6-0.3-1-1.1-0.9-1.9s0.8-1.2,1.4-1
				L336.1,245.4z"/>
		</g>
		<g>
			<path class="st2" d="M337.9,235.9c0.6,0.3,1,1.1,0.9,1.9c-0.1,0.8-0.8,1.2-1.4,1l-48.5-20c-0.6-0.3-1-1.1-0.9-1.9
				c0.1-0.8,0.8-1.2,1.4-1L337.9,235.9z"/>
		</g>
		<g>
			<path class="st2" d="M339.6,226.4c0.6,0.3,1,1.1,0.9,1.9c-0.1,0.8-0.8,1.2-1.4,1l-48.5-20c-0.6-0.3-1-1.1-0.9-1.9
				c0.1-0.8,0.8-1.2,1.4-1L339.6,226.4z"/>
		</g>
		<g>
			<path class="st2" d="M341.4,217c0.6,0.3,1,1.1,0.9,1.9c-0.1,0.8-0.8,1.2-1.4,1l-48.5-20c-0.6-0.3-1-1.1-0.9-1.9
				c0.1-0.8,0.8-1.2,1.4-1L341.4,217z"/>
		</g>
		<g>
			<path class="st3" d="M356.8,165.7c4.1,1.7,6.7,7.3,5.7,12.4L345.7,269c-1,5.2-5.1,8-9.2,6.3l-59.4-24.6
				c-4.1-1.7-6.7-7.3-5.7-12.4l16.8-90.9c1-5.2,5.1-8,9.2-6.3L356.8,165.7z M343.8,268.2l16.8-90.9c0.7-3.8-1.2-7.9-4.2-9.2
				l-59.4-24.6c-3-1.3-6.1,0.8-6.8,4.6l-16.8,90.9c-0.7,3.8,1.2,7.9,4.2,9.2l59.4,24.6C340,274.1,343.1,272,343.8,268.2"/>
		</g>
		<g>
			<path class="st4" d="M356.4,168.2c3,1.3,4.9,5.4,4.2,9.2l-16.8,90.9c-0.7,3.8-3.7,5.9-6.8,4.6l-59.4-24.6c-3-1.3-4.9-5.4-4.2-9.2
				l16.8-90.9c0.7-3.8,3.7-5.9,6.8-4.6L356.4,168.2z M333.9,257.7c0.6,0.3,1.3-0.2,1.4-1c0.1-0.8-0.2-1.6-0.9-1.9l-48.5-20
				c-0.6-0.3-1.3,0.2-1.4,1c-0.1,0.8,0.2,1.6,0.9,1.9L333.9,257.7 M335.6,248.2c0.6,0.3,1.3-0.2,1.4-1c0.1-0.8-0.2-1.6-0.9-1.9
				l-48.5-20c-0.6-0.3-1.3,0.2-1.4,1c-0.1,0.8,0.2,1.6,0.9,1.9L335.6,248.2 M337.4,238.8c0.6,0.3,1.3-0.2,1.4-1
				c0.1-0.8-0.2-1.6-0.9-1.9l-48.5-20c-0.6-0.3-1.3,0.2-1.4,1c-0.1,0.8,0.2,1.6,0.9,1.9L337.4,238.8 M339.1,229.3
				c0.6,0.3,1.3-0.2,1.4-1c0.1-0.8-0.2-1.6-0.9-1.9l-48.5-20c-0.6-0.3-1.3,0.2-1.4,1c-0.1,0.8,0.2,1.6,0.9,1.9L339.1,229.3
				 M340.9,219.8c0.6,0.3,1.3-0.2,1.4-1c0.1-0.8-0.2-1.6-0.9-1.9l-48.5-20c-0.6-0.3-1.3,0.2-1.4,1c-0.1,0.8,0.2,1.6,0.9,1.9
				L340.9,219.8 M342.6,210.4c0.6,0.3,1.3-0.2,1.4-1c0.1-0.8-0.2-1.6-0.9-1.9l-48.5-20c-0.6-0.3-1.3,0.2-1.4,1
				c-0.1,0.8,0.2,1.6,0.9,1.9L342.6,210.4 M344.4,200.9c0.6,0.3,1.3-0.2,1.4-1c0.1-0.8-0.2-1.6-0.9-1.9l-48.5-20
				c-0.6-0.3-1.3,0.2-1.4,1c-0.1,0.8,0.2,1.6,0.9,1.9L344.4,200.9 M299,164c-0.6-0.3-1.3,0.2-1.4,1c-0.1,0.8,0.2,1.6,0.9,1.9
				l23.2,9.6c0.6,0.3,1.3-0.2,1.4-1c0.1-0.8-0.2-1.6-0.9-1.9L299,164"/>
		</g>
	</g>
	<g>
		<rect x="450.1" y="99.5" class="st2" width="2.3" height="119.8"/>
	</g>
	<g>
		<rect x="476.8" y="78.4" class="st2" width="2.3" height="120.1"/>
	</g>
	<g>
		<circle class="st15" cx="477.9" cy="74.3" r="4.1"/>
		<path class="st2" d="M477.9,79.6c-2.9,0-5.2-2.4-5.2-5.2c0-2.9,2.4-5.2,5.2-5.2c2.9,0,5.2,2.4,5.2,5.2
			C483.2,77.2,480.8,79.6,477.9,79.6z M477.9,71.4c-1.6,0-3,1.3-3,3c0,1.6,1.3,3,3,3c1.6,0,3-1.3,3-3
			C480.9,72.7,479.6,71.4,477.9,71.4z"/>
	</g>
	<g>
		<circle class="st15" cx="451.2" cy="96" r="4.1"/>
		<path class="st2" d="M451.2,101.2c-2.9,0-5.2-2.4-5.2-5.2c0-2.9,2.4-5.2,5.2-5.2c2.9,0,5.2,2.4,5.2,5.2
			C456.5,98.9,454.1,101.2,451.2,101.2z M451.2,93c-1.6,0-3,1.3-3,3c0,1.6,1.3,3,3,3c1.6,0,3-1.3,3-3C454.2,94.4,452.9,93,451.2,93z
			"/>
	</g>
	<g>
		<circle class="st15" cx="451.2" cy="223.4" r="4.1"/>
		<path class="st2" d="M451.2,228.7c-2.9,0-5.2-2.4-5.2-5.2c0-2.9,2.4-5.2,5.2-5.2c2.9,0,5.2,2.4,5.2,5.2
			C456.5,226.3,454.1,228.7,451.2,228.7z M451.2,220.4c-1.6,0-3,1.3-3,3c0,1.6,1.3,3,3,3c1.6,0,3-1.3,3-3
			C454.2,221.8,452.9,220.4,451.2,220.4z"/>
	</g>
	<circle class="st16" cx="477.9" cy="201.5" r="4.1"/>
	<g>
		<rect x="394.6" y="134.9" class="st2" width="118.5" height="2.3"/>
	</g>
	<g>
		<rect x="415.4" y="161.6" class="st2" width="119.1" height="2.3"/>
	</g>
	<g>
		<circle class="st15" cx="538.6" cy="162.8" r="4.1"/>
		<path class="st2" d="M538.6,168c-2.9,0-5.2-2.4-5.2-5.2s2.4-5.2,5.2-5.2c2.9,0,5.2,2.4,5.2,5.2S541.5,168,538.6,168z M538.6,159.8
			c-1.6,0-3,1.3-3,3s1.3,3,3,3c1.6,0,3-1.3,3-3S540.3,159.8,538.6,159.8z"/>
	</g>
	<g>
		<circle class="st15" cx="518.2" cy="136" r="4.1"/>
		<path class="st2" d="M518.2,141.3c-2.9,0-5.2-2.4-5.2-5.2s2.4-5.2,5.2-5.2c2.9,0,5.2,2.4,5.2,5.2S521,141.3,518.2,141.3z
			 M518.2,133.1c-1.6,0-3,1.3-3,3s1.3,3,3,3c1.6,0,3-1.3,3-3S519.8,133.1,518.2,133.1z"/>
	</g>
	<g>
		<circle class="st15" cx="390.5" cy="136" r="4.1"/>
		<path class="st2" d="M390.5,141.3c-2.9,0-5.2-2.4-5.2-5.2s2.4-5.2,5.2-5.2c2.9,0,5.2,2.4,5.2,5.2S393.4,141.3,390.5,141.3z
			 M390.5,133.1c-1.6,0-3,1.3-3,3s1.3,3,3,3c1.6,0,3-1.3,3-3S392.1,133.1,390.5,133.1z"/>
	</g>
	<g>
		<circle class="st15" cx="411.2" cy="162.8" r="4.1"/>
		<path class="st2" d="M411.2,168c-2.9,0-5.2-2.4-5.2-5.2s2.4-5.2,5.2-5.2s5.2,2.4,5.2,5.2S414.1,168,411.2,168z M411.2,159.8
			c-1.6,0-3,1.3-3,3s1.3,3,3,3s3-1.3,3-3S412.8,159.8,411.2,159.8z"/>
	</g>
	<g>
		<path class="st2" d="M485.3,177h-41.5c-3.8,0-6.9-3.1-6.9-6.9v-41.5c0-3.8,3.1-6.9,6.9-6.9h41.5c3.8,0,6.9,3.1,6.9,6.9v41.5
			C492.2,173.9,489.1,177,485.3,177z"/>
	</g>
	<g>
		<path class="st15" d="M464.4,153.3h-6.1l-1.1,3.1H454l5.6-15.1h3.5l5.6,15.1h-3.2L464.4,153.3z M463.6,151l-2.3-6.4l-2.3,6.4
			H463.6z"/>
		<path class="st15" d="M473.4,141.1v15.3h-3.1v-15.3H473.4z"/>
	</g>
	<g>
		<path class="st15" d="M482.7,172.3h-36.3c-2.6,0-4.8-2.1-4.8-4.8v-36.3c0-2.6,2.1-4.8,4.8-4.8h36.3c2.6,0,4.8,2.1,4.8,4.8v36.3
			C487.5,170.2,485.4,172.3,482.7,172.3z M446.4,129.3c-1.1,0-2,0.9-2,2v36.3c0,1.1,0.9,2,2,2h36.3c1.1,0,2-0.9,2-2v-36.3
			c0-1.1-0.9-2-2-2H446.4z"/>
	</g>
	<path class="st2" d="M285.9,206.8c-0.5,3.9-1.8,7.6-3.7,11c-1.9,3.4-4.4,6.4-7.4,8.8c-5.9,4.9-13.6,7.5-21.1,7
		c-19.2,0.5-38.4,0.8-57.6,0.7c-9.6,0.1-19.2,0-28.8-0.1l-28.8-0.3c-2.3,0-4.9-0.1-7.4-0.5c-2.5-0.4-5-1-7.4-1.8
		c-4.8-1.7-9.2-4.4-12.9-7.8c-7.4-6.9-12-16.8-12.1-26.8c-0.1-5,0.7-10,2.6-14.7c1.8-4.6,4.6-8.9,8.1-12.4c7-7,16.7-11.1,26.4-10.8
		c1.4-7.5,4.9-14.8,10.3-20.4c2.7-2.8,5.8-5.3,9.2-7.3c3.4-2,7.1-3.4,11-4.3c7.7-1.9,16-1.3,23.5,1.4c7,2.5,13.3,7,18.1,12.9
		c5.3-1.9,11-2.8,16.6-2.4c3.1,0.1,6.1,0.8,9.1,1.5c2.9,0.9,5.8,2,8.5,3.5c5.4,2.9,10,7.2,13.6,12.2c3.4,4.6,5.7,10,6.9,15.5
		c7.3,1.9,13.8,6.5,18,12.7C285.1,190.9,287.1,199.1,285.9,206.8z"/>
	<g>
		<g class="st5">
			<g>
				<path class="st2" d="M329.6,314.5c0.8,0.2,1.4,1.1,1.4,2c0,0.9-0.6,1.5-1.4,1.4l-59.1-12.6c-0.8-0.2-1.4-1.1-1.4-2
					c0-0.9,0.6-1.5,1.4-1.4L329.6,314.5z"/>
			</g>
			<g>
				<path class="st2" d="M329.7,270.1c0.8,0.2,1.4,1.1,1.4,2c0,0.9-0.6,1.5-1.4,1.4l-59.1-12.6c-0.8-0.2-1.4-1.1-1.4-2
					c0-0.9,0.6-1.5,1.4-1.4L329.7,270.1z"/>
			</g>
			<g>
				<path class="st2" d="M329.7,259c0.8,0.2,1.4,1.1,1.4,2c0,0.9-0.6,1.5-1.4,1.4l-59.1-12.6c-0.8-0.2-1.4-1.1-1.4-2
					c0-0.9,0.6-1.5,1.4-1.4L329.7,259z"/>
			</g>
			<g>
				<path class="st2" d="M329.8,247.9c0.8,0.2,1.4,1.1,1.4,2c0,0.9-0.6,1.5-1.4,1.4l-59.1-12.6c-0.8-0.2-1.4-1.1-1.4-2
					c0-0.9,0.6-1.5,1.4-1.4L329.8,247.9z"/>
			</g>
			<g>
				<path class="st4" d="M336.6,211.7c3.7,0.8,6.7,5.1,6.7,9.5l-0.2,106.6c0,4.5-3,7.5-6.7,6.7l-72.5-15.5c-3.7-0.8-6.7-5.1-6.7-9.5
					l0.2-106.6c0-4.5,3-7.4,6.7-6.7L336.6,211.7z M329.6,317.9c0.8,0.2,1.4-0.5,1.4-1.4c0-0.9-0.6-1.8-1.4-2l-59.1-12.6
					c-0.8-0.2-1.4,0.5-1.4,1.4c0,0.9,0.6,1.8,1.4,2L329.6,317.9 M329.6,306.8c0.8,0.2,1.4-0.5,1.4-1.4c0-0.9-0.6-1.8-1.4-2
					l-59.1-12.6c-0.8-0.2-1.4,0.4-1.4,1.4c0,0.9,0.6,1.8,1.4,2L329.6,306.8 M329.7,295.7c0.8,0.2,1.4-0.5,1.4-1.4
					c0-0.9-0.6-1.8-1.4-2l-59.1-12.6c-0.8-0.2-1.4,0.5-1.4,1.4c0,0.9,0.6,1.8,1.4,2L329.7,295.7 M329.7,284.6
					c0.8,0.2,1.4-0.5,1.4-1.4c0-0.9-0.6-1.8-1.4-2l-59.1-12.6c-0.8-0.2-1.4,0.5-1.4,1.4c0,0.9,0.6,1.8,1.4,2L329.7,284.6
					 M329.7,273.5c0.8,0.2,1.4-0.5,1.4-1.4c0-0.9-0.6-1.8-1.4-2l-59.1-12.6c-0.8-0.2-1.4,0.5-1.4,1.4c0,0.9,0.6,1.8,1.4,2
					L329.7,273.5 M329.7,262.4c0.8,0.2,1.4-0.5,1.4-1.4c0-0.9-0.6-1.8-1.4-2l-59.1-12.6c-0.8-0.2-1.4,0.5-1.4,1.4
					c0,0.9,0.6,1.8,1.4,2L329.7,262.4 M329.8,251.3c0.8,0.2,1.4-0.5,1.4-1.4c0-0.9-0.6-1.8-1.4-2l-59.1-12.6
					c-0.8-0.2-1.4,0.5-1.4,1.4c0,0.9,0.6,1.8,1.4,2L329.8,251.3 M270.7,218.8c-0.8-0.2-1.4,0.4-1.4,1.4c0,0.9,0.6,1.8,1.4,2l28.3,6
					c0.8,0.2,1.4-0.5,1.4-1.4c0-0.9-0.6-1.8-1.4-2L270.7,218.8"/>
			</g>
			<g>
				<path class="st3" d="M336.6,208.8c5,1.1,9.1,6.9,9.1,12.9l-0.2,106.6c0,6.1-4.1,10.1-9.1,9l-72.5-15.5c-5-1.1-9.1-6.9-9.1-12.9
					l0.2-106.6c0-6,4.1-10.1,9.1-9L336.6,208.8z M343.1,327.7l0.2-106.6c0-4.5-3-8.7-6.7-9.5l-72.5-15.5c-3.7-0.8-6.7,2.2-6.7,6.7
					l-0.2,106.6c0,4.5,3,8.7,6.7,9.5l72.5,15.5C340,335.2,343.1,332.2,343.1,327.7"/>
			</g>
		</g>
		<g>
			<path class="st2" d="M298.9,224.9c0.8,0.2,1.4,1,1.4,2c0,0.9-0.6,1.5-1.4,1.4l-28.3-6c-0.8-0.2-1.4-1.1-1.4-2
				c0-0.9,0.6-1.5,1.4-1.4L298.9,224.9z"/>
		</g>
		<g>
			<path class="st2" d="M329.7,281.2c0.8,0.2,1.4,1.1,1.4,2c0,0.9-0.6,1.5-1.4,1.4l-59.1-12.6c-0.8-0.2-1.4-1.1-1.4-2
				c0-0.9,0.6-1.5,1.4-1.4L329.7,281.2z"/>
		</g>
		<g>
			<path class="st2" d="M329.7,292.3c0.8,0.2,1.4,1.1,1.4,2c0,0.9-0.6,1.5-1.4,1.4L270.5,283c-0.8-0.2-1.4-1.1-1.4-2
				c0-0.9,0.6-1.5,1.4-1.4L329.7,292.3z"/>
		</g>
		<g>
			<path class="st2" d="M329.7,303.4c0.8,0.2,1.4,1,1.4,2c0,0.9-0.6,1.5-1.4,1.4l-59.1-12.6c-0.8-0.2-1.4-1.1-1.4-2
				c0-0.9,0.6-1.5,1.4-1.4L329.7,303.4z"/>
		</g>
	</g>
	<g>
		<g class="st5">
			<g class="st5">
				<defs>
					<path id="SVGID_14_" class="st5" d="M222.9,220.6l5-3.1c1-0.6,2.3-0.8,3.6-0.5l-5,3.1C225.1,219.8,223.9,220,222.9,220.6z"/>
				</defs>
				<clipPath id="SVGID_15_">
					<use xlink:href="#SVGID_14_"  style="overflow:visible;"/>
				</clipPath>
				<g class="st17">
					<path class="st7" d="M222.9,220.6l5-3.1c0.2-0.1,0.4-0.2,0.7-0.3l-5,3.1C223.3,220.4,223.1,220.5,222.9,220.6"/>
					<path class="st7" d="M223.5,220.3l5-3.1c0.2-0.1,0.3-0.1,0.5-0.2l-5,3.1C223.9,220.1,223.7,220.2,223.5,220.3"/>
					<path class="st7" d="M224,220.1l5-3.1c0.1,0,0.3-0.1,0.4-0.1l-5,3.1C224.3,220,224.2,220.1,224,220.1"/>
					<path class="st7" d="M224.4,220l5-3.1c0.1,0,0.2,0,0.4,0l-5,3.1C224.7,220,224.5,220,224.4,220"/>
					<path class="st7" d="M224.8,220l5-3.1c0.1,0,0.2,0,0.3,0l-5,3.1C225,219.9,224.9,219.9,224.8,220"/>
					<path class="st7" d="M225.1,219.9l5-3.1c0.1,0,0.2,0,0.3,0l-5,3.1C225.3,219.9,225.2,219.9,225.1,219.9"/>
					<path class="st7" d="M225.4,219.9l5-3.1c0.1,0,0.2,0,0.3,0l-5,3.1C225.6,219.9,225.5,219.9,225.4,219.9"/>
					<path class="st7" d="M225.7,220l5-3.1c0.1,0,0.2,0,0.3,0l-5,3.1C225.9,220,225.8,220,225.7,220"/>
					<path class="st7" d="M226,220l5-3.1c0.1,0,0.2,0,0.3,0l-5,3.1C226.2,220,226.1,220,226,220"/>
					<path class="st7" d="M226.3,220l5-3.1c0.1,0,0.1,0,0.2,0l-5,3.1C226.5,220.1,226.4,220,226.3,220"/>
				</g>
			</g>
			<g>
				<polygon class="st7" points="226.5,220.1 231.6,217 263.7,224.5 258.6,227.6 				"/>
			</g>
			<g class="st5">
				<defs>
					<path id="SVGID_16_" class="st5" d="M269.3,245.9l5-3.1c0.9,2.3,3,4.2,5.3,4.7l-5,3.1C272.3,250.1,270.2,248.2,269.3,245.9z"/>
				</defs>
				<clipPath id="SVGID_17_">
					<use xlink:href="#SVGID_16_"  style="overflow:visible;"/>
				</clipPath>
				<g class="st18">
					<path class="st7" d="M269.3,245.9l5-3.1c0,0,0,0.1,0,0.1L269.3,245.9C269.3,246,269.3,245.9,269.3,245.9"/>
					<path class="st7" d="M269.3,246l5-3.1c0.1,0.2,0.2,0.4,0.3,0.6l-5,3.1C269.5,246.4,269.4,246.2,269.3,246"/>
					<path class="st7" d="M269.6,246.6l5-3.1c0.3,0.7,0.8,1.3,1.3,1.8l-5,3.1C270.4,247.9,270,247.3,269.6,246.6"/>
					<path class="st7" d="M270.9,248.4l5-3.1c0.2,0.2,0.3,0.3,0.5,0.5l-5,3.1C271.2,248.8,271.1,248.6,270.9,248.4"/>
					<path class="st7" d="M271.4,248.9l5-3.1c0.1,0.1,0.3,0.2,0.4,0.3l-5,3.1C271.7,249.2,271.5,249,271.4,248.9"/>
					<path class="st7" d="M271.8,249.3l5-3.1c0.1,0.1,0.2,0.2,0.4,0.3l-5,3.1C272,249.4,271.9,249.4,271.8,249.3"/>
					<path class="st7" d="M272.2,249.5l5-3.1c0.1,0.1,0.2,0.1,0.3,0.2l-5,3.1C272.4,249.7,272.3,249.6,272.2,249.5"/>
					<path class="st7" d="M272.5,249.7l5-3.1c0.1,0.1,0.2,0.1,0.3,0.2l-5,3.1C272.7,249.9,272.6,249.8,272.5,249.7"/>
					<path class="st7" d="M272.8,249.9l5-3.1c0.1,0.1,0.2,0.1,0.3,0.2l-5,3.1C273,250,272.9,250,272.8,249.9"/>
					<path class="st7" d="M273.1,250.1l5-3.1c0.1,0,0.2,0.1,0.3,0.1l-5,3.1C273.3,250.2,273.2,250.1,273.1,250.1"/>
					<path class="st7" d="M273.4,250.2l5-3.1c0.1,0,0.2,0.1,0.3,0.1l-5,3.1C273.6,250.3,273.5,250.3,273.4,250.2"/>
					<path class="st7" d="M273.7,250.4l5-3.1c0.1,0,0.2,0.1,0.3,0.1l-5,3.1C273.9,250.4,273.8,250.4,273.7,250.4"/>
					<path class="st7" d="M274,250.5l5-3.1c0.1,0,0.2,0.1,0.3,0.1l-5,3.1C274.2,250.5,274.1,250.5,274,250.5"/>
					<path class="st7" d="M274.3,250.6l5-3.1c0.1,0,0.2,0.1,0.3,0.1l-5,3.1C274.4,250.6,274.4,250.6,274.3,250.6"/>
					<path class="st7" d="M274.5,250.6l5-3.1c0,0,0,0,0,0L274.5,250.6C274.6,250.6,274.6,250.6,274.5,250.6"/>
				</g>
			</g>
			<g>
				<polygon class="st7" points="263.9,232.3 268.9,229.2 274.3,242.8 269.3,245.9 				"/>
			</g>
			<g class="st5">
				<defs>
					<path id="SVGID_18_" class="st5" d="M258.6,227.6l5-3.1c2.3,0.5,4.3,2.4,5.3,4.7l-5,3.1C263,230,260.9,228.1,258.6,227.6z"/>
				</defs>
				<clipPath id="SVGID_19_">
					<use xlink:href="#SVGID_18_"  style="overflow:visible;"/>
				</clipPath>
				<g class="st19">
					<path class="st7" d="M258.6,227.6l5-3.1c0,0,0,0,0,0L258.6,227.6C258.7,227.6,258.6,227.6,258.6,227.6"/>
					<path class="st7" d="M258.7,227.6l5-3.1c0.1,0,0.2,0,0.3,0.1l-5,3.1C258.9,227.6,258.8,227.6,258.7,227.6"/>
					<path class="st7" d="M258.9,227.7l5-3.1c0.1,0,0.2,0.1,0.3,0.1l-5,3.1C259.1,227.7,259,227.7,258.9,227.7"/>
					<path class="st7" d="M259.2,227.7l5-3.1c0.1,0,0.2,0.1,0.3,0.1l-5,3.1C259.4,227.8,259.3,227.8,259.2,227.7"/>
					<path class="st7" d="M259.5,227.9l5-3.1c0.1,0,0.2,0.1,0.3,0.1l-5,3.1C259.7,227.9,259.6,227.9,259.5,227.9"/>
					<path class="st7" d="M259.8,228l5-3.1c0.1,0,0.2,0.1,0.3,0.1l-5,3.1C260,228.1,259.9,228,259.8,228"/>
					<path class="st7" d="M260.1,228.1l5-3.1c0.1,0.1,0.2,0.1,0.3,0.2l-5,3.1C260.3,228.2,260.2,228.2,260.1,228.1"/>
					<path class="st7" d="M260.4,228.3l5-3.1c0.1,0.1,0.2,0.1,0.3,0.2l-5,3.1C260.6,228.4,260.5,228.3,260.4,228.3"/>
					<path class="st7" d="M260.7,228.5l5-3.1c0.1,0.1,0.2,0.1,0.3,0.2l-5,3.1C260.9,228.6,260.8,228.5,260.7,228.5"/>
					<path class="st7" d="M261,228.7l5-3.1c0.1,0.1,0.2,0.2,0.4,0.3l-5,3.1C261.3,228.9,261.2,228.8,261,228.7"/>
					<path class="st7" d="M261.4,228.9l5-3.1c0.1,0.1,0.3,0.2,0.4,0.3l-5,3.1C261.7,229.2,261.5,229.1,261.4,228.9"/>
					<path class="st7" d="M261.8,229.3l5-3.1c0.2,0.2,0.4,0.3,0.5,0.5l-5,3.1C262.2,229.6,262,229.4,261.8,229.3"/>
					<path class="st7" d="M262.3,229.8l5-3.1c0.5,0.5,0.9,1.1,1.3,1.8l-5,3.1C263.2,230.9,262.8,230.3,262.3,229.8"/>
					<path class="st7" d="M263.6,231.6l5-3.1c0.1,0.2,0.2,0.4,0.3,0.6l-5,3.1C263.8,232,263.7,231.8,263.6,231.6"/>
					<path class="st7" d="M263.9,232.2l5-3.1c0,0,0,0.1,0,0.1l-5,3.1C263.9,232.3,263.9,232.2,263.9,232.2"/>
				</g>
			</g>
			<g class="st5">
				<defs>
					<path id="SVGID_20_" class="st5" d="M359.4,348.3l-5,3.1c1.7-1.1,2.8-3,2.9-5.5l5-3.1C362.3,345.3,361.1,347.2,359.4,348.3z"/>
				</defs>
				<clipPath id="SVGID_21_">
					<use xlink:href="#SVGID_20_"  style="overflow:visible;"/>
				</clipPath>
				<g class="st20">
					<path class="st7" d="M357.2,345.9l5-3.1c0,0.1,0,0.2,0,0.3l-5,3.1C357.2,346,357.2,346,357.2,345.9"/>
					<path class="st7" d="M357.2,346.1l5-3.1c0,0.1,0,0.2,0,0.3l-5,3.1C357.2,346.4,357.2,346.2,357.2,346.1"/>
					<path class="st7" d="M357.2,346.5l5-3.1c0,0.1,0,0.2,0,0.3l-5,3.1C357.2,346.7,357.2,346.6,357.2,346.5"/>
					<path class="st7" d="M357.2,346.8l5-3.1c0,0.1,0,0.2-0.1,0.3l-5,3.1C357.1,347.1,357.2,346.9,357.2,346.8"/>
					<path class="st7" d="M357.1,347.2l5-3.1c0,0.1,0,0.2-0.1,0.3l-5,3.1C357.1,347.4,357.1,347.3,357.1,347.2"/>
					<path class="st7" d="M357.1,347.5l5-3.1c0,0.1-0.1,0.2-0.1,0.4l-5,3.1C357,347.7,357,347.6,357.1,347.5"/>
					<path class="st7" d="M357,347.9l5-3.1c0,0.1-0.1,0.2-0.1,0.4l-5,3.1C356.9,348.1,356.9,348,357,347.9"/>
					<path class="st7" d="M356.9,348.2l5-3.1c0,0.1-0.1,0.3-0.1,0.4l-5,3.1C356.8,348.5,356.8,348.4,356.9,348.2"/>
					<path class="st7" d="M356.7,348.6l5-3.1c-0.1,0.1-0.1,0.3-0.2,0.4l-5,3.1C356.6,348.9,356.7,348.7,356.7,348.6"/>
					<path class="st7" d="M356.5,349l5-3.1c-0.1,0.2-0.2,0.3-0.2,0.4l-5,3.1C356.4,349.3,356.4,349.2,356.5,349"/>
					<path class="st7" d="M356.3,349.5l5-3.1c-0.1,0.2-0.2,0.4-0.4,0.5l-5,3.1C356,349.8,356.2,349.6,356.3,349.5"/>
					<path class="st7" d="M355.9,350l5-3.1c-0.4,0.6-0.9,1-1.5,1.4l-5,3.1C355,351,355.5,350.5,355.9,350"/>
				</g>
			</g>
			<g>
				<polygon class="st7" points="274.6,250.6 279.6,247.6 346.5,263.2 341.5,266.3 				"/>
			</g>
			<g>
				<polygon class="st7" points="354.2,282.4 359.2,279.3 362.3,342.8 357.2,345.9 				"/>
			</g>
			<g>
				<path class="st4" d="M226.5,220.1l32.1,7.5c2.3,0.5,4.3,2.4,5.3,4.7l5.4,13.6c0.9,2.3,3,4.2,5.3,4.7l66.9,15.6
					c6.8,1.6,12.4,8.6,12.7,16.1l3,63.5c0,4.4-3.5,7.1-7.7,6.2L232,324.6c-4.3-1-7.7-5.4-7.7-9.8l-3.6-90.1
					C220.8,221.4,223.3,219.4,226.5,220.1z"/>
			</g>
			<g class="st5">
				<defs>
					<path id="SVGID_22_" class="st5" d="M341.5,266.3l5-3.1c6.8,1.6,12.4,8.6,12.7,16.1l-5,3.1
						C353.9,274.9,348.3,267.9,341.5,266.3z"/>
				</defs>
				<clipPath id="SVGID_23_">
					<use xlink:href="#SVGID_22_"  style="overflow:visible;"/>
				</clipPath>
				<g class="st21">
					<path class="st7" d="M341.5,266.3l5-3.1c0,0,0.1,0,0.1,0L341.5,266.3C341.6,266.3,341.5,266.3,341.5,266.3"/>
					<path class="st7" d="M341.6,266.3l5-3.1c0.2,0,0.4,0.1,0.6,0.2l-5,3.1C342,266.4,341.8,266.3,341.6,266.3"/>
					<path class="st7" d="M342.2,266.5l5-3.1c0.2,0.1,0.4,0.1,0.6,0.2l-5,3.1C342.6,266.6,342.4,266.5,342.2,266.5"/>
					<path class="st7" d="M342.8,266.6l5-3.1c0.2,0.1,0.4,0.1,0.6,0.2l-5,3.1C343.2,266.8,343,266.7,342.8,266.6"/>
					<path class="st7" d="M343.4,266.9l5-3.1c0.2,0.1,0.4,0.2,0.6,0.3l-5,3.1C343.8,267,343.6,266.9,343.4,266.9"/>
					<path class="st7" d="M344,267.1l5-3.1c0.2,0.1,0.4,0.2,0.6,0.3l-5,3.1C344.4,267.3,344.2,267.2,344,267.1"/>
					<path class="st7" d="M344.6,267.4l5-3.1c0.2,0.1,0.4,0.2,0.6,0.3l-5,3.1C345,267.6,344.8,267.5,344.6,267.4"/>
					<path class="st7" d="M345.2,267.7l5-3.1c0.2,0.1,0.4,0.3,0.7,0.4l-5,3.1C345.7,268,345.4,267.9,345.2,267.7"/>
					<path class="st7" d="M345.9,268.1l5-3.1c0.2,0.1,0.5,0.3,0.7,0.5l-5,3.1C346.4,268.4,346.1,268.3,345.9,268.1"/>
					<path class="st7" d="M346.6,268.6l5-3.1c0.3,0.2,0.5,0.4,0.8,0.6l-5,3.1C347.1,269,346.8,268.8,346.6,268.6"/>
					<path class="st7" d="M347.3,269.2l5-3.1c0.3,0.2,0.6,0.5,0.9,0.7l-5,3.1C347.9,269.7,347.6,269.4,347.3,269.2"/>
					<path class="st7" d="M348.2,269.9l5-3.1c0.4,0.4,0.8,0.7,1.1,1.1l-5,3.1C349,270.7,348.6,270.3,348.2,269.9"/>
					<path class="st7" d="M349.4,271.1l5-3.1c1.1,1.2,2.1,2.6,2.8,4l-5,3.1C351.4,273.6,350.5,272.3,349.4,271.1"/>
					<path class="st7" d="M352.2,275.1l5-3.1c0.2,0.5,0.5,1,0.7,1.5l-5,3.1C352.7,276.1,352.4,275.6,352.2,275.1"/>
					<path class="st7" d="M352.9,276.6l5-3.1c0.1,0.4,0.3,0.7,0.4,1.1l-5,3.1C353.2,277.3,353,276.9,352.9,276.6"/>
					<path class="st7" d="M353.3,277.7l5-3.1c0.1,0.3,0.2,0.6,0.3,0.9l-5,3.1C353.5,278.3,353.4,278,353.3,277.7"/>
					<path class="st7" d="M353.6,278.6l5-3.1c0.1,0.3,0.1,0.6,0.2,0.8l-5,3.1C353.7,279.2,353.7,278.9,353.6,278.6"/>
					<path class="st7" d="M353.8,279.4l5-3.1c0.1,0.3,0.1,0.5,0.2,0.8l-5,3.1C353.9,280,353.9,279.7,353.8,279.4"/>
					<path class="st7" d="M354,280.2l5-3.1c0,0.2,0.1,0.5,0.1,0.7l-5,3.1C354,280.7,354,280.5,354,280.2"/>
					<path class="st7" d="M354.1,281l5-3.1c0,0.2,0.1,0.5,0.1,0.7l-5,3.1C354.1,281.4,354.1,281.2,354.1,281"/>
					<path class="st7" d="M354.2,281.7l5-3.1c0,0.2,0,0.5,0,0.7l-5,3.1C354.2,282.1,354.2,281.9,354.2,281.7"/>
					<polyline class="st7" points="354.2,282.3 359.2,279.3 359.2,279.3 354.2,282.4 354.2,282.3 					"/>
				</g>
			</g>
		</g>
	</g>
	<g>
		<defs>
			<path id="SVGID_24_" d="M226.5,220.1l32.1,7.5c2.3,0.5,4.3,2.4,5.3,4.7l5.4,13.6c0.9,2.3,3,4.2,5.3,4.7l66.9,15.6
				c6.8,1.6,12.4,8.6,12.7,16.1l3,63.5c0,4.4-3.5,7.1-7.7,6.2L232,324.6c-4.3-1-7.7-5.4-7.7-9.8l-3.6-90.1
				C220.8,221.4,223.3,219.4,226.5,220.1z"/>
		</defs>
		<clipPath id="SVGID_25_">
			<use xlink:href="#SVGID_24_"  style="overflow:visible;"/>
		</clipPath>
		<g class="st22">
			<g>
				<linearGradient id="SVGID_26_" gradientUnits="userSpaceOnUse" x1="360.2146" y1="324.1035" x2="317.3421" y2="348.856">
					<stop  offset="0" style="stop-color:#FFFFFF"/>
					<stop  offset="1" style="stop-color:#FFFFFF;stop-opacity:0"/>
				</linearGradient>
				<path class="st23" d="M349.5,352.3c-0.1,0-0.1,0-0.2,0c-0.1,0-0.2,0-0.3,0l-29.1-6.2c-5.6-2.5-10.3-8.3-11.9-15.4
					c17.8,2.6,34.8-2.1,48.2-13.4l0.6,15.8l0.4,11l0,1.5c0,0.2,0,0.3,0,0.4c0,0.1,0,0.1,0,0.2c0,0.1,0,0.2,0,0.2c0,0.1,0,0.1,0,0.2
					c0,0.1,0,0.2,0,0.2c0,0.1,0,0.1,0,0.2c0,0.1,0,0.1-0.1,0.2c0,0.1,0,0.1,0,0.2c0,0.1,0,0.1-0.1,0.2c0,0.1,0,0.1-0.1,0.2
					c0,0.1,0,0.1-0.1,0.2c0,0.1,0,0.1-0.1,0.2c0,0.1-0.1,0.1-0.1,0.2c0,0.1,0,0.1-0.1,0.2c0,0.1-0.1,0.1-0.1,0.2
					c0,0.1-0.1,0.1-0.1,0.2c-0.1,0.1-0.1,0.3-0.2,0.4c-0.1,0.2-0.1,0.2-0.2,0.3c0,0-0.1,0.1-0.1,0.1c0,0.1-0.1,0.1-0.1,0.2
					c0,0-0.1,0.1-0.1,0.1c0,0.1-0.1,0.1-0.1,0.2c0,0-0.1,0.1-0.1,0.1c0,0-0.1,0.1-0.1,0.1c0,0-0.1,0.1-0.1,0.1c0,0-0.1,0.1-0.1,0.1
					c0,0-0.1,0.1-0.1,0.1c0,0-0.1,0.1-0.1,0.1c0,0-0.1,0.1-0.1,0.1c0,0-0.1,0.1-0.1,0.1c0,0-0.1,0.1-0.1,0.1c-0.1,0-0.1,0.1-0.2,0.1
					c0,0-0.1,0.1-0.1,0.1c-0.1,0-0.1,0.1-0.2,0.1c-0.1,0-0.1,0.1-0.2,0.1c-0.1,0-0.1,0.1-0.2,0.1c-0.1,0-0.1,0.1-0.2,0.1
					c-0.1,0-0.1,0.1-0.2,0.1c-0.1,0-0.1,0-0.2,0.1c-0.1,0-0.1,0-0.2,0.1c-0.1,0-0.1,0-0.2,0.1c-0.1,0-0.1,0-0.2,0.1
					c-0.1,0-0.1,0-0.2,0c-0.1,0-0.1,0-0.2,0.1c-0.1,0-0.1,0-0.2,0c-0.1,0-0.1,0-0.2,0c0,0-0.1,0-0.1,0c-0.3,0-0.5,0.1-0.8,0.1
					c-0.1,0-0.1,0-0.2,0c-0.1,0-0.1,0-0.2,0c-0.1,0-0.1,0-0.2,0c-0.1,0-0.1,0-0.2,0c-0.1,0-0.1,0-0.2,0c-0.1,0-0.1,0-0.2,0
					C349.6,352.3,349.6,352.3,349.5,352.3z"/>
			</g>
			<g>
				<linearGradient id="SVGID_27_" gradientUnits="userSpaceOnUse" x1="360.2741" y1="288.8877" x2="303.0649" y2="321.9175">
					<stop  offset="0" style="stop-color:#FFFFFF"/>
					<stop  offset="1" style="stop-color:#FFFFFF;stop-opacity:0"/>
				</linearGradient>
				<path class="st24" d="M354.7,279.3l0.6,15.6c-6,23.6-24.7,38.4-47.3,35.6c-2.2-9.5,1.7-18.3,9-20.5c0.3-0.1,0.5-0.4,0.5-0.8
					c0-0.1,0-0.2,0-0.3c-1.5-5.6-0.9-11.3,1.7-15.6c3-5,8.1-7,13.3-5.9c2.9,0.6,5.8,2.1,8.4,4.6c0.2,0.2,0.3,0.2,0.4,0.3
					c0.4,0.1,0.7-0.2,0.8-0.6C343.2,284.3,348.3,279.3,354.7,279.3z"/>
			</g>
		</g>
	</g>
	<g>
		<path class="st4" d="M197.3,190.2c-0.1-0.6-0.8-1-1.4-1c-1.9,0-3.6-1.1-4.4-2.8c-0.8-1.8-0.3-3.8,1.1-5.2c0.4-0.4,0.5-1.1,0.1-1.6
			c-1-1.2-2.1-2.3-3.3-3.3c-0.5-0.4-1.2-0.3-1.6,0.2c-1.2,1.4-3.4,1.9-5.2,1.3c-1.8-0.7-3-2.5-2.9-4.5c0-0.6-0.4-1.1-1-1.2
			c-1.6-0.2-3.1-0.1-4.7,0.1c-0.6,0.1-1,0.6-1,1.2c0.1,1.9-1,3.7-2.8,4.5c-1.7,0.7-3.9,0.3-5.2-1.1c-0.4-0.4-1.1-0.5-1.6-0.1
			c-1.2,1-2.3,2.1-3.3,3.4c-0.4,0.5-0.3,1.2,0.2,1.6c1.5,1.3,2,3.4,1.3,5.2c-0.7,1.7-2.4,2.9-4.5,2.9c-0.7,0-1.1,0.4-1.2,1
			c-0.2,1.6-0.1,3.2,0.1,4.7c0.1,0.6,0.8,1,1.4,1c1.8-0.1,3.6,1,4.3,2.8c0.8,1.8,0.3,3.8-1.1,5.2c-0.4,0.4-0.5,1.1-0.1,1.6
			c1,1.2,2.1,2.3,3.3,3.3c0.5,0.4,1.2,0.3,1.6-0.2c1.2-1.4,3.4-1.9,5.2-1.3c1.8,0.7,3,2.5,2.9,4.5c0,0.6,0.4,1.1,1,1.2
			c0.8,0.1,1.6,0.1,2.4,0.1c0.8,0,1.5-0.1,2.3-0.2c0.6-0.1,1-0.6,1-1.2c-0.1-1.9,1-3.7,2.8-4.5c1.7-0.7,3.9-0.3,5.2,1.1
			c0.4,0.4,1.1,0.5,1.6,0.1c1.2-1,2.3-2.1,3.3-3.4c0.4-0.5,0.3-1.2-0.2-1.6c-1.5-1.3-2-3.4-1.3-5.2c0.7-1.7,2.4-2.9,4.2-2.9l0.3,0
			c0.6,0,1.1-0.4,1.2-1C197.6,193.4,197.5,191.8,197.3,190.2z M176.9,204.9c-6.6,0.1-12.1-5.2-12.2-11.8
			c-0.1-6.6,5.2-12.1,11.8-12.2c6.6-0.1,12.1,5.2,12.2,11.8C188.8,199.3,183.5,204.7,176.9,204.9z"/>
		<path class="st4" d="M226.4,182.3c-0.1-0.4-0.6-0.8-1-0.8c-1.4,0-2.7-0.8-3.3-2.1c-0.6-1.3-0.2-2.9,0.8-3.9
			c0.3-0.3,0.4-0.8,0.1-1.2c-0.7-0.9-1.6-1.7-2.5-2.5c-0.4-0.3-0.9-0.2-1.2,0.1c-0.9,1-2.6,1.5-3.9,0.9c-1.4-0.5-2.2-1.9-2.2-3.4
			c0-0.5-0.3-0.9-0.8-0.9c-1.2-0.1-2.4-0.1-3.5,0.1c-0.5,0.1-0.8,0.5-0.8,0.9c0.1,1.5-0.8,2.8-2.1,3.4c-1.3,0.5-2.9,0.2-3.9-0.8
			c-0.3-0.3-0.8-0.4-1.2-0.1c-0.9,0.8-1.8,1.6-2.5,2.5c-0.3,0.4-0.2,0.9,0.1,1.2c1.1,1,1.5,2.5,0.9,3.9c-0.5,1.3-1.8,2.1-3.4,2.2
			c-0.5,0-0.8,0.3-0.9,0.8c-0.1,1.2-0.1,2.4,0.1,3.6c0.1,0.4,0.6,0.8,1,0.8c1.4-0.1,2.7,0.8,3.3,2.1c0.6,1.3,0.2,2.9-0.8,3.9
			c-0.3,0.3-0.4,0.8-0.1,1.2c0.7,0.9,1.6,1.7,2.5,2.5c0.4,0.3,0.9,0.2,1.2-0.1c0.9-1.1,2.6-1.5,3.9-0.9c1.4,0.5,2.2,1.9,2.2,3.4
			c0,0.5,0.3,0.9,0.8,0.9c0.6,0.1,1.2,0.1,1.8,0.1c0.6,0,1.1-0.1,1.7-0.1c0.5-0.1,0.8-0.5,0.8-0.9c-0.1-1.5,0.8-2.8,2.1-3.4
			c1.3-0.5,2.9-0.2,3.9,0.8c0.3,0.3,0.8,0.4,1.2,0.1c0.9-0.8,1.8-1.6,2.5-2.5c0.3-0.4,0.2-0.9-0.1-1.2c-1.1-1-1.5-2.5-0.9-3.9
			c0.5-1.3,1.8-2.2,3.2-2.2l0.2,0c0.4,0,0.9-0.3,0.9-0.8C226.6,184.6,226.5,183.5,226.4,182.3z M211,193.3c-5,0.1-9.1-3.9-9.2-8.9
			c-0.1-5,3.9-9.1,8.9-9.2c5-0.1,9.1,3.9,9.2,8.9C220,189.1,216,193.2,211,193.3z"/>
	</g>
	<g>
		<g>
			<path class="st2" d="M130.5,111c0,0.5-0.2,1.1-0.7,1.4c-0.8,0.6-1.9,0.5-2.5-0.3l-9.8-12.7c-0.6-0.8-0.5-1.9,0.3-2.5
				c0.8-0.6,1.9-0.5,2.5,0.3l9.8,12.7C130.3,110.2,130.5,110.6,130.5,111z"/>
		</g>
		<g>
			<path class="st2" d="M124.5,127c0,0.9-0.7,1.7-1.6,1.8l-15.9,2.1c-1,0.1-1.9-0.6-2-1.6c-0.1-1,0.6-1.9,1.5-2l15.9-2.1
				c1-0.1,1.9,0.6,2,1.6C124.5,126.9,124.5,127,124.5,127z"/>
		</g>
		<g>
			<path class="st2" d="M151.2,94.3c0,0.2,0,0.5-0.1,0.7l-5.9,14.2c-0.4,0.9-1.4,1.4-2.4,1c-0.9-0.4-1.4-1.4-1-2.4l5.9-14.2
				c0.4-0.9,1.4-1.4,2.4-1C150.7,92.9,151.2,93.5,151.2,94.3z"/>
		</g>
	</g>
</g>
<g id="start">
</g>
</svg>
