<svg version="1.1" viewBox="0.0 0.0 579.2125984251968 380.5249343832021" fill="none" stroke="none" stroke-linecap="square" stroke-miterlimit="10" xmlns:xlink="http://www.w3.org/1999/xlink" xmlns="http://www.w3.org/2000/svg"><clipPath id="p.0"><path d="m0 0l579.2126 0l0 380.52493l-579.2126 0l0 -380.52493z" clip-rule="nonzero"/></clipPath><g clip-path="url(#p.0)"><path fill="#000000" fill-opacity="0.0" d="m0 0l579.2126 0l0 380.52493l-579.2126 0z" fill-rule="evenodd"/><path fill="#efefef" fill-opacity="0.8" d="m0 17.494123l0 0c0 -9.661737 7.8323855 -17.494123 17.494123 -17.494123l544.06683 0c4.6397705 0 9.089478 1.8431255 12.370239 5.12391c3.2807617 3.2807846 5.1239014 7.730483 5.1239014 12.3702135l0 345.48422c0 9.661713 -7.8323975 17.49411 -17.49414 17.49411l-544.06683 0c-9.661737 0 -17.494123 -7.8323975 -17.494123 -17.49411z" fill-rule="evenodd"/><path fill="#000000" fill-opacity="0.0" d="m213.95145 67.34646l-113.70079 0l0 71.02361" fill-rule="evenodd"/><path stroke="#383945" stroke-width="1.0" stroke-linejoin="round" stroke-linecap="butt" d="m213.95145 67.34646l-113.70079 0l0 65.02361" fill-rule="evenodd"/><path fill="#383945" stroke="#383945" stroke-width="1.0" stroke-linecap="butt" d="m98.59892 132.37007l1.6517334 4.538101l1.6517334 -4.538101z" fill-rule="evenodd"/><path fill="#ffffff" d="m213.94095 32.88756l0 0c0 -4.9258595 3.9931946 -8.919058 8.919052 -8.919058l133.343 0c2.3654785 0 4.6340637 0.9396839 6.3067017 2.6123314c1.6726685 1.6726494 2.6123352 3.941246 2.6123352 6.3067265l0 70.69731c0 4.9258575 -3.9931946 8.91906 -8.919037 8.91906l-133.343 0c-4.9258575 0 -8.919052 -3.9932022 -8.919052 -8.91906z" fill-rule="evenodd"/><path stroke="#383945" stroke-width="1.0" stroke-linejoin="round" stroke-linecap="butt" d="m213.94095 32.88756l0 0c0 -4.9258595 3.9931946 -8.919058 8.919052 -8.919058l133.343 0c2.3654785 0 4.6340637 0.9396839 6.3067017 2.6123314c1.6726685 1.6726494 2.6123352 3.941246 2.6123352 6.3067265l0 70.69731c0 4.9258575 -3.9931946 8.91906 -8.919037 8.91906l-133.343 0c-4.9258575 0 -8.919052 -3.9932022 -8.919052 -8.91906z" fill-rule="evenodd"/><path fill="#000000" fill-opacity="0.0" d="m213.94095 43.90551l151.18109 0l0 48.661423l-151.18109 0z" fill-rule="evenodd"/><path fill="#222431" d="m256.63306 64.39622l0 -11.640621l7.234375 0l0 1.53125l-5.453125 0l0 3.734375l4.9375 0l0 1.53125l-4.9375 0l0 4.843746l-1.78125 0zm8.875 0l0 -8.734371l1.671875 0l0 1.40625l0.09375 0q0.234375 -0.71875 0.828125 -1.125q0.609375 -0.40625 1.375 -0.40625q0.171875 0 0.375 0.015625q0.21875 0 0.359375 0.03125l0 1.640625q-0.09375 -0.03125 -0.359375 -0.0625q-0.265625 -0.03125 -0.546875 -0.03125q-0.59375 0 -1.078125 0.25q-0.46875 0.25 -0.734375 0.6875q-0.265625 0.4375 -0.265625 1.015625l0 5.312496l-1.71875 0zm9.5546875 0.1875q-1.21875 0 -2.140625 -0.5625q-0.921875 -0.5781212 -1.4375 -1.5937462q-0.5 -1.015625 -0.5 -2.359375q0 -1.359375 0.5 -2.375q0.515625 -1.015625 1.4375 -1.578125q0.921875 -0.5625 2.140625 -0.5625q1.234375 0 2.15625 0.5625q0.921875 0.5625 1.421875 1.578125q0.515625 1.015625 0.515625 2.375q0 1.34375 -0.515625 2.359375q-0.5 1.015625 -1.421875 1.5937462q-0.921875 0.5625 -2.15625 0.5625zm0 -1.4687462q0.796875 0 1.3125 -0.40625q0.53125 -0.421875 0.78125 -1.109375q0.25 -0.703125 0.25 -1.53125q0 -0.828125 -0.25 -1.53125q-0.25 -0.703125 -0.78125 -1.109375q-0.515625 -0.421875 -1.3125 -0.421875q-0.78125 0 -1.296875 0.421875q-0.515625 0.40625 -0.78125 1.109375q-0.25 0.6875 -0.25 1.53125q0 0.828125 0.25 1.53125q0.265625 0.6875 0.78125 1.109375q0.515625 0.40625 1.296875 0.40625zm7.7109375 -3.890625l0 5.171871l-1.71875 0l0 -8.734371l1.640625 0l0.015625 2.140625l-0.171875 0q0.375 -1.171875 1.09375 -1.703125q0.734375 -0.546875 1.765625 -0.546875q0.890625 0 1.546875 0.375q0.671875 0.375 1.046875 1.109375q0.375 0.71875 0.375 1.8125l0 5.546871l-1.71875 0l0 -5.343746q0 -0.9375 -0.5 -1.46875q-0.484375 -0.53125 -1.34375 -0.53125q-0.578125 0 -1.046875 0.25q-0.453125 0.25 -0.71875 0.734375q-0.265625 0.484375 -0.265625 1.1875zm11.640625 -3.5625l0 1.390625l-4.734375 0l0 -1.390625l4.734375 0zm-3.453125 -2.078125l1.71875 0l0 8.453125q0 0.515625 0.21875 0.765625q0.21875 0.25 0.734375 0.25q0.125 0 0.34375 -0.03125q0.21875 -0.03125 0.375 -0.0625l0.3125 1.3749962q-0.28125 0.09375 -0.59375 0.140625q-0.3125 0.046875 -0.609375 0.046875q-1.1875 0 -1.84375 -0.6093712q-0.65625 -0.625 -0.65625 -1.734375l0 -8.59375zm8.7734375 10.999996q-1.28125 0 -2.21875 -0.5625q-0.9375 -0.5624962 -1.453125 -1.5624962q-0.5 -1.015625 -0.5 -2.375q0 -1.34375 0.5 -2.359375q0.5 -1.03125 1.40625 -1.59375q0.90625 -0.578125 2.125 -0.578125q0.75 0 1.4375 0.25q0.703125 0.234375 1.25 0.765625q0.5625 0.515625 0.875 1.359375q0.328125 0.828125 0.328125 2.015625l0 0.609375l-6.953125 0l0 -1.28125l6.078125 0l-0.8125 0.421875q0 -0.8125 -0.25 -1.421875q-0.25 -0.609375 -0.734375 -0.953125q-0.484375 -0.34375 -1.21875 -0.34375q-0.734375 0 -1.25 0.359375q-0.515625 0.34375 -0.78125 0.921875q-0.265625 0.5625 -0.265625 1.25l0 0.875q0 0.890625 0.296875 1.515625q0.3125 0.625 0.859375 0.9375q0.5625 0.3125 1.296875 0.3125q0.484375 0 0.875 -0.125q0.390625 -0.140625 0.671875 -0.421875q0.296875 -0.28125 0.4375 -0.6875l1.625 0.390625q-0.21875 0.671875 -0.71875 1.1875q-0.484375 0.5156212 -1.234375 0.8124962q-0.734375 0.28125 -1.671875 0.28125zm7.3515625 -5.359371l0 5.171871l-1.71875 0l0 -8.734371l1.640625 0l0.015625 2.140625l-0.171875 0q0.375 -1.171875 1.09375 -1.703125q0.734375 -0.546875 1.765625 -0.546875q0.890625 0 1.546875 0.375q0.671875 0.375 1.046875 1.109375q0.375 0.71875 0.375 1.8125l0 5.546871l-1.71875 0l0 -5.343746q0 -0.9375 -0.5 -1.46875q-0.484375 -0.53125 -1.34375 -0.53125q-0.578125 0 -1.046875 0.25q-0.453125 0.25 -0.71875 0.734375q-0.265625 0.484375 -0.265625 1.1875zm11.15625 5.343746q-1.0625 0 -1.890625 -0.546875q-0.828125 -0.5468712 -1.296875 -1.5468712q-0.46875 -1.015625 -0.46875 -2.421875q0 -1.421875 0.46875 -2.421875q0.484375 -1.015625 1.3125 -1.546875q0.828125 -0.53125 1.875 -0.53125q0.8125 0 1.3125 0.265625q0.5 0.265625 0.78125 0.625q0.28125 0.359375 0.421875 0.640625l0.09375 0l0 -4.328125l1.71875 0l0 11.640621l-1.671875 0l0 -1.3749962l-0.140625 0q-0.140625 0.28125 -0.4375 0.640625q-0.28125 0.3593712 -0.78125 0.6406212q-0.5 0.265625 -1.296875 0.265625zm0.375 -1.4687462q0.734375 0 1.234375 -0.390625q0.515625 -0.390625 0.765625 -1.078125q0.265625 -0.6875 0.265625 -1.59375q0 -0.921875 -0.265625 -1.59375q-0.25 -0.671875 -0.75 -1.046875q-0.5 -0.390625 -1.25 -0.390625q-0.75 0 -1.265625 0.40625q-0.5 0.390625 -0.75 1.078125q-0.25 0.6875 -0.25 1.546875q0 0.859375 0.25 1.5625q0.265625 0.6875 0.765625 1.09375q0.515625 0.40625 1.25 0.40625z" fill-rule="nonzero"/><path fill="#222431" d="m282.20728 83.59622l3.421875 -5.15625l0 1.328125l-3.25 -4.90625l1.9375 0l0.984375 1.59375q0.40625 0.65625 0.71875 1.265625q0.3125 0.59375 0.625 1.15625l-0.78125 0q0.328125 -0.5625 0.609375 -1.15625q0.28125 -0.609375 0.703125 -1.265625l1.015625 -1.59375l1.90625 0l-3.28125 4.953125l0 -1.28125l3.40625 5.0625l-1.921875 0l-1.171875 -1.859375q-0.40625 -0.65625 -0.71875 -1.234375q-0.296875 -0.59375 -0.625 -1.140625l0.796875 0q-0.3125 0.546875 -0.59375 1.140625q-0.28125 0.578125 -0.6875 1.234375l-1.1875 1.859375l-1.90625 0zm13.8203125 -11.640625l0 11.640625l-1.765625 0l0 -10.03125l-0.078125 0l-2.765625 2.015625l0 -1.78125l2.546875 -1.84375l2.0625 0z" fill-rule="nonzero"/><path fill="#ffffff" d="m213.94095 276.88757l0 0c0 -4.925873 3.9931946 -8.919067 8.919052 -8.919067l133.343 0c2.3654785 0 4.6340637 0.93969727 6.3067017 2.6123352c1.6726685 1.6726379 2.6123352 3.9412537 2.6123352 6.306732l0 70.697296c0 4.925873 -3.9931946 8.919067 -8.919037 8.919067l-133.343 0c-4.9258575 0 -8.919052 -3.9931946 -8.919052 -8.919067z" fill-rule="evenodd"/><path stroke="#383945" stroke-width="1.0" stroke-linejoin="round" stroke-linecap="butt" d="m213.94095 276.88757l0 0c0 -4.925873 3.9931946 -8.919067 8.919052 -8.919067l133.343 0c2.3654785 0 4.6340637 0.93969727 6.3067017 2.6123352c1.6726685 1.6726379 2.6123352 3.9412537 2.6123352 6.306732l0 70.697296c0 4.925873 -3.9931946 8.919067 -8.919037 8.919067l-133.343 0c-4.9258575 0 -8.919052 -3.9931946 -8.919052 -8.919067z" fill-rule="evenodd"/><path fill="#000000" fill-opacity="0.0" d="m213.94751 287.90552l151.18109 0l0 48.661407l-151.18109 0z" fill-rule="evenodd"/><path fill="#222431" d="m265.34274 308.3962l-3.15625 -11.640625l1.875 0l1.671875 6.671875q0.15625 0.609375 0.28125 1.28125q0.140625 0.65625 0.265625 1.34375q0.140625 0.671875 0.25 1.359375l-0.265625 0q0.125 -0.6875 0.25 -1.359375q0.140625 -0.6875 0.28125 -1.34375q0.140625 -0.671875 0.3125 -1.28125l1.71875 -6.671875l1.953125 0l1.71875 6.671875q0.15625 0.609375 0.296875 1.28125q0.140625 0.65625 0.28125 1.34375q0.140625 0.671875 0.265625 1.359375l-0.28125 0q0.125 -0.6875 0.25 -1.359375q0.125 -0.6875 0.265625 -1.34375q0.140625 -0.671875 0.28125 -1.28125l1.6875 -6.671875l1.890625 0l-3.171875 11.640625l-2.0625 0l-1.84375 -6.90625q-0.21875 -0.8125 -0.40625 -1.765625q-0.171875 -0.953125 -0.359375 -2.09375l0.40625 0q-0.1875 1.09375 -0.359375 2.03125q-0.15625 0.921875 -0.390625 1.828125l-1.84375 6.90625l-2.0625 0zm16.507812 0.1875q-1.21875 0 -2.140625 -0.5625q-0.921875 -0.578125 -1.4375 -1.59375q-0.5 -1.015625 -0.5 -2.359375q0 -1.359375 0.5 -2.375q0.515625 -1.015625 1.4375 -1.578125q0.921875 -0.5625 2.140625 -0.5625q1.234375 0 2.15625 0.5625q0.921875 0.5625 1.421875 1.578125q0.515625 1.015625 0.515625 2.375q0 1.34375 -0.515625 2.359375q-0.5 1.015625 -1.421875 1.59375q-0.921875 0.5625 -2.15625 0.5625zm0 -1.46875q0.796875 0 1.3125 -0.40625q0.53125 -0.421875 0.78125 -1.109375q0.25 -0.703125 0.25 -1.53125q0 -0.828125 -0.25 -1.53125q-0.25 -0.703125 -0.78125 -1.109375q-0.515625 -0.421875 -1.3125 -0.421875q-0.78125 0 -1.296875 0.421875q-0.515625 0.40625 -0.78125 1.109375q-0.25 0.6875 -0.25 1.53125q0 0.828125 0.25 1.53125q0.265625 0.6875 0.78125 1.109375q0.515625 0.40625 1.296875 0.40625zm5.9921875 1.28125l0 -8.734375l1.671875 0l0 1.40625l0.09375 0q0.234375 -0.71875 0.828125 -1.125q0.609375 -0.40625 1.375 -0.40625q0.171875 0 0.375 0.015625q0.21875 0 0.359375 0.03125l0 1.640625q-0.09375 -0.03125 -0.359375 -0.0625q-0.265625 -0.03125 -0.546875 -0.03125q-0.59375 0 -1.078125 0.25q-0.46875 0.25 -0.734375 0.6875q-0.265625 0.4375 -0.265625 1.015625l0 5.3125l-1.71875 0zm8.03125 -2.953125l0 -2.09375l0.28125 0l3.453125 -3.6875l2.0625 0l-3.953125 4.21875l-0.28125 0l-1.5625 1.5625zm-1.59375 2.953125l0 -11.640625l1.71875 0l0 11.640625l-1.71875 0zm5.5 0l-3.09375 -4.125l1.1875 -1.21875l4.03125 5.34375l-2.125 0zm6.8515625 0.1875q-1.28125 0 -2.21875 -0.5625q-0.9375 -0.5625 -1.453125 -1.5625q-0.5 -1.015625 -0.5 -2.375q0 -1.34375 0.5 -2.359375q0.5 -1.03125 1.40625 -1.59375q0.90625 -0.578125 2.125 -0.578125q0.75 0 1.4375 0.25q0.703125 0.234375 1.25 0.765625q0.5625 0.515625 0.875 1.359375q0.328125 0.828125 0.328125 2.015625l0 0.609375l-6.953125 0l0 -1.28125l6.078125 0l-0.8125 0.421875q0 -0.8125 -0.25 -1.421875q-0.25 -0.609375 -0.734375 -0.953125q-0.484375 -0.34375 -1.21875 -0.34375q-0.734375 0 -1.25 0.359375q-0.515625 0.34375 -0.78125 0.921875q-0.265625 0.5625 -0.265625 1.25l0 0.875q0 0.890625 0.296875 1.515625q0.3125 0.625 0.859375 0.9375q0.5625 0.3125 1.296875 0.3125q0.484375 0 0.875 -0.125q0.390625 -0.140625 0.671875 -0.421875q0.296875 -0.28125 0.4375 -0.6875l1.625 0.390625q-0.21875 0.671875 -0.71875 1.1875q-0.484375 0.515625 -1.234375 0.8125q-0.734375 0.28125 -1.671875 0.28125zm5.6328125 -0.1875l0 -8.734375l1.671875 0l0 1.40625l0.09375 0q0.234375 -0.71875 0.828125 -1.125q0.609375 -0.40625 1.375 -0.40625q0.171875 0 0.375 0.015625q0.21875 0 0.359375 0.03125l0 1.640625q-0.09375 -0.03125 -0.359375 -0.0625q-0.265625 -0.03125 -0.546875 -0.03125q-0.59375 0 -1.078125 0.25q-0.46875 0.25 -0.734375 0.6875q-0.265625 0.4375 -0.265625 1.015625l0 5.3125l-1.71875 0z" fill-rule="nonzero"/><path fill="#222431" d="m277.04977 327.59622l3.421875 -5.15625l0 1.328125l-3.25 -4.90625l1.9375 0l0.984375 1.59375q0.40625 0.65625 0.71875 1.265625q0.3125 0.59375 0.625 1.15625l-0.78125 0q0.328125 -0.5625 0.609375 -1.15625q0.28125 -0.609375 0.703125 -1.265625l1.015625 -1.59375l1.90625 0l-3.28125 4.953125l0 -1.28125l3.40625 5.0625l-1.921875 0l-1.171875 -1.859375q-0.40625 -0.65625 -0.71875 -1.234375q-0.296875 -0.59375 -0.625 -1.140625l0.796875 0q-0.3125 0.546875 -0.59375 1.140625q-0.28125 0.578125 -0.6875 1.234375l-1.1875 1.859375l-1.90625 0zm13.8203125 -11.640625l0 11.640625l-1.765625 0l0 -10.03125l-0.078125 0l-2.765625 2.015625l0 -1.78125l2.546875 -1.84375l2.0625 0zm6.453125 11.796875q-1.359375 0 -2.3125 -0.703125q-0.953125 -0.703125 -1.46875 -2.03125q-0.5 -1.34375 -0.5 -3.234375q0 -1.890625 0.5 -3.21875q0.515625 -1.34375 1.46875 -2.046875q0.953125 -0.71875 2.3125 -0.71875q1.34375 0 2.296875 0.71875q0.96875 0.703125 1.46875 2.046875q0.515625 1.328125 0.515625 3.21875q0 1.890625 -0.515625 3.234375q-0.5 1.328125 -1.453125 2.03125q-0.953125 0.703125 -2.3125 0.703125zm0 -1.53125q0.796875 0 1.359375 -0.515625q0.5625 -0.53125 0.859375 -1.515625q0.296875 -1.0 0.296875 -2.40625q0 -1.421875 -0.296875 -2.421875q-0.296875 -1.0 -0.859375 -1.515625q-0.5625 -0.53125 -1.359375 -0.53125q-0.8125 0 -1.375 0.53125q-0.5625 0.53125 -0.859375 1.53125q-0.296875 0.984375 -0.296875 2.40625q0 1.40625 0.296875 2.40625q0.296875 0.984375 0.859375 1.515625q0.5625 0.515625 1.375 0.515625z" fill-rule="nonzero"/><path fill="#ffffff" d="m24.660105 147.28914l0 0c0 -4.9258575 3.9931984 -8.919067 8.919062 -8.919067l133.34299 0c2.3654785 0 4.634079 0.93969727 6.306732 2.6123352c1.6726379 1.6726532 2.61232 3.9412537 2.61232 6.306732l0 70.69731c0 4.9258575 -3.9931946 8.919067 -8.919052 8.919067l-133.34299 0c-4.9258633 0 -8.919062 -3.9932098 -8.919062 -8.919067z" fill-rule="evenodd"/><path stroke="#383945" stroke-width="1.0" stroke-linejoin="round" stroke-linecap="butt" d="m24.660105 147.28914l0 0c0 -4.9258575 3.9931984 -8.919067 8.919062 -8.919067l133.34299 0c2.3654785 0 4.634079 0.93969727 6.306732 2.6123352c1.6726379 1.6726532 2.61232 3.9412537 2.61232 6.306732l0 70.69731c0 4.9258575 -3.9931946 8.919067 -8.919052 8.919067l-133.34299 0c-4.9258633 0 -8.919062 -3.9932098 -8.919062 -8.919067z" fill-rule="evenodd"/><path fill="#000000" fill-opacity="0.0" d="m24.664042 158.30708l151.18109 0l0 48.661423l-151.18109 0z" fill-rule="evenodd"/><path fill="#222431" d="m64.40303 178.96967q-1.0624962 0 -1.8906212 -0.546875q-0.828125 -0.546875 -1.296875 -1.546875q-0.46875 -1.015625 -0.46875 -2.421875q0 -1.421875 0.46875 -2.421875q0.484375 -1.015625 1.3125 -1.546875q0.828125 -0.53125 1.8749962 -0.53125q0.8125 0 1.3125 0.265625q0.5 0.265625 0.78125 0.625q0.28125 0.359375 0.421875 0.640625l0.09375 0l0 -4.328125l1.71875 0l0 11.640625l-1.671875 0l0 -1.375l-0.140625 0q-0.140625 0.28125 -0.4375 0.640625q-0.28125 0.359375 -0.78125 0.640625q-0.5 0.265625 -1.296875 0.265625zm0.375 -1.46875q0.734375 0 1.234375 -0.390625q0.515625 -0.390625 0.765625 -1.078125q0.265625 -0.6875 0.265625 -1.59375q0 -0.921875 -0.265625 -1.59375q-0.25 -0.671875 -0.75 -1.046875q-0.5 -0.390625 -1.25 -0.390625q-0.75 0 -1.2656212 0.40625q-0.5 0.390625 -0.75 1.078125q-0.25 0.6875 -0.25 1.546875q0 0.859375 0.25 1.5625q0.265625 0.6875 0.765625 1.09375q0.5156212 0.40625 1.2499962 0.40625zm10.609375 1.46875q-0.796875 0 -1.296875 -0.265625q-0.5 -0.28125 -0.796875 -0.640625q-0.28125 -0.359375 -0.4375 -0.640625l-0.140625 0l0 1.375l-1.671875 0l0 -11.640625l1.71875 0l0 4.328125l0.09375 0q0.15625 -0.28125 0.4375 -0.640625q0.28125 -0.359375 0.765625 -0.625q0.5 -0.265625 1.328125 -0.265625q1.046875 0 1.859375 0.53125q0.828125 0.53125 1.296875 1.546875q0.484375 1.0 0.484375 2.421875q0 1.40625 -0.46875 2.421875q-0.46875 1.0 -1.296875 1.546875q-0.8125 0.546875 -1.875 0.546875zm-0.390625 -1.46875q0.75 0 1.25 -0.40625q0.515625 -0.40625 0.765625 -1.09375q0.265625 -0.703125 0.265625 -1.5625q0 -0.859375 -0.265625 -1.546875q-0.25 -0.6875 -0.75 -1.078125q-0.5 -0.40625 -1.265625 -0.40625q-0.734375 0 -1.25 0.390625q-0.5 0.375 -0.765625 1.046875q-0.25 0.671875 -0.25 1.59375q0 0.90625 0.265625 1.59375q0.265625 0.6875 0.765625 1.078125q0.515625 0.390625 1.234375 0.390625zm12.1875 1.296875l0 1.46875l-7.40625 0l0 -1.46875l7.40625 0zm1.6953125 0l0 -8.734375l1.640625 0l0.046875 2.015625l-0.140625 0q0.1875 -0.734375 0.578125 -1.203125q0.390625 -0.484375 0.90625 -0.71875q0.53125 -0.25 1.109375 -0.25q0.953125 0 1.53125 0.59375q0.59375 0.59375 0.796875 1.640625l-0.21875 0q0.171875 -0.71875 0.59375 -1.21875q0.421875 -0.5 1.015625 -0.75q0.59375 -0.265625 1.28125 -0.265625q0.765625 0 1.390625 0.34375q0.640625 0.328125 1.0 1.0q0.375 0.65625 0.375 1.65625l0 5.890625l-1.71875 0l0 -5.71875q0 -0.875 -0.5 -1.265625q-0.484375 -0.390625 -1.140625 -0.390625q-0.546875 0 -0.9375 0.234375q-0.390625 0.21875 -0.609375 0.625q-0.203125 0.390625 -0.203125 0.921875l0 5.59375l-1.6875 0l0 -5.828125q0 -0.703125 -0.453125 -1.125q-0.453125 -0.421875 -1.140625 -0.421875q-0.484375 0 -0.890625 0.21875q-0.40625 0.21875 -0.65625 0.65625q-0.25 0.4375 -0.25 1.0625l0 5.4375l-1.71875 0zm16.664062 0.203125q-0.828125 0 -1.5 -0.3125q-0.671875 -0.3125 -1.0625 -0.90625q-0.390625 -0.59375 -0.390625 -1.453125q0 -0.75 0.28125 -1.21875q0.28125 -0.484375 0.765625 -0.765625q0.5 -0.28125 1.09375 -0.421875q0.59375 -0.140625 1.21875 -0.203125q0.765625 -0.09375 1.25 -0.15625q0.484375 -0.0625 0.71875 -0.1875q0.234375 -0.140625 0.234375 -0.453125l0 -0.046875q0 -0.484375 -0.1875 -0.8125q-0.1875 -0.34375 -0.5625 -0.53125q-0.375 -0.1875 -0.921875 -0.1875q-0.578125 0 -0.984375 0.1875q-0.40625 0.171875 -0.671875 0.453125q-0.25 0.265625 -0.375 0.5625l-1.609375 -0.421875q0.296875 -0.78125 0.84375 -1.25q0.5625 -0.484375 1.28125 -0.703125q0.71875 -0.21875 1.484375 -0.21875q0.53125 0 1.125 0.125q0.59375 0.125 1.109375 0.453125q0.53125 0.328125 0.859375 0.921875q0.328125 0.59375 0.328125 1.546875l0 5.796875l-1.671875 0l0 -1.203125l-0.078125 0q-0.171875 0.34375 -0.515625 0.671875q-0.328125 0.3125 -0.84375 0.53125q-0.515625 0.203125 -1.21875 0.203125zm0.375 -1.390625q0.703125 0 1.203125 -0.265625q0.5 -0.28125 0.765625 -0.734375q0.265625 -0.453125 0.265625 -0.96875l0 -1.109375q-0.09375 0.09375 -0.359375 0.171875q-0.25 0.0625 -0.59375 0.125q-0.328125 0.0625 -0.640625 0.109375q-0.3125 0.03125 -0.515625 0.046875q-0.484375 0.0625 -0.890625 0.21875q-0.40625 0.140625 -0.640625 0.421875q-0.234375 0.265625 -0.234375 0.71875q0 0.421875 0.203125 0.703125q0.21875 0.28125 0.578125 0.421875q0.375 0.140625 0.859375 0.140625zm9.3984375 1.375q-0.953125 0 -1.6875 -0.28125q-0.734375 -0.28125 -1.21875 -0.8125q-0.46875 -0.53125 -0.625 -1.3125l1.625 -0.328125q0.171875 0.671875 0.65625 1.0q0.5 0.328125 1.265625 0.328125q0.828125 0 1.3125 -0.34375q0.5 -0.34375 0.5 -0.828125q0 -0.421875 -0.3125 -0.6875q-0.296875 -0.28125 -0.921875 -0.421875l-1.46875 -0.328125q-1.21875 -0.28125 -1.8125 -0.875q-0.59375 -0.609375 -0.59375 -1.546875q0 -0.78125 0.4375 -1.359375q0.4375 -0.59375 1.1875 -0.90625q0.765625 -0.328125 1.765625 -0.328125q0.9375 0 1.609375 0.28125q0.671875 0.265625 1.09375 0.765625q0.421875 0.484375 0.59375 1.125l-1.53125 0.34375q-0.171875 -0.46875 -0.578125 -0.8125q-0.40625 -0.34375 -1.171875 -0.34375q-0.71875 0 -1.203125 0.328125q-0.46875 0.3125 -0.46875 0.796875q0 0.4375 0.3125 0.71875q0.328125 0.265625 1.046875 0.421875l1.40625 0.3125q1.203125 0.28125 1.78125 0.875q0.59375 0.578125 0.59375 1.484375q0 0.796875 -0.453125 1.421875q-0.453125 0.609375 -1.265625 0.96875q-0.8125 0.34375 -1.875 0.34375zm9.2109375 -8.921875l0 1.390625l-4.734375 0l0 -1.390625l4.734375 0zm-3.453125 -2.078125l1.71875 0l0 8.453125q0 0.515625 0.21875 0.765625q0.21875 0.25 0.734375 0.25q0.125 0 0.34375 -0.03125q0.21875 -0.03125 0.375 -0.0625l0.3125 1.375q-0.28125 0.09375 -0.59375 0.140625q-0.3125 0.046875 -0.609375 0.046875q-1.1875 0 -1.84375 -0.609375q-0.65625 -0.625 -0.65625 -1.734375l0 -8.59375zm8.7734375 11.0q-1.28125 0 -2.21875 -0.5625q-0.9375 -0.5625 -1.453125 -1.5625q-0.5 -1.015625 -0.5 -2.375q0 -1.34375 0.5 -2.359375q0.5 -1.03125 1.40625 -1.59375q0.90625 -0.578125 2.125 -0.578125q0.75 0 1.4375 0.25q0.703125 0.234375 1.25 0.765625q0.5625 0.515625 0.875 1.359375q0.328125 0.828125 0.328125 2.015625l0 0.609375l-6.953125 0l0 -1.28125l6.078125 0l-0.8125 0.421875q0 -0.8125 -0.25 -1.421875q-0.25 -0.609375 -0.734375 -0.953125q-0.484375 -0.34375 -1.21875 -0.34375q-0.734375 0 -1.25 0.359375q-0.515625 0.34375 -0.78125 0.921875q-0.265625 0.5625 -0.265625 1.25l0 0.875q0 0.890625 0.296875 1.515625q0.3125 0.625 0.859375 0.9375q0.5625 0.3125 1.296875 0.3125q0.484375 0 0.875 -0.125q0.390625 -0.140625 0.671875 -0.421875q0.296875 -0.28125 0.4375 -0.6875l1.625 0.390625q-0.21875 0.671875 -0.71875 1.1875q-0.484375 0.515625 -1.234375 0.8125q-0.734375 0.28125 -1.671875 0.28125zm5.6328125 -0.1875l0 -8.734375l1.671875 0l0 1.40625l0.09375 0q0.234375 -0.71875 0.828125 -1.125q0.609375 -0.40625 1.375 -0.40625q0.171875 0 0.375 0.015625q0.21875 0 0.359375 0.03125l0 1.640625q-0.09375 -0.03125 -0.359375 -0.0625q-0.265625 -0.03125 -0.546875 -0.03125q-0.59375 0 -1.078125 0.25q-0.46875 0.25 -0.734375 0.6875q-0.265625 0.4375 -0.265625 1.015625l0 5.3125l-1.71875 0z" fill-rule="nonzero"/><path fill="#222431" d="m92.930374 197.99779l3.421875 -5.15625l0 1.328125l-3.25 -4.90625l1.9375 0l0.984375 1.59375q0.40625 0.65625 0.71875 1.265625q0.3125 0.59375 0.625 1.15625l-0.78125 0q0.328125 -0.5625 0.609375 -1.15625q0.28125 -0.609375 0.703125 -1.265625l1.015625 -1.59375l1.90625 0l-3.28125 4.953125l0 -1.28125l3.40625 5.0625l-1.921875 0l-1.171875 -1.859375q-0.40625 -0.65625 -0.71875 -1.234375q-0.296875 -0.59375 -0.625 -1.140625l0.796875 0q-0.3125 0.546875 -0.59375 1.140625q-0.28125 0.578125 -0.6875 1.234375l-1.1875 1.859375l-1.90625 0zm13.8203125 -11.640625l0 11.640625l-1.765625 0l0 -10.03125l-0.078125 0l-2.765625 2.015625l0 -1.78125l2.546875 -1.84375l2.0625 0z" fill-rule="nonzero"/><path fill="#ffffff" d="m403.22702 147.28914l0 0c0 -4.9258575 3.993225 -8.919067 8.919067 -8.919067l133.34299 0c2.3654785 0 4.634094 0.93969727 6.3067017 2.6123352c1.6726685 1.6726532 2.6123657 3.9412537 2.6123657 6.306732l0 70.69731c0 4.9258575 -3.993225 8.919067 -8.919067 8.919067l-133.34299 0c-4.9258423 0 -8.919067 -3.9932098 -8.919067 -8.919067z" fill-rule="evenodd"/><path stroke="#383945" stroke-width="1.0" stroke-linejoin="round" stroke-linecap="butt" d="m403.22702 147.28914l0 0c0 -4.9258575 3.993225 -8.919067 8.919067 -8.919067l133.34299 0c2.3654785 0 4.634094 0.93969727 6.3067017 2.6123352c1.6726685 1.6726532 2.6123657 3.9412537 2.6123657 6.306732l0 70.69731c0 4.9258575 -3.993225 8.919067 -8.919067 8.919067l-133.34299 0c-4.9258423 0 -8.919067 -3.9932098 -8.919067 -8.919067z" fill-rule="evenodd"/><path fill="#000000" fill-opacity="0.0" d="m403.22833 158.30708l151.18109 0l0 48.661423l-151.18109 0z" fill-rule="evenodd"/><path fill="#222431" d="m449.7447 178.96967q-1.0625 0 -1.890625 -0.546875q-0.828125 -0.546875 -1.296875 -1.546875q-0.46875 -1.015625 -0.46875 -2.421875q0 -1.421875 0.46875 -2.421875q0.484375 -1.015625 1.3125 -1.546875q0.828125 -0.53125 1.875 -0.53125q0.8125 0 1.3125 0.265625q0.5 0.265625 0.78125 0.625q0.28125 0.359375 0.421875 0.640625l0.09375 0l0 -4.328125l1.71875 0l0 11.640625l-1.671875 0l0 -1.375l-0.140625 0q-0.140625 0.28125 -0.4375 0.640625q-0.28125 0.359375 -0.78125 0.640625q-0.5 0.265625 -1.296875 0.265625zm0.375 -1.46875q0.734375 0 1.234375 -0.390625q0.515625 -0.390625 0.765625 -1.078125q0.265625 -0.6875 0.265625 -1.59375q0 -0.921875 -0.265625 -1.59375q-0.25 -0.671875 -0.75 -1.046875q-0.5 -0.390625 -1.25 -0.390625q-0.75 0 -1.265625 0.40625q-0.5 0.390625 -0.75 1.078125q-0.25 0.6875 -0.25 1.546875q0 0.859375 0.25 1.5625q0.265625 0.6875 0.765625 1.09375q0.515625 0.40625 1.25 0.40625zm10.609375 1.46875q-0.796875 0 -1.296875 -0.265625q-0.5 -0.28125 -0.796875 -0.640625q-0.28125 -0.359375 -0.4375 -0.640625l-0.140625 0l0 1.375l-1.671875 0l0 -11.640625l1.71875 0l0 4.328125l0.09375 0q0.15625 -0.28125 0.4375 -0.640625q0.28125 -0.359375 0.765625 -0.625q0.5 -0.265625 1.328125 -0.265625q1.046875 0 1.859375 0.53125q0.828125 0.53125 1.296875 1.546875q0.484375 1.0 0.484375 2.421875q0 1.40625 -0.46875 2.421875q-0.46875 1.0 -1.296875 1.546875q-0.8125 0.546875 -1.875 0.546875zm-0.390625 -1.46875q0.75 0 1.25 -0.40625q0.515625 -0.40625 0.765625 -1.09375q0.265625 -0.703125 0.265625 -1.5625q0 -0.859375 -0.265625 -1.546875q-0.25 -0.6875 -0.75 -1.078125q-0.5 -0.40625 -1.265625 -0.40625q-0.734375 0 -1.25 0.390625q-0.5 0.375 -0.765625 1.046875q-0.25 0.671875 -0.25 1.59375q0 0.90625 0.265625 1.59375q0.265625 0.6875 0.765625 1.078125q0.515625 0.390625 1.234375 0.390625zm12.1875 1.296875l0 1.46875l-7.40625 0l0 -1.46875l7.40625 0zm4.296875 0.1875q-0.953125 0 -1.6875 -0.28125q-0.734375 -0.28125 -1.21875 -0.8125q-0.46875 -0.53125 -0.625 -1.3125l1.625 -0.328125q0.171875 0.671875 0.65625 1.0q0.5 0.328125 1.265625 0.328125q0.828125 0 1.3125 -0.34375q0.5 -0.34375 0.5 -0.828125q0 -0.421875 -0.3125 -0.6875q-0.296875 -0.28125 -0.921875 -0.421875l-1.46875 -0.328125q-1.21875 -0.28125 -1.8125 -0.875q-0.59375 -0.609375 -0.59375 -1.546875q0 -0.78125 0.4375 -1.359375q0.4375 -0.59375 1.1875 -0.90625q0.765625 -0.328125 1.765625 -0.328125q0.9375 0 1.609375 0.28125q0.671875 0.265625 1.09375 0.765625q0.421875 0.484375 0.59375 1.125l-1.53125 0.34375q-0.171875 -0.46875 -0.578125 -0.8125q-0.40625 -0.34375 -1.171875 -0.34375q-0.71875 0 -1.203125 0.328125q-0.46875 0.3125 -0.46875 0.796875q0 0.4375 0.3125 0.71875q0.328125 0.265625 1.046875 0.421875l1.40625 0.3125q1.203125 0.28125 1.78125 0.875q0.59375 0.578125 0.59375 1.484375q0 0.796875 -0.453125 1.421875q-0.453125 0.609375 -1.265625 0.96875q-0.8125 0.34375 -1.875 0.34375zm7.1953125 -11.828125l0 11.640625l-1.71875 0l0 -11.640625l1.71875 0zm4.765625 11.84375q-0.828125 0 -1.5 -0.3125q-0.671875 -0.3125 -1.0625 -0.90625q-0.390625 -0.59375 -0.390625 -1.453125q0 -0.75 0.28125 -1.21875q0.28125 -0.484375 0.765625 -0.765625q0.5 -0.28125 1.09375 -0.421875q0.59375 -0.140625 1.21875 -0.203125q0.765625 -0.09375 1.25 -0.15625q0.484375 -0.0625 0.71875 -0.1875q0.234375 -0.140625 0.234375 -0.453125l0 -0.046875q0 -0.484375 -0.1875 -0.8125q-0.1875 -0.34375 -0.5625 -0.53125q-0.375 -0.1875 -0.921875 -0.1875q-0.578125 0 -0.984375 0.1875q-0.40625 0.171875 -0.671875 0.453125q-0.25 0.265625 -0.375 0.5625l-1.609375 -0.421875q0.296875 -0.78125 0.84375 -1.25q0.5625 -0.484375 1.28125 -0.703125q0.71875 -0.21875 1.484375 -0.21875q0.53125 0 1.125 0.125q0.59375 0.125 1.109375 0.453125q0.53125 0.328125 0.859375 0.921875q0.328125 0.59375 0.328125 1.546875l0 5.796875l-1.671875 0l0 -1.203125l-0.078125 0q-0.171875 0.34375 -0.515625 0.671875q-0.328125 0.3125 -0.84375 0.53125q-0.515625 0.203125 -1.21875 0.203125zm0.375 -1.390625q0.703125 0 1.203125 -0.265625q0.5 -0.28125 0.765625 -0.734375q0.265625 -0.453125 0.265625 -0.96875l0 -1.109375q-0.09375 0.09375 -0.359375 0.171875q-0.25 0.0625 -0.59375 0.125q-0.328125 0.0625 -0.640625 0.109375q-0.3125 0.03125 -0.515625 0.046875q-0.484375 0.0625 -0.890625 0.21875q-0.40625 0.140625 -0.640625 0.421875q-0.234375 0.265625 -0.234375 0.71875q0 0.421875 0.203125 0.703125q0.21875 0.28125 0.578125 0.421875q0.375 0.140625 0.859375 0.140625zm8.5078125 1.1875l-3.296875 -8.734375l1.859375 0l1.734375 4.953125q0.28125 0.828125 0.484375 1.65625q0.203125 0.8125 0.4375 1.625l-0.515625 0q0.21875 -0.8125 0.421875 -1.625q0.203125 -0.828125 0.484375 -1.65625l1.71875 -4.953125l1.84375 0l-3.296875 8.734375l-1.875 0zm10.15625 0.1875q-1.28125 0 -2.21875 -0.5625q-0.9375 -0.5625 -1.453125 -1.5625q-0.5 -1.015625 -0.5 -2.375q0 -1.34375 0.5 -2.359375q0.5 -1.03125 1.40625 -1.59375q0.90625 -0.578125 2.125 -0.578125q0.75 0 1.4375 0.25q0.703125 0.234375 1.25 0.765625q0.5625 0.515625 0.875 1.359375q0.328125 0.828125 0.328125 2.015625l0 0.609375l-6.953125 0l0 -1.28125l6.078125 0l-0.8125 0.421875q0 -0.8125 -0.25 -1.421875q-0.25 -0.609375 -0.734375 -0.953125q-0.484375 -0.34375 -1.21875 -0.34375q-0.734375 0 -1.25 0.359375q-0.515625 0.34375 -0.78125 0.921875q-0.265625 0.5625 -0.265625 1.25l0 0.875q0 0.890625 0.296875 1.515625q0.3125 0.625 0.859375 0.9375q0.5625 0.3125 1.296875 0.3125q0.484375 0 0.875 -0.125q0.390625 -0.140625 0.671875 -0.421875q0.296875 -0.28125 0.4375 -0.6875l1.625 0.390625q-0.21875 0.671875 -0.71875 1.1875q-0.484375 0.515625 -1.234375 0.8125q-0.734375 0.28125 -1.671875 0.28125z" fill-rule="nonzero"/><path fill="#222431" d="m469.79938 197.99779l3.421875 -5.15625l0 1.328125l-3.25 -4.90625l1.9375 0l0.984375 1.59375q0.40625 0.65625 0.71875 1.265625q0.3125 0.59375 0.625 1.15625l-0.78125 0q0.328125 -0.5625 0.609375 -1.15625q0.28125 -0.609375 0.703125 -1.265625l1.015625 -1.59375l1.90625 0l-3.28125 4.953125l0 -1.28125l3.40625 5.0625l-1.921875 0l-1.171875 -1.859375q-0.40625 -0.65625 -0.71875 -1.234375q-0.296875 -0.59375 -0.625 -1.140625l0.796875 0q-0.3125 0.546875 -0.59375 1.140625q-0.28125 0.578125 -0.6875 1.234375l-1.1875 1.859375l-1.90625 0zm13.4921875 0.15625q-1.1875 0 -2.109375 -0.40625q-0.90625 -0.40625 -1.453125 -1.125q-0.53125 -0.71875 -0.5625 -1.671875l1.8125 0q0.03125 0.515625 0.34375 0.890625q0.3125 0.375 0.8125 0.578125q0.515625 0.203125 1.140625 0.203125q0.6875 0 1.203125 -0.234375q0.53125 -0.234375 0.828125 -0.65625q0.296875 -0.4375 0.296875 -1.0q0 -0.578125 -0.296875 -1.015625q-0.296875 -0.453125 -0.859375 -0.703125q-0.5625 -0.25 -1.359375 -0.25l-1.0 0l0 -1.453125l1.0 0q0.640625 0 1.125 -0.21875q0.5 -0.234375 0.765625 -0.640625q0.28125 -0.421875 0.28125 -0.984375q0 -0.53125 -0.25 -0.921875q-0.234375 -0.40625 -0.671875 -0.625q-0.4375 -0.234375 -1.03125 -0.234375q-0.5625 0 -1.0625 0.21875q-0.484375 0.203125 -0.796875 0.578125q-0.296875 0.375 -0.3125 0.90625l-1.71875 0q0.03125 -0.953125 0.546875 -1.671875q0.53125 -0.71875 1.40625 -1.109375q0.890625 -0.40625 1.96875 -0.40625q1.109375 0 1.9375 0.4375q0.828125 0.4375 1.265625 1.15625q0.453125 0.71875 0.453125 1.578125q0 0.984375 -0.546875 1.65625q-0.546875 0.671875 -1.46875 0.921875l0 0.078125q0.78125 0.125 1.328125 0.5q0.546875 0.375 0.828125 0.953125q0.28125 0.578125 0.28125 1.3125q0 0.96875 -0.53125 1.734375q-0.53125 0.75 -1.46875 1.1875q-0.9375 0.4375 -2.125 0.4375z" fill-rule="nonzero"/><path fill="#000000" fill-opacity="0.0" d="m365.12204 68.23622l113.700806 0l0 70.14174" fill-rule="evenodd"/><path stroke="#383945" stroke-width="1.0" stroke-linejoin="round" stroke-linecap="butt" d="m365.12204 68.23622l113.700806 0l0 64.14174" fill-rule="evenodd"/><path fill="#383945" stroke="#383945" stroke-width="1.0" stroke-linecap="butt" d="m477.1711 132.37796l1.6517334 4.538086l1.6517334 -4.538086z" fill-rule="evenodd"/><path fill="#000000" fill-opacity="0.0" d="m100.250656 226.90552l0 85.322815l113.70079 0" fill-rule="evenodd"/><path stroke="#383945" stroke-width="1.0" stroke-linejoin="round" stroke-linecap="butt" d="m100.250656 226.90552l0 85.322815l107.70079 0" fill-rule="evenodd"/><path fill="#383945" stroke="#383945" stroke-width="1.0" stroke-linecap="butt" d="m207.95145 313.88007l4.538101 -1.6517334l-4.538101 -1.6517334z" fill-rule="evenodd"/><path fill="#000000" fill-opacity="0.0" d="m478.8176 226.90552l0 85.322815l-113.700806 0" fill-rule="evenodd"/><path stroke="#383945" stroke-width="1.0" stroke-linejoin="round" stroke-linecap="butt" d="m478.8176 226.90552l0 85.322815l-107.700806 0" fill-rule="evenodd"/><path fill="#383945" stroke="#383945" stroke-width="1.0" stroke-linecap="butt" d="m371.1168 310.5766l-4.538086 1.6517334l4.538086 1.6517334z" fill-rule="evenodd"/></g></svg>