<svg xmlns="http://www.w3.org/2000/svg" width="162" height="162" viewBox="0 0 162 162" fill="none">
  <g clip-path="url(#clip0_745_3087)">
    <mask id="mask0_745_3087" style="mask-type:luminance" maskUnits="userSpaceOnUse" x="0" y="0" width="162" height="162">
      <path d="M162 0H0V162H162V0Z" fill="white"/>
    </mask>
    <g mask="url(#mask0_745_3087)">
      <mask id="mask1_745_3087" style="mask-type:luminance" maskUnits="userSpaceOnUse" x="-45" y="1" width="226" height="162">
        <path d="M181 1H-45V163H181V1Z" fill="white"/>
      </mask>
      <g mask="url(#mask1_745_3087)">
        <path d="M48.7306 118.263C48.8807 118.248 49.0313 118.241 49.1819 118.239C56.3708 118.049 54.5873 124.275 54.2611 129.029L53.1797 144.36L52.5671 153.559C52.3601 157.094 53.0256 162.685 48.125 163.073C45.9362 163.245 43.6117 163.157 41.4018 163.156L28.6568 163.146L8.05268 163.15C4.38738 163.152 0.323904 163.248 -3.29662 163.108C-8.00434 162.077 -7.2971 158.42 -7.54937 154.47L-8.07228 146.58L-9.45385 126.701C-9.94921 118.598 -6.90909 119.467 -0.212282 119.281L11.9016 119.052C18.8745 118.984 25.979 118.732 32.9565 118.55C38.0453 118.418 43.6994 118.541 48.7306 118.263ZM-3.13517 162.062L32.1467 162.057L42.6512 162.062C44.5744 162.067 46.5913 162.132 48.5113 161.999C49.3699 161.902 49.8351 161.831 50.4102 161.151C50.8715 160.605 51.2064 160.073 51.2733 159.354C51.4525 157.428 51.558 155.478 51.6799 153.548L52.4118 141.515L53.1254 129.517C53.2684 127.119 53.5206 124.505 53.401 122.119C53.2746 119.599 50.4929 119.375 48.508 119.534C46.6689 119.695 44.4524 119.648 42.5764 119.678L33.6804 119.892L7.82654 120.511C5.03699 120.597 2.24674 120.652 -0.543935 120.679C-9.03801 120.818 -8.44264 121.064 -7.90758 129.315L-7.32097 138.206L-6.33971 152.913C-6.1284 156.102 -6.91897 161.137 -3.13517 162.062Z" fill="#1393C2"/>
        <path d="M14.9565 144.292H18.4037C18.4239 144.291 18.443 144.284 18.4578 144.27C18.4661 144.262 18.4728 144.253 18.4773 144.243C18.482 144.233 18.4844 144.222 18.4845 144.21V141.008C17.0925 142.292 15.2918 143.041 13.4004 143.125C13.4989 143.462 13.7037 143.758 13.9842 143.968C14.2648 144.178 14.606 144.291 14.9565 144.292Z" fill="#1393C2"/>
        <path d="M18.4017 137.401H18.3957C18.033 137.423 17.6883 137.566 17.4169 137.808C17.1455 138.049 16.9631 138.375 16.8989 138.733C16.8955 138.751 16.8856 138.768 16.8711 138.78C16.8566 138.792 16.8383 138.799 16.8195 138.799C16.8053 138.799 16.7914 138.795 16.7791 138.788L16.7748 138.785C16.4924 138.605 16.1612 138.518 15.8269 138.534C15.4927 138.551 15.1717 138.67 14.9083 138.877C14.6449 139.083 14.4519 139.366 14.3561 139.687C14.2603 140.008 14.2662 140.35 14.3732 140.667C14.376 140.676 14.3775 140.684 14.3775 140.693C14.3775 140.71 14.3727 140.725 14.3636 140.739C14.3545 140.752 14.3417 140.762 14.3266 140.768C13.9603 140.922 13.6634 141.205 13.4922 141.563C13.321 141.921 13.2874 142.331 13.3981 142.712C16.1715 142.529 18.3782 140.272 18.4829 137.479C18.4821 137.458 18.4732 137.438 18.4581 137.423C18.4429 137.409 18.4227 137.401 18.4017 137.401Z" fill="#1393C2"/>
        <path d="M93.061 17.0326L93.3156 17.0206C102.903 16.6057 117.418 17.337 126.568 20.175C128.327 20.986 132.653 23.3626 133.906 24.6425C135.956 26.7378 134.667 35.078 135.083 38.092C134.906 39.4943 135.444 44.3734 134.982 45.5025C131.969 52.8533 107.553 53.1932 102.783 53.3128C94.5678 53.6498 66.1046 53.3838 61.4109 46.5472C61.3137 45.8953 61.2688 45.3105 61.226 44.6548C60.9664 40.3234 60.8558 35.9844 60.8942 31.6452C60.895 30.1072 60.5967 25.8685 61.7819 24.9313C70.5649 17.9852 82.2296 17.1675 93.061 17.0326ZM101.283 32.64C98.6373 32.6187 95.9918 32.6177 93.3461 32.6367C91.3078 32.2557 88.9942 32.4316 86.9097 32.264C80.0557 31.7133 72.9824 31.056 66.4317 28.8396C65.6523 28.5759 64.649 27.9998 63.869 27.895L63.7149 28.0343C64.0308 28.6809 65.5349 29.1487 66.2247 29.3814C72.7583 31.5852 79.6153 32.3431 86.4555 32.9123C87.85 33.0284 90.7787 33.2592 92.0901 33.094C93.5311 33.5884 103.139 33.276 104.89 33.1061C109.82 33.3067 130.486 31.0661 133.006 27.5367L132.905 27.4473C131.619 27.961 130.188 28.6886 128.896 29.1002C122.77 31.0498 116.144 31.7086 109.765 32.2182C107.036 32.4362 103.907 32.3013 101.283 32.64ZM115.418 25.6723C112.572 25.7177 108.514 26.2091 105.444 26.346C102.862 26.4431 100.376 26.5336 97.7884 26.5442C95.8064 26.5524 92.9266 26.2838 91.0316 26.438C88.7581 25.9761 85.456 26.2669 83.255 25.8542C80.0319 25.3101 76.7057 25.4332 73.5256 24.3464C72.8669 24.1213 70.9558 23.5621 70.3627 23.8191C71.9461 25.1773 80.1991 26.2881 82.5616 26.45C84.8954 26.6831 87.542 27.0014 89.8623 26.9691C92.0471 27.3481 105.164 27.2733 107.146 26.8653C108.484 26.9951 115.681 26.4423 117.052 25.9976C117.626 26.0438 118.322 25.8784 118.904 25.7754C120.181 25.7098 125.126 24.6514 126.055 23.8754L125.87 23.7831C125.301 23.8238 118.344 25.2466 117.784 25.4537C116.843 25.4652 116.354 25.5295 115.418 25.6723Z" fill="#1393C2"/>
        <path d="M101.283 32.6399C103.907 32.3013 107.036 32.4362 109.765 32.2181C116.144 31.7085 122.77 31.0497 128.896 29.1001C130.188 28.6885 131.619 27.961 132.904 27.4473L133.006 27.5366C130.486 31.066 109.82 33.3066 104.89 33.106C103.442 32.9965 101.807 33.105 100.449 32.8574C100.747 32.809 100.993 32.7246 101.283 32.6399Z" fill="#1393C2" fill-opacity="0.0313725"/>
        <path d="M92.089 33.0945C90.7776 33.2597 87.849 33.0289 86.4544 32.9128C79.6142 32.3436 72.7573 31.5856 66.2236 29.3819C65.5339 29.1492 64.0297 28.6814 63.7139 28.0348L63.868 27.8955C64.648 28.0003 65.6513 28.5764 66.4307 28.8401C72.9813 31.0565 80.0547 31.7138 86.9087 32.2645C88.9931 32.4321 91.3068 32.2562 93.345 32.6372L93.4387 32.8509C93.0994 33.1023 92.5362 33.0684 92.089 33.0945Z" fill="#133C62" fill-opacity="0.0666667"/>
        <path d="M91.0316 26.4387C92.9266 26.2845 95.8064 26.5531 97.7884 26.5449C100.376 26.5343 102.862 26.4438 105.444 26.3467C105.954 26.888 106.374 26.8185 107.146 26.866C105.164 27.274 92.0472 27.3488 89.8623 26.9698C90.4047 26.7015 90.4823 26.908 91.0316 26.4387Z" fill="#0F1010" fill-opacity="0.121569"/>
        <path d="M82.5612 26.45C80.1987 26.2881 71.9457 25.1773 70.3623 23.8191C70.9554 23.562 72.8665 24.1213 73.5252 24.3464C76.7053 25.4332 80.0314 25.31 83.2546 25.8542L82.5612 26.45Z" fill="#1393C2" fill-opacity="0.0313725"/>
        <path d="M105.444 26.3465C108.514 26.2096 112.572 25.7182 115.418 25.6729C115.972 25.7243 116.575 25.7264 117.052 25.9981C115.681 26.4428 108.484 26.9957 107.146 26.8659C106.374 26.8183 105.954 26.8878 105.444 26.3465Z" fill="#133C62" fill-opacity="0.0352941"/>
        <path d="M93.3449 32.6366C95.9906 32.6175 98.6361 32.6185 101.282 32.6399C100.992 32.7246 100.746 32.809 100.448 32.8574C101.806 33.1049 103.441 32.9965 104.889 33.1059C103.138 33.2759 93.5299 33.5883 92.0889 33.0939C92.5361 33.0678 93.0992 33.1017 93.4385 32.8503L93.3449 32.6366Z" fill="#1393C2" fill-opacity="0.247059"/>
        <path d="M83.2539 25.8545C85.4549 26.2672 88.757 25.9764 91.0305 26.4383C90.4811 26.9076 90.4036 26.7011 89.8612 26.9694C87.5409 27.0017 84.8943 26.6834 82.5605 26.4504L83.2539 25.8545Z" fill="#1393C2" fill-opacity="0.054902"/>
        <path d="M115.417 25.6717C116.353 25.5289 116.842 25.4646 117.783 25.4531C118.256 25.7529 118.323 25.73 118.903 25.7748C118.321 25.8778 117.625 26.0432 117.051 25.9969C116.574 25.7253 115.971 25.7232 115.417 25.6717Z" fill="#1393C2" fill-opacity="0.137255"/>
        <path d="M126.548 53.8906C126.587 53.8918 126.627 53.8895 126.666 53.894C128.183 54.0678 133.808 57.6478 134.65 58.9422C135.467 60.1995 135.453 77.7816 134.996 79.642C134.719 80.766 133.549 81.4915 132.601 82.054C121.232 88.8012 82.8363 87.8104 69.8458 84.4742C67.1238 83.5701 64.5885 83.0541 62.2726 81.1895C62.1055 81.055 61.9583 80.9437 61.8578 80.7484C61.4999 80.0525 61.4026 79.0547 61.3404 78.2852C61.1667 76.1379 61.0441 60.3994 61.542 59.2224C62.1939 57.6812 68.25 54.6685 69.9277 54.062C85.2175 57.7902 111.448 57.2427 126.548 53.8906ZM119.365 65.5216C121.605 65.2366 132.556 63.0711 133.36 61.2433C132.798 61.0431 130.871 62.0868 130.142 62.3771C127.618 63.3831 124.995 63.8937 122.334 64.386C121.19 64.5975 119.975 64.6679 118.895 65.0322C117.176 65.0934 115.498 65.4238 113.821 65.5432C110.922 65.7496 107.749 66.0712 104.861 66.1554C100.978 66.2424 97.0927 66.2523 93.2093 66.1851C91.8023 66.1612 89.4499 65.9862 88.1986 66.0379C87.1131 65.8118 85.5393 65.7667 84.4029 65.7034C78.8505 65.2554 72.7085 64.4271 67.3906 62.7444C66.5562 62.4803 64.6091 61.5958 63.8989 61.6142L63.8882 61.6548C65.6267 63.8834 77.0329 65.5279 80.1282 65.9103C81.1614 66.0357 82.196 66.1472 83.2321 66.245C84.2026 66.3774 86.0483 66.6055 87.0244 66.5676C87.9977 66.7309 90.3564 66.7871 91.4709 66.8381C100.882 67.2686 110.05 66.785 119.365 65.5216ZM80.7277 59.2952C79.8737 59.0516 78.7656 59.0386 77.8215 58.8791C75.7221 58.5243 73.7316 58.1987 71.7198 57.4604C71.2924 57.3036 70.8017 57.144 70.3851 57.3363C70.7709 58.4505 78.8683 59.7465 80.1412 59.762C80.8639 59.888 81.3927 59.9834 82.1274 60.0284C88.0196 60.8969 100.891 61.4013 106.955 60.6418C110.473 60.5042 113.983 60.1824 117.469 59.6777C118.558 59.7042 126.069 58.2875 126.396 57.4194C124.903 57.368 122.854 58.2186 121.309 58.5181C119.714 58.8269 117.444 58.8969 115.965 59.3798C112.198 59.4229 108.414 60.05 104.634 60.022C103.953 60.0171 103.219 60.0674 102.532 60.0889C97.8681 60.1274 93.2033 60.0762 88.541 59.9356C86.6229 59.8698 85.196 59.4996 83.1613 59.5106C82.4464 59.3643 81.5782 59.4398 80.7277 59.2952Z" fill="#1393C2"/>
        <path d="M88.1986 66.039C89.45 65.9872 91.8023 66.1623 93.2093 66.1862C97.0927 66.2533 100.978 66.2434 104.861 66.1565C107.749 66.0722 110.923 65.7507 113.821 65.5442C115.498 65.4249 117.176 65.0944 118.895 65.0332C119.036 65.4286 118.921 65.2437 119.365 65.5226C110.05 66.786 100.882 67.2696 91.471 66.8392C90.3565 66.7881 87.9978 66.732 87.0244 66.5687C87.379 66.3567 87.7774 66.2812 88.1986 66.039Z" fill="#0F1010" fill-opacity="0.0901961"/>
        <path d="M83.1599 59.511C85.1946 59.5 86.6215 59.8701 88.5396 59.936C93.202 60.0766 97.8667 60.1278 102.531 60.0893C103.698 60.7899 106.767 59.9164 106.953 60.6422C100.889 61.4017 88.0182 60.8973 82.126 60.0288L82.1938 59.7771C82.566 59.5974 82.7605 59.5834 83.1599 59.511Z" fill="#1E5E98" fill-opacity="0.027451"/>
        <path d="M83.2306 66.2443C82.1946 66.1466 81.1599 66.035 80.1268 65.9096C77.0314 65.5273 65.6252 63.8828 63.8867 61.6542L63.8975 61.6136C64.6077 61.5952 66.5548 62.4796 67.3892 62.7438C72.7071 64.4265 78.849 65.2548 84.4014 65.7027C83.7845 65.788 83.5361 65.6609 83.2306 66.2443Z" fill="#1393C2" fill-opacity="0.0313725"/>
        <path d="M102.532 60.089C103.219 60.0675 103.953 60.0172 104.634 60.0221C108.414 60.0501 112.198 59.423 115.965 59.3799C116.505 59.688 116.845 59.6471 117.469 59.6778C113.983 60.1825 110.473 60.5043 106.955 60.6419C106.768 59.9161 103.699 60.7896 102.532 60.089Z" fill="#0F1010" fill-opacity="0.105882"/>
        <path d="M80.1399 59.7619C78.867 59.7464 70.7695 58.4504 70.3838 57.3362C70.8003 57.1439 71.291 57.3035 71.7185 57.4604C73.7303 58.1986 75.7208 58.5243 77.8202 58.879C78.7643 59.0385 79.8724 59.0515 80.7264 59.2952L80.7336 59.5553L80.1399 59.7619Z" fill="#1393C2" fill-opacity="0.0196078"/>
        <path d="M80.7261 59.2949C81.5766 59.4394 82.4448 59.3639 83.1597 59.5103C82.7603 59.5827 82.5658 59.5967 82.1936 59.7764L82.1258 60.0281C81.3911 59.9831 80.8623 59.8877 80.1396 59.7617L80.7333 59.5551L80.7261 59.2949Z" fill="#1393C2" fill-opacity="0.137255"/>
        <path d="M126.544 87.2754C128.137 87.2898 133.481 90.908 134.537 92.2643C135.312 93.2567 135.105 94.832 135.138 96.0379C135.203 98.5951 135.234 101.153 135.228 103.711C135.238 106.134 135.539 109.931 135.16 112.208C134.95 113.474 134.485 114.126 133.447 114.854C123.037 122.157 85.6804 120.936 72.9365 118.572C72.1532 118.426 71.1017 118.273 70.6309 117.579C69.1431 114.448 67.4076 111.292 65.3254 108.514C64.3577 107.045 62.4847 105.329 61.662 103.847C60.8598 102.403 61.3016 99.4145 61.2109 97.7294C61.1532 96.6575 61.0957 93.6181 61.4539 92.7721C62.2067 90.9944 68.2797 88.0565 69.8196 87.4428C85.3541 90.5921 103.874 90.5535 119.624 88.5719C121.72 88.308 124.417 87.6952 126.544 87.2754ZM118.03 99.0377C121.497 98.4988 130.686 97.0227 133.261 94.7711L133.252 94.6046C132.557 94.4221 131.772 95.0179 131.132 95.2945C126.756 97.1866 121.807 97.9001 117.11 98.5545C115.682 98.5906 114.34 98.8731 112.969 98.9568C110.485 99.1084 107.893 99.3577 105.427 99.4811C97.0045 99.8316 88.568 99.544 80.189 98.6207C76.1864 98.1398 72.1023 97.4776 68.2151 96.3614C67.256 96.0861 64.4703 94.7974 63.7226 94.9513C63.8998 95.3606 64.7765 95.8265 65.1823 95.9645C78.8322 100.61 95.1683 100.716 109.46 99.936C110.947 99.8547 116.897 99.3619 118.03 99.0377ZM114.597 93.3846C115.633 93.3132 116.185 93.2473 117.2 93.0429C118.439 93.0973 125.996 91.6057 126.492 90.7591L126.345 90.6273C125.77 90.619 125.037 90.8808 124.476 91.0699C121.612 92.0378 118.46 92.0803 115.593 92.7673C114.771 92.7492 113.128 92.8049 112.323 93.0001C111.812 92.8623 110.836 92.9746 110.283 93.0385C106.58 93.4673 102.899 93.4323 99.1727 93.4707C93.2572 93.5181 87.3437 93.2533 81.4566 92.6775C79.0978 92.4275 76.7544 92.0576 74.4305 91.5921C73.1028 91.3261 71.7663 90.4911 70.4081 90.8434L70.3854 90.9832L70.4461 90.8425L70.5009 91.0576C81.9608 94.8644 102.608 94.721 114.597 93.3846Z" fill="#1393C2"/>
        <path d="M118.03 99.0375C116.897 99.3618 110.947 99.8546 109.46 99.9359C95.1683 100.716 78.8322 100.61 65.1823 95.9643C64.7765 95.8263 63.8998 95.3604 63.7227 94.9512C64.4703 94.7972 67.256 96.0859 68.2151 96.3613C72.1023 97.4775 76.1864 98.1397 80.189 98.6206C88.568 99.5439 97.0045 99.8315 105.427 99.481C107.893 99.3575 110.485 99.1082 112.969 98.9567C114.34 98.873 115.682 98.5904 117.11 98.5544L117.907 98.7225C117.983 98.8721 118.017 98.8857 118.03 99.0375Z" fill="#1393C2" fill-opacity="0.054902"/>
        <path d="M114.598 93.3854C102.608 94.7218 81.9612 94.8651 70.5013 91.0583L70.4465 90.8433L70.3857 90.984L70.4085 90.8441C71.7666 90.4919 73.1031 91.3269 74.4309 91.5928C76.7547 92.0583 79.0982 92.4282 81.4569 92.6782C87.3441 93.254 93.2575 93.5189 99.1731 93.4715C102.899 93.433 106.58 93.4681 110.284 93.0392C110.836 92.9753 111.812 92.863 112.323 93.0009C112.905 93.0654 114.329 92.9875 114.598 93.3854Z" fill="#1E5E98" fill-opacity="0.0392157"/>
        <path d="M117.11 98.5543C121.807 97.8999 126.756 97.1864 131.132 95.2944C131.772 95.0178 132.557 94.4219 133.252 94.6045L133.261 94.7709C130.686 97.0226 121.498 98.4986 118.03 99.0375C118.017 98.8857 117.983 98.8721 117.907 98.7225L117.11 98.5543Z" fill="#1393C2" fill-opacity="0.0196078"/>
        <path d="M112.323 93.0007C113.128 92.8055 114.771 92.7498 115.593 92.7679C116.301 92.9928 116.487 92.9983 117.201 93.0435C116.185 93.2479 115.633 93.3138 114.597 93.3852C114.329 92.9873 112.905 93.0652 112.323 93.0007Z" fill="#0F1010" fill-opacity="0.164706"/>
        <path d="M125.858 121.056C126.13 121.013 126.418 120.964 126.695 120.978C128.078 121.047 133.641 124.649 134.57 125.814C134.919 126.254 135.004 126.988 135.057 127.536C135.386 130.934 135.163 134.438 135.196 137.851C135.221 140.347 135.557 143.151 135.228 145.616C135.053 146.932 134.395 147.788 133.351 148.555C124.067 155.384 89.4519 154.685 77.9237 152.916C75.7253 152.697 73.5417 152.351 71.3838 151.877C74.7444 143.083 75.3485 130.333 72.0513 121.442C74.1709 122.094 78.9274 122.668 81.1896 122.847C95.7216 123.994 111.591 124.111 125.858 121.056ZM100.92 133.305C98.7335 133.325 96.5497 133.253 94.3653 133.358C92.9531 133.161 90.8531 133.01 89.4372 133.092C87.8562 132.967 86.786 132.9 85.2098 132.921C84.307 132.656 77.2533 131.843 76.6735 132.159C77.466 132.769 83.4307 133.253 84.7739 133.315C85.6262 133.454 85.9132 133.499 86.7741 133.481C87.4006 133.551 88.0276 133.615 88.6554 133.672C89.2142 133.732 92.7349 133.92 93.2513 133.864C94.5947 134.158 101.93 133.997 103.544 133.871C107.621 133.779 111.69 133.495 115.74 133.02C119.26 132.591 131.19 130.876 133.28 128.205L133.183 128.115C131.941 128.573 130.881 129.222 129.517 129.657C120.004 132.7 110.651 132.675 100.92 133.305ZM105.033 127.116C104.379 127.089 103.375 127.135 102.708 127.193C98.9326 127.516 94.741 126.913 91.03 127.128C89.6408 126.839 87.8424 126.836 86.4054 126.798C85.5352 126.665 84.5507 126.698 83.6621 126.698C82.8558 126.384 76.4872 125.632 76.0024 125.903C76.4127 126.408 81.186 126.969 82.0186 127.055C82.4318 127.096 82.8454 127.135 83.2592 127.167C83.8372 127.228 84.5684 127.323 85.1348 127.352L86.3683 127.45C87.5188 127.593 88.6807 127.607 89.8399 127.644C91.7512 128.035 105.78 127.977 107.724 127.55C109.943 127.724 125.547 126.101 126.457 124.38C126.356 124.346 126.256 124.311 126.156 124.277C120.911 125.893 114.974 126.511 109.569 126.824C107.451 126.947 106.554 126.971 105.033 127.116Z" fill="#1393C2"/>
        <path d="M100.92 133.304C110.651 132.673 120.004 132.699 129.518 129.656C130.881 129.22 131.941 128.571 133.183 128.113L133.28 128.204C131.19 130.875 119.26 132.59 115.74 133.018C111.69 133.494 107.621 133.778 103.544 133.87C102.69 133.57 101.751 133.781 100.739 133.529L100.92 133.304Z" fill="#1393C2" fill-opacity="0.0313725"/>
        <path d="M105.033 127.115C106.554 126.969 107.451 126.945 109.569 126.822C114.974 126.51 120.911 125.892 126.156 124.275C126.256 124.309 126.356 124.345 126.457 124.379C125.547 126.099 109.943 127.723 107.724 127.549C107.268 127.453 105.701 127.392 105.173 127.362L105.033 127.115Z" fill="#1E5E98" fill-opacity="0.0431373"/>
        <path d="M91.0299 127.128C94.7409 126.913 98.9325 127.516 102.708 127.193C103.375 127.135 104.379 127.089 105.033 127.116L105.173 127.364C105.701 127.393 107.268 127.454 107.724 127.55C105.78 127.977 91.7511 128.035 89.8398 127.644C90.2442 127.304 90.3603 127.597 91.0299 127.128Z" fill="#0F1010" fill-opacity="0.12549"/>
        <path d="M94.365 133.357C96.5495 133.253 98.7332 133.325 100.92 133.305L100.739 133.53C101.75 133.781 102.69 133.571 103.544 133.87C101.93 133.996 94.5944 134.158 93.251 133.863C93.6411 133.678 93.6869 133.678 94.1243 133.607L94.2407 133.591L94.365 133.357Z" fill="#1393C2" fill-opacity="0.215686"/>
        <path d="M85.2093 132.919C86.7855 132.898 87.8558 132.966 89.4368 133.09C89.0988 133.244 89.1201 133.229 88.7475 133.182C88.2849 133.192 87.0462 133.172 86.6923 133.32L86.7737 133.479C85.9128 133.497 85.6257 133.452 84.7734 133.313C85.1623 133.118 85.0376 133.262 85.2093 132.919Z" fill="#1393C2" fill-opacity="0.294118"/>
        <path d="M83.6616 126.697C84.5502 126.697 85.5347 126.664 86.405 126.797L86.3726 126.941C85.9318 126.937 85.2109 126.872 84.8559 127.066C84.987 127.281 84.9196 127.217 85.1343 127.352C84.5679 127.322 83.8368 127.227 83.2588 127.166C83.5335 126.988 83.5106 126.992 83.6616 126.697Z" fill="#0F1010" fill-opacity="0.227451"/>
        <path d="M86.7747 133.48L86.6934 133.321C87.0472 133.173 88.286 133.193 88.7485 133.183L88.656 133.67C88.0282 133.614 87.4012 133.55 86.7747 133.48Z" fill="#0F1010" fill-opacity="0.141176"/>
        <path d="M85.1349 127.351C84.9202 127.216 84.9875 127.28 84.8564 127.065C85.2114 126.871 85.9323 126.936 86.3732 126.941L86.3684 127.448L85.1349 127.351Z" fill="#0F1010" fill-opacity="0.0705882"/>
        <path d="M3.97385 63.1479C3.66875 60.2328 3.24755 57.8224 4.01242 54.8848C4.63236 52.5033 5.88892 52.3562 6.86623 50.8019C7.45143 49.8714 7.74763 48.4796 8.69387 47.2324C11.5076 43.5239 15.9103 46.4592 19.5619 45.7801C21.2929 45.33 22.4255 43.6251 23.9467 42.8182C25.6057 41.9382 26.458 42.7608 27.0458 44.2657C27.677 44.04 28.4179 43.8077 29.1124 43.723C29.5693 43.629 30.241 44.4171 30.4851 44.8067C31.205 45.955 32.6273 45.0742 33.264 46.3456C34.0417 47.8983 32.5185 49.2279 31.9986 50.5659C31.8873 50.8521 32.503 52.099 32.2116 52.5515C31.6389 54.054 29.5984 55.2309 28.2992 55.9576C28.2362 58.9704 28.3289 59.4029 27.2869 62.2942C27.7605 63.6247 28.645 66.1373 27.3805 67.1913C25.4595 68.7924 25.6827 70.5665 25.1156 72.7904C24.4147 75.5385 22.9651 78.0377 20.471 79.5273C20.6497 80.7051 20.8713 83.0073 20.1351 84.0094L19.905 84.0244C19.2406 83.2242 19.4311 81.2013 19.484 80.1704C18.4703 80.2939 16.9409 80.8938 16.0692 80.1043C16.5301 79.6299 19.051 79.5609 20.5632 78.1376C23.6472 75.2352 24.0726 72.0033 24.4665 68.1425C25.5203 67.331 26.4099 66.8286 26.8216 65.4647C27.4089 63.5191 26.1803 62.8694 24.6678 62.4006C23.5768 60.4528 23.2644 59.1027 22.8892 56.9212C22.3647 57.0008 21.7497 57.1475 21.2229 57.2585C20.6614 57.3495 19.8289 57.4534 19.3088 57.6243C17.583 57.8017 15.8232 57.7023 14.1509 57.1999C13.3288 56.953 12.5804 56.585 11.7314 56.4577L11.579 56.6921C11.7475 57.8393 12.8188 57.3395 13.6837 57.9163C14.3062 58.3313 15.4507 59.4329 15.2613 60.2053C14.5025 60.3888 13.3787 59.3313 12.6893 59.0226C12.2473 58.8246 11.7913 58.7047 11.3287 58.5769C10.1822 61.8292 9.5908 62.9217 6.26761 63.6122C5.4793 63.9016 4.61936 64.0502 4.25734 64.8778C3.11788 67.4829 5.66024 68.2889 7.426 69.1969C7.79424 70.9759 7.60779 72.6074 8.28565 74.5652C9.31607 77.5413 10.7496 78.7029 13.4246 80.0991C13.4574 80.9408 13.7078 83.5806 13.0069 84.0201C12.4548 83.3458 12.588 81.6628 12.5987 80.7679C8.05895 78.6733 6.07113 75.2274 6.36875 70.1658C2.8738 68.6343 1.7873 66.5727 3.97385 63.1479Z" fill="#1393C2"/>
        <path d="M-0.222279 86.8128C0.969589 86.7827 0.987385 88.849 1.43585 89.5836C2.90909 91.9963 6.71197 115.239 5.56601 116.487L5.25384 116.43C4.68912 115.739 4.18006 109.289 3.99192 107.977C3.12167 101.909 2.01978 93.926 -0.488819 88.3507C-2.02534 89.3474 -4.68959 90.5069 -6.5031 91.5837C-20.943 100.157 -32.5989 114.853 -36.6567 131.25C-38.3347 138.03 -38.6806 147.106 -34.9462 153.266C-31.4837 159.456 -25.0485 161.356 -18.3872 161.629C-17.2128 161.677 -12.42 160.935 -11.9057 161.731C-12.4639 162.493 -14.5133 162.465 -15.4393 162.539C-40.4919 164.55 -43.0918 141.642 -35.7704 123.377C-29.2858 106.918 -16.4817 93.7483 -0.222279 86.8128Z" fill="#1393C2"/>
        <path d="M29.07 84.2276C31.2423 84.2218 35.2828 85.9245 37.287 86.7989C45.7511 90.4918 53.217 96.8465 58.6916 104.294C67.0554 115.77 72.1434 130.999 70.5049 145.262C69.4533 154.416 62.9069 160.721 53.5984 160.595C53.3051 160.591 53.039 160.406 52.8873 160.172C53.3594 159.577 57.7541 159.037 59.2201 158.545C60.7003 158.05 62.0868 157.31 63.3217 156.356C66.8598 153.631 68.5929 149.502 69.1633 145.174C69.3742 144.092 69.4479 142.441 69.4576 141.322C69.6536 118.954 55.9376 96.0222 35.0056 87.378C33.5048 86.7582 32.0007 86.2844 30.5274 85.6475C30.5468 85.7336 30.5652 85.82 30.5827 85.9066C31.1047 88.4728 31.4995 93.1565 31.6775 95.7217C32.0995 101.327 32.2804 106.947 32.2195 112.567C32.2106 113.769 32.4326 116.482 31.8796 117.319L31.6622 117.321C31.0909 116.218 31.0173 109.679 30.9923 108.082C30.9098 102.849 30.6297 97.9642 30.1397 92.754C29.9873 91.1339 29.0101 85.4628 29.07 84.2276Z" fill="#1393C2"/>
        <path d="M43.6095 0.891643C45.3591 0.717579 48.943 1.63216 50.4506 2.44408C58.8006 6.94049 61.4757 16.4699 57.3056 24.7393C57.6006 25.3783 57.8591 24.9435 58.2131 25.543C57.5972 26.1362 56.6362 25.9637 55.7205 25.9504C56.1576 25.0692 56.5773 24.1795 56.9793 23.2818C58.6599 19.5783 58.7727 15.3517 57.2919 11.5639C55.8449 7.86737 53.2042 4.8274 49.5336 3.23522C46.0879 1.74443 42.1901 1.69424 38.7075 3.0958C33.6937 5.10087 31.9124 8.27065 29.9048 12.8807C26.2588 12.3099 24.9475 13.7552 23.5848 16.8484C21.1076 17.145 19.2839 17.1634 17.2192 18.9389C14.9099 20.9246 14.4821 23.1214 14.2295 25.9538C12.5406 26.4347 11.5483 26.1519 10.108 27.5928C9.06205 28.639 8.4801 30.1106 8.477 31.5872C8.46923 33.0577 9.05485 34.4688 10.1012 35.5008C12.0017 37.3601 14.8505 36.9572 17.3904 36.9299L44.9624 36.9361L53.2198 36.934C54.5957 36.9312 57.2388 36.6041 58.2865 37.5433C57.8348 38.2687 53.0377 37.9914 52.0063 37.987L42.8257 37.988L23.8286 38.0012C20.4194 38.0054 17.0496 38.0203 13.6112 37.973C10.7479 38.0439 7.86072 36.1484 7.29544 33.1959C6.43071 28.6797 8.75427 25.7305 12.986 24.7826C13.5764 19.2622 17.0444 15.9237 22.6178 15.7459C23.8973 12.7077 25.8619 11.4318 29.1234 11.4746C32.019 4.70169 36.276 1.55722 43.6095 0.891643Z" fill="#1393C2" fill-opacity="0.988235"/>
        <path d="M163.056 127.641C163.682 125.452 165.254 123.704 167.73 124.615C168.671 124.953 169.428 125.668 169.82 126.589C171.558 130.685 164.998 133.838 163.124 128.343C161.402 128.591 159.785 128.496 158.06 128.543C156.604 128.582 155.241 128.679 153.777 128.67C153.93 130.628 153.974 136.728 153.721 138.496C155.542 139.043 157.286 139.954 157.958 141.864C158.78 144.197 157.242 147.243 154.879 147.985C150.582 149.37 146.852 145.033 148.886 141.034C149.663 139.507 151.249 138.886 152.77 138.439C152.109 136.126 152.733 129.777 152.402 128.794C148.762 128.332 144.218 128.855 140.511 128.343C140.189 128.3 140.182 128.177 140.073 127.947C140.829 126.75 146.883 127.772 147.761 127.102L147.852 126.171L148.256 126.713C148.43 126.423 148.452 126.334 148.774 126.186C148.701 126.645 148.698 126.692 148.715 127.157C149.267 127.325 150.8 127.224 151.447 127.267C154.547 127.474 160.293 126.986 163.056 127.641ZM152.455 140.107C150.534 140.519 149.31 142.41 149.716 144.334C150.123 146.257 152.009 147.489 153.931 147.088C155.862 146.683 157.098 144.787 156.688 142.855C156.28 140.925 154.383 139.694 152.455 140.107ZM166.916 130.323C168.185 129.716 168.233 129.459 168.946 128.237C168.407 126.905 168.068 125.804 166.391 125.818C165.569 126.204 165.074 126.331 164.727 127.231C164.063 128.947 165.203 130.204 166.916 130.323Z" fill="#1393C2" fill-opacity="0.988235"/>
        <path d="M147.822 100.999C146.097 100.646 144.851 100.267 143.806 98.7069C143.122 97.7072 142.874 96.4725 143.118 95.2862C144.49 88.5805 153.808 90.9959 152.741 97.1169C152.384 99.1679 150.63 100.288 148.778 100.878C148.782 103.582 148.983 106.522 148.964 109.079C150.517 108.862 151.719 108.84 153.285 108.93C154.215 108.984 155.24 109.237 155.624 108.297C155.968 107.41 156.65 106.698 157.52 106.316C161.755 104.451 164.7 111.079 159.769 112.792C157.554 113.561 156.148 112.167 155.438 110.146C153.376 110.242 151.133 110.355 149.069 110.206C149.066 112.841 149.109 115.635 149.055 118.26C149.001 120.922 148.777 123.477 148.774 126.187C148.452 126.335 148.429 126.424 148.255 126.714L147.851 126.172C147.528 124.741 147.7 120.641 147.635 118.985C147.493 115.293 147.565 111.576 147.655 107.886C147.713 105.501 147.625 103.419 147.822 100.999ZM148.431 99.7871C150.198 99.5262 151.498 97.9987 151.477 96.2114C151.466 95.1906 151.018 94.2236 150.247 93.5547C149.477 92.8859 148.457 92.5791 147.446 92.7117C145.764 92.9323 144.47 94.3084 144.35 96.0027C144.275 97.0822 144.692 98.1381 145.484 98.8737C146.278 99.6092 147.361 99.9452 148.431 99.7871ZM159.44 111.774C160.188 111.56 160.763 110.96 160.944 110.203C161.125 109.446 160.882 108.65 160.311 108.122C159.739 107.595 158.927 107.417 158.188 107.659C157.075 108.022 156.458 109.21 156.798 110.331C157.14 111.451 158.314 112.093 159.44 111.774Z" fill="#1393C2"/>
        <path d="M53.0646 51.4941C54.5772 51.4658 56.1809 52.0844 56.8546 53.5335C57.2529 54.3819 57.2679 55.361 56.8957 56.2213C56.3426 57.4957 55.5175 57.9038 54.3501 58.354C54.5316 60.4237 54.2385 62.6741 54.4032 64.5081C55.5965 64.9641 58.98 64.4328 59.5255 65.457L59.4122 65.731C58.67 66.0742 52.1069 66.1403 50.7666 66.1742C51.1165 67.7388 51.175 70.6164 50.7059 72.1853C52.097 72.6095 52.3218 72.6766 53.3963 73.6898C53.6426 74.4208 53.7751 75.088 53.9387 75.8401C52.0826 81.7465 44.869 78.5569 47.0928 73.8879L47.1776 73.7673C47.9626 72.6708 48.4098 72.5231 49.6784 72.3084C49.4627 70.2181 49.5181 68.1204 49.5569 66.0227C47.4423 66.0502 45.6572 66.1137 43.5583 65.8049C43.4891 65.9501 43.4171 66.094 43.3422 66.2363C42.3142 68.1764 40.7112 68.0838 39.028 67.1046C38.0144 65.383 38.1074 64.7219 39.3836 63.1983C41.0417 62.5728 41.5462 62.7192 42.9882 63.6257C43.2216 64.0317 43.4089 64.4651 43.6055 64.891C44.1513 64.9077 44.6923 64.874 45.2365 64.8364C47.8892 64.6526 50.542 64.7039 53.1992 64.7376C52.7383 62.5849 52.9519 60.5196 53.1489 58.3618C50.5286 57.817 50.0793 56.6886 49.9517 54.218C50.007 54.085 50.0663 53.9538 50.1296 53.8245C50.8697 52.3248 51.6134 51.9862 53.0646 51.4941ZM51.0662 77.8348C53.8036 76.0457 52.3171 73.3496 49.5096 73.6498C46.8134 75.6205 48.3904 78.6221 51.0662 77.8348ZM53.7728 57.3597C55.1386 56.8495 55.28 56.5456 56.0177 55.236C55.3834 53.9369 54.9421 52.9208 53.2951 53.0144C52.5562 53.317 51.9367 53.5188 51.5914 54.3155C51.3493 54.8845 51.3649 55.5304 51.6343 56.0869C51.9692 56.7893 53.0145 57.5253 53.7728 57.3597ZM41.2335 66.7116C41.8763 66.5941 42.3166 65.9957 42.2379 65.3463C42.1594 64.697 41.5892 64.2212 40.9369 64.2606C40.4787 64.2885 40.0736 64.5683 39.8851 64.9874C39.6966 65.4064 39.7559 65.8955 40.0388 66.2573C40.3217 66.6193 40.7819 66.7942 41.2335 66.7116Z" fill="#1393C2"/>
        <path d="M157.228 40.7672C159.649 40.5817 161.826 40.8025 164.05 41.8582C167.226 43.3725 169.666 46.0933 170.828 49.4165C172.073 53.0312 171.761 56.7603 170.099 60.173C174.089 60.874 176.294 63.7836 174.928 67.9682C174.203 70.1923 171.912 71.1993 169.642 71.218C159.213 71.3041 148.722 71.2532 138.288 71.2518C137.707 71.2519 137.18 71.1626 137 70.5791C137.745 69.883 145.095 70.1302 146.427 70.1315L161.96 70.1555C164.724 70.1592 169.713 70.5987 172.042 69.5389C173.876 68.0097 174.589 66.0464 173.552 63.7693C172.607 61.6961 170.515 61.9466 168.676 61.3349C168.628 61.3191 168.327 61.1486 168.298 61.0854C168.469 60.0521 169.236 58.8335 169.566 57.8142C170.402 55.2198 170.367 52.4221 169.464 49.8498C166.429 41.0879 155.317 39.1266 149.486 46.3874C148.952 46.8396 147.606 50.2355 147.113 50.3341C144.244 50.9069 143.51 50.3188 142.118 53.7834C140.159 53.9129 138.367 54.0313 136.947 55.4894C136.385 56.0669 135.75 56.849 134.899 56.8525L134.827 56.6579C135.963 53.9579 138.775 53.2582 141.347 52.8801C142.825 50.2494 143.682 49.72 146.668 49.3256C148.849 44.2947 151.756 41.7317 157.228 40.7672Z" fill="#1393C2" fill-opacity="0.988235"/>
        <path d="M23.6695 83.8604C24.9334 84.0027 26.2075 84.2728 27.4684 84.4547C28.0058 84.5321 28.5236 84.6427 28.5983 85.2539C27.9456 85.7242 25.1621 85.0043 24.0088 85.029C23.4502 85.5614 22.3665 87.1956 21.8612 87.8941C20.7108 89.4908 19.5358 91.0695 18.3371 92.63C21.1676 95.0254 23.0371 96.749 25.6487 99.3761C26.4633 97.5321 27.6752 92.6053 28.347 91.4433L28.6065 91.3933L28.8569 91.5637C29.2095 92.4598 26.869 100.13 25.9879 101.098C25.374 101.051 22.559 98.0365 21.8896 97.4276C20.5664 96.2242 19.2138 95.0879 17.823 93.9601C18.3232 96.8241 19.1395 113.071 18.2331 115.195L18.0536 115.171C17.0438 112.986 16.9794 96.9955 17.1364 94.1939L15.9782 95.4009C15.1397 96.3684 10.7915 101.011 9.99709 101.405L9.67433 101.255C8.00038 99.1971 6.89015 94.1613 5.50675 91.6605C5.11125 90.9455 4.46559 89.2079 4.35273 88.4053L4.48283 88.2979C5.85408 89.4041 9.51557 97.9425 9.99808 99.6478L10.0448 99.8177C12.1447 97.5291 14.2652 95.2597 16.406 93.0096C13.9673 90.4752 12.2079 88.6666 9.57009 86.2612C8.19926 86.4732 1.98849 88.3898 1.31304 88.1674C1.22066 87.7896 1.19764 87.9662 1.39411 87.622C2.64559 86.9874 8.22652 85.3161 9.72814 84.939C11.9918 86.3972 15.5342 89.9465 17.2411 92.0066C18.0897 90.7904 22.7801 84.5211 23.6695 83.8604Z" fill="#1393C2" fill-opacity="0.988235"/>
        <path d="M36.3818 90.6631C36.7143 90.6922 36.8036 90.7233 37.1194 90.8076C38.7661 92.947 45.9108 109.913 45.6976 111.928C44.9611 112.59 40.8965 113.516 39.59 113.911C40.5236 114.089 44.4433 115.017 44.5981 116.117C44.0719 116.525 43.4333 116.234 42.8881 116.033C41.8373 115.69 40.8201 115.428 39.7649 115.123C38.9563 114.888 36.8076 114.556 36.7457 113.594C37.4854 112.743 42.9704 111.491 44.2687 111.252C43.9396 110.75 43.7925 110.272 43.5993 109.706C41.5164 103.607 39.0503 97.6487 36.6208 91.6826C36.4931 91.369 36.4283 90.9974 36.3818 90.6631Z" fill="#1393C2"/>
        <path d="M-4.18923 92.9258C-3.91888 93.0004 -4.02115 92.9556 -3.80249 93.1618C-3.61604 94.6616 -6.48073 105.145 -6.8929 107.28C-7.04305 108.057 -8.02728 110.629 -8.09592 111.549C-6.72665 112.495 -0.117701 113.526 0.134572 115.054C-0.278443 115.462 -5.11385 117.393 -6.24413 117.943C-6.77806 118.206 -7.31735 118.345 -7.77486 117.904C-7.52245 116.819 -3.55474 115.394 -2.48731 114.999C-5.2479 113.926 -7.74901 113.513 -10.0732 112.621C-8.82633 109.034 -5.55258 95.0008 -4.18923 92.9258Z" fill="#1393C2"/>
        <path d="M16.9069 61.1836C17.3634 61.627 17.6766 64.8012 17.7735 65.6232C20.4366 67.4371 20.025 69.3981 17.8625 71.4673L17.4849 71.2478C17.0571 70.1577 20.3948 67.9417 16.5306 66.8297C16.4546 65.39 16.3315 63.9521 16.3596 62.5089C16.3724 61.8509 16.4508 61.6588 16.9069 61.1836Z" fill="#1393C2" fill-opacity="0.988235"/>
        <path d="M12.6514 71.7363C13.9062 72.0392 14.2113 73.2793 15.6511 73.8264C16.8776 74.2924 18.4454 73.5752 19.0717 73.9246C19.0887 74.4105 19.1552 74.1879 18.8059 74.5945C16.0247 75.6335 12.9729 75.3712 12.6514 71.7363Z" fill="#1393C2" fill-opacity="0.984314"/>
        <path d="M21.1908 62.3281C23.0941 62.4148 22.6623 63.6395 22.098 64.7961C21.6888 65.032 21.1676 65.282 20.7396 65.5023C18.7754 65.6293 19.1648 64.175 19.8724 63.0054L21.1908 62.3281Z" fill="#1393C2"/>
        <path d="M11.0986 62.459C12.7795 62.5271 14.6896 64.2265 13.1115 65.6767C13.0094 65.6733 12.9074 65.6678 12.8056 65.6603C11.1407 65.5312 9.23873 63.884 11.0986 62.459Z" fill="#1393C2"/>
        <path d="M21.4712 57.6357C22.0597 57.8252 21.9975 57.7012 22.2773 58.1069C22.0622 58.8541 21.0886 58.7404 20.3981 59.1101C19.6415 59.5155 18.4529 60.7238 17.6419 60.6835C17.1627 59.7514 19.0085 58.3569 19.6738 57.9259C20.2748 57.7319 20.8428 57.7028 21.4712 57.6357Z" fill="#1393C2"/>
        <path d="M19.3076 57.6236C19.8277 57.4528 20.6602 57.3489 21.2217 57.2578L21.2064 57.5013L21.4716 57.6349C20.8431 57.702 20.2752 57.7311 19.6742 57.9251L19.6343 57.7943L19.3076 57.6236Z" fill="#1393C2" fill-opacity="0.352941"/>
      </g>
    </g>
  </g>
  <defs>
    <clipPath id="clip0_745_3087">
      <rect width="162" height="162" fill="white"/>
    </clipPath>
  </defs>
</svg>