<?xml version="1.0" encoding="utf-8"?>
<!-- Generator: Adobe Illustrator 24.0.0, SVG Export Plug-In . SVG Version: 6.00 Build 0)  -->
<svg version="1.1" xmlns="http://www.w3.org/2000/svg" xmlns:xlink="http://www.w3.org/1999/xlink" x="0px" y="0px"
	 viewBox="0 0 640 420" style="enable-background:new 0 0 640 420;" xml:space="preserve">
<style type="text/css">
	.st0{fill:url(#SVGID_1_);}
	.st1{fill:#00AED7;}
	.st2{fill:#FFFFFF;}
	.st3{fill:#80CAE3;}
	.st4{fill:url(#SVGID_2_);}
	.st5{enable-background:new    ;}
	.st6{fill:#DEA700;}
	.st7{fill:url(#SVGID_3_);}
	.st8{fill:#005675;}
	.st9{fill:url(#SVGID_4_);}
	.st10{fill:#F6BD96;}
	.st11{fill:#007099;}
	.st12{fill:#2E8AA5;}
	.st13{fill:#E7A579;}
	.st14{fill:#35384D;}
	.st15{fill:url(#SVGID_5_);}
	.st16{fill:url(#SVGID_8_);}
	.st17{fill:url(#SVGID_9_);}
</style>
<g id="dark">
	
		<radialGradient id="SVGID_1_" cx="664.3489" cy="5.3362" r="407.0949" gradientTransform="matrix(0.9697 0 0 1 -10.481 0)" gradientUnits="userSpaceOnUse">
		<stop  offset="0" style="stop-color:#007099"/>
		<stop  offset="2.704840e-02" style="stop-color:#026D95"/>
		<stop  offset="0.3173" style="stop-color:#13516F"/>
		<stop  offset="0.5856" style="stop-color:#203D54"/>
		<stop  offset="0.8217" style="stop-color:#273143"/>
		<stop  offset="1" style="stop-color:#2A2D3D"/>
	</radialGradient>
	<rect class="st0" width="640" height="420"/>
</g>
<g id="Software">
</g>
<g id="Product">
	<g>
		<g>
			<path class="st1" d="M138.8,118.6c1.1-0.7,1.1-1.7,0-2.4l-21.6-12.6c-1.1-0.7-3-0.7-4.1,0l-21.8,12.6c-1.1,0.7-1.1,1.7,0,2.4
				l21.6,12.6c1.1,0.7,3,0.7,4.1,0L138.8,118.6z"/>
		</g>
		<path class="st2" d="M90.4,117.5C90.4,117.5,90.4,117.5,90.4,117.5c0,0.1,0,0.1,0,0.2c0,0,0,0.1,0,0.1c0,0,0,0,0,0.1
			c0,0,0,0.1,0,0.1c0,0,0,0.1,0.1,0.1c0,0,0,0,0,0c0,0,0.1,0.1,0.1,0.1c0,0,0,0,0,0c0,0,0.1,0.1,0.1,0.1c0,0,0.1,0,0.1,0.1
			c0,0,0.1,0,0.1,0.1c0,0,0.1,0.1,0.1,0.1c0,0,0.1,0,0.1,0.1l21.6,12.6l0,15.5l-21.6-12.6c0,0,0,0,0,0c0,0,0,0-0.1,0
			c0,0-0.1,0-0.1-0.1c0,0-0.1,0-0.1-0.1c0,0-0.1-0.1-0.1-0.1c0,0,0,0,0,0c0,0-0.1-0.1-0.1-0.1c0,0,0,0,0,0c0,0,0,0-0.1-0.1
			c0,0,0,0,0-0.1c0,0,0,0,0,0c0,0,0-0.1-0.1-0.1c0,0,0,0,0,0c0,0,0-0.1,0-0.1c0,0,0,0,0-0.1c0,0,0,0,0,0c0,0,0-0.1,0-0.1
			c0,0,0,0,0-0.1c0,0,0,0,0,0c0,0,0-0.1,0-0.1c0,0,0,0,0-0.1v0L90.4,117.5C90.4,117.4,90.4,117.4,90.4,117.5z"/>
		<path class="st3" d="M138.8,118.6c0.6-0.3,0.9-0.8,0.9-1.2l0,15.5c0,0.4-0.3,0.9-0.9,1.2l-21.8,12.6l0-15.5L138.8,118.6z"/>
		<g>
			<path class="st2" d="M138.8,117.3c1.1-0.7,1.1-1.7,0-2.4l-21.6-12.6c-1.1-0.7-3-0.7-4.1,0l-21.8,12.6c-1.1,0.7-1.1,1.7,0,2.4
				l21.6,12.6c1.1,0.7,3,0.7,4.1,0L138.8,117.3z"/>
		</g>
		<linearGradient id="SVGID_2_" gradientUnits="userSpaceOnUse" x1="112.6834" y1="139.036" x2="117.3681" y2="139.036">
			<stop  offset="0" style="stop-color:#FFFFFF"/>
			<stop  offset="1" style="stop-color:#80CAE3"/>
		</linearGradient>
		<path class="st4" d="M113.2,146.8c-0.1,0-0.4-0.2-0.5-0.3V131c0.1,0.1,0.4,0.2,0.5,0.3c0,0,0.1,0,0.1,0c0.1,0,0.1,0.1,0.2,0.1
			c0,0,0.1,0,0.1,0c0.1,0,0.1,0,0.2,0c0,0,0.1,0,0.1,0c0.1,0,0.1,0,0.2,0c0,0,0.1,0,0.1,0c0.1,0,0.2,0,0.3,0c0,0,0.1,0,0.1,0
			c0.1,0,0.1,0,0.2,0c0,0,0.1,0,0.1,0c0.1,0,0.1,0,0.2,0c0,0,0.1,0,0.1,0c0,0,0.1,0,0.1,0c0,0,0.1,0,0.1,0c0.1,0,0.1,0,0.1,0
			c0,0,0.1,0,0.1,0c0.1,0,0.1,0,0.2,0c0,0,0.1,0,0.1,0c0.1,0,0.1,0,0.2,0c0,0,0.1,0,0.1,0c0.1,0,0.2-0.1,0.3-0.1c0,0,0.1,0,0.1-0.1
			c0,0,0.1,0,0.1,0c0.1,0,0.5-0.3,0.5-0.3v15.5c-0.1,0-0.4,0.2-0.5,0.3c0,0,0,0-0.1,0c0,0-0.1,0-0.1,0.1c0,0,0,0,0,0
			c-0.1,0-0.2,0.1-0.3,0.1c0,0,0,0,0,0c0,0-0.1,0-0.1,0c-0.1,0-0.1,0-0.2,0c0,0,0,0-0.1,0c0,0-0.1,0-0.1,0c0,0-0.1,0-0.1,0
			c0,0,0,0-0.1,0c0,0-0.1,0-0.1,0c0,0-0.1,0-0.1,0c0,0-0.1,0-0.1,0c0,0,0,0-0.1,0c0,0-0.1,0-0.1,0c0,0-0.1,0-0.1,0c0,0,0,0-0.1,0
			c-0.1,0-0.1,0-0.2,0c0,0-0.1,0-0.1,0c0,0,0,0,0,0c-0.1,0-0.1,0-0.2,0c0,0-0.1,0-0.1,0c0,0,0,0,0,0c-0.1,0-0.2,0-0.3-0.1
			c0,0,0,0,0,0c0,0-0.1,0-0.1,0c-0.1,0-0.1,0-0.2,0c0,0-0.1,0-0.1,0c-0.1,0-0.1,0-0.1,0c0,0,0,0,0,0c0,0,0,0-0.1,0
			C113.4,146.9,113.4,146.8,113.2,146.8C113.3,146.8,113.2,146.8,113.2,146.8z"/>
		<g>
			<g class="st5">
				<g>
					<path class="st2" d="M122.7,131.7l1.1-0.6c0.3-0.2,0.6,0,0.6,0.4c0,0.4-0.3,0.9-0.6,1.1l-1.1,0.6c-0.3,0.2-0.6,0-0.6-0.4
						C122,132.3,122.3,131.9,122.7,131.7L122.7,131.7z"/>
				</g>
			</g>
		</g>
		<g>
			<g class="st5">
				<g>
					<path class="st1" d="M122.7,135.1l1.1-0.6c0.3-0.2,0.6,0,0.6,0.4c0,0.4-0.3,0.9-0.6,1.1l-1.1,0.6c-0.3,0.2-0.6,0-0.6-0.4
						C122,135.8,122.3,135.3,122.7,135.1L122.7,135.1z"/>
				</g>
			</g>
		</g>
		<g>
			<g class="st5">
				<g>
					<path class="st2" d="M122.7,138.6l1.1-0.6c0.3-0.2,0.6,0,0.6,0.4c0,0.4-0.3,0.9-0.6,1.1l-1.1,0.6c-0.3,0.2-0.6,0-0.6-0.4
						C122,139.3,122.3,138.8,122.7,138.6L122.7,138.6z"/>
				</g>
			</g>
		</g>
		<g>
			<g class="st5">
				<g>
					<path class="st1" d="M119.5,133.3l1.1-0.6c0.3-0.2,0.6,0,0.6,0.4c0,0.4-0.3,0.9-0.6,1.1l-1.1,0.6c-0.3,0.2-0.6,0-0.6-0.4
						C118.9,134,119.2,133.5,119.5,133.3L119.5,133.3z"/>
				</g>
			</g>
		</g>
		<g>
			<g class="st5">
				<g>
					<path class="st2" d="M119.5,136.7l1.1-0.6c0.3-0.2,0.6,0,0.6,0.3c0,0.4-0.3,0.9-0.6,1.1l-1.1,0.6c-0.3,0.2-0.6,0-0.6-0.4
						C118.9,137.4,119.2,136.9,119.5,136.7L119.5,136.7z"/>
				</g>
			</g>
		</g>
		<g>
			<g class="st5">
				<g>
					<path class="st1" d="M119.5,140.3l1.1-0.6c0.3-0.2,0.6,0,0.6,0.4c0,0.4-0.3,0.9-0.6,1.1l-1.1,0.6c-0.3,0.2-0.6,0-0.6-0.4
						C118.9,140.9,119.2,140.5,119.5,140.3L119.5,140.3z"/>
				</g>
			</g>
		</g>
		<g>
			<g class="st5">
				<g>
					<path class="st1" d="M126.7,129.7l11-6.3c0.3-0.2,0.6,0,0.6,0.4c0,0.4-0.3,0.9-0.6,1.1l-11,6.3c-0.3,0.2-0.6,0-0.6-0.4
						C126.1,130.4,126.4,129.9,126.7,129.7L126.7,129.7z"/>
				</g>
			</g>
		</g>
		<g>
			<g class="st5">
				<g>
					<path class="st1" d="M126.7,133l11-6.4c0.3-0.2,0.6,0,0.6,0.4c0,0.4-0.3,0.9-0.6,1.1l-11,6.4c-0.3,0.2-0.6,0-0.6-0.4
						C126.1,133.7,126.4,133.2,126.7,133L126.7,133z"/>
				</g>
			</g>
		</g>
		<g>
			<g class="st5">
				<g>
					<path class="st1" d="M126.7,136.3l11-6.3c0.3-0.2,0.6,0,0.6,0.4c0,0.4-0.3,0.9-0.6,1.1l-11,6.3c-0.3,0.2-0.6,0-0.6-0.4
						C126.1,136.9,126.4,136.5,126.7,136.3L126.7,136.3z"/>
				</g>
			</g>
		</g>
		<polygon class="st1" points="95.3,133.4 109.1,141.5 109.1,132.2 95.3,124.1 		"/>
		<g>
			<g>
				<path class="st3" d="M114,122.4l-9.1-5.3c-0.3-0.2-0.4-0.4-0.4-0.7c0-0.3,0.2-0.5,0.4-0.7l9.1-5.3c0.5-0.3,1.4-0.3,1.9,0
					l9.1,5.3c0.3,0.2,0.4,0.4,0.4,0.7c0,0.3-0.2,0.5-0.5,0.7l-9.1,5.3c-0.3,0.2-0.6,0.2-1,0.2C114.6,122.6,114.3,122.5,114,122.4z
					 M114.3,110.8l-9.1,5.3c-0.2,0.1-0.3,0.2-0.3,0.3s0.1,0.2,0.3,0.3l9.1,5.3c0.4,0.2,1.2,0.2,1.6,0l9.1-5.3
					c0.2-0.1,0.3-0.2,0.3-0.3c0-0.1-0.1-0.2-0.3-0.3l-9.1-5.3c-0.2-0.1-0.5-0.2-0.8-0.2C114.8,110.6,114.5,110.7,114.3,110.8z"/>
			</g>
		</g>
		<g>
			<path class="st6" d="M120.2,116.7c0.2-0.1,0.3-0.4,0-0.5l-4.7-2.7c-0.2-0.1-0.6-0.1-0.9,0l-4.7,2.7c-0.3,0.1-0.3,0.4,0,0.5
				l4.7,2.7c0.3,0.1,0.6,0.1,0.9,0L120.2,116.7z"/>
		</g>
	</g>
	<g>
		<g>
			<path class="st1" d="M200.3,216.1c1.6-0.9,1.6-2.5,0-3.4l-31-18c-1.6-0.9-4.3-0.9-5.9,0l-31.2,18c-1.6,1-1.6,2.5,0,3.4l31,18
				c1.6,0.9,4.3,0.9,5.9,0L200.3,216.1z"/>
		</g>
		<path class="st2" d="M131,214.6c0,0,0,0.1,0,0.1c0,0,0,0.1,0,0.1c0,0,0,0.1,0,0.1c0,0,0,0.1,0,0.1c0,0.1,0,0.1,0.1,0.1
			c0,0.1,0.1,0.1,0.1,0.2c0,0,0,0,0,0c0,0.1,0.1,0.1,0.1,0.2c0,0,0,0,0,0c0.1,0.1,0.1,0.1,0.2,0.2c0,0,0.1,0.1,0.1,0.1
			c0,0,0.1,0.1,0.1,0.1c0,0,0.1,0.1,0.2,0.1c0,0,0.1,0.1,0.1,0.1l31,18l0.1,22.2l-31-18c0,0,0,0-0.1,0c0,0-0.1,0-0.1-0.1
			c-0.1,0-0.1-0.1-0.2-0.1c0,0-0.1-0.1-0.1-0.1c0,0-0.1-0.1-0.1-0.1c0,0,0,0,0,0c-0.1,0-0.1-0.1-0.2-0.2c0,0,0,0,0,0
			c0,0-0.1-0.1-0.1-0.1c0,0,0,0-0.1-0.1c0,0,0,0,0,0c0,0-0.1-0.1-0.1-0.1c0,0,0,0,0,0c0,0,0-0.1-0.1-0.1c0,0,0-0.1,0-0.1
			c0,0,0,0,0,0c0,0,0-0.1,0-0.1c0,0,0-0.1,0-0.1c0,0,0,0,0,0c0-0.1,0-0.1,0-0.1c0,0,0-0.1,0-0.1v0l-0.1-22.2
			C131,214.5,131,214.5,131,214.6z"/>
		<path class="st3" d="M200.3,216.2c0.8-0.5,1.2-1.1,1.2-1.7l0.1,22.2c0,0.6-0.4,1.3-1.2,1.7l-31.2,18l-0.1-22.2L200.3,216.2z"/>
		<g>
			<path class="st2" d="M200.3,214.4c1.6-0.9,1.6-2.5,0-3.4l-31-18c-1.6-0.9-4.3-0.9-5.9,0l-31.2,18c-1.6,1-1.6,2.5,0,3.4l31,18
				c1.6,0.9,4.3,0.9,5.9,0L200.3,214.4z"/>
		</g>
		<linearGradient id="SVGID_3_" gradientUnits="userSpaceOnUse" x1="162.8739" y1="245.4775" x2="169.5877" y2="245.4775">
			<stop  offset="0" style="stop-color:#FFFFFF"/>
			<stop  offset="1" style="stop-color:#80CAE3"/>
		</linearGradient>
		<path class="st7" d="M163.6,256.6c-0.1-0.1-0.6-0.3-0.8-0.4V234c0.1,0.1,0.6,0.3,0.7,0.4c0,0,0.1,0,0.1,0.1c0.1,0,0.2,0.1,0.3,0.1
			c0,0,0.1,0,0.1,0c0.1,0,0.1,0,0.2,0.1c0.1,0,0.1,0,0.2,0c0.1,0,0.1,0,0.2,0.1c0.1,0,0.1,0,0.2,0c0.2,0,0.3,0,0.5,0.1
			c0.1,0,0.1,0,0.2,0c0.1,0,0.2,0,0.3,0c0.1,0,0.1,0,0.2,0c0.1,0,0.1,0,0.2,0c0.1,0,0.1,0,0.2,0c0.1,0,0.1,0,0.2,0
			c0.1,0,0.1,0,0.2,0c0.1,0,0.1,0,0.2,0c0.1,0,0.1,0,0.2,0c0.1,0,0.1,0,0.2,0c0,0,0.1,0,0.2,0c0.1,0,0.2,0,0.3-0.1
			c0.1,0,0.1,0,0.1,0c0.2-0.1,0.3-0.1,0.4-0.2c0.1,0,0.1-0.1,0.2-0.1c0,0,0.1,0,0.1,0c0.1-0.1,0.7-0.4,0.8-0.4v22.2
			c-0.1,0.1-0.6,0.3-0.7,0.4c0,0-0.1,0-0.1,0c-0.1,0-0.1,0.1-0.2,0.1c0,0,0,0,0,0c-0.1,0-0.3,0.1-0.4,0.1c0,0,0,0,0,0
			c0,0-0.1,0-0.1,0c-0.1,0-0.2,0-0.2,0.1c0,0,0,0-0.1,0c0,0-0.1,0-0.1,0c-0.1,0-0.1,0-0.2,0c0,0-0.1,0-0.1,0c0,0-0.1,0-0.1,0
			c-0.1,0-0.1,0-0.2,0c0,0-0.1,0-0.1,0c0,0-0.1,0-0.1,0c-0.1,0-0.1,0-0.2,0c0,0-0.1,0-0.1,0c0,0-0.1,0-0.1,0c-0.1,0-0.1,0-0.2,0
			c0,0-0.1,0-0.1,0c0,0,0,0-0.1,0c-0.1,0-0.2,0-0.3,0c0,0-0.1,0-0.1,0c0,0,0,0,0,0c-0.2,0-0.3,0-0.5-0.1c0,0,0,0,0,0
			c0,0-0.1,0-0.1,0c-0.1,0-0.1,0-0.2,0c-0.1,0-0.1,0-0.2,0c-0.1,0-0.1,0-0.2-0.1c0,0,0,0-0.1,0c0,0,0,0-0.1,0
			c-0.1,0-0.2-0.1-0.3-0.1C163.7,256.6,163.7,256.6,163.6,256.6z"/>
		<g>
			<g class="st5">
				<g>
					<path class="st2" d="M177.2,234.9l1.6-0.9c0.5-0.3,0.9-0.1,0.9,0.5c0,0.6-0.4,1.3-0.9,1.5l-1.6,0.9c-0.5,0.3-0.9,0.1-0.9-0.5
						C176.3,235.9,176.7,235.2,177.2,234.9L177.2,234.9z"/>
				</g>
			</g>
		</g>
		<g>
			<g class="st5">
				<g>
					<path class="st1" d="M177.2,239.8l1.6-0.9c0.5-0.3,0.9-0.1,0.9,0.5c0,0.6-0.4,1.3-0.9,1.5l-1.6,0.9c-0.5,0.3-0.9,0.1-0.9-0.5
						C176.3,240.8,176.7,240.1,177.2,239.8L177.2,239.8z"/>
				</g>
			</g>
		</g>
		<g>
			<g class="st5">
				<g>
					<path class="st2" d="M177.2,244.9l1.6-0.9c0.5-0.3,0.9-0.1,0.9,0.5c0,0.6-0.4,1.3-0.9,1.5l-1.6,0.9c-0.5,0.3-0.9,0.1-0.9-0.5
						C176.3,245.9,176.7,245.2,177.2,244.9L177.2,244.9z"/>
				</g>
			</g>
		</g>
		<g>
			<g class="st5">
				<g>
					<path class="st1" d="M172.7,237.3l1.6-0.9c0.5-0.3,0.9-0.1,0.9,0.5c0,0.6-0.4,1.3-0.9,1.5l-1.6,0.9c-0.5,0.3-0.9,0.1-0.9-0.5
						C171.8,238.2,172.2,237.5,172.7,237.3L172.7,237.3z"/>
				</g>
			</g>
		</g>
		<g>
			<g class="st5">
				<g>
					<path class="st2" d="M172.7,242.1l1.6-0.9c0.5-0.3,0.9-0.1,0.9,0.5c0,0.6-0.4,1.3-0.9,1.5l-1.6,0.9c-0.5,0.3-0.9,0.1-0.9-0.5
						C171.8,243.1,172.2,242.4,172.7,242.1L172.7,242.1z"/>
				</g>
			</g>
		</g>
		<g>
			<g class="st5">
				<g>
					<path class="st1" d="M172.7,247.2l1.6-0.9c0.5-0.3,0.9-0.1,0.9,0.5c0,0.6-0.4,1.3-0.9,1.5l-1.6,0.9c-0.5,0.3-0.9,0.1-0.9-0.5
						C171.8,248.2,172.2,247.5,172.7,247.2L172.7,247.2z"/>
				</g>
			</g>
		</g>
		<g>
			<g class="st5">
				<g>
					<path class="st1" d="M183,232.1l15.8-9.1c0.5-0.3,0.9-0.1,0.9,0.5c0,0.6-0.4,1.3-0.9,1.5l-15.8,9.1c-0.5,0.3-0.9,0.1-0.9-0.5
						C182.1,233.1,182.5,232.4,183,232.1L183,232.1z"/>
				</g>
			</g>
		</g>
		<g>
			<g class="st5">
				<g>
					<path class="st1" d="M183,236.8l15.8-9.1c0.5-0.3,0.9,0,0.9,0.5c0,0.6-0.4,1.2-0.9,1.5l-15.8,9.1c-0.5,0.3-0.9,0-0.9-0.5
						C182.1,237.8,182.5,237.1,183,236.8L183,236.8z"/>
				</g>
			</g>
		</g>
		<g>
			<g class="st5">
				<g>
					<path class="st1" d="M183,241.5l15.8-9.1c0.5-0.3,0.9-0.1,0.9,0.5c0,0.6-0.4,1.3-0.9,1.5l-15.8,9.1c-0.5,0.3-0.9,0.1-0.9-0.5
						C182.1,242.5,182.5,241.8,183,241.5L183,241.5z"/>
				</g>
			</g>
		</g>
		<polygon class="st1" points="137.9,237.5 157.7,249 157.7,235.6 137.9,224.1 		"/>
		<g>
			<g>
				<path class="st3" d="M164.8,221.6l-13-7.6c-0.4-0.2-0.6-0.6-0.6-0.9c0-0.4,0.2-0.7,0.6-0.9l13.1-7.6c0.7-0.4,2-0.4,2.8,0l13,7.6
					c0.4,0.2,0.6,0.6,0.6,0.9c0,0.4-0.2,0.7-0.7,0.9l-13.1,7.6c-0.4,0.2-0.9,0.3-1.4,0.3C165.7,221.9,165.2,221.8,164.8,221.6z
					 M165.2,205l-13.1,7.6c-0.2,0.1-0.4,0.3-0.4,0.5c0,0.2,0.1,0.3,0.4,0.5l13,7.6c0.6,0.3,1.6,0.3,2.2,0l13.1-7.6
					c0.2-0.1,0.4-0.3,0.4-0.5c0-0.2-0.1-0.3-0.4-0.5l-13-7.6c-0.3-0.2-0.7-0.3-1.1-0.3C165.9,204.7,165.5,204.8,165.2,205z"/>
			</g>
		</g>
		<g>
			<path class="st6" d="M173.6,213.4c0.4-0.2,0.4-0.5,0-0.8l-6.7-3.9c-0.4-0.2-0.9-0.2-1.3,0l-6.8,3.9c-0.4,0.2-0.4,0.5,0,0.8
				l6.7,3.9c0.4,0.2,0.9,0.2,1.3,0L173.6,213.4z"/>
		</g>
	</g>
	<g>
		<g>
			<path class="st8" d="M256.2,282.8c13.8,2.3,34.8,4.9,60.4,4.6c39.8-0.5,60.8-7.7,63.1-1.9c2.6,6.5-19.9,26.5-46.2,30.9
				c-11.2,1.9-25.7-2.4-54.6-11c-8.4-2.5-18.6-5.9-21.8-14.5C255.9,287.8,256,284.9,256.2,282.8z"/>
			<path class="st2" d="M259.4,360.1c-4.4-2.5-7.6-3.1-6.2-9.9c1.8-8.8,9.7-11.4,13.5-12.4c21.4-5.9,41.5-8.5,45.7-7.6
				c1.4,5.8,4.9,9,6.4,14.8c-10.4,2.2-18.5,5.3-30.6,8.6C275.8,357,265.1,363.3,259.4,360.1z"/>
			<path class="st6" d="M266.2,219.4c-3.3-7.7,1.3-20.4,6.2-26.8c5.7-3.9,11.8-6.3,24.8-9.7c13.6-3.5,27.1-3.1,32.8-2.7
				c16.8,1.4,32.3,6.1,41.6,10.4c4.2,2,7.6,5.2,9.7,9.3c3.2,6.4,2.8,12.1,2.9,18.8C384.3,245.1,276.7,244.1,266.2,219.4z"/>
			<g>
				<linearGradient id="SVGID_4_" gradientUnits="userSpaceOnUse" x1="283.4294" y1="306.0549" x2="358.9571" y2="194.989">
					<stop  offset="0.1512" style="stop-color:#C7C9C8"/>
					<stop  offset="0.4552" style="stop-color:#E2E3E2"/>
					<stop  offset="0.7702" style="stop-color:#F7F7F7"/>
					<stop  offset="0.976" style="stop-color:#FFFFFF"/>
				</linearGradient>
				<path class="st9" d="M257.7,285.6c0.2,3.3,3.1,5.9,6.3,5.9l116.6-0.3c3.3,0,6.1-2.7,6.2-5.9l3.4-65.8c0.1-3.3-2.5-5.9-5.8-5.9
					l-125.6,0.3c-3.3,0-5.8,2.7-5.7,5.9L257.7,285.6z"/>
			</g>
			<path class="st2" d="M376.3,359.8c4.7-1.8,8-2,7.5-8.9c-0.6-9-8.1-12.6-11.7-14.2c-20.4-8.7-39.9-14.1-44.2-13.9
				c-2.2,5.5-6.1,8.3-8.4,13.8c10,3.6,17.6,7.8,29.1,12.7C360.5,354.5,370.2,362.2,376.3,359.8z"/>
			<path class="st2" d="M368.2,335.4c0,0,26,8.8,17.2,22.3c-7.3,11.3-30.8-5.4-30.8-5.4s9.7,1,12.8-2.7
				C373.4,342.4,368.2,335.4,368.2,335.4z"/>
			<path class="st10" d="M330.8,180c-3.8-0.4-12.5-0.9-21.7,0.8c-0.1,5.4,7.3,9.9,16.5,10.2c8.9,0.2,16.3-3.7,16.9-8.8
				C339,181.2,335.1,180.4,330.8,180z"/>
			<path class="st11" d="M297.7,329.9c17.8-6.1,37.3-20.3,46-26.2c18.2-12.2,28.2-22.6,44.9-25.5c4.2-0.7,17.6-2,24.6,7.2
				c6.1,8,3.9,19.6-1.7,27.8c-7.5,11.1-20.3,15.4-47.8,23.8c-11.2,3.4-37.3,8.1-58.8,15.6C299.2,346.5,297.4,341.9,297.7,329.9z"/>
			<path class="st2" d="M270.7,337c0,0-26.9,5.1-20.1,19.8c5.7,12.2,31.2-1.1,31.2-1.1s-9.7-0.3-12.3-4.5
				C264.7,343.2,270.7,337,270.7,337z"/>
			<path class="st11" d="M331.3,316.5c-15.8-6.2-29.2-11.1-38.3-12.6c-15.3-2.6-28.1-2.9-33.3-11.7c-2.1-3.6-2-5.8-2.2-9.4
				c-9.4-3.4-19.5-1.9-25.9,4.5c-7.7,7.7-7.8,19.3-4.7,25.9c5.1,10.8,29,16.3,39.4,18.7c3.6,0.8,26.2,4.4,41.7-2.3
				C318.8,325,326.7,320.9,331.3,316.5z"/>
			<g>
				<path class="st12" d="M338.2,258.4c0,2.4-1.7,4.7-4.1,5.4c-0.6,0.1-1.2,0.2-1.8,0.2h-3l-14,0c-3.4,0-6-2.7-5.7-6.1
					c0.2-2.5,1.5-4.1,3.8-5c0.5-0.2,0.5-0.4,0.6-0.8c0.2-1.1,0.3-2.1,0.6-3.1c0.9-2.6,3.3-4.3,6.1-4.4c3.4-0.1,5.3,1.3,6.6,4.1
					c0.2,0.4,0.3,0.7,0.8,0.4c2.2-1.4,5.1,0,5.4,2.9c0,0.5,0.2,0.7,0.7,0.9C336.8,253.8,338.2,256,338.2,258.4z"/>
				<path class="st12" d="M329.3,264c-4.5,0-11.8,0-14,0L329.3,264z"/>
			</g>
		</g>
		<g>
			<g>
				<path class="st11" d="M341.3,121.4c2.8,2.9,5.4,6.1,7.1,9.8c1.7,3.7,2.5,7.9,1.8,11.9c-4.6-6.8-9.9-13.2-15.8-19.1L341.3,121.4z
					"/>
				<path class="st10" d="M326.7,187.3L326.7,187.3c-6.4,0.4-11.9,0.6-12.3-5.7l-2.9-48.5l23.1-1.5l0.6,49.1
					C335.6,187,333.1,186.9,326.7,187.3z"/>
				<path class="st13" d="M321,172.8c-1.8-2.9-2.9-6.3-3.8-9.5c-0.7-2.5-1.2-5.1-1.3-7.7c1.9-0.3,3.8,0.1,5.7,0.4
					c2,0.3,4.1,0.3,6.1,0.4c2.8,0.1,5.7,0.1,8.5,0.1l1.2,18.6c0.1,2.1-0.3,4-1.2,5.8C330.2,181.7,324.2,178,321,172.8z"/>
				<g>
					<path class="st10" d="M336.4,176.5c25.4,4.2,19.8-52.8-6.2-57.7c-29.4-5.6-28.2,23.5-13.2,42.4
						C322.3,167.8,327.9,175.1,336.4,176.5z"/>
					<path class="st11" d="M313.8,159.4c0.3,1.8,0.1,3.6-0.4,5.3c0.2-0.6-3.3-4.7-3.8-5.3c-3.5-5.1-7-10.4-8.4-16.4
						c-0.5-2.1-0.7-4.2-0.5-6.3c1.2-14,16.4-22.3,29.6-19.6c2.7,0.6,5.5,1.4,8,2.6c2.8,1.3,5.4,3.3,6.9,6.1c1.5,2.7,1.9,6.2,0.3,9
						c-4.4,8-14.9,3.5-21.3,1.8c-3.2-0.8-7.4-0.9-8.8,2.1c-2.1,4.1,0,11.5,1.5,15.8c0.1,0.4-1.6,1.1-1.9,0.6c-0.5-1-0.6-2-1.7-2
						c-0.3,0-2.3-0.2-1.6,0.6C313.3,155.2,313.4,157.1,313.8,159.4z"/>
				</g>
				<path class="st10" d="M315,153c-0.5-0.5-1.1-0.9-1.9-1c-0.7-0.1-1.5,0.3-1.7,1c-0.3,0.7,0.1,1.6,0.5,2.3
					c1.1,1.6,2.7,2.9,4.3,4.1L315,153z"/>
				<path class="st11" d="M351.7,161.7c0.1,0.1,0.2,0.2,0.3,0.3c1.4,1.4,1.2,3.7,0.9,5.7c-0.5,3.1-1,6.3-3.1,8.6
					c-4,4.4-10.8,3.5-15.9,1.7c-5.3-1.9-10-5.3-13.5-9.6c-4.4-5.4-6.8-12.4-6.7-19.4c1.3,0.9,2,1.6,2.5,3c0.7,1.6,2.9,10.6,9.9,14.3
					c3.1,1.6,7.3,0.3,10.3-1c3.7-1.5,7.2-4.1,11.3-4.5C349.1,160.7,350.6,160.8,351.7,161.7z"/>
				<path class="st10" d="M347.7,162.9c1.2,0.4,2,1.8,1.9,3c-0.1,0.5-0.3,1-0.7,1.3c-0.4,0.2-0.9,0.2-1.3,0.1
					c-0.4-0.2-0.8-0.4-1.2-0.7c-0.4,0.7-0.8,1.5-1.4,2s-1.4,1-2.2,1c-0.8,0-1.6-0.6-1.8-1.4c-0.1-0.5,0.1-1.1,0.4-1.6
					C342.4,164.8,345.3,162.1,347.7,162.9z"/>
			</g>
			<path class="st11" d="M338.1,139.3c9.5-0.1,15.6-11.9,13.2-21.2c-1.5,1.7-2.4,2.2-3.2,2.6c-2.4,1.2-6,1-10.5-1.3
				c-1.2-0.6,0.4,0.9-1,0.6c-2.7-0.7-5.4-1.1-8.2-0.7c-2.7,0.4-5.4,1.6-7.1,3.8c-1,1.2-1.6,2.7-1.9,4.2c-0.3,1.5-0.3,3,0.1,4.4
				c0.4,1.4,1.4,2.7,2.6,3.5c1.1,0.7,2.5,0.9,3.8,1.1c3.8,0.6,7.7,1.1,11.4,0.1"/>
		</g>
	</g>
	<g>
		<g>
			<path class="st14" d="M257.6,92.1H139c-8.8,0-15.9,7.1-15.9,15.9v55.7c0,8.8,7.1,15.9,15.9,15.9h73.6l29.2,16.9
				c0.5,0.3,1,0.4,1.5,0.4c0.5,0,1-0.1,1.4-0.4c0.9-0.5,1.5-1.5,1.5-2.5v-14.3h11.3c8.8,0,15.9-7.1,15.9-15.9V108
				C273.5,99.2,266.4,92.1,257.6,92.1z M271.5,163.6c0,7.7-6.2,13.9-13.9,13.9h-13.3v16.3c0,0.5-0.3,0.7-0.5,0.8
				c-0.1,0.1-0.5,0.2-0.9,0l-29.7-17.1H139c-7.7,0-13.9-6.2-13.9-13.9V108c0-7.7,6.2-13.9,13.9-13.9h118.6c7.7,0,13.9,6.2,13.9,13.9
				V163.6z"/>
			<linearGradient id="SVGID_5_" gradientUnits="userSpaceOnUse" x1="125.1317" y1="144.4473" x2="271.5117" y2="144.4473">
				<stop  offset="0" style="stop-color:#005675"/>
				<stop  offset="1" style="stop-color:#007099"/>
			</linearGradient>
			<path class="st15" d="M271.5,108v55.7c0,7.7-6.2,13.9-13.9,13.9h-13.3v16.3c0,0.5-0.3,0.7-0.5,0.8c-0.1,0.1-0.5,0.2-0.9,0
				l-29.7-17.1H139c-7.7,0-13.9-6.2-13.9-13.9V108c0-7.7,6.2-13.9,13.9-13.9h118.6C265.3,94.1,271.5,100.3,271.5,108z"/>
		</g>
		<g>
			<defs>
				<path id="SVGID_6_" d="M271.7,108.4v55c0,8.1-6.6,14.7-14.7,14.7h-12.2v15.1c0,1.5-1.6,2.4-2.9,1.7l-13.1-7.6l-16-9.2h-73
					c-8.1,0-14.7-6.6-14.7-14.7v-55c0-8.1,6.6-14.7,14.7-14.7h117.2C265,93.7,271.7,100.3,271.7,108.4z"/>
			</defs>
			<clipPath id="SVGID_7_">
				<use xlink:href="#SVGID_6_"  style="overflow:visible;"/>
			</clipPath>
		</g>
	</g>
	<g>
		<g>
			<path class="st1" d="M132.2,172.7c1.5-0.9,1.5-2.3,0-3.2l-28.9-16.8c-1.5-0.9-4-0.9-5.5,0l-29.1,16.8c-1.5,0.9-1.5,2.3,0,3.2
				l28.9,16.8c1.5,0.9,4,0.9,5.5,0L132.2,172.7z"/>
		</g>
		<path class="st2" d="M67.5,171.2c0,0,0,0.1,0,0.1c0,0,0,0.1,0,0.1c0,0,0,0.1,0,0.1c0,0,0,0.1,0,0.1c0,0,0,0.1,0.1,0.1
			c0,0.1,0.1,0.1,0.1,0.2c0,0,0,0,0,0c0,0.1,0.1,0.1,0.1,0.2c0,0,0,0,0,0c0.1,0.1,0.1,0.1,0.2,0.2c0,0,0.1,0.1,0.1,0.1
			c0,0,0.1,0.1,0.1,0.1c0,0,0.1,0.1,0.1,0.1c0,0,0.1,0.1,0.1,0.1l28.9,16.8l0.1,20.7l-28.9-16.8c0,0,0,0-0.1,0c0,0-0.1,0-0.1-0.1
			c-0.1,0-0.1-0.1-0.1-0.1c0,0-0.1-0.1-0.1-0.1c0,0-0.1-0.1-0.1-0.1c0,0,0,0,0,0c-0.1,0-0.1-0.1-0.1-0.1c0,0,0,0,0,0
			c0,0,0-0.1-0.1-0.1c0,0,0,0-0.1-0.1c0,0,0,0,0,0c0,0-0.1-0.1-0.1-0.1c0,0,0,0,0,0c0,0,0-0.1-0.1-0.1c0,0,0-0.1,0-0.1c0,0,0,0,0,0
			c0,0,0-0.1,0-0.1c0,0,0-0.1,0-0.1c0,0,0,0,0,0c0,0,0-0.1,0-0.1c0,0,0-0.1,0-0.1v0l-0.1-20.7C67.5,171.1,67.5,171.2,67.5,171.2z"/>
		<path class="st3" d="M132.2,172.7c0.8-0.4,1.1-1,1.1-1.6l0.1,20.7c0,0.6-0.4,1.2-1.1,1.6l-29.1,16.8l-0.1-20.7L132.2,172.7z"/>
		<g>
			<path class="st2" d="M132.2,171c1.5-0.9,1.5-2.3,0-3.2L103.3,151c-1.5-0.9-4-0.9-5.5,0l-29.1,16.8c-1.5,0.9-1.5,2.3,0,3.2
				l28.9,16.8c1.5,0.9,4,0.9,5.5,0L132.2,171z"/>
		</g>
		<linearGradient id="SVGID_8_" gradientUnits="userSpaceOnUse" x1="97.2741" y1="200.0634" x2="103.5404" y2="200.0634">
			<stop  offset="0" style="stop-color:#FFFFFF"/>
			<stop  offset="1" style="stop-color:#80CAE3"/>
		</linearGradient>
		<path class="st16" d="M98,210.4c-0.1-0.1-0.6-0.3-0.7-0.4v-20.7c0.1,0.1,0.5,0.3,0.7,0.3c0,0,0.1,0,0.1,0.1c0.1,0,0.2,0.1,0.3,0.1
			c0,0,0.1,0,0.1,0c0.1,0,0.1,0,0.2,0.1c0.1,0,0.1,0,0.2,0c0.1,0,0.1,0,0.2,0.1c0,0,0.1,0,0.1,0c0.1,0,0.3,0,0.4,0.1
			c0.1,0,0.1,0,0.1,0c0.1,0,0.2,0,0.3,0c0.1,0,0.1,0,0.2,0c0.1,0,0.1,0,0.2,0c0.1,0,0.1,0,0.2,0c0.1,0,0.1,0,0.2,0
			c0.1,0,0.1,0,0.2,0c0.1,0,0.1,0,0.2,0c0.1,0,0.1,0,0.2,0c0.1,0,0.1,0,0.2,0c0,0,0.1,0,0.2,0c0.1,0,0.2,0,0.2-0.1
			c0.1,0,0.1,0,0.1,0c0.1,0,0.3-0.1,0.4-0.1c0.1,0,0.1-0.1,0.2-0.1c0,0,0.1,0,0.1,0c0.1,0,0.6-0.4,0.7-0.4V210
			c-0.1,0.1-0.6,0.3-0.7,0.4c0,0-0.1,0-0.1,0c-0.1,0-0.1,0.1-0.2,0.1c0,0,0,0,0,0c-0.1,0-0.3,0.1-0.4,0.1c0,0,0,0,0,0
			c0,0-0.1,0-0.1,0c-0.1,0-0.2,0-0.2,0.1c0,0,0,0-0.1,0c0,0-0.1,0-0.1,0c-0.1,0-0.1,0-0.2,0c0,0-0.1,0-0.1,0c0,0-0.1,0-0.1,0
			c-0.1,0-0.1,0-0.2,0c0,0-0.1,0-0.1,0c0,0-0.1,0-0.1,0c-0.1,0-0.1,0-0.2,0c0,0-0.1,0-0.1,0c0,0-0.1,0-0.1,0c-0.1,0-0.1,0-0.2,0
			c0,0-0.1,0-0.1,0c0,0,0,0-0.1,0c-0.1,0-0.2,0-0.3,0c0,0-0.1,0-0.1,0c0,0,0,0,0,0c-0.2,0-0.3,0-0.4-0.1c0,0,0,0,0,0
			c0,0-0.1,0-0.1,0c-0.1,0-0.1,0-0.2,0c-0.1,0-0.1,0-0.2,0c-0.1,0-0.1,0-0.2-0.1c0,0,0,0,0,0c0,0,0,0-0.1,0c-0.1,0-0.2-0.1-0.3-0.1
			C98.1,210.4,98,210.4,98,210.4z"/>
		<g>
			<g class="st5">
				<g>
					<path class="st2" d="M110.6,190.2l1.5-0.8c0.5-0.3,0.8,0,0.8,0.5c0,0.5-0.4,1.2-0.8,1.4l-1.5,0.8c-0.5,0.3-0.8,0.1-0.8-0.5
						C109.8,191.1,110.2,190.5,110.6,190.2L110.6,190.2z"/>
				</g>
			</g>
		</g>
		<g>
			<g class="st5">
				<g>
					<path class="st1" d="M110.6,194.8l1.5-0.8c0.5-0.3,0.8-0.1,0.8,0.5c0,0.5-0.4,1.2-0.8,1.4l-1.5,0.8c-0.5,0.3-0.8,0.1-0.8-0.5
						C109.8,195.7,110.2,195,110.6,194.8L110.6,194.8z"/>
				</g>
			</g>
		</g>
		<g>
			<g class="st5">
				<g>
					<path class="st2" d="M110.6,199.5l1.5-0.8c0.5-0.3,0.8-0.1,0.8,0.5c0,0.5-0.4,1.2-0.8,1.4l-1.5,0.8c-0.5,0.3-0.8,0.1-0.8-0.5
						C109.8,200.4,110.2,199.8,110.6,199.5L110.6,199.5z"/>
				</g>
			</g>
		</g>
		<g>
			<g class="st5">
				<g>
					<path class="st1" d="M106.4,192.4l1.5-0.8c0.5-0.3,0.8,0,0.8,0.5c0,0.5-0.4,1.2-0.8,1.4l-1.5,0.8c-0.5,0.3-0.8,0-0.8-0.5
						C105.6,193.3,106,192.7,106.4,192.4L106.4,192.4z"/>
				</g>
			</g>
		</g>
		<g>
			<g class="st5">
				<g>
					<path class="st2" d="M106.4,197l1.5-0.8c0.5-0.3,0.8-0.1,0.8,0.5c0,0.5-0.4,1.2-0.8,1.4l-1.5,0.8c-0.5,0.3-0.8,0.1-0.8-0.5
						C105.6,197.9,106,197.2,106.4,197L106.4,197z"/>
				</g>
			</g>
		</g>
		<g>
			<g class="st5">
				<g>
					<path class="st1" d="M106.4,201.7l1.5-0.8c0.5-0.3,0.8-0.1,0.8,0.5c0,0.5-0.4,1.2-0.8,1.4l-1.5,0.8c-0.5,0.3-0.8,0.1-0.8-0.5
						C105.6,202.6,106,202,106.4,201.7L106.4,201.7z"/>
				</g>
			</g>
		</g>
		<g>
			<g class="st5">
				<g>
					<path class="st1" d="M116,187.6l14.7-8.5c0.5-0.3,0.8-0.1,0.8,0.5c0,0.5-0.4,1.2-0.8,1.4l-14.7,8.5c-0.5,0.3-0.8,0.1-0.8-0.5
						C115.2,188.5,115.6,187.9,116,187.6L116,187.6z"/>
				</g>
			</g>
		</g>
		<g>
			<g class="st5">
				<g>
					<path class="st1" d="M116,192l14.7-8.5c0.5-0.3,0.8,0,0.8,0.5c0,0.5-0.4,1.2-0.8,1.4l-14.7,8.5c-0.5,0.3-0.8,0-0.8-0.5
						C115.2,192.9,115.6,192.3,116,192L116,192z"/>
				</g>
			</g>
		</g>
		<g>
			<g class="st5">
				<g>
					<path class="st1" d="M116,196.4l14.7-8.5c0.5-0.3,0.8-0.1,0.8,0.5c0,0.5-0.4,1.2-0.8,1.4l-14.7,8.5c-0.5,0.3-0.8,0.1-0.8-0.5
						C115.2,197.3,115.6,196.6,116,196.4L116,196.4z"/>
				</g>
			</g>
		</g>
		<polygon class="st1" points="74,192.6 92.4,203.3 92.4,190.9 74,180.1 		"/>
		<g>
			<g>
				<path class="st3" d="M99.1,177.7L87,170.7c-0.4-0.2-0.6-0.5-0.6-0.9c0-0.3,0.2-0.7,0.6-0.9l12.2-7.1c0.7-0.4,1.9-0.4,2.6,0
					l12.1,7.1c0.4,0.2,0.6,0.5,0.6,0.9c0,0.3-0.2,0.7-0.6,0.9l-12.2,7.1c-0.3,0.2-0.8,0.3-1.3,0.3C99.9,178.1,99.4,178,99.1,177.7z
					 M99.4,162.3l-12.2,7.1c-0.2,0.1-0.4,0.3-0.4,0.5c0,0.2,0.1,0.3,0.4,0.5l12.1,7.1c0.5,0.3,1.5,0.3,2.1,0l12.2-7.1
					c0.2-0.1,0.4-0.3,0.4-0.5c0-0.2-0.1-0.3-0.4-0.5l-12.1-7.1c-0.3-0.2-0.6-0.2-1-0.2C100.1,162,99.7,162.1,99.4,162.3z"/>
			</g>
		</g>
		<g>
			<path class="st6" d="M107.3,170.2c0.3-0.2,0.3-0.5,0-0.7l-6.3-3.6c-0.3-0.2-0.9-0.2-1.2,0l-6.3,3.6c-0.3,0.2-0.3,0.5,0,0.7
				l6.3,3.6c0.3,0.2,0.9,0.2,1.2,0L107.3,170.2z"/>
		</g>
	</g>
	<g>
		<path class="st2" d="M201.1,136.2c-0.1-0.5-0.6-0.8-1.1-0.8c-1.6,0-3-0.9-3.6-2.3c-0.6-1.4-0.3-3.1,0.9-4.2
			c0.4-0.3,0.4-0.9,0.1-1.3c-0.8-1-1.7-1.9-2.7-2.7c-0.4-0.3-1-0.3-1.3,0.1c-1,1.1-2.8,1.6-4.2,1c-1.5-0.6-2.4-2.1-2.4-3.7
			c0-0.5-0.4-0.9-0.9-1c-1.3-0.1-2.6-0.1-3.8,0.1c-0.5,0.1-0.8,0.5-0.8,1c0.1,1.6-0.8,3-2.3,3.7c-1.4,0.6-3.2,0.2-4.2-0.9
			c-0.3-0.4-0.9-0.4-1.3-0.1c-1,0.8-1.9,1.8-2.7,2.8c-0.3,0.4-0.3,1,0.1,1.3c1.2,1.1,1.6,2.8,1,4.2c-0.6,1.4-2,2.3-3.7,2.4
			c-0.5,0-0.9,0.4-1,0.9c-0.1,1.3-0.1,2.6,0.1,3.9c0.1,0.5,0.6,0.8,1.1,0.8c1.5-0.1,2.9,0.8,3.5,2.3c0.6,1.4,0.3,3.1-0.9,4.2
			c-0.4,0.3-0.4,0.9-0.1,1.3c0.8,1,1.7,1.9,2.7,2.7c0.4,0.3,1,0.3,1.3-0.1c1-1.1,2.8-1.6,4.2-1c1.5,0.6,2.4,2.1,2.4,3.7
			c0,0.5,0.4,0.9,0.9,1c0.7,0.1,1.3,0.1,2,0.1c0.6,0,1.2-0.1,1.9-0.1c0.5-0.1,0.8-0.5,0.8-1c-0.1-1.6,0.8-3,2.3-3.7
			c1.4-0.6,3.2-0.2,4.2,0.9c0.3,0.4,0.9,0.4,1.3,0.1c1-0.8,1.9-1.7,2.7-2.8c0.3-0.4,0.3-1-0.1-1.3c-1.2-1.1-1.6-2.7-1-4.2
			c0.6-1.4,1.9-2.3,3.4-2.4l0.2,0c0.5,0,0.9-0.4,1-0.9C201.3,138.8,201.3,137.5,201.1,136.2z M184.4,148.2c-5.4,0.1-9.9-4.2-10-9.6
			c-0.1-5.4,4.2-9.9,9.6-10c5.4-0.1,9.9,4.2,10,9.6C194.1,143.7,189.8,148.1,184.4,148.2z"/>
		<path class="st6" d="M224.9,129.7c0-0.4-0.5-0.6-0.8-0.6c-1.2,0-2.2-0.6-2.7-1.7c-0.5-1.1-0.2-2.4,0.7-3.2c0.3-0.3,0.3-0.7,0.1-1
			c-0.6-0.8-1.3-1.4-2.1-2c-0.3-0.2-0.7-0.2-1,0.1c-0.7,0.9-2.1,1.2-3.2,0.8c-1.1-0.4-1.8-1.5-1.8-2.8c0-0.4-0.3-0.7-0.6-0.7
			c-1-0.1-1.9-0.1-2.9,0c-0.4,0-0.6,0.4-0.6,0.7c0.1,1.2-0.6,2.3-1.7,2.8c-1,0.4-2.4,0.2-3.2-0.7c-0.3-0.3-0.7-0.3-1-0.1
			c-0.8,0.6-1.4,1.3-2,2.1c-0.2,0.3-0.2,0.7,0.1,1c0.9,0.8,1.2,2.1,0.8,3.2c-0.4,1.1-1.5,1.8-2.8,1.8c-0.4,0-0.7,0.3-0.7,0.6
			c-0.1,1-0.1,1.9,0,2.9c0,0.4,0.5,0.6,0.9,0.6c1.1,0,2.2,0.6,2.7,1.7c0.5,1.1,0.2,2.4-0.7,3.2c-0.3,0.3-0.3,0.7-0.1,1
			c0.6,0.7,1.3,1.4,2.1,2c0.3,0.2,0.7,0.2,1-0.1c0.8-0.9,2.1-1.2,3.2-0.8c1.1,0.4,1.8,1.5,1.8,2.7c0,0.4,0.3,0.7,0.6,0.7
			c0.5,0,1,0.1,1.5,0.1c0.5,0,0.9,0,1.4-0.1c0.4,0,0.6-0.4,0.6-0.7c-0.1-1.2,0.6-2.3,1.7-2.8c1-0.4,2.4-0.2,3.2,0.7
			c0.3,0.3,0.7,0.3,1,0.1c0.8-0.6,1.4-1.3,2-2.1c0.2-0.3,0.2-0.7-0.1-1c-0.9-0.8-1.2-2.1-0.8-3.2c0.4-1,1.5-1.8,2.6-1.8l0.2,0
			c0.4,0,0.7-0.3,0.7-0.6C225,131.7,225,130.7,224.9,129.7z M212.3,138.8c-4.1,0.1-7.4-3.2-7.5-7.3c-0.1-4.1,3.2-7.4,7.3-7.5
			c4.1-0.1,7.4,3.2,7.5,7.3C219.6,135.3,216.4,138.7,212.3,138.8z"/>
	</g>
	<g>
		<g>
			<path class="st14" d="M537.3,80.9H396.4c-9,0-16.4,7.3-16.4,16.4v57.4c0,9,7.3,16.4,16.4,16.4h11.7v14.8c0,1.1,0.6,2,1.5,2.6
				c0.5,0.3,1,0.4,1.5,0.4c0.5,0,1-0.1,1.5-0.4l30.1-17.4h94.5c9,0,16.4-7.4,16.4-16.4V97.3C553.6,88.2,546.3,80.9,537.3,80.9z
				 M551.6,154.7c0,7.9-6.4,14.4-14.4,14.4h-95.1l-30.6,17.7c-0.4,0.3-0.8,0.1-1,0c-0.1-0.1-0.5-0.3-0.5-0.9v-16.8h-13.7
				c-7.9,0-14.4-6.5-14.4-14.4V97.3c0-7.9,6.5-14.4,14.4-14.4h140.9c7.9,0,14.4,6.4,14.4,14.4V154.7z"/>
			<linearGradient id="SVGID_9_" gradientUnits="userSpaceOnUse" x1="381.9717" y1="134.8741" x2="551.6317" y2="134.8741">
				<stop  offset="0" style="stop-color:#005675"/>
				<stop  offset="1" style="stop-color:#007099"/>
			</linearGradient>
			<path class="st17" d="M551.6,97.3v57.4c0,7.9-6.4,14.4-14.4,14.4h-95.1l-30.6,17.7c-0.4,0.3-0.8,0.1-1,0
				c-0.1-0.1-0.5-0.3-0.5-0.9v-16.8h-13.7c-7.9,0-14.4-6.5-14.4-14.4V97.3c0-7.9,6.5-14.4,14.4-14.4h140.9
				C545.2,82.9,551.6,89.3,551.6,97.3z"/>
		</g>
		<g>
			<path class="st2" d="M448.6,109.6h-46.4c-1.1,0-2-0.9-2-2s0.9-2,2-2h46.4c1.1,0,2,0.9,2,2S449.7,109.6,448.6,109.6z"/>
		</g>
		<g>
			<path class="st2" d="M534.6,128H402.2c-1.1,0-2-0.9-2-2s0.9-2,2-2h132.4c1.1,0,2,0.9,2,2S535.7,128,534.6,128z"/>
		</g>
		<g>
			<path class="st2" d="M534.6,146.3H402.2c-1.1,0-2-0.9-2-2s0.9-2,2-2h132.4c1.1,0,2,0.9,2,2S535.7,146.3,534.6,146.3z"/>
		</g>
	</g>
	<g>
		<g>
			<path class="st2" d="M568.4,75.2c-0.5,0-1.1-0.2-1.4-0.7c-0.6-0.8-0.5-1.9,0.3-2.5l12.7-9.8c0.8-0.6,1.9-0.5,2.5,0.3
				c0.6,0.8,0.5,1.9-0.3,2.5l-12.7,9.8C569.1,75.1,568.8,75.2,568.4,75.2z"/>
		</g>
		<g>
			<path class="st2" d="M552.3,69.3c-0.9,0-1.7-0.7-1.8-1.6l-2.1-15.9c-0.1-1,0.6-1.9,1.6-2c1-0.1,1.9,0.6,2,1.5l2.1,15.9
				c0.1,1-0.6,1.9-1.6,2C552.5,69.3,552.4,69.3,552.3,69.3z"/>
		</g>
		<g>
			<path class="st2" d="M585.1,95.9c-0.2,0-0.5,0-0.7-0.1l-14.2-5.9c-0.9-0.4-1.4-1.4-1-2.4c0.4-0.9,1.4-1.4,2.4-1l14.2,5.9
				c0.9,0.4,1.4,1.4,1,2.4C586.5,95.5,585.8,95.9,585.1,95.9z"/>
		</g>
	</g>
</g>
<g id="Solution_Blueprints">
</g>
<g id="start">
</g>
</svg>
