<svg xmlns="http://www.w3.org/2000/svg" width="162" height="162" viewBox="0 0 162 162" fill="none">
  <path d="M57.2392 20.9631C56.5512 13.9053 61.4103 8.19532 67.6173 5.55033C71.2415 4.00598 75.1419 3.47472 79.062 3.82888C84.6461 4.29744 89.8084 6.98795 93.3909 11.2969C95.1939 11.4407 96.9693 11.2558 98.7944 11.5779C100.657 11.9066 102.336 12.6299 104.245 12.4843C104.931 12.4319 105.898 12.4699 106.567 12.575C108.079 12.8049 109.546 13.2671 110.917 13.9454C113.445 15.2017 117.192 18.3705 118.857 20.6627C123.053 19.2511 128.301 20.2971 131.746 23.0162C133.358 24.2884 135.191 25.6014 136.498 27.1789C137.402 28.2702 138.126 29.4987 138.642 30.8183C139.698 33.518 140.006 37.3756 138.818 40.064C142.456 40.385 145.719 41.8567 148.07 44.7213C150.256 47.4003 151.336 51.2604 149.623 54.4633C147.035 59.3007 142.395 61.2837 137.589 63.1165C135.369 63.9646 133.128 64.7588 130.87 65.4983C130.225 65.4796 129.828 65.3235 129.154 65.2835C131.531 64.5074 133.893 63.6841 136.237 62.8138C141.051 61.0257 146.424 58.9852 148.913 54.2045C152.413 47.478 144.302 42.4561 138.376 43.3793C137.672 43.4888 136.331 44.695 135.827 44.3928C136.044 43.7419 137.13 42.1297 137.539 41.2534C139.153 37.796 139.201 33.4867 137.472 30.0553C135.865 26.8899 133.058 24.4995 129.678 23.4176C125.543 22.0966 120.988 23.1132 117.606 25.6769C116.941 26.1805 115.063 28.3087 114.543 28.4301C114.232 27.6098 114.186 25.9373 113.941 24.9234C110.274 9.7684 86.1066 11.5294 80.487 24.1416C79.5896 26.1107 79.2463 28.2872 79.4937 30.4368C79.5398 30.8077 79.7048 31.381 79.3731 31.5565C78.4044 31.3134 77.3916 30.9966 76.3999 30.8931C70.2906 30.2552 64.7833 37.4374 67.8706 43.0439C68.2409 43.7164 69.9481 44.9809 69.9372 45.5933C68.6477 45.8245 67.0821 45.5572 65.4809 45.8285C53.3148 47.8904 40.561 68.1694 57.0054 74.5927C56.6472 75.0383 56.6064 74.8096 55.9995 75.0624C53.0211 73.9027 51.9253 73.2336 49.428 71.2149C48.4829 71.3104 47.4281 71.5163 46.491 71.5409C46.2126 71.2878 46.368 71.3544 46.0266 71.2978C45.8194 71.5532 45.8188 71.6264 45.7238 71.9522L45.6012 71.9279L45.5854 71.8645C45.2639 70.3009 44.3413 65.6369 43.2953 64.3678C42.9173 63.9091 39.939 63.8459 39.1895 63.8186C32.7825 63.5865 25.0418 63.4462 18.6949 64.2163C18.7732 64.7789 19.2477 66.1054 19.4486 66.7375C19.7883 67.8213 20.0887 68.9172 20.3495 70.0227C21.6057 69.4803 22.3944 69.4724 23.5897 70.2163C22.6343 70.6789 21.9641 69.5688 21.33 70.4469C15.7213 72.5533 17.014 80.5808 17.4215 85.2784C17.7436 88.9905 18.0395 92.5753 19.2321 96.1327C20.979 101.344 25.9422 100.118 30.3161 99.8128C29.7156 98.653 28.3003 96.308 27.8547 95.3109C28.0185 95.1347 28.0409 95.106 28.2352 94.9679C28.3861 95.1189 28.4522 95.1255 28.6577 95.1772C30.1032 97.8143 31.5395 100.353 32.7077 103.137C32.9132 103.627 33.3208 104.758 33.5764 105.108L33.6779 105.133C33.8667 104.648 33.8021 103.857 33.8736 103.312C34.039 102.05 34.2623 101.269 33.8603 100.023C33.8896 99.9518 34.3938 99.5418 34.5278 99.4226C34.8106 99.2971 34.987 98.709 35.1031 98.4096C36.0176 96.0512 38.5863 93.4752 41.3108 93.7553C42.751 93.9033 43.6689 94.9673 44.5159 96.0916C46.0305 95.893 47.4376 95.629 48.9767 95.4743C49.5109 95.4972 49.9267 95.3751 50.0894 95.9374C48.69 96.1003 45.9897 96.5068 44.7351 96.5111C45.2129 97.3987 45.7071 98.2993 45.9232 99.2923L45.9072 99.7733C46.0068 99.829 46.0107 99.8478 46.1157 99.8638C46.4362 100.202 46.5546 100.673 46.8849 101.152C47.2027 101.279 48.2428 100.995 48.6109 100.9C53.7615 99.5733 59.0075 98.6611 64.2437 97.7477C65.0612 97.6051 65.98 97.4165 66.8059 97.3907C67.016 97.3089 67.5914 97.364 67.9643 97.3196L68.0247 97.1486C70.9599 96.5779 72.3015 95.8295 74.3004 98.4854C75.7623 98.5929 77.3545 98.5563 78.8337 98.5407C89.4377 98.4288 100.062 99.0193 110.613 100.056C111.666 100.159 112.99 100.213 114.004 100.46C113.972 102.01 114.001 103.599 113.953 105.137C118.408 105.988 121.889 106.464 126.378 107.018C126.128 108.207 125.116 110.647 124.657 111.879C124.102 113.36 123.634 115.265 123.095 116.628C123.034 116.518 123.06 116.578 123.016 116.419L122.982 116.29C122.842 116.186 122.8 116.13 122.71 115.981L122.779 116.169L122.66 116.147L122.595 115.622C122.815 114.964 123.091 114.051 123.359 113.432L94.341 108.733L87.2945 107.595C86.2688 107.434 83.9228 107.136 83.0774 106.824C82.9203 107.631 82.8239 108.213 82.7314 109.036C84.1277 108.653 85.6925 108.354 87.0148 109.158C89.8054 110.854 90.2737 114.799 91.0305 117.702C91.1135 118.02 91.2398 118.477 91.2825 118.779L91.338 119.254C91.0925 119.372 91.0408 119.293 90.6962 119.216C89.802 116.55 89.1954 110.961 86.5396 109.758C83.076 108.188 78.7118 112.286 77.5231 115.297C76.6084 117.615 76.0001 119.374 75.6368 121.837C75.1166 124.881 75.0503 127.834 74.9 130.939C74.5853 137.68 73.6647 144.891 75.7198 151.44C76.3602 153.48 77.8328 154.991 79.7839 155.792C85.0402 157.95 91.5198 157.617 97.0957 157.477C102.872 157.333 109.862 157.329 115.357 155.613C115.843 155.663 116.044 155.642 116.333 156.072C110.594 158.143 102.595 158.114 96.5068 158.238C90.8048 158.355 82.671 158.92 77.7824 155.515C76.4342 154.558 75.2877 153.344 74.4085 151.944C71.6161 147.484 68.4018 135.622 67.4606 130.247C61.3128 131.805 47.9176 134.93 41.7832 133.85C39.1976 133.394 37.1828 132.045 35.6987 129.882C32.3614 125.019 27.8446 111.24 28.9596 105.375C29.2594 103.798 30.0655 102.824 31.3632 101.929L30.6418 100.498C21.6808 102.114 18.2028 101.03 15.1055 92.0305C13.6571 87.8222 12.2977 83.6028 12.5226 79.055C12.5932 77.628 13.3356 76.8654 14.3679 76.0189C13.5019 74.3097 12.5658 72.6204 11.681 70.9225C11.5384 70.6487 11.5106 70.4988 11.6281 70.2337C12.2308 69.8809 13.7369 69.6238 14.4873 69.4633C14.2106 68.8221 13.0846 66.9294 13.4499 66.4317C14.2888 66.029 17.3008 65.6174 18.296 65.5935C18.0827 65.0686 17.7464 64.2525 17.7252 63.7136L17.865 63.5768C18.5696 63.3611 20.2623 63.2984 21.068 63.2426C24.1787 63.0273 27.3149 62.8449 30.4331 62.9287C28.5167 61.0716 27.3211 57.8947 27.2406 55.2538C26.9609 46.067 34.8095 37.7973 43.3589 35.5328C44.4111 35.2542 45.6195 35.1866 46.7087 35.135C46.3663 34.7671 45.933 34.1564 45.688 33.718C44.6758 31.8764 44.4423 29.7063 45.0397 27.6915C46.354 23.1209 51.1816 19.5132 55.9901 20.6204C56.404 20.7158 56.8311 20.8434 57.2392 20.9631ZM69.3796 118.63C69.8496 118.65 69.9569 118.852 70.4044 119.047C72.158 125.416 73.0805 133.533 72.7085 140.149C72.6773 140.702 72.5625 140.951 72.9277 141.383C73.3056 141.462 73.1877 141.49 73.5134 141.375C73.98 140.354 73.9748 128.244 74.3691 126.132C75.431 120.442 74.71 113.574 73.6498 107.792C73.8466 107.593 73.8517 107.604 73.9562 107.329C73.7697 107.095 73.7872 107.166 73.4092 107.084C73.7532 106.385 72.3178 100.613 72.5842 99.1651C72.6441 98.8397 72.8515 98.594 73.0538 98.3436C72.98 97.8235 72.3608 97.568 71.9201 97.3262C70.3551 97.4285 67.4495 97.9895 65.7596 98.271C61.54 98.9433 57.3391 99.7287 53.1615 100.626C52.3444 100.806 46.8293 102.34 46.3944 101.783C44.9819 99.9397 44.0389 94.1807 40.8565 94.4805C35.5422 94.9811 34.0522 102.814 34.527 107.207C35.1283 112.772 35.4076 127.588 39.4294 131.311C43.7856 135.343 57.2184 131.549 62.649 130.696C64.2106 130.459 65.8291 129.777 67.2851 129.55C66.5937 125.953 64.3027 119.873 69.3796 118.63ZM59.8696 39.8814C60.3892 40.7014 60.8114 42.3616 61.0922 43.3378C62.3405 42.973 63.8568 42.7006 65.1566 42.733C64.6033 42.0128 64.1626 41.4358 63.8041 40.5932C61.2213 34.5195 67.3312 27.1595 73.7374 28.1088C74.4835 28.2193 75.0309 28.3483 75.7405 28.5954C75.2732 24.8826 76.4179 21.6344 78.6877 18.7096C81.9969 14.4457 87.1043 12.1583 92.3585 11.5138L92.4439 11.5034C89.0346 7.76668 83.8142 6.24768 78.865 6.52206C72.9115 7.14212 67.8776 8.65109 63.9154 13.4848C62.0597 15.7486 60.8916 18.7464 60.9711 21.6949C60.9841 22.0512 61.0545 23.7891 60.9891 24.0011C60.2812 23.9126 59.4782 23.5597 58.7477 23.4011C52.2152 21.9838 45.7914 30.0277 49.7139 35.847C50.0839 36.3959 51.4494 37.323 51.4687 37.9493C51.0845 38.2069 45.1881 37.7896 44.9213 38.9574C45.1728 39.0174 46.868 38.8978 47.3326 38.8942C49.9439 38.8587 52.5558 38.9091 55.1638 39.0455C56.5619 39.109 58.7681 39.0304 59.8696 39.8814ZM73.3333 99.2567C73.7864 105.404 75.4962 112.169 75.5683 118.051L75.6214 117.947C75.9978 117.201 76.239 116.401 76.5685 115.628C77.4532 113.555 78.6295 111.7 80.4664 110.347C80.9766 109.97 81.4417 109.743 81.9211 109.418C82.1629 107.611 82.3476 106.11 82.8089 104.104C83.6725 100.351 83.1498 100.581 87.2 101.04C89.2775 101.275 91.9469 101.531 94.0367 101.823C100.927 102.673 106.51 103.631 113.275 104.988C113.174 103.801 113.2 102.19 113.254 100.99C112.415 101.066 110.053 100.771 109.113 100.678C106.79 100.434 104.463 100.236 102.133 100.084C94.4338 99.5351 86.7175 99.2644 78.9991 99.2727C77.5168 99.3099 74.7841 99.3698 73.3333 99.2567ZM37.4251 62.9458C39.3379 63.0714 42.1347 63.0455 43.8254 63.7054L43.8932 63.7992C45.1829 65.5985 45.4577 68.6797 46.2689 70.725C46.3472 70.9227 48.5583 70.5231 48.8299 70.48C48.1974 69.7766 47.7551 69.2325 47.2803 68.4074C43.8787 62.274 46.5895 53.7245 51.5641 49.2417L51.5588 49.1201C50.936 49.0862 47.0418 49.8875 46.4451 50.1527C42.4239 51.9407 44.2504 45.5791 40.6444 45.4659C34.193 47.0808 37.4815 58.3989 37.4251 62.9458ZM91.534 102.285C90.433 102.167 84.998 101.674 84.3509 101.444C83.878 102.434 83.4541 104.938 83.1354 106.123C84.115 106.299 85.6406 106.59 86.6263 106.648C87.2309 106.04 87.704 105.57 88.3619 105.013C89.4047 104.087 90.4622 103.177 91.534 102.285ZM33.3888 62.8646C33.71 62.894 34.0975 62.9813 34.3557 62.8242C34.3931 62.2898 33.7784 60.8141 33.6494 60.1815C33.0765 57.3745 31.3124 52.3102 34.1969 50.3309C33.9928 49.8158 33.6826 48.7638 33.297 48.5368C31.016 52.5311 29.7323 56.9745 31.7311 61.4016C32.0783 62.1707 32.4409 62.894 33.3888 62.8646ZM102.269 109.204C104.19 107.728 106.097 106.234 107.99 104.724C105.827 104.345 103.47 103.886 101.313 103.576C99.5037 104.745 97.2954 107.015 95.4662 108.083C96.7678 108.38 100.955 109.123 102.269 109.204ZM35.7168 62.8901C36.0231 62.9044 36.4096 62.9719 36.6485 62.8138C36.7707 62.0401 35.9877 56.0304 35.8609 54.7565C35.802 54.1651 35.0101 51.9357 34.7077 51.2992C34.6589 51.1965 34.5136 51.1234 34.4045 51.0798C33.556 51.8949 33.4567 52.641 33.3936 53.7773C33.2923 55.6022 34.4477 61.3924 35.2617 62.7375C35.482 62.8664 35.4649 62.8678 35.7168 62.8901ZM18.2698 66.2438C17.1284 66.4798 15.2587 66.7944 14.0974 66.9061C15.119 68.7212 15.8364 70.8804 16.5627 72.8275L16.9477 74.0174C17.7553 72.2566 18.1628 71.5361 19.7148 70.3204C19.4888 69.6001 18.7547 66.5957 18.4267 66.2909L18.2698 66.2438ZM111.278 110.669C112.599 109.492 115.259 107.555 116.764 106.353C114.995 106.136 113.134 105.683 111.369 105.382C110.669 105.262 109.563 105.002 108.868 104.965C107.391 106.198 104.729 108.409 103.152 109.413C105.796 109.78 108.666 110.389 111.278 110.669ZM36.4065 47.9805L36.6115 48.0382C36.7759 47.9143 36.7947 47.8886 36.8838 47.7139C37.3783 46.7436 37.9449 46.066 38.7964 45.3999C38.6236 44.6006 38.2945 42.461 37.6647 42.0169L37.2121 42.0477C36.2426 42.2005 35.2759 42.3715 34.3128 42.5607C35.0907 44.3871 35.8043 46.0768 36.4065 47.9805ZM15.6734 77.1467C15.8091 77.5329 15.7973 77.7091 16.081 77.9328C16.4901 77.6043 16.5523 75.6699 16.443 75.1876C16.0727 73.552 15.4857 71.8764 14.839 70.3327C14.7803 70.195 14.6305 70.1933 14.5293 70.1771C13.7733 70.3929 13.1826 70.5383 12.4123 70.6948C13.6081 72.8046 14.7316 74.907 15.6734 77.1467ZM123.608 112.719C123.835 111.688 124.651 109.917 124.752 109.198L124.601 109.018C124.099 109.415 120.738 111.896 120.66 112.084C120.91 112.303 120.768 112.225 121.121 112.293L123.608 112.719ZM117.59 106.573C115.875 108.049 113.991 109.626 112.12 110.896C113.542 111.056 118.881 112.111 119.707 111.884C120.757 110.786 123.568 108.881 124.952 107.899C124.976 107.83 124.999 107.76 125.022 107.69C124.953 107.643 118.041 106.591 117.59 106.573ZM34.2028 45.3643L32.8162 45.839C33.9283 47.7888 34.6234 49.3416 35.5493 51.3475L35.7529 51.6348L35.9013 51.5683C36.3199 50.2522 35.4673 46.2918 34.6039 45.4123C34.4784 45.3941 34.3264 45.3649 34.2028 45.3643ZM19.4404 98.4841C18.6239 96.6637 18.0252 95.2074 17.6538 93.234C16.9054 89.2571 16.7683 85.2323 16.2459 81.2328C16.164 80.606 15.0632 77.149 14.5686 76.8217C13.7785 77.4283 13.2923 78.3632 13.2401 79.3173C12.9644 84.3614 15.8703 93.4959 18.5991 97.5516C18.8858 97.8941 19.113 98.1744 19.4404 98.4841ZM107.881 15.1773C110.247 17.0274 111.649 18.2084 113.215 20.9339C113.498 21.4249 113.889 22.668 114.333 22.7928C115.083 22.3796 116.057 21.7901 116.8 21.4568C117.238 21.2783 117.687 21.0883 118.13 20.9251C115.369 17.4119 112.708 15.7489 108.157 15.1907C108.054 15.1779 107.987 15.1757 107.881 15.1773ZM92.4316 102.47C91.4065 103.377 88.3414 106.207 87.3702 106.846C88.3626 106.984 94.2506 108.171 94.7651 107.802C94.841 107.748 94.8656 107.718 94.9397 107.649C96.1732 106.653 99.127 104.15 100.392 103.408C98.5788 103.156 94.0058 102.435 92.4316 102.47ZM45.9522 39.7316C43.9668 39.8442 39.8698 40.1941 38.0395 40.1084C38.488 41.3834 39.241 43.6384 39.4144 44.9652C42.9254 44.0445 43.7404 47.1212 44.7754 49.7327C46.8659 49.3041 49.1185 48.662 51.1832 48.3313C53.0698 47.8909 53.4576 47.4854 55.0258 46.3552C56.4486 45.3298 58.6656 44.0283 60.3679 43.6378C60.1479 42.8506 59.5535 40.2793 58.9743 40.1825C55.796 39.6515 48.917 39.5416 45.9522 39.7316Z" fill="#1393C2" fill-opacity="0.988235"/>
  <path d="M67.1145 111.173C66.8288 110.41 65.9547 108.648 66.1229 107.985C66.8235 107.588 72.3212 107.142 73.409 107.084C73.787 107.166 73.7695 107.095 73.956 107.329C73.8515 107.604 73.8464 107.593 73.6496 107.793C73.0449 107.784 72.4279 107.921 71.8223 107.966C70.2006 108.084 68.4198 108.398 66.8099 108.486C67.0794 108.973 67.534 110.019 67.6814 110.567L67.4045 110.848L67.1677 110.788L67.1145 111.173Z" fill="#1393C2" fill-opacity="0.964706"/>
  <path d="M67.1133 111.174L67.1664 110.788L67.4033 110.849L67.6802 110.567C68.4165 112.455 69.0662 114.374 69.6272 116.321C69.8787 117.167 70.1342 118.246 70.403 119.048C69.9555 118.853 69.8481 118.651 69.3781 118.631C69.5371 117.912 67.4896 112.193 67.1133 111.174Z" fill="#1393C2" fill-opacity="0.941176"/>
  <path d="M54.8298 91.878C55.2544 91.8707 55.9105 91.8375 56.2362 92.1247C55.6563 92.6827 46.5771 93.1289 44.9926 93.3339C44.4912 93.3485 43.8798 93.4189 43.4473 93.1998C43.9899 92.625 53.4023 91.9854 54.8298 91.878Z" fill="#1393C2" fill-opacity="0.968627"/>
  <path d="M45.5848 71.8646L45.6006 71.928L45.7232 71.9523C45.8182 71.6265 45.8188 71.5533 46.026 71.2979C46.3674 71.3545 46.212 71.2879 46.4904 71.541L46.2626 71.7492C46.6588 72.4033 47.8605 73.0926 48.1392 74.124C49.1371 77.8177 49.7791 83.0056 49.5648 86.8103C52.1384 86.6285 55.436 86.222 58.0019 86.6036C59.1758 86.7782 60.7423 87.6578 61.8324 88.1587C63.4541 89.028 65.1087 89.6745 65.9064 91.4418C65.8973 91.9845 65.9215 92.1282 65.4599 92.4436C65.3249 92.063 65.1761 91.5986 65.01 91.2377C63.0307 91.5081 61.2471 92.0172 59.3459 92.5898C58.5675 92.8242 58.1367 91.9695 58.0279 91.2917C57.8153 89.9667 57.3317 88.475 57.1733 87.1401C51.1729 87.3103 44.8823 88.0173 38.9348 88.8024C36.2398 89.1581 33.3866 89.7495 30.7331 90.0247C31.3052 91.0396 31.9809 92.601 32.423 93.6997C31.9044 93.8542 31.8576 93.7633 31.395 93.5059C31.4291 92.493 29.6185 90.2659 30.0144 89.5614C30.8147 89.1883 33.3348 88.86 34.3478 88.7003C39.1529 87.9181 43.9845 87.3087 48.8332 86.8732C48.7929 82.9945 48.596 78.5973 47.5587 74.8086C47.2749 73.7719 46.6709 73.0099 45.6685 72.5888C39.2576 73.6286 33.6516 74.5838 27.3156 76.0983C26.9746 75.9385 26.9011 75.7411 26.7969 75.4248C28.403 75.127 30.1922 74.6203 31.8317 74.2711C34.8483 73.6386 37.8788 73.0744 40.9208 72.5789C42.2666 72.3498 44.3146 71.9422 45.5848 71.8646ZM58.8914 91.8491C60.3614 91.4149 61.8515 91.0523 63.3567 90.7627L64.5813 90.6065C63.1816 89.6658 59.4255 87.6205 57.8909 87.4244C58.2907 88.439 58.738 90.7219 58.8914 91.8491Z" fill="#1393C2" fill-opacity="0.968627"/>
  <path d="M122.043 117.734C122.22 117.028 122.404 116.325 122.594 115.622L122.659 116.147L122.778 116.169L122.709 115.982C122.799 116.13 122.841 116.186 122.981 116.29L123.016 116.419C123.059 116.578 123.033 116.518 123.095 116.629C123.002 117.088 122.89 117.469 122.76 117.917C124.764 119.566 125.343 120.924 125.515 123.578C125.942 130.138 125.289 136.787 124.359 143.274C123.898 146.487 123.74 150.255 121.684 152.852C120.995 153.722 119.147 155.127 118.086 155.392C117.377 155.359 117.314 155.39 116.627 155.183C117.744 154.877 119.451 153.904 120.318 153.178C122.906 151.014 123.112 146.761 123.548 143.575C123.958 140.744 124.293 137.902 124.556 135.053C124.78 132.453 126.197 120.182 122.195 118.567C121.747 118.386 118.5 118.536 117.691 118.538C110.99 118.533 104.291 118.745 97.6042 119.175C95.9758 119.288 94.377 119.477 92.7555 119.647C91.953 119.732 91.222 119.89 90.6953 119.216C91.0399 119.293 91.0916 119.372 91.337 119.254L91.2815 118.779C91.7553 119.09 93.7718 118.758 94.4584 118.692C96.0474 118.542 97.6383 118.414 99.2308 118.305C105.121 117.945 111.02 117.772 116.921 117.786C118.06 117.783 121.13 117.622 122.043 117.734Z" fill="#1393C2" fill-opacity="0.964706"/>
  <path d="M58.2321 75.0085C80.1442 80.4658 104.43 72.5455 125.55 66.4746C125.842 66.6631 125.91 66.6473 126.269 66.6856C126.33 66.767 126.418 66.875 126.465 66.9597C119.928 68.9994 113.334 70.8559 106.693 72.5272C93.1758 75.9842 80.1634 78.7652 66.0721 77.1888C63.4498 76.8955 60.2261 76.4174 57.7031 75.617C57.8139 75.3144 57.9386 75.3425 58.1401 75.114L58.2321 75.0085Z" fill="#1393C2" fill-opacity="0.956863"/>
  <path d="M45.9222 99.2931C47.0201 98.8366 56.3068 97.2834 57.0534 97.7173L57.0686 97.8781C56.0268 98.558 46.6096 99.022 46.1147 99.8646C46.0097 99.8486 46.0059 99.8298 45.9062 99.7741L45.9222 99.2931Z" fill="#1393C2" fill-opacity="0.972549"/>
  <path d="M21.3301 70.4473C21.9642 69.5692 22.6344 70.6793 23.5898 70.2167C25.1238 71.4498 25.6198 73.5317 26.4513 75.2186C26.5397 75.398 26.6326 75.3897 26.7976 75.4251C26.9018 75.7414 26.9753 75.9389 27.3163 76.0986C27.016 76.1903 26.879 76.2224 26.5696 76.2752C24.7142 75.7352 25.1064 70.084 21.3301 70.4473Z" fill="#1393C2" fill-opacity="0.921569"/>
  <path d="M27.4668 94.4731C28.5671 94.1645 30.2911 93.6557 31.394 93.5059C31.8565 93.7632 31.9034 93.8542 32.422 93.6997C32.7319 94.4551 33.0506 95.2032 33.3072 95.9785C33.0639 96.3169 33.0898 96.1797 32.6475 96.3723C32.3399 95.6479 32.0869 94.8516 31.8326 94.1029C31.1581 94.2737 29.2788 94.7106 28.7325 94.9449L28.6561 95.1772C28.4505 95.1256 28.3844 95.119 28.2336 94.9679C28.0393 95.106 28.0169 95.1348 27.8531 95.3109C27.7927 95.2384 27.5244 94.6037 27.4668 94.4731Z" fill="#1393C2" fill-opacity="0.968627"/>
  <path d="M48.9766 95.4747C50.0961 95.308 56.4201 94.4554 57.0955 94.9364L57.079 95.1137C55.9605 95.577 51.6387 95.5898 50.0893 95.9378C49.9266 95.3754 49.5108 95.4975 48.9766 95.4747Z" fill="#1393C2" fill-opacity="0.972549"/>
  <path d="M65.9055 91.4424C66.4652 93.0105 67.0479 95.3664 67.5211 97.0261C67.5795 97.0679 67.6378 97.1097 67.696 97.1516L68.0232 97.1492L67.9628 97.3202C67.5899 97.3646 67.0145 97.3095 66.8044 97.3913C66.8187 96.9867 65.6461 93.0861 65.459 92.4441C65.9206 92.1288 65.8964 91.9851 65.9055 91.4424Z" fill="#1393C2" fill-opacity="0.94902"/>
  <path d="M33.3082 95.9785C33.7168 97.0282 34.145 98.5394 34.5271 99.4226C34.3932 99.5419 33.889 99.9519 33.8596 100.023C33.4689 98.7632 33.1005 97.6096 32.6484 96.3724C33.0908 96.1797 33.0649 96.3169 33.3082 95.9785Z" fill="#1393C2" fill-opacity="0.94902"/>
  <path d="M125.551 66.4753C126.34 66.2219 127.126 65.9622 127.911 65.6963C128.415 65.7562 128.657 65.7456 129.042 66.0951C128.194 66.4155 127.335 66.7041 126.466 66.9604C126.418 66.8756 126.33 66.7677 126.27 66.6863C125.91 66.648 125.842 66.6638 125.551 66.4753Z" fill="#1393C2" fill-opacity="0.956863"/>
  <path d="M57.004 74.5928L58.2312 75.0084L58.1393 75.1139C57.9378 75.3424 57.8131 75.3144 57.7023 75.6169C57.0918 75.4788 56.5853 75.2785 55.998 75.0625C56.6049 74.8097 56.6457 75.0384 57.004 74.5928Z" fill="#1393C2" fill-opacity="0.94902"/>
  <path d="M129.153 65.2842C129.827 65.3242 130.225 65.4803 130.87 65.4989C130.435 65.6491 129.448 66.0193 129.041 66.095C128.656 65.7455 128.414 65.7561 127.91 65.6962L129.153 65.2842Z" fill="#1393C2" fill-opacity="0.956863"/>
  <path d="M115.355 155.613C115.769 155.499 116.218 155.327 116.626 155.184C117.314 155.39 117.376 155.359 118.085 155.392C117.428 155.684 117.014 155.861 116.332 156.073C116.043 155.642 115.841 155.664 115.355 155.613Z" fill="#1393C2" fill-opacity="0.94902"/>
  <g style="mix-blend-mode:multiply">
    <path d="M86.5397 51.0449C86.8202 50.9765 87.1118 50.9659 87.3979 51.0139C87.684 51.0618 87.9588 51.1673 88.2065 51.3243C88.4543 51.4812 88.6701 51.6865 88.8415 51.9283C89.0129 52.1702 89.1366 52.4438 89.2055 52.7335C89.4954 53.9405 88.769 55.1436 87.5938 55.4259C86.4186 55.7083 85.2247 54.9658 84.9349 53.7596C84.8647 53.4705 84.8505 53.1708 84.8932 52.8777C84.936 52.5846 85.0347 52.3039 85.1838 52.0516C85.3329 51.7994 85.5295 51.5806 85.7621 51.4078C85.9948 51.2351 86.2591 51.1117 86.5397 51.0449ZM87.4173 54.6979C88.1953 54.511 88.6335 53.6876 88.4466 52.9099C88.2525 52.1019 87.4816 51.5889 86.7147 51.7732C85.9477 51.9575 85.494 52.7647 85.6881 53.5726C85.8754 54.3523 86.6394 54.8848 87.4173 54.6979Z" fill="#1694C3"/>
    <path d="M89.3711 51.5678L90.0441 51.4061L90.133 51.7761L90.144 51.7735C90.224 51.5905 90.3453 51.4302 90.4979 51.3057C90.6505 51.1812 90.8302 51.0959 91.0222 51.057C92.0265 50.8157 92.7707 51.5816 92.958 52.3613C93.1822 53.2941 92.6983 54.219 91.8319 54.4272C91.3132 54.5518 91.0298 54.3913 90.7915 54.2498L91.1169 55.6039L90.3832 55.7802L89.3711 51.5678ZM91.5707 53.7523C91.9624 53.6581 92.3826 53.1961 92.2268 52.5477C92.0873 51.9673 91.5584 51.6611 91.106 51.7698C90.6535 51.8785 90.2927 52.3685 90.439 52.9773C90.6072 53.6773 91.2235 53.8369 91.571 53.7534L91.5707 53.7523Z" fill="#1694C3"/>
    <path d="M94.0558 52.4711C94.1383 52.6679 94.5316 53.0426 95.0557 52.9167C95.3812 52.8385 95.5899 52.6379 95.6649 52.343L96.437 52.1575C96.3971 52.7692 95.9394 53.4389 95.2222 53.6112C95.0094 53.6634 94.788 53.6715 94.571 53.635C94.3539 53.5985 94.1454 53.5182 93.9577 53.3988C93.7699 53.2793 93.6066 53.123 93.4771 52.939C93.3477 52.755 93.2547 52.5469 93.2036 52.3268C92.989 51.4336 93.4596 50.4536 94.4014 50.2273C95.3725 49.994 96.1926 50.7118 96.3835 51.5065C96.4133 51.6352 96.4293 51.7666 96.4313 51.8984L94.0558 52.4711ZM95.5814 51.4607C95.3771 50.9759 94.9388 50.8327 94.5756 50.9199C94.3053 50.9849 93.8843 51.2484 93.8872 51.8677L95.5814 51.4607Z" fill="#1694C3"/>
    <path d="M96.4023 49.8795L97.0811 49.7164L97.1467 49.9894C97.2395 49.8411 97.4305 49.5183 97.8939 49.407C98.1587 49.3434 98.59 49.3658 98.9204 49.6236C99.2851 49.903 99.4122 50.4322 99.471 50.677L99.8811 52.3838L99.1474 52.56L98.7728 51.0011C98.7099 50.7393 98.5295 49.9884 97.9114 50.1369C97.779 50.1687 97.5584 50.2939 97.4765 50.5362C97.3906 50.7615 97.4699 51.0915 97.5344 51.3601L97.895 52.8609L97.161 53.0373L96.4023 49.8795Z" fill="#1694C3"/>
    <path d="M99.4844 48.0252L100.345 47.8184L102.769 50.4737L102.78 50.471L102.045 47.4101L102.8 47.2285L103.812 51.4387L102.968 51.6415L100.527 48.9902L100.517 48.9928L101.252 52.0537L100.496 52.2354L99.4844 48.0252Z" fill="#1694C3"/>
    <path d="M104.755 49.8999C104.837 50.0968 105.23 50.4714 105.754 50.3455C106.08 50.2673 106.289 50.0667 106.364 49.7718L107.136 49.5862C107.096 50.1979 106.639 50.8676 105.921 51.0399C105.708 51.0921 105.487 51.1002 105.27 51.0637C105.053 51.0273 104.845 50.9469 104.657 50.8275C104.469 50.708 104.306 50.5517 104.176 50.3677C104.047 50.1837 103.954 49.9756 103.903 49.7555C103.688 48.8623 104.159 47.8823 105.101 47.656C106.072 47.4227 106.892 48.1405 107.083 48.9352C107.112 49.0639 107.128 49.1953 107.13 49.3272L104.755 49.8999ZM106.28 48.8895C106.075 48.4028 105.639 48.2612 105.275 48.3487C105.004 48.4136 104.583 48.6771 104.586 49.2964L106.28 48.8895Z" fill="#1694C3"/>
    <path d="M106.834 46.2593L107.568 46.083L107.889 47.4197C108.084 47.104 108.393 46.8809 108.749 46.7981C109.682 46.5741 110.49 47.2645 110.691 48.1011C110.842 48.7325 110.696 49.8951 109.575 50.1643C108.985 50.3062 108.66 50.0954 108.427 49.9287L108.519 50.3096L107.846 50.4713L106.834 46.2593ZM109.314 49.4906C109.794 49.3753 110.106 48.8975 109.958 48.2831C109.81 47.6687 109.291 47.402 108.828 47.5133C108.265 47.6486 108.035 48.2224 108.146 48.6822C108.314 49.3834 108.884 49.594 109.314 49.4906Z" fill="#1694C3"/>
    <path d="M113.388 45.7979L114.146 48.9557L113.473 49.1174L113.397 48.8005L113.386 48.8032C113.306 49.0029 113.167 49.301 112.699 49.4137C112.141 49.5476 111.758 49.3388 111.552 49.1594C111.245 48.878 111.122 48.3662 111.059 48.1044L110.662 46.4526L111.396 46.2763L111.783 47.8866C111.845 48.1427 112.013 48.8423 112.653 48.6885C113.116 48.5772 113.163 48.0909 113.042 47.59L112.654 45.9742L113.388 45.7979Z" fill="#1694C3"/>
    <path d="M113.68 44.6148L114.414 44.4385L115.425 48.6487L114.691 48.825L113.68 44.6148Z" fill="#1694C3"/>
    <path d="M119.042 47.7789L118.369 47.9407L118.275 47.5484C118.111 47.8888 117.71 48.208 117.323 48.3008C116.534 48.4903 115.678 48.0099 115.425 46.9572C115.192 45.9901 115.708 45.1261 116.558 44.922C117.18 44.7726 117.662 45.1438 117.695 45.1842L117.706 45.1816L117.61 44.7829L118.283 44.6211L119.042 47.7789ZM116.835 45.5891C116.234 45.7335 116.053 46.3426 116.167 46.8149C116.295 47.3497 116.787 47.6949 117.311 47.5689C117.818 47.447 118.106 46.9445 117.966 46.3588C117.809 45.7054 117.272 45.4841 116.836 45.5888L116.835 45.5891Z" fill="#1694C3"/>
  </g>
  <path d="M81.5781 57.382L84.3366 56.7193C84.3527 56.7153 84.3667 56.7052 84.3759 56.6911C84.3811 56.6833 84.3847 56.6745 84.3863 56.6651C84.3879 56.6558 84.3876 56.6462 84.3853 56.6369L83.7501 53.9932C82.8915 55.32 81.5999 56.2856 80.1035 56.7193C80.2489 56.9777 80.4711 57.1819 80.7369 57.3013C81.0027 57.4208 81.2978 57.4491 81.5781 57.382Z" fill="#1694C3"/>
  <path d="M83.0534 51.3709L83.0486 51.372C82.7628 51.4601 82.5154 51.6446 82.346 51.8961C82.1767 52.1476 82.0953 52.4515 82.1148 52.759C82.1158 52.7749 82.1112 52.7907 82.102 52.8034C82.0927 52.8161 82.0794 52.825 82.0642 52.8286C82.0532 52.8306 82.0418 52.8297 82.0311 52.8258L82.0268 52.824C81.7652 52.7301 81.4828 52.7214 81.2185 52.7993C80.9542 52.8771 80.7211 53.0377 80.5513 53.2587C80.3814 53.4798 80.2832 53.7505 80.2702 54.0336C80.2571 54.3167 80.3299 54.5982 80.4784 54.8393C80.4823 54.8457 80.4851 54.8527 80.4868 54.8601C80.4901 54.8735 80.4894 54.8875 80.4847 54.9004C80.4801 54.9132 80.4718 54.9243 80.4608 54.9321C80.1984 55.1293 80.017 55.4197 79.9511 55.7482C79.8852 56.0766 79.9395 56.4202 80.1035 56.7136C81.1607 56.3804 82.0552 55.6552 82.6145 54.6776C83.1738 53.7001 83.3585 52.5393 83.133 51.4188C83.1281 51.4019 83.1171 51.3875 83.1023 51.3786C83.0875 51.3697 83.0699 51.3669 83.0534 51.3709Z" fill="#1694C3"/>
</svg>