<?xml version="1.0" encoding="UTF-8" standalone="no"?>
<svg
   viewBox="0 0 160.37367 23.182242"
   version="1.1"
   id="svg47"
   sodipodi:docname="3.logo.svg"
   width="160.37367"
   height="23.18224"
   inkscape:version="1.1.2 (0a00cf5339, 2022-02-04)"
   xmlns:inkscape="http://www.inkscape.org/namespaces/inkscape"
   xmlns:sodipodi="http://sodipodi.sourceforge.net/DTD/sodipodi-0.dtd"
   xmlns="http://www.w3.org/2000/svg"
   xmlns:svg="http://www.w3.org/2000/svg"
   xmlns:rdf="http://www.w3.org/1999/02/22-rdf-syntax-ns#"
   xmlns:cc="http://creativecommons.org/ns#"
   xmlns:dc="http://purl.org/dc/elements/1.1/">
  <sodipodi:namedview
     id="namedview49"
     pagecolor="#ffffff"
     bordercolor="#666666"
     borderopacity="1.0"
     inkscape:pageshadow="2"
     inkscape:pageopacity="0.0"
     inkscape:pagecheckerboard="0"
     showgrid="false"
     fit-margin-top="0"
     fit-margin-left="0"
     fit-margin-right="0"
     fit-margin-bottom="0"
     inkscape:zoom="4.7703704"
     inkscape:cx="100.20186"
     inkscape:cy="18.761646"
     inkscape:window-width="2467"
     inkscape:window-height="1396"
     inkscape:window-x="0"
     inkscape:window-y="72"
     inkscape:window-maximized="0"
     inkscape:current-layer="svg47" />
  <defs
     id="defs4">
    <style
       id="style2">.cls-1{isolation:isolate;}.cls-2{mix-blend-mode:multiply;}.cls-3{fill:#fff;}</style>
  </defs>
  <title
     id="title6">AAFF_01</title>
  <g
     class="cls-1"
     id="g45"
     transform="matrix(0.14988194,0,0,0.14988194,-63.699824,-69.348875)">
    <g
       id="Capa_1"
       data-name="Capa 1">
      <g
         class="cls-2"
         id="g28">
        <path
           class="cls-3"
           d="M 634.58,475.51 A 58.23,58.23 0 0 1 693,533.89 c 0,32 -26.25,57.78 -58.38,57.78 -32.13,0 -58.38,-25.8 -58.38,-57.78 a 58.23,58.23 0 0 1 58.34,-58.38 z m 0,96.85 c 21.27,0 37.71,-18 37.71,-38.62 0,-21.42 -16.74,-38.92 -37.71,-38.92 -20.97,0 -37.71,17.5 -37.71,38.92 0,20.67 16.44,38.62 37.71,38.62 z"
           id="path8" />
        <path
           class="cls-3"
           d="m 704.52,505.68 h 18.4 v 9.81 h 0.3 a 33,33 0 0 1 27.15,-12.67 c 27.46,0 41.94,23.68 41.94,44.35 0,24.73 -18.25,45 -41.94,45 -14.18,0 -20.51,-5.73 -25.79,-10.71 v 35.9 h -20.06 z m 43.29,68 c 10.71,0 24.44,-9.05 24.44,-26.24 0,-15.39 -11.77,-26.25 -24.14,-26.25 -12.37,0 -24.74,10.11 -24.74,26.25 0,18.56 14.94,26.27 24.44,26.27 z"
           id="path10" />
        <path
           class="cls-3"
           d="m 820,556.52 c 0.91,5.43 8.75,17.19 23.08,17.19 8.9,0 15.54,-3.77 19.31,-10.71 h 21.11 c -4.83,15.09 -20.82,29.12 -40.43,29.12 a 44,44 0 0 1 -44.2,-44.35 c 0,-23.68 18.25,-45.41 44,-45.41 26.55,0 43.29,22.93 43.29,44 a 46.68,46.68 0 0 1 -1.2,10.11 z m 45.71,-16.14 C 863.44,527 853,520.77 843.07,520.77 c -7.39,0 -19.91,4.07 -23.68,19.61 z"
           id="path12" />
        <path
           class="cls-3"
           d="m 896.77,505.68 h 18.56 v 7.24 c 3.32,-3.16 10.26,-10.1 22.93,-10.1 7.24,0 18.25,3.16 25.19,11.61 7.69,9.2 7.69,23.23 7.69,29.72 v 45.25 h -20.06 v -41.33 c 0,-6.94 0,-26.85 -16.9,-26.85 -3.62,0 -10.1,1.81 -13.72,7.39 -3.62,5.13 -3.62,13.88 -3.62,21 v 39.79 h -20.07 z"
           id="path14" />
        <path
           class="cls-3"
           d="m 987.93,477.78 h 23.53 l 46.16,81.15 h 0.31 v -81.15 h 20.66 V 589.4 h -23.08 l -46.61,-81.15 h -0.3 v 81.15 h -20.67 z"
           id="path16" />
        <path
           class="cls-3"
           d="m 1112.55,556.52 c 0.9,5.43 8.75,17.19 23.08,17.19 8.9,0 15.54,-3.77 19.31,-10.71 h 21.12 c -4.83,15.09 -20.82,29.12 -40.43,29.12 a 44,44 0 0 1 -44.2,-44.35 c 0,-23.68 18.25,-45.41 44,-45.41 26.55,0 43.29,22.93 43.29,44 a 46,46 0 0 1 -1.21,10.11 z m 45.71,-16.14 c -2.27,-13.43 -12.68,-19.61 -22.63,-19.61 -7.39,0 -19.91,4.07 -23.68,19.61 z"
           id="path18" />
        <path
           class="cls-3"
           d="m 1188.85,477.78 h 20.06 v 35.44 a 37.27,37.27 0 0 1 26.1,-10.4 c 25.49,0 42.09,22.17 42.09,44.35 0,16.74 -11,45 -41.64,45 -16.14,0 -23.23,-7.24 -28.21,-12.82 v 10.1 h -18.4 z m 44.05,95.93 c 13.12,0 24.13,-10.1 24.13,-26.39 0,-16.29 -11.76,-26.1 -24.43,-26.1 -15.39,0 -24.89,13 -24.89,25.19 0,18.59 13.42,27.3 25.19,27.3 z"
           id="path20" />
        <path
           class="cls-3"
           d="m 1361.13,505.68 v 83.72 h -18.4 V 581 h -0.3 c -3.32,4.52 -8.75,11.16 -21.57,11.16 -15.24,0 -23.84,-7.54 -28.06,-13.28 -6.19,-8.9 -6.19,-22.47 -6.19,-29.41 v -43.79 h 20.07 v 42.69 c 0,6.79 0,25.34 17.5,25.34 12.67,0 16.89,-11.91 16.89,-25.19 v -42.84 z"
           id="path22" />
        <path
           class="cls-3"
           d="m 1376.05,477.78 h 20.07 V 589.4 h -20.07 z"
           id="path24" />
        <path
           class="cls-3"
           d="m 1495,589.4 h -18.41 V 579 c -6.33,7.55 -18.7,13.13 -29.26,13.13 -21.57,0 -40.73,-17.2 -40.73,-45.11 0,-25.64 18.7,-44.19 41.93,-44.19 17,0 27.16,12.21 27.76,13.42 h 0.3 V 505.68 H 1495 Z m -43.45,-68.18 c -16.44,0 -24.89,14.18 -24.89,26.7 0,14.18 10.56,25.79 24.89,25.79 13.88,0 24.44,-10.86 24.44,-26.39 0.01,-17.32 -12.49,-26.1 -24.41,-26.1 z"
           id="path26" />
      </g>
      <polygon
         class="cls-3"
         points=""
         id="polygon30" />
      <path
         class="cls-3"
         d="M 543.62,604.05 Z"
         id="path32" />
      <path
         class="cls-3"
         d="m 467,604.49 h 75.42 a 1.76,1.76 0 0 0 1.19,-0.47 v 0 a 1.72,1.72 0 0 0 0.58,-1.3 v 0 -70.09 A 175.58,175.58 0 0 1 433,579 a 35.46,35.46 0 0 0 34,25.49 z"
         id="path34" />
      <polygon
         class="cls-3"
         points="544.23,602.71 544.23,602.72 544.24,602.72 "
         id="polygon36" />
      <path
         class="cls-3"
         d="m 544.23,602.8 v -0.08 0 z"
         id="path38" />
      <path
         class="cls-3"
         d="M 425,579.15 Z"
         id="path40" />
      <path
         class="cls-3"
         d="m 542.46,462.69 h -0.13 a 35.47,35.47 0 0 0 -32.75,29.14 v 0 a 1.76,1.76 0 0 1 -1.74,1.44 A 1.72,1.72 0 0 1 507,493 v 0 l -0.1,-0.07 a 35.4,35.4 0 0 0 -52.54,41.19 v 0 a 1.79,1.79 0 0 1 0.09,0.57 1.77,1.77 0 0 1 -1.12,1.65 v 0 a 35.4,35.4 0 0 0 -20.3,42.5 119.31,119.31 0 0 0 111.19,-114.47 1.76,1.76 0 0 0 -1.76,-1.68 z"
         id="path42" />
    </g>
  </g>
  <metadata
     id="metadata51">
    <rdf:RDF>
      <cc:Work
         rdf:about="">
        <dc:title>AAFF_01</dc:title>
      </cc:Work>
    </rdf:RDF>
  </metadata>
</svg>
