<?xml version="1.0" encoding="UTF-8" standalone="no"?>
<svg
   id="Capa_1"
   data-name="Capa 1"
   viewBox="0 0 88.19812 29.63518"
   version="1.1"
   sodipodi:docname="3.AAFF_01_B-BLACK.svg"
   width="88.19812"
   height="29.63518"
   inkscape:version="1.1.2 (0a00cf5339, 2022-02-04)"
   xmlns:inkscape="http://www.inkscape.org/namespaces/inkscape"
   xmlns:sodipodi="http://sodipodi.sourceforge.net/DTD/sodipodi-0.dtd"
   xmlns="http://www.w3.org/2000/svg"
   xmlns:svg="http://www.w3.org/2000/svg"
   xmlns:rdf="http://www.w3.org/1999/02/22-rdf-syntax-ns#"
   xmlns:cc="http://creativecommons.org/ns#"
   xmlns:dc="http://purl.org/dc/elements/1.1/">
  <defs
     id="defs41" />
  <sodipodi:namedview
     id="namedview39"
     pagecolor="#ffffff"
     bordercolor="#666666"
     borderopacity="1.0"
     inkscape:pageshadow="2"
     inkscape:pageopacity="0.0"
     inkscape:pagecheckerboard="true"
     showgrid="false"
     width="1e-05px"
     inkscape:zoom="2.3851852"
     inkscape:cx="237.08851"
     inkscape:cy="142.96584"
     inkscape:window-width="2600"
     inkscape:window-height="1653"
     inkscape:window-x="910"
     inkscape:window-y="271"
     inkscape:window-maximized="0"
     inkscape:current-layer="Capa_1"
     fit-margin-top="0"
     fit-margin-left="0"
     fit-margin-right="0"
     fit-margin-bottom="0"
     units="px"
     scale-x="1" />
  <title
     id="title2">AAFF_01</title>
  <path
     d="m 36.404328,0.01261024 a 6.45389,6.45389 0 0 1 6.470283,6.47027996 c 0,3.5434598 -2.909168,6.4021898 -6.470283,6.4021898 -3.561115,0 -6.469022,-2.85873 -6.469022,-6.4021898 a 6.452629,6.452629 0 0 1 6.469022,-6.47027996 z m 0,10.73251976 c 2.358104,0 4.180275,-1.9886198 4.180275,-4.2798898 0,-2.37324 -1.856219,-4.31268 -4.180275,-4.31268 -2.324056,0 -4.179013,1.93944 -4.179013,4.31268 -0.0038,2.29631 1.818388,4.2798898 4.179013,4.2798898 z"
     id="path4"
     style="stroke-width:0.126102" />
  <path
     d="m 43.771195,3.3555702 h 2.040327 v 1.08699 h 0.03279 a 3.6569522,3.6569522 0 0 1 3.008789,-1.40351 c 3.042836,0 4.648112,2.62418 4.648112,4.91797 0,2.7414598 -2.017629,4.9822798 -4.648112,4.9822798 -1.571229,0 -2.269833,-0.63051 -2.858728,-1.18661 v 3.97851 h -2.223175 z m 4.798174,7.5396198 c 1.186618,0 2.708666,-1.0025098 2.708666,-2.9078998 0,-1.70616 -1.303892,-2.90917 -2.674619,-2.90917 -1.370726,0 -2.741453,1.11978 -2.741453,2.90917 0,2.0554598 1.654456,2.9078998 2.707406,2.9078998 z"
     id="path6"
     style="stroke-width:0.126102" />
  <path
     d="m 56.682758,8.9898002 c 0.09962,0.60276 0.969723,1.9053898 2.557345,1.9053898 0.986116,0 1.72255,-0.41739 2.14373,-1.1866098 h 2.34045 C 63.189611,11.38069 61.41662,12.93552 59.243886,12.93552 A 4.8763565,4.8763565 0 0 1 54.346092,8.0175502 c 0,-2.62418 2.017629,-5.03146 4.881401,-5.03146 2.941955,0 4.791868,2.54095 4.791868,4.8814 a 5.1272991,5.1272991 0 0 1 -0.133668,1.11978 z m 5.068032,-1.78813 c -0.252204,-1.488 -1.404774,-2.17399 -2.508165,-2.17399 -0.819662,0 -2.206782,0.45144 -2.624179,2.17399 z"
     id="path8"
     style="stroke-width:0.126102" />
  <path
     d="m 64.865504,3.3555702 h 2.055459 v 0.80327 c 0.368218,-0.35057 1.134917,-1.11979 2.542213,-1.11979 0.802007,0 2.017628,0.35056 2.790632,1.28624 0.852449,1.02016 0.852449,2.575 0.852449,3.29378 V 12.63414 H 70.883082 V 8.0541202 c 0,-0.76922 0,-2.976 -1.871351,-2.976 a 1.9016151,1.9016151 0 0 0 -1.522048,0.81966 c -0.401004,0.56746 -0.401004,1.53718 -0.401004,2.32279 V 12.63414 h -2.223175 z"
     id="path10"
     style="stroke-width:0.126102" />
  <path
     d="m 31.376649,16.95817 h 2.607786 l 5.11595,8.99484 h 0.03279 v -8.99484 h 2.29127 v 12.37058 h -2.558606 l -5.170173,-8.99358 h -0.03405 v 8.99358 h -2.284965 z"
     id="path12"
     style="stroke-width:0.126102" />
  <path
     d="m 45.160837,25.68315 c 0.09962,0.60277 0.969723,1.90666 2.557345,1.90666 0.986116,0 1.72255,-0.41866 2.14373,-1.18788 h 2.34045 c -0.534672,1.67211 -2.306402,3.22695 -4.480397,3.22695 a 4.8763565,4.8763565 0 0 1 -4.897794,-4.91797 c 0,-2.62544 2.017629,-5.03273 4.8814,-5.03273 2.941955,0 4.798174,2.54096 4.798174,4.8814 a 5.1272991,5.1272991 0 0 1 -0.133668,1.11979 z m 5.065509,-1.78938 c -0.252203,-1.488 -1.404774,-2.17274 -2.508164,-2.17274 -0.818401,0 -2.206782,0.45019 -2.624179,2.17274 z"
     id="path14"
     style="stroke-width:0.126102" />
  <path
     d="m 53.788722,16.95817 h 2.223175 v 3.92933 a 4.1235288,4.1235288 0 0 1 2.891514,-1.15383 c 2.825941,0 4.665767,2.45646 4.665767,4.91797 0,1.85496 -1.220666,4.98102 -4.614065,4.98102 -1.788124,0 -2.573738,-0.80201 -3.126064,-1.42117 v 1.11979 h -2.039066 z m 4.881401,10.6329 c 1.453953,0 2.674619,-1.12104 2.674619,-2.92556 0,-1.80452 -1.303893,-2.89278 -2.708667,-2.89278 -1.704896,0 -2.757846,1.43757 -2.757846,2.7919 0,2.05546 1.488001,3.02518 2.791894,3.02518 z"
     id="path16"
     style="stroke-width:0.126102" />
  <path
     d="m 73.115084,20.05018 v 9.27731 h -2.032761 v -0.93567 h -0.03405 c -0.366956,0.50441 -0.969723,1.23706 -2.395934,1.23706 -1.688503,0 -2.640572,-0.83606 -3.108409,-1.47161 -0.685994,-0.98612 -0.685994,-2.49051 -0.685994,-3.25973 v -4.84736 h 2.223175 v 4.7263 c 0,0.75661 0,2.80829 1.939445,2.80829 1.404774,0 1.872612,-1.32155 1.872612,-2.7919 v -4.74269 z"
     id="path18"
     style="stroke-width:0.126102" />
  <path
     d="m 74.891858,16.95817 h 2.223175 v 12.37058 h -2.223175 z"
     id="path20"
     style="stroke-width:0.126102" />
  <path
     d="m 88.19812,29.32749 h -2.039066 v -1.14626 c -0.702387,0.83479 -2.073114,1.45395 -3.243338,1.45395 -2.38963,0 -4.513184,-1.9054 -4.513184,-4.99867 0,-2.84108 2.073114,-4.8978 4.646851,-4.8978 1.891527,0 3.01005,1.35434 3.076884,1.488 h 0.03279 v -1.17022 h 2.039066 z m -4.814567,-7.55602 c -1.82091,0 -2.757846,1.57123 -2.757846,2.95961 0,1.57123 1.170225,2.85873 2.757846,2.85873 1.538442,0 2.708667,-1.20427 2.708667,-2.92556 -0.0038,-1.92305 -1.390903,-2.89278 -2.708667,-2.89278 z"
     id="path22"
     style="stroke-width:0.126102" />
  <polygon
     points=""
     id="polygon24"
     transform="translate(-610.31,-525.20741)" />
  <path
     d="m 24.77522,29.52421 h 0.0063 v 0 z"
     id="path26"
     style="stroke-width:0.126102" />
  <path
     d="M 8.7792072,29.61627 H 24.534366 a 0.36947827,0.36947827 0 0 0 0.252204,-0.0971 v 0 a 0.36569522,0.36569522 0 0 0 0.126101,-0.27238 v 0 -14.6379 a 36.67923,36.67923 0 0 1 -23.2430832,9.67579 7.4084807,7.4084807 0 0 0 7.1096194,5.33159 z"
     id="path28"
     style="stroke-width:0.126102" />
  <path
     d="M 24.903844,29.24679 Z"
     id="path30"
     style="stroke-width:0.126102" />
  <path
     d="m 24.902583,29.26444 a 0.08322719,0.08322719 0 0 0 0,-0.0177 v 0 a 0.08322719,0.08322719 0 0 1 0,0.0177 z"
     id="path32"
     style="stroke-width:0.126102" />
  <path
     d="M 0,24.32377 Z"
     id="path34"
     style="stroke-width:0.126102" />
  <path
     d="m 24.533105,2.4336217e-7 h -0.02774 A 7.4072196,7.4072196 0 0 0 17.665604,6.0881902 v 0 a 0.37073929,0.37073929 0 0 1 -0.363173,0.30139 0.3783054,0.3783054 0 0 1 -0.18537,-0.0492 v 0 0 l -0.02018,-0.0126 A 7.3958705,7.3958705 0 0 0 6.1260244,14.93044 v 0 a 0.36569522,0.36569522 0 0 1 0.020176,0.11854 0.3783054,0.3783054 0 0 1 -0.2332884,0.34425 v 0 A 7.3983925,7.3983925 0 0 0 1.6645424,24.27206 C 14.336513,23.43097 24.424657,13.12089 24.901322,0.35056024 A 0.36821725,0.36821725 0 0 0 24.533105,2.4336217e-7 Z"
     id="path36"
     style="stroke-width:0.126102" />
  <metadata
     id="metadata83">
    <rdf:RDF>
      <cc:Work
         rdf:about="">
        <dc:title>AAFF_01</dc:title>
      </cc:Work>
    </rdf:RDF>
  </metadata>
</svg>
