<?xml version="1.0" encoding="UTF-8" standalone="no"?>
<svg
   id="Capa_1"
   data-name="Capa 1"
   viewBox="0 0 88.016443 29.574142"
   version="1.1"
   sodipodi:docname="w-AAFF_01_B-WHITE.svg"
   width="88.016441"
   height="29.574142"
   inkscape:version="1.1.2 (0a00cf5339, 2022-02-04)"
   xmlns:inkscape="http://www.inkscape.org/namespaces/inkscape"
   xmlns:sodipodi="http://sodipodi.sourceforge.net/DTD/sodipodi-0.dtd"
   xmlns="http://www.w3.org/2000/svg"
   xmlns:svg="http://www.w3.org/2000/svg"
   xmlns:rdf="http://www.w3.org/1999/02/22-rdf-syntax-ns#"
   xmlns:cc="http://creativecommons.org/ns#"
   xmlns:dc="http://purl.org/dc/elements/1.1/">
  <sodipodi:namedview
     id="namedview43"
     pagecolor="#ffffff"
     bordercolor="#666666"
     borderopacity="1.0"
     inkscape:pageshadow="2"
     inkscape:pageopacity="0.0"
     inkscape:pagecheckerboard="0"
     showgrid="false"
     fit-margin-top="0"
     fit-margin-left="0"
     fit-margin-right="0"
     fit-margin-bottom="0"
     inkscape:zoom="4.7703704"
     inkscape:cx="128.60637"
     inkscape:cy="7.1273292"
     inkscape:window-width="2256"
     inkscape:window-height="1549"
     inkscape:window-x="521"
     inkscape:window-y="139"
     inkscape:window-maximized="0"
     inkscape:current-layer="Capa_1" />
  <defs
     id="defs4">
    <style
       id="style2">.cls-1{fill:#fff;}</style>
  </defs>
  <title
     id="title6">AAFF_01</title>
  <path
     class="cls-1"
     d="m 36.329341,0.012587 a 6.4405963,6.4405963 0 0 1 6.456957,6.456951 c 0,3.536164 -2.903175,6.389003 -6.456957,6.389003 -3.553777,0 -6.455698,-2.852839 -6.455698,-6.389003 a 6.4393377,6.4393377 0 0 1 6.455698,-6.456951 z m 0,10.710413 c 2.353247,0 4.171664,-1.984529 4.171664,-4.271076 0,-2.368349 -1.852396,-4.303801 -4.171664,-4.303801 -2.319267,0 -4.170405,1.935452 -4.170405,4.303801 -0.0038,2.291582 1.814643,4.271076 4.170405,4.271076 z"
     id="path8"
     style="stroke-width:0.125842" />
  <path
     class="cls-1"
     d="m 43.681035,3.348658 h 2.036123 v 1.084757 h 0.03272 A 3.6494195,3.6494195 0 0 1 48.75247,3.032792 c 3.036566,0 4.638535,2.618777 4.638535,4.907843 0,2.735804 -2.013474,4.972019 -4.638535,4.972019 -1.567994,0 -2.265158,-0.629211 -2.852839,-1.184175 v 3.970318 h -2.218597 z m 4.788291,7.524095 c 1.18417,0 2.703087,-1.000443 2.703087,-2.901917 0,-1.702643 -1.30121,-2.903174 -2.669112,-2.903174 -1.367902,0 -2.735804,1.117475 -2.735804,2.903174 0,2.051226 1.651046,2.901917 2.701829,2.901917 z"
     id="path10"
     style="stroke-width:0.125842" />
  <path
     class="cls-1"
     d="m 56.566003,8.97128 c 0.09941,0.601525 0.967723,1.901473 2.552077,1.901473 0.984082,0 1.719,-0.416536 2.139315,-1.184174 h 2.335625 c -0.533569,1.668669 -2.302912,3.220297 -4.471169,3.220297 A 4.866312,4.866312 0 0 1 54.234149,8.001038 c 0,-2.618773 2.013473,-5.021097 4.871345,-5.021097 2.935895,0 4.781995,2.535716 4.781995,4.871344 a 5.1167378,5.1167378 0 0 1 -0.133387,1.117479 z m 5.057593,-1.784439 c -0.251686,-1.484936 -1.401881,-2.169518 -2.503,-2.169518 -0.817974,0 -2.202237,0.450515 -2.618772,2.169518 z"
     id="path12"
     style="stroke-width:0.125842" />
  <path
     class="cls-1"
     d="m 64.731891,3.348658 h 2.051226 v 0.801613 c 0.367462,-0.34984 1.132577,-1.117479 2.536974,-1.117479 0.800357,0 2.013475,0.349845 2.784889,1.283592 0.850694,1.018062 0.850694,2.569695 0.850694,3.286994 v 5.004735 h -2.2186 v -4.57058 c 0,-0.767639 0,-2.969871 -1.867496,-2.969871 a 1.8976981,1.8976981 0 0 0 -1.518912,0.817969 c -0.400175,0.566293 -0.400175,1.534015 -0.400175,2.318014 v 4.404468 h -2.2186 z"
     id="path14"
     style="stroke-width:0.125842" />
  <path
     class="cls-1"
     d="m 31.312019,16.92324 h 2.602416 l 5.105411,8.976312 h 0.03272 V 16.92324 h 2.28655 V 29.268344 H 38.785784 L 33.62626,20.29329 h -0.034 v 8.975054 h -2.280257 z"
     id="path16"
     style="stroke-width:0.125842" />
  <path
     class="cls-1"
     d="m 45.067813,25.630252 c 0.09942,0.601526 0.967726,1.902732 2.552076,1.902732 0.984087,0 1.719004,-0.417799 2.139318,-1.185433 h 2.335628 c -0.533571,1.668665 -2.301653,3.220298 -4.471168,3.220298 A 4.866312,4.866312 0 0 1 42.735963,24.66001 c 0,-2.620034 2.013469,-5.022358 4.871343,-5.022358 2.935896,0 4.788292,2.53572 4.788292,4.871348 a 5.1167378,5.1167378 0 0 1 -0.133396,1.117474 z m 5.055075,-1.7857 c -0.251685,-1.484937 -1.401881,-2.168257 -2.502999,-2.168257 -0.816712,0 -2.202236,0.449253 -2.618772,2.168257 z"
     id="path18"
     style="stroke-width:0.125842" />
  <path
     class="cls-1"
     d="m 53.677928,16.92324 h 2.218596 v 3.921236 a 4.1150351,4.1150351 0 0 1 2.885558,-1.151453 c 2.820119,0 4.656156,2.451401 4.656156,4.907838 0,1.851139 -1.218156,4.970761 -4.604557,4.970761 -1.784446,0 -2.56844,-0.800355 -3.11963,-1.418237 v 1.117475 h -2.034865 z m 4.871344,10.611001 c 1.45096,0 2.66911,-1.118736 2.66911,-2.919535 0,-1.800798 -1.301206,-2.886818 -2.703085,-2.886818 -1.701386,0 -2.752169,1.434602 -2.752169,2.786143 0,2.051226 1.484938,3.018953 2.786144,3.018953 z"
     id="path20"
     style="stroke-width:0.125842" />
  <path
     class="cls-1"
     d="m 72.964483,20.008888 v 9.258198 h -2.028577 v -0.933747 h -0.03401 c -0.366195,0.503366 -0.967719,1.23451 -2.391001,1.23451 -1.685019,0 -2.635127,-0.834334 -3.102002,-1.468577 -0.684581,-0.984087 -0.684581,-2.48538 -0.684581,-3.253019 v -4.837365 h 2.218595 v 4.716561 c 0,0.755051 0,2.802499 1.93545,2.802499 1.401881,0 1.868756,-1.318825 1.868756,-2.786143 v -4.732917 z"
     id="path22"
     style="stroke-width:0.125842" />
  <path
     class="cls-1"
     d="m 74.737597,16.92324 h 2.218594 v 12.345104 h -2.218594 z"
     id="path24"
     style="stroke-width:0.125842" />
  <path
     class="cls-1"
     d="M 88.016444,29.267086 H 85.98158 v -1.143902 c -0.700937,0.833072 -2.068843,1.450958 -3.236656,1.450958 -2.384708,0 -4.503889,-1.901473 -4.503889,-4.988379 0,-2.835221 2.068844,-4.887704 4.637282,-4.887704 1.887629,0 3.00385,1.351541 3.070544,1.484932 h 0.03272 v -1.167814 h 2.034864 z M 83.211799,21.72663 c -1.817158,0 -2.752164,1.567994 -2.752164,2.953514 0,1.56799 1.167813,2.85284 2.752164,2.85284 1.535269,0 2.703087,-1.201793 2.703087,-2.919536 -0.0041,-1.919091 -1.38804,-2.886818 -2.703087,-2.886818 z"
     id="path26"
     style="stroke-width:0.125842" />
  <polygon
     class="cls-1"
     points=""
     id="polygon28"
     transform="matrix(0.12584205,0,0,0.12584205,-76.802664,-53.170784)" />
  <path
     class="cls-1"
     d="m 24.724187,29.4634 h 0.0063 v 0 z"
     id="path30"
     style="stroke-width:0.125842" />
  <path
     class="cls-1"
     d="M 8.7611254,29.555266 H 24.483831 a 0.36871721,0.36871721 0 0 0 0.251681,-0.0969 v 0 a 0.36494195,0.36494195 0 0 0 0.125844,-0.27182 v 0 -14.607742 a 36.603678,36.603678 0 0 1 -23.1952072,9.655858 7.3932202,7.3932202 0 0 0 7.0949766,5.320605 z"
     id="path32"
     style="stroke-width:0.125842" />
  <path
     class="cls-1"
     d="M 24.852547,29.186545 Z"
     id="path34"
     style="stroke-width:0.125842" />
  <path
     class="cls-1"
     d="m 24.851289,29.204164 a 0.08305575,0.08305575 0 0 0 0,-0.01763 v 0 a 0.08305575,0.08305575 0 0 1 0,0.01763 z"
     id="path36"
     style="stroke-width:0.125842" />
  <path
     class="cls-1"
     d="M 0,24.273676 Z"
     id="path38"
     style="stroke-width:0.125842" />
  <path
     class="cls-1"
     d="m 24.482573,0 h -0.0277 a 7.3919622,7.3919622 0 0 0 -6.825675,6.075656 v 0 a 0.36997563,0.36997563 0 0 1 -0.362427,0.300763 0.37752615,0.37752615 0 0 1 -0.184989,-0.04908 v 0 0 l -0.02015,-0.01258 A 7.3806362,7.3806362 0 0 0 6.1133754,14.899704 v 0 a 0.36494195,0.36494195 0 0 1 0.020145,0.118289 0.37752615,0.37752615 0 0 1 -0.2328089,0.343551 v 0 A 7.3831534,7.3831534 0 0 0 1.6610877,24.222082 C 14.306958,23.382717 24.374321,13.09387 24.850006,0.349844 A 0.36745879,0.36745879 0 0 0 24.482547,4e-6 Z"
     id="path40"
     style="stroke-width:0.125842" />
  <metadata
     id="metadata45">
    <rdf:RDF>
      <cc:Work
         rdf:about="">
        <dc:title>AAFF_01</dc:title>
      </cc:Work>
    </rdf:RDF>
  </metadata>
</svg>
