<?xml version="1.0" encoding="UTF-8" standalone="no"?>
<svg
   version="1.1"
   preserveAspectRatio="xMidYMid meet"
   viewBox="16.037233 156.63296 531.20482 188.99027"
   width="88.423019"
   height="31.458845"
   id="svg141"
   sodipodi:docname="2.logo.svg"
   inkscape:version="1.1.2 (0a00cf5339, 2022-02-04)"
   xmlns:inkscape="http://www.inkscape.org/namespaces/inkscape"
   xmlns:sodipodi="http://sodipodi.sourceforge.net/DTD/sodipodi-0.dtd"
   xmlns:xlink="http://www.w3.org/1999/xlink"
   xmlns="http://www.w3.org/2000/svg"
   xmlns:svg="http://www.w3.org/2000/svg">
  <sodipodi:namedview
     id="namedview143"
     pagecolor="#ffffff"
     bordercolor="#666666"
     borderopacity="1.0"
     inkscape:pageshadow="2"
     inkscape:pageopacity="0.0"
     inkscape:pagecheckerboard="0"
     showgrid="false"
     width="1060.2px"
     inkscape:zoom="1.1269332"
     inkscape:cx="460.54194"
     inkscape:cy="102.93423"
     inkscape:window-width="2183"
     inkscape:window-height="1773"
     inkscape:window-x="146"
     inkscape:window-y="119"
     inkscape:window-maximized="0"
     inkscape:current-layer="g139"
     height="187.99001px"
     scale-x="6.00754"
     fit-margin-top="0"
     fit-margin-left="0"
     fit-margin-right="0"
     fit-margin-bottom="0" />
  <defs
     id="defs17">
    <path
       d="m 166.3,315.46 c -6.06,1.52 -12.13,2.95 -18.22,4.31 -37.32,7.98 -75.29,13 -113.38,15.04 -2.35,-0.23 0.9,1.41 1.48,2.04 10.11,7.39 23.33,8.71 35.77,8.75 30.45,-0.07 60.9,0 91.35,0.02 1.01,0 1.7,-0.28 2.32,-0.89 0.63,-0.6 0.68,-2.21 0.68,-2.21 0,-5.41 0,-21.65 0,-27.06 z"
       id="bi8kwEfuQ" />
    <path
       d="m 166.3,282.44 c -19.22,9.09 -39.31,16.43 -59.63,22.49 -27.45,7.89 -55.51,13.69 -83.88,16.91 1.63,2.37 2.85,6 5.61,7.04 46.4,-2.28 92.8,-8.49 137.9,-19.88 0,-5.31 0,-21.25 0,-26.56 z"
       id="a4ED5qDpxQ" />
    <path
       d="m 166.3,249.78 c -34.65,23.4 -74.11,39.06 -114.44,49.58 -11.36,2.83 -22.71,5.8 -34.28,7.7 0.48,3.04 1.25,5.89 2.37,8.84 48.67,-5.7 96.87,-17.52 141.45,-38.11 1.64,-0.76 3.28,-1.54 4.9,-2.33 0,-5.13 0,-20.54 0,-25.68 z"
       id="h2nQhOyMOv" />
    <path
       d="m 166.3,203.84 c -17.45,20.81 -39.59,37.39 -63.1,50.8 -25.07,14.12 -51.9,25.03 -79.44,33.2 -2.03,1.1 -5.79,0.68 -5.77,3.68 -0.66,3.03 -1,6.14 -0.95,9.25 44.74,-8.51 88.8,-22.64 128.5,-45.38 7.08,-4.08 14.04,-8.48 20.76,-13.2 0,-7.67 0,-30.68 0,-38.35 z"
       id="bnwa1ygpQ" />
    <path
       d="m 166.3,158.29 c -0.57,-1.22 -2.34,-0.53 -4.35,0.33 -7.6,3.24 -38.35,18.23 -42.95,38.18 -1.86,2.54 -4.71,-0.62 -6.74,-1.28 -17.43,-8.54 -39.52,-5.75 -54.45,6.83 -14.9,11.98 -23.09,33.42 -16.23,52 1.06,2.18 2.18,5.12 -0.15,6.92 -2.76,1.9 -5.86,3.28 -8.29,5.7 -4.92,4.13 -9.23,9.43 -11.83,15.08 40.91,-12.33 80.97,-30.02 114.46,-57.04 11.22,-9.27 21.75,-19.61 30.53,-31.19 0,-7.11 0,-28.43 0,-35.53 z"
       id="aZv3diFzA" />
    <path
       d="m 231.08,160.32 1.6,0.16 1.58,0.22 1.55,0.29 1.54,0.35 1.51,0.4 1.49,0.46 1.46,0.52 1.43,0.58 1.4,0.62 1.37,0.68 1.35,0.74 1.31,0.78 1.27,0.83 1.24,0.88 1.21,0.92 1.17,0.97 1.13,1.02 1.09,1.05 1.04,1.1 1.01,1.14 0.96,1.18 0.92,1.21 0.87,1.25 0.83,1.29 0.77,1.32 0.73,1.35 0.67,1.38 0.62,1.42 0.57,1.44 0.52,1.47 0.46,1.5 0.4,1.52 0.34,1.55 0.29,1.57 0.22,1.59 0.16,1.61 0.1,1.63 0.03,1.64 -0.03,1.68 -0.1,1.65 -0.16,1.64 -0.22,1.61 -0.28,1.59 -0.33,1.56 -0.4,1.54 -0.45,1.51 -0.51,1.48 -0.56,1.45 -0.62,1.43 -0.67,1.39 -0.72,1.35 -0.77,1.33 -0.81,1.29 -0.87,1.25 -0.91,1.21 -0.96,1.18 -1,1.13 -1.04,1.1 -1.09,1.05 -1.12,1.01 -1.17,0.96 -1.21,0.92 -1.24,0.88 -1.27,0.82 -1.32,0.78 -1.34,0.72 -1.38,0.68 -1.41,0.62 -1.45,0.56 -1.47,0.52 -1.5,0.45 -1.52,0.4 -1.55,0.35 -1.58,0.28 -1.6,0.22 -1.62,0.16 -1.64,0.09 -1.67,0.04 -1.68,-0.04 -1.66,-0.09 -1.64,-0.16 -1.63,-0.23 -1.59,-0.28 -1.58,-0.34 -1.55,-0.4 -1.52,-0.46 -1.5,-0.52 -1.47,-0.56 -1.44,-0.63 -1.4,-0.67 -1.38,-0.73 -1.34,-0.78 -1.31,-0.82 -1.27,-0.88 -1.23,-0.92 -1.19,-0.96 -1.16,-1.01 -1.11,-1.05 -1.07,-1.1 -1.03,-1.13 -0.98,-1.18 -0.94,-1.21 -0.89,-1.25 -0.84,-1.29 -0.79,-1.31 -0.75,-1.36 -0.68,-1.38 -0.64,-1.42 -0.58,-1.45 -0.53,-1.47 -0.46,-1.5 -0.41,-1.53 -0.35,-1.56 -0.29,-1.57 -0.23,-1.6 -0.16,-1.63 -0.1,-1.64 -0.03,-1.66 0.03,-1.67 0.1,-1.66 0.16,-1.64 0.22,-1.61 0.29,-1.59 0.35,-1.56 0.4,-1.54 0.47,-1.51 0.52,-1.48 0.57,-1.45 0.63,-1.42 0.69,-1.39 0.73,-1.36 0.79,-1.33 0.84,-1.28 0.88,-1.26 0.94,-1.21 0.98,-1.18 1.02,-1.13 1.07,-1.1 1.11,-1.05 1.16,-1.01 1.19,-0.96 1.23,-0.92 1.28,-0.87 1.3,-0.83 1.35,-0.77 1.38,-0.73 1.41,-0.67 1.44,-0.62 1.48,-0.57 1.5,-0.51 1.54,-0.46 1.56,-0.4 1.59,-0.34 1.61,-0.28 1.64,-0.23 1.66,-0.16 1.68,-0.09 1.7,-0.03 1.64,0.03 z m -6.18,13.75 -1.33,0.16 -1.3,0.22 -1.27,0.28 -1.25,0.35 -1.22,0.39 -1.18,0.46 -1.16,0.51 -1.12,0.56 -1.09,0.62 -1.05,0.66 -1.01,0.72 -0.97,0.76 -0.94,0.81 -0.89,0.85 -0.85,0.9 -0.81,0.94 -0.75,0.98 -0.72,1.02 -0.66,1.05 -0.61,1.1 -0.56,1.13 -0.51,1.16 -0.45,1.2 -0.4,1.22 -0.34,1.26 -0.28,1.29 -0.22,1.31 -0.16,1.34 -0.1,1.36 -0.03,1.38 0.03,1.36 0.1,1.33 0.16,1.32 0.23,1.29 0.28,1.27 0.35,1.24 0.4,1.22 0.46,1.18 0.51,1.16 0.57,1.12 0.62,1.09 0.67,1.05 0.72,1.02 0.76,0.98 0.81,0.94 0.86,0.9 0.89,0.86 0.94,0.81 0.98,0.76 1.01,0.72 1.06,0.67 1.08,0.62 1.12,0.57 1.16,0.52 1.18,0.46 1.21,0.4 1.24,0.35 1.26,0.28 1.29,0.23 1.31,0.16 1.33,0.1 1.36,0.03 1.35,-0.03 1.33,-0.1 1.3,-0.15 1.28,-0.22 1.26,-0.28 1.22,-0.33 1.19,-0.4 1.17,-0.44 1.13,-0.51 1.09,-0.55 1.07,-0.61 1.02,-0.65 0.99,-0.71 0.95,-0.75 0.91,-0.8 0.87,-0.84 0.82,-0.89 0.79,-0.93 0.73,-0.97 0.69,-1.01 0.65,-1.05 0.59,-1.09 0.54,-1.12 0.49,-1.15 0.44,-1.19 0.38,-1.22 0.33,-1.26 0.27,-1.28 0.22,-1.31 0.15,-1.33 0.1,-1.36 0.03,-1.39 -0.03,-1.37 -0.1,-1.35 -0.16,-1.33 -0.22,-1.31 -0.28,-1.28 -0.33,-1.26 -0.4,-1.23 -0.44,-1.19 -0.5,-1.17 -0.56,-1.13 -0.6,-1.1 -0.65,-1.06 -0.7,-1.02 -0.75,-0.99 -0.79,-0.95 -0.83,-0.9 -0.88,-0.86 -0.91,-0.82 -0.96,-0.77 -0.99,-0.72 -1.03,-0.67 -1.06,-0.62 -1.09,-0.57 -1.13,-0.52 -1.16,-0.46 -1.18,-0.41 -1.21,-0.34 -1.24,-0.29 -1.26,-0.22 -1.28,-0.17 -1.31,-0.1 -1.32,-0.03 -1.37,0.03 z"
       id="fZSpFxjxP" />
    <path
       d="m 311.07,179.55 1.2,0.11 1.18,0.17 1.16,0.2 1.14,0.25 1.12,0.29 1.1,0.33 1.07,0.38 1.05,0.42 1.03,0.45 1,0.5 0.98,0.53 0.95,0.57 0.92,0.61 0.9,0.64 0.87,0.68 0.83,0.72 0.81,0.75 0.78,0.78 0.75,0.81 0.71,0.85 0.69,0.88 0.65,0.9 0.61,0.94 0.58,0.97 0.55,0.99 0.51,1.02 0.47,1.05 0.44,1.08 0.39,1.1 0.36,1.12 0.32,1.15 0.28,1.17 0.24,1.19 0.19,1.22 0.16,1.24 0.11,1.25 0.07,1.28 0.02,1.29 -0.02,1.3 -0.07,1.29 -0.11,1.26 -0.16,1.25 -0.2,1.22 -0.23,1.21 -0.29,1.18 -0.32,1.16 -0.36,1.14 -0.4,1.11 -0.44,1.09 -0.47,1.06 -0.51,1.04 -0.55,1.01 -0.59,0.98 -0.62,0.95 -0.65,0.92 -0.69,0.89 -0.72,0.86 -0.75,0.83 -0.78,0.8 -0.81,0.76 -0.84,0.73 -0.88,0.69 -0.9,0.66 -0.92,0.62 -0.96,0.58 -0.98,0.54 -1,0.51 -1.03,0.46 -1.06,0.43 -1.08,0.38 -1.1,0.34 -1.12,0.3 -1.14,0.26 -1.17,0.21 -1.18,0.16 -1.2,0.12 -1.22,0.07 -1.24,0.03 -0.53,-0.01 -0.52,-0.01 -0.51,-0.02 -0.51,-0.03 -0.5,-0.03 -0.5,-0.05 -0.49,-0.05 -0.48,-0.06 -0.48,-0.07 -0.48,-0.07 -0.47,-0.09 -0.46,-0.09 -0.46,-0.1 -0.46,-0.11 -0.45,-0.12 -0.44,-0.13 -0.45,-0.14 -0.44,-0.14 -0.43,-0.16 -0.43,-0.16 -0.43,-0.17 -0.43,-0.18 -0.42,-0.19 -0.42,-0.19 -0.42,-0.21 -0.41,-0.22 -0.42,-0.22 -0.41,-0.23 -0.4,-0.25 -0.41,-0.25 -0.41,-0.26 -0.4,-0.27 -0.4,-0.28 -0.4,-0.29 -0.4,-0.3 -0.4,-0.31 -0.4,-0.32 -0.4,-0.32 -0.39,-0.34 -0.4,-0.35 v 24.67 H 277.05 V 180.8 h 12.66 v 6.78 l 0.34,-0.4 0.35,-0.38 0.35,-0.38 0.36,-0.36 0.37,-0.36 0.38,-0.34 0.39,-0.34 0.39,-0.33 0.4,-0.31 0.41,-0.31 0.42,-0.3 0.42,-0.29 0.43,-0.28 0.43,-0.27 0.45,-0.26 0.45,-0.24 0.45,-0.24 0.47,-0.23 0.46,-0.22 0.48,-0.21 0.48,-0.2 0.49,-0.19 0.49,-0.18 0.5,-0.17 0.51,-0.16 0.51,-0.15 0.52,-0.14 0.52,-0.13 0.53,-0.12 0.54,-0.11 0.53,-0.1 0.55,-0.09 0.55,-0.08 0.55,-0.07 0.56,-0.05 0.57,-0.05 0.57,-0.04 0.57,-0.02 0.58,-0.02 h 0.58 l 1.24,0.02 z m -6.89,12.8 -1.28,0.24 -1.24,0.34 -1.19,0.42 -1.14,0.51 -1.1,0.6 -1.04,0.67 -0.98,0.75 -0.93,0.82 -0.86,0.88 -0.79,0.96 -0.73,1.01 -0.65,1.08 -0.57,1.13 -0.5,1.18 -0.41,1.23 -0.33,1.28 -0.23,1.32 -0.15,1.36 -0.05,1.39 0.05,1.43 0.15,1.39 0.23,1.34 0.33,1.3 0.42,1.25 0.49,1.2 0.58,1.15 0.66,1.08 0.72,1.03 0.8,0.96 0.87,0.9 0.94,0.82 0.99,0.75 1.05,0.68 1.11,0.59 1.16,0.52 1.21,0.42 1.26,0.34 1.3,0.24 1.34,0.15 1.38,0.05 1.29,-0.05 1.26,-0.15 1.23,-0.25 1.19,-0.34 1.15,-0.43 1.11,-0.51 1.06,-0.6 1.01,-0.68 0.95,-0.75 0.9,-0.82 0.84,-0.89 0.77,-0.96 0.71,-1.02 0.63,-1.07 0.57,-1.13 0.48,-1.18 0.41,-1.23 0.32,-1.27 0.23,-1.32 0.14,-1.35 0.05,-1.38 -0.05,-1.41 -0.14,-1.37 -0.24,-1.34 -0.32,-1.29 -0.4,-1.25 -0.49,-1.19 -0.56,-1.15 -0.64,-1.08 -0.71,-1.03 -0.78,-0.97 -0.85,-0.9 -0.91,-0.83 -0.96,-0.75 -1.02,-0.68 -1.08,-0.6 -1.12,-0.52 -1.17,-0.43 -1.21,-0.34 -1.25,-0.25 -1.29,-0.15 -1.32,-0.05 -1.35,0.05 z"
       id="aPspSLhS7" />
    <path
       d="m 375.95,179.55 1.24,0.12 1.22,0.17 1.2,0.21 1.18,0.26 1.15,0.3 1.14,0.35 1.11,0.39 1.09,0.43 1.06,0.47 1.04,0.52 1.01,0.55 0.99,0.59 0.96,0.63 0.93,0.67 0.9,0.7 0.87,0.74 0.84,0.78 0.81,0.8 0.77,0.85 0.75,0.87 0.71,0.91 0.67,0.93 0.64,0.97 0.61,1 0.56,1.02 0.53,1.06 0.5,1.08 0.45,1.1 0.41,1.13 0.38,1.16 0.33,1.18 0.29,1.2 0.25,1.23 0.2,1.25 0.16,1.27 0.12,1.28 0.07,1.31 0.02,1.33 v 0.15 0.16 0.15 0.14 0.15 0.14 l -0.01,0.14 v 0.14 0.14 l -0.01,0.14 v 0.13 l -0.01,0.14 v 0.13 l -0.01,0.13 -0.01,0.13 -0.01,0.13 v 0.13 l -0.01,0.13 -0.01,0.12 -0.02,0.13 -0.01,0.13 -0.01,0.12 -0.01,0.13 -0.02,0.13 -0.01,0.12 -0.02,0.13 -0.01,0.13 -0.02,0.13 -0.02,0.13 -0.02,0.13 -0.02,0.13 -0.02,0.13 -0.03,0.14 -0.02,0.13 -0.02,0.14 -0.03,0.14 -0.03,0.14 -0.03,0.14 -0.03,0.15 -0.03,0.15 h -44.55 l 0.13,0.51 0.15,0.51 0.17,0.5 0.18,0.49 0.19,0.48 0.22,0.46 0.22,0.46 0.24,0.44 0.26,0.44 0.27,0.42 0.28,0.41 0.3,0.4 0.32,0.39 0.32,0.37 0.34,0.37 0.36,0.35 0.36,0.34 0.38,0.32 0.39,0.32 0.41,0.3 0.41,0.29 0.43,0.27 0.44,0.26 0.46,0.25 0.46,0.23 0.48,0.22 0.48,0.21 0.5,0.19 0.51,0.18 0.52,0.16 0.52,0.15 0.54,0.13 0.55,0.12 0.56,0.1 0.57,0.09 0.57,0.07 0.59,0.06 0.59,0.04 0.61,0.02 0.61,0.01 h 0.42 l 0.42,-0.01 0.41,-0.01 0.4,-0.03 0.39,-0.02 0.38,-0.04 0.38,-0.04 0.37,-0.04 0.37,-0.06 0.35,-0.05 0.35,-0.07 0.35,-0.07 0.34,-0.09 0.33,-0.08 0.33,-0.1 0.32,-0.1 0.32,-0.11 0.31,-0.12 0.31,-0.12 0.3,-0.13 0.3,-0.14 0.3,-0.15 0.29,-0.16 0.29,-0.16 0.28,-0.18 0.29,-0.18 0.28,-0.19 0.27,-0.19 0.28,-0.21 0.27,-0.22 0.27,-0.22 0.27,-0.23 0.27,-0.24 0.27,-0.26 0.26,-0.26 0.27,-0.27 0.26,-0.28 0.26,-0.28 0.27,-0.3 0.26,-0.31 h 15.06 l -0.07,0.22 -0.07,0.22 -0.08,0.21 -0.08,0.21 -0.07,0.21 -0.09,0.21 -0.08,0.21 -0.09,0.21 -0.08,0.2 -0.09,0.21 -0.09,0.2 -0.1,0.2 -0.09,0.2 -0.1,0.2 -0.1,0.2 -0.11,0.2 -0.1,0.19 -0.11,0.2 -0.11,0.2 -0.11,0.19 -0.11,0.2 -0.12,0.19 -0.12,0.2 -0.12,0.19 -0.13,0.19 -0.12,0.2 -0.13,0.19 -0.13,0.2 -0.14,0.19 -0.13,0.2 -0.14,0.19 -0.14,0.2 -0.15,0.2 -0.14,0.19 -0.15,0.2 -0.16,0.2 -0.15,0.2 -0.16,0.2 -0.16,0.2 -0.16,0.21 -0.45,0.52 -0.46,0.51 -0.47,0.49 -0.47,0.49 -0.47,0.46 -0.48,0.46 -0.48,0.44 -0.5,0.42 -0.49,0.42 -0.5,0.39 -0.51,0.39 -0.52,0.37 -0.52,0.36 -0.52,0.34 -0.53,0.34 -0.54,0.31 -0.54,0.31 -0.55,0.29 -0.56,0.28 -0.56,0.26 -0.57,0.25 -0.58,0.24 -0.58,0.23 -0.59,0.21 -0.6,0.2 -0.6,0.18 -0.61,0.17 -0.62,0.16 -0.62,0.15 -0.63,0.13 -0.64,0.12 -0.65,0.11 -0.65,0.1 -0.66,0.08 -0.67,0.07 -0.67,0.06 -0.68,0.04 -0.69,0.03 -0.7,0.02 -0.71,0.01 -1.31,-0.03 -1.29,-0.07 -1.28,-0.12 -1.25,-0.17 -1.24,-0.21 -1.23,-0.26 -1.2,-0.3 -1.18,-0.34 -1.15,-0.39 -1.14,-0.43 -1.11,-0.47 -1.09,-0.5 -1.06,-0.55 -1.03,-0.58 -1.01,-0.63 -0.97,-0.65 -0.95,-0.7 -0.92,-0.72 -0.89,-0.76 -0.85,-0.79 -0.83,-0.83 -0.79,-0.85 -0.75,-0.89 -0.72,-0.91 -0.68,-0.94 -0.64,-0.97 -0.61,-1 -0.57,-1.02 -0.52,-1.04 -0.49,-1.07 -0.44,-1.09 -0.4,-1.12 -0.36,-1.13 -0.31,-1.15 -0.27,-1.18 -0.22,-1.19 -0.17,-1.21 -0.13,-1.23 -0.07,-1.24 -0.03,-1.25 0.03,-1.27 0.07,-1.25 0.12,-1.24 0.17,-1.22 0.22,-1.2 0.26,-1.18 0.31,-1.17 0.35,-1.15 0.39,-1.12 0.44,-1.11 0.48,-1.08 0.51,-1.06 0.56,-1.03 0.59,-1.01 0.63,-0.98 0.67,-0.96 0.7,-0.92 0.74,-0.9 0.77,-0.87 0.81,-0.84 0.83,-0.8 0.87,-0.78 0.89,-0.74 0.93,-0.7 0.95,-0.67 0.98,-0.63 1.01,-0.6 1.03,-0.56 1.06,-0.51 1.08,-0.48 1.1,-0.44 1.12,-0.39 1.15,-0.35 1.16,-0.31 1.18,-0.26 1.2,-0.22 1.22,-0.17 1.23,-0.13 1.25,-0.07 1.26,-0.02 1.28,0.02 z m -5.68,12.84 -1.56,0.3 -1.46,0.42 -1.39,0.53 -1.29,0.65 -1.2,0.77 -1.11,0.88 -1.02,1 -0.92,1.11 -0.82,1.22 -0.73,1.33 -0.62,1.44 -0.51,1.55 h 31.87 l -0.44,-1.53 -0.55,-1.42 -0.66,-1.33 -0.78,-1.21 -0.89,-1.11 -0.99,-1 -1.1,-0.89 -1.2,-0.77 -1.31,-0.66 -1.4,-0.54 -1.51,-0.43 -1.59,-0.31 -1.69,-0.18 -1.78,-0.06 -1.72,0.06 z"
       id="a2UFzMBrOT" />
    <path
       d="m 412.11,238.46 h 13.8 c 0,-16.29 0,-25.35 0,-27.16 0,-7.71 0.53,-11.03 2.3,-13.84 2.17,-3.44 5.71,-5.31 10.17,-5.31 3.63,0 6.43,1.25 8.3,3.65 1.88,2.49 2.71,6.76 2.71,14.46 0,1.88 0,11.28 0,28.2 h 13.8 c 0,-18.54 0,-28.84 0,-30.9 0,-10.31 -1.04,-15.3 -4.15,-19.78 -3.73,-5.42 -9.97,-8.32 -17.96,-8.32 -6.65,0 -11.12,1.86 -16.21,6.85 0,-0.37 0,-2.2 0,-5.51 h -12.76 z"
       id="c244hYrYHe" />
    <path
       d="m 191.29,342.54 h 14.22 v -55.89 l 32.08,55.89 h 15.89 v -76.91 h -14.23 v 55.99 l -31.78,-55.99 h -16.18 z"
       id="aCwitReXB" />
    <path
       d="m 297.05,283.63 1.24,0.12 1.22,0.17 1.2,0.21 1.18,0.26 1.16,0.3 1.13,0.35 1.12,0.39 1.09,0.43 1.06,0.47 1.04,0.52 1.01,0.55 0.99,0.59 0.95,0.63 0.93,0.67 0.9,0.7 0.87,0.74 0.84,0.78 0.81,0.8 0.78,0.85 0.74,0.87 0.71,0.91 0.68,0.93 0.64,0.97 0.6,1 0.57,1.02 0.53,1.06 0.49,1.08 0.46,1.1 0.41,1.13 0.37,1.16 0.33,1.18 0.3,1.2 0.24,1.23 0.21,1.25 0.16,1.27 0.11,1.28 0.07,1.31 0.03,1.33 v 0.15 0.16 0.15 l -0.01,0.14 v 0.15 0.14 0.15 l -0.01,0.14 v 0.13 0.14 l -0.01,0.13 v 0.14 l -0.01,0.13 -0.01,0.13 v 0.13 l -0.01,0.13 -0.01,0.13 -0.01,0.13 -0.01,0.12 -0.01,0.13 -0.01,0.13 -0.02,0.12 -0.01,0.13 -0.01,0.13 -0.02,0.12 -0.01,0.13 -0.02,0.13 -0.02,0.13 -0.02,0.13 -0.02,0.13 -0.02,0.13 -0.02,0.13 -0.02,0.14 -0.03,0.13 -0.02,0.14 -0.03,0.14 -0.02,0.14 -0.03,0.15 -0.03,0.14 -0.03,0.15 h -44.55 l 0.13,0.52 0.15,0.5 0.16,0.5 0.18,0.49 0.2,0.48 0.21,0.46 0.22,0.46 0.25,0.44 0.25,0.44 0.27,0.42 0.29,0.41 0.3,0.4 0.31,0.39 0.33,0.37 0.34,0.37 0.35,0.35 0.37,0.34 0.37,0.33 0.4,0.31 0.4,0.3 0.42,0.29 0.43,0.27 0.44,0.26 0.45,0.25 0.46,0.24 0.48,0.22 0.49,0.2 0.49,0.19 0.51,0.18 0.52,0.16 0.53,0.15 0.54,0.13 0.54,0.12 0.56,0.11 0.57,0.08 0.58,0.07 0.58,0.06 0.6,0.04 0.6,0.03 h 0.61 0.43 l 0.41,-0.01 0.41,-0.01 0.4,-0.02 0.39,-0.03 0.39,-0.03 0.37,-0.04 0.38,-0.05 0.36,-0.05 0.36,-0.06 0.35,-0.07 0.34,-0.07 0.34,-0.08 0.33,-0.09 0.33,-0.1 0.32,-0.1 0.32,-0.11 0.31,-0.12 0.31,-0.12 0.31,-0.13 0.3,-0.14 0.29,-0.15 0.29,-0.16 0.29,-0.16 0.29,-0.18 0.28,-0.18 0.28,-0.19 0.28,-0.19 0.27,-0.21 0.28,-0.21 0.27,-0.23 0.27,-0.23 0.27,-0.24 0.26,-0.25 0.27,-0.27 0.26,-0.26 0.27,-0.28 0.26,-0.29 0.27,-0.3 0.26,-0.31 h 15.06 l -0.08,0.22 -0.07,0.22 -0.08,0.21 -0.07,0.21 -0.08,0.21 -0.08,0.21 -0.09,0.21 -0.08,0.21 -0.09,0.2 -0.09,0.21 -0.09,0.2 -0.1,0.2 -0.09,0.2 -0.1,0.2 -0.1,0.2 -0.1,0.2 -0.11,0.19 -0.11,0.2 -0.11,0.2 -0.11,0.19 -0.11,0.2 -0.12,0.19 -0.12,0.19 -0.12,0.2 -0.12,0.19 -0.13,0.2 -0.13,0.19 -0.13,0.2 -0.13,0.19 -0.14,0.2 -0.14,0.19 -0.14,0.2 -0.14,0.2 -0.15,0.19 -0.15,0.2 -0.15,0.2 -0.15,0.2 -0.16,0.2 -0.16,0.2 -0.16,0.21 -0.46,0.52 -0.45,0.51 -0.47,0.49 -0.47,0.49 -0.47,0.46 -0.48,0.46 -0.49,0.44 -0.49,0.42 -0.5,0.42 -0.5,0.39 -0.51,0.39 -0.51,0.37 -0.52,0.36 -0.53,0.34 -0.53,0.34 -0.54,0.31 -0.54,0.31 -0.55,0.29 -0.56,0.28 -0.56,0.26 -0.57,0.25 -0.58,0.24 -0.58,0.23 -0.59,0.21 -0.59,0.2 -0.61,0.18 -0.61,0.17 -0.61,0.16 -0.63,0.15 -0.63,0.13 -0.64,0.12 -0.64,0.11 -0.66,0.1 -0.66,0.08 -0.66,0.07 -0.68,0.06 -0.68,0.04 -0.69,0.03 -0.7,0.02 -0.7,0.01 -1.31,-0.03 -1.3,-0.07 -1.27,-0.12 -1.26,-0.17 -1.24,-0.21 -1.22,-0.26 -1.2,-0.3 -1.18,-0.34 -1.16,-0.39 -1.13,-0.43 -1.12,-0.47 -1.08,-0.5 -1.06,-0.55 -1.04,-0.58 -1,-0.63 -0.98,-0.65 -0.95,-0.7 -0.92,-0.72 -0.89,-0.76 -0.85,-0.79 -0.82,-0.83 -0.79,-0.85 -0.76,-0.89 -0.71,-0.91 -0.69,-0.94 -0.64,-0.97 -0.61,-1 -0.56,-1.02 -0.53,-1.04 -0.49,-1.07 -0.44,-1.09 -0.4,-1.11 -0.36,-1.14 -0.31,-1.15 -0.27,-1.18 -0.22,-1.19 -0.17,-1.21 -0.13,-1.22 -0.07,-1.25 -0.03,-1.25 0.03,-1.27 0.07,-1.25 0.13,-1.24 0.17,-1.22 0.21,-1.2 0.27,-1.18 0.3,-1.17 0.35,-1.15 0.4,-1.12 0.43,-1.11 0.48,-1.08 0.52,-1.06 0.55,-1.03 0.6,-1.01 0.63,-0.98 0.66,-0.96 0.71,-0.93 0.73,-0.89 0.78,-0.87 0.8,-0.84 0.84,-0.81 0.86,-0.77 0.9,-0.74 0.92,-0.7 0.96,-0.67 0.98,-0.63 1,-0.6 1.03,-0.56 1.06,-0.51 1.08,-0.48 1.1,-0.44 1.13,-0.39 1.14,-0.35 1.16,-0.31 1.19,-0.26 1.2,-0.22 1.21,-0.17 1.24,-0.13 1.24,-0.07 1.27,-0.02 1.27,0.02 z m -5.68,12.84 -1.55,0.3 -1.47,0.42 -1.38,0.53 -1.29,0.65 -1.21,0.77 -1.11,0.88 -1.01,1 -0.92,1.11 -0.83,1.22 -0.72,1.33 -0.62,1.44 -0.52,1.55 h 31.87 l -0.44,-1.53 -0.55,-1.43 -0.66,-1.32 -0.78,-1.22 -0.88,-1.1 -1,-1 -1.1,-0.89 -1.2,-0.77 -1.3,-0.66 -1.41,-0.54 -1.5,-0.43 -1.59,-0.3 -1.69,-0.19 -1.78,-0.06 -1.72,0.06 z"
       id="e6ZNQwHcd" />
    <path
       d="m 347.42,289.79 0.41,-0.38 0.4,-0.37 0.4,-0.35 0.4,-0.35 0.4,-0.33 0.4,-0.32 0.4,-0.31 0.4,-0.3 0.4,-0.29 0.4,-0.28 0.4,-0.26 0.41,-0.26 0.4,-0.24 0.41,-0.23 0.41,-0.23 0.42,-0.21 0.41,-0.2 0.42,-0.2 0.43,-0.18 0.43,-0.17 0.43,-0.16 0.44,-0.16 0.44,-0.14 0.45,-0.13 0.45,-0.13 0.46,-0.11 0.47,-0.11 0.47,-0.1 0.48,-0.08 0.48,-0.08 0.5,-0.07 0.5,-0.07 0.5,-0.05 0.52,-0.04 0.53,-0.04 0.53,-0.03 0.55,-0.02 0.55,-0.01 h 0.56 l 1.24,0.02 1.22,0.07 1.21,0.12 1.18,0.17 1.17,0.21 1.15,0.26 1.12,0.3 1.11,0.34 1.08,0.39 1.06,0.42 1.04,0.47 1.01,0.51 0.99,0.55 0.96,0.58 0.93,0.63 0.91,0.66 0.88,0.69 0.85,0.74 0.82,0.76 0.79,0.8 0.76,0.83 0.72,0.87 0.7,0.89 0.66,0.93 0.63,0.95 0.59,0.99 0.55,1.01 0.52,1.04 0.49,1.07 0.44,1.09 0.41,1.11 0.36,1.14 0.33,1.17 0.28,1.18 0.25,1.21 0.2,1.23 0.15,1.25 0.12,1.26 0.07,1.29 0.02,1.3 -0.01,0.58 -0.01,0.57 -0.02,0.57 -0.03,0.57 -0.04,0.57 -0.05,0.57 -0.06,0.56 -0.06,0.56 -0.08,0.56 -0.08,0.55 -0.09,0.55 -0.1,0.55 -0.11,0.55 -0.12,0.54 -0.12,0.54 -0.14,0.53 -0.14,0.54 -0.15,0.53 -0.16,0.52 -0.16,0.52 -0.18,0.52 -0.18,0.51 -0.19,0.51 -0.2,0.51 -0.21,0.5 -0.22,0.49 -0.22,0.5 -0.23,0.48 -0.24,0.49 -0.25,0.47 -0.25,0.48 -0.27,0.46 -0.27,0.47 -0.28,0.45 -0.28,0.45 -0.3,0.45 -0.3,0.44 -0.31,0.44 -0.31,0.43 -0.33,0.42 -0.4,0.5 -0.41,0.49 -0.41,0.47 -0.42,0.47 -0.43,0.45 -0.43,0.43 -0.44,0.43 -0.45,0.41 -0.45,0.4 -0.46,0.38 -0.47,0.38 -0.47,0.36 -0.48,0.34 -0.49,0.34 -0.49,0.32 -0.5,0.31 -0.51,0.3 -0.51,0.28 -0.52,0.27 -0.53,0.26 -0.54,0.25 -0.54,0.23 -0.55,0.22 -0.55,0.21 -0.56,0.19 -0.57,0.18 -0.58,0.17 -0.58,0.16 -0.59,0.15 -0.6,0.13 -0.6,0.12 -0.61,0.11 -0.62,0.09 -0.62,0.08 -0.63,0.07 -0.64,0.06 -0.65,0.04 -0.65,0.03 -0.66,0.02 -0.67,0.01 -0.63,-0.01 -0.62,-0.01 -0.61,-0.02 -0.6,-0.04 -0.6,-0.04 -0.58,-0.05 -0.57,-0.06 -0.56,-0.07 -0.56,-0.09 -0.54,-0.09 -0.54,-0.1 -0.53,-0.11 -0.52,-0.13 -0.52,-0.13 -0.51,-0.15 -0.5,-0.15 -0.49,-0.17 -0.49,-0.18 -0.49,-0.19 -0.48,-0.21 -0.47,-0.21 -0.47,-0.23 -0.47,-0.24 -0.46,-0.25 -0.46,-0.27 -0.45,-0.27 -0.46,-0.29 -0.45,-0.3 -0.44,-0.32 -0.45,-0.33 -0.44,-0.34 -0.44,-0.36 -0.44,-0.36 -0.44,-0.39 -0.44,-0.39 -0.44,-0.42 -0.44,-0.42 -0.45,-0.44 -0.44,-0.45 -0.44,-0.47 v 7.38 h -12.67 v -76.91 h 13.8 v 24.55 z m 12.9,5.88 -1.24,0.22 -1.19,0.31 -1.15,0.39 -1.11,0.46 -1.05,0.55 -1.01,0.62 -0.95,0.69 -0.89,0.76 -0.84,0.82 -0.78,0.9 -0.71,0.95 -0.65,1.01 -0.58,1.07 -0.51,1.13 -0.44,1.17 -0.36,1.23 -0.29,1.27 -0.21,1.32 -0.13,1.36 -0.04,1.4 0.04,1.42 0.13,1.37 0.21,1.33 0.29,1.28 0.36,1.23 0.45,1.18 0.51,1.14 0.59,1.07 0.65,1.02 0.72,0.95 0.79,0.9 0.85,0.83 0.91,0.76 0.96,0.69 1.03,0.62 1.07,0.54 1.13,0.47 1.18,0.39 1.23,0.3 1.27,0.22 1.31,0.14 1.36,0.04 1.32,-0.04 1.29,-0.13 1.24,-0.22 1.2,-0.3 1.16,-0.37 1.1,-0.46 1.06,-0.54 1,-0.6 0.95,-0.68 0.9,-0.75 0.83,-0.82 0.77,-0.89 0.71,-0.94 0.65,-1.01 0.57,-1.07 0.51,-1.13 0.44,-1.18 0.36,-1.24 0.28,-1.28 0.21,-1.34 0.12,-1.38 0.04,-1.42 -0.04,-1.4 -0.13,-1.37 -0.22,-1.32 -0.29,-1.27 -0.37,-1.23 -0.46,-1.19 -0.52,-1.13 -0.59,-1.07 -0.67,-1.02 -0.73,-0.96 -0.79,-0.9 -0.86,-0.83 -0.91,-0.77 -0.97,-0.69 -1.03,-0.63 -1.07,-0.55 -1.12,-0.47 -1.17,-0.39 -1.22,-0.31 -1.25,-0.23 -1.29,-0.13 -1.33,-0.05 -1.32,0.05 z"
       id="a2Wz0TJWA" />
    <path
       d="m 452.96,284.88 h -13.82 c 0,16.31 0,25.37 0,27.18 0,7.59 -0.51,11.33 -2.18,13.83 -1.96,3.43 -5.81,5.3 -10.48,5.3 -3.52,0 -6.24,-1.13 -8.1,-3.62 -1.98,-2.52 -2.81,-6.67 -2.81,-14.47 0,-1.89 0,-11.29 0,-28.22 h -13.79 c 0,18.55 0,28.86 0,30.92 0,9.78 1.13,14.88 4.35,19.56 3.84,5.53 9.97,8.55 17.54,8.55 6.96,0 11.21,-1.78 16.51,-6.88 0,0.37 0,2.21 0,5.51 h 12.78 z"
       id="c1wzlCMztr" />
    <path
       d="m 464.04,342.54 h 13.79 v -76.91 h -13.79 z"
       id="a3XILkznOA" />
    <path
       d="m 516.99,283.56 0.6,0.02 0.59,0.04 0.58,0.04 0.57,0.06 0.56,0.07 0.56,0.08 0.54,0.09 0.54,0.1 0.53,0.11 0.52,0.12 0.52,0.13 0.5,0.15 0.5,0.15 0.49,0.17 0.49,0.18 0.47,0.19 0.47,0.2 0.46,0.22 0.46,0.23 0.45,0.23 0.44,0.25 0.44,0.27 0.43,0.27 0.43,0.29 0.42,0.3 0.41,0.31 0.41,0.32 0.4,0.34 0.4,0.35 0.39,0.36 0.39,0.38 0.38,0.39 0.38,0.4 0.38,0.42 0.37,0.43 0.37,0.44 0.36,0.45 0.36,0.47 v -7.7 h 12.69 v 57.66 h -12.69 v -7.49 l -0.41,0.47 -0.42,0.45 -0.41,0.44 -0.41,0.43 -0.42,0.41 -0.42,0.4 -0.41,0.39 -0.42,0.37 -0.42,0.35 -0.43,0.35 -0.42,0.33 -0.43,0.32 -0.43,0.31 -0.44,0.29 -0.44,0.28 -0.44,0.27 -0.44,0.25 -0.45,0.25 -0.46,0.23 -0.46,0.22 -0.46,0.2 -0.47,0.2 -0.47,0.18 -0.48,0.18 -0.49,0.16 -0.49,0.15 -0.5,0.14 -0.5,0.12 -0.51,0.12 -0.52,0.11 -0.53,0.09 -0.53,0.08 -0.54,0.08 -0.55,0.06 -0.55,0.06 -0.57,0.04 -0.57,0.03 -0.59,0.03 -0.59,0.01 -0.6,0.01 -1.25,-0.03 -1.24,-0.07 -1.21,-0.11 -1.2,-0.16 -1.18,-0.21 -1.15,-0.25 -1.14,-0.29 -1.11,-0.33 -1.08,-0.38 -1.07,-0.41 -1.04,-0.46 -1.01,-0.49 -0.99,-0.54 -0.96,-0.57 -0.94,-0.61 -0.9,-0.64 -0.88,-0.68 -0.85,-0.71 -0.82,-0.75 -0.78,-0.79 -0.76,-0.81 -0.72,-0.85 -0.69,-0.87 -0.66,-0.91 -0.62,-0.94 -0.59,-0.97 -0.55,-0.99 -0.52,-1.02 -0.47,-1.05 -0.44,-1.08 -0.41,-1.1 -0.36,-1.12 -0.32,-1.15 -0.28,-1.17 -0.24,-1.19 -0.2,-1.22 -0.15,-1.24 -0.12,-1.25 -0.06,-1.28 -0.03,-1.29 0.03,-1.31 0.06,-1.29 0.12,-1.27 0.15,-1.26 0.2,-1.23 0.25,-1.21 0.28,-1.18 0.32,-1.17 0.37,-1.13 0.4,-1.12 0.45,-1.09 0.48,-1.06 0.52,-1.04 0.56,-1.01 0.59,-0.98 0.63,-0.95 0.66,-0.92 0.7,-0.89 0.73,-0.86 0.76,-0.82 0.79,-0.8 0.83,-0.76 0.86,-0.72 0.88,-0.69 0.92,-0.65 0.94,-0.62 0.97,-0.58 1,-0.54 1.03,-0.51 1.05,-0.46 1.07,-0.42 1.1,-0.38 1.13,-0.34 1.14,-0.3 1.17,-0.25 1.19,-0.21 1.21,-0.16 1.23,-0.12 1.25,-0.07 1.27,-0.02 h 0.62 z m -2.51,12.87 -1.3,0.25 -1.26,0.33 -1.2,0.43 -1.15,0.52 -1.1,0.6 -1.03,0.68 -0.98,0.77 -0.92,0.83 -0.85,0.91 -0.78,0.98 -0.71,1.05 -0.63,1.11 -0.56,1.18 -0.48,1.23 -0.4,1.28 -0.32,1.34 -0.22,1.39 -0.14,1.44 -0.05,1.48 0.05,1.42 0.14,1.38 0.22,1.32 0.32,1.28 0.4,1.22 0.48,1.16 0.57,1.11 0.64,1.05 0.71,0.98 0.79,0.92 0.85,0.85 0.93,0.78 0.98,0.71 1.05,0.63 1.11,0.56 1.17,0.48 1.22,0.39 1.28,0.31 1.32,0.23 1.37,0.14 1.42,0.04 0.75,-0.01 0.74,-0.03 0.73,-0.06 0.71,-0.09 0.7,-0.1 0.69,-0.14 0.67,-0.15 0.65,-0.18 0.65,-0.2 0.62,-0.22 0.61,-0.25 0.59,-0.27 0.57,-0.3 0.56,-0.32 0.54,-0.34 0.51,-0.36 0.5,-0.39 0.48,-0.41 0.45,-0.44 0.44,-0.45 0.41,-0.48 0.35,-0.43 0.34,-0.45 0.32,-0.48 0.32,-0.49 0.29,-0.52 0.29,-0.53 0.27,-0.55 0.26,-0.56 0.24,-0.57 0.22,-0.59 0.21,-0.59 0.19,-0.61 0.17,-0.61 0.15,-0.61 0.14,-0.61 0.12,-0.62 0.09,-0.62 0.08,-0.61 0.05,-0.61 0.03,-0.61 0.02,-0.59 -0.05,-1.49 -0.14,-1.43 -0.23,-1.39 -0.32,-1.34 -0.41,-1.28 -0.48,-1.22 -0.57,-1.17 -0.64,-1.11 -0.72,-1.04 -0.78,-0.97 -0.86,-0.9 -0.92,-0.84 -0.99,-0.75 -1.04,-0.68 -1.1,-0.59 -1.16,-0.51 -1.21,-0.43 -1.26,-0.33 -1.31,-0.24 -1.35,-0.15 -1.39,-0.05 -1.38,0.05 z"
       id="i1uCwnNgx1" />
  </defs>
  <g
     id="g139"
     transform="translate(-0.49793956,-0.49676719)">
    <g
       id="g25">
      <use
         xlink:href="#bi8kwEfuQ"
         opacity="1"
         fill="#bfe6f2"
         fill-opacity="1"
         id="use19"
         x="0"
         y="0"
         width="100%"
         height="100%" />
      <g
         id="g23">
        <use
           xlink:href="#bi8kwEfuQ"
           opacity="1"
           fill-opacity="0"
           stroke="#000000"
           stroke-width="1"
           stroke-opacity="0"
           id="use21"
           x="0"
           y="0"
           width="100%"
           height="100%" />
      </g>
    </g>
    <g
       id="g33">
      <use
         xlink:href="#a4ED5qDpxQ"
         opacity="1"
         fill="#80cde6"
         fill-opacity="1"
         id="use27"
         x="0"
         y="0"
         width="100%"
         height="100%" />
      <g
         id="g31">
        <use
           xlink:href="#a4ED5qDpxQ"
           opacity="1"
           fill-opacity="0"
           stroke="#000000"
           stroke-width="1"
           stroke-opacity="0"
           id="use29"
           x="0"
           y="0"
           width="100%"
           height="100%" />
      </g>
    </g>
    <g
       id="g41">
      <use
         xlink:href="#h2nQhOyMOv"
         opacity="1"
         fill="#40b3d9"
         fill-opacity="1"
         id="use35"
         x="0"
         y="0"
         width="100%"
         height="100%" />
      <g
         id="g39">
        <use
           xlink:href="#h2nQhOyMOv"
           opacity="1"
           fill-opacity="0"
           stroke="#000000"
           stroke-width="1"
           stroke-opacity="0"
           id="use37"
           x="0"
           y="0"
           width="100%"
           height="100%" />
      </g>
    </g>
    <g
       id="g49">
      <use
         xlink:href="#bnwa1ygpQ"
         opacity="1"
         fill="#40b3d9"
         fill-opacity="1"
         id="use43"
         x="0"
         y="0"
         width="100%"
         height="100%" />
      <g
         id="g47">
        <use
           xlink:href="#bnwa1ygpQ"
           opacity="1"
           fill-opacity="0"
           stroke="#000000"
           stroke-width="1"
           stroke-opacity="0"
           id="use45"
           x="0"
           y="0"
           width="100%"
           height="100%" />
      </g>
    </g>
    <g
       id="g57">
      <use
         xlink:href="#aZv3diFzA"
         opacity="1"
         fill="#0098c3"
         fill-opacity="1"
         id="use51"
         x="0"
         y="0"
         width="100%"
         height="100%" />
      <g
         id="g55">
        <use
           xlink:href="#aZv3diFzA"
           opacity="1"
           fill-opacity="0"
           stroke="#000000"
           stroke-width="1"
           stroke-opacity="0"
           id="use53"
           x="0"
           y="0"
           width="100%"
           height="100%" />
      </g>
    </g>
    <g
       id="g65"
       transform="matrix(0.99262256,0,0,0.99262256,2.3995866,1.5415163)"
       style="fill:#ffffff;fill-opacity:1">
      <use
         xlink:href="#fZSpFxjxP"
         opacity="1"
         fill="#353735"
         fill-opacity="1"
         id="use59"
         x="0"
         y="0"
         width="100%"
         height="100%"
         style="fill:#ffffff;fill-opacity:1" />
      <g
         id="g63"
         style="fill:#ffffff;fill-opacity:1">
        <use
           xlink:href="#fZSpFxjxP"
           opacity="1"
           fill-opacity="0"
           stroke="#000000"
           stroke-width="1"
           stroke-opacity="0"
           id="use61"
           x="0"
           y="0"
           width="100%"
           height="100%"
           style="fill:#ffffff;fill-opacity:1" />
      </g>
    </g>
    <g
       id="g73"
       transform="matrix(0.99262256,0,0,0.99262256,2.3995866,1.5415163)"
       style="fill:#ffffff;fill-opacity:1">
      <use
         xlink:href="#aPspSLhS7"
         opacity="1"
         fill="#353735"
         fill-opacity="1"
         id="use67"
         x="0"
         y="0"
         width="100%"
         height="100%"
         style="fill:#ffffff;fill-opacity:1" />
      <g
         id="g71"
         style="fill:#ffffff;fill-opacity:1">
        <use
           xlink:href="#aPspSLhS7"
           opacity="1"
           fill-opacity="0"
           stroke="#000000"
           stroke-width="1"
           stroke-opacity="0"
           id="use69"
           x="0"
           y="0"
           width="100%"
           height="100%"
           style="fill:#ffffff;fill-opacity:1" />
      </g>
    </g>
    <g
       id="g81"
       transform="matrix(0.99262256,0,0,0.99262256,2.3995866,1.5415163)"
       style="fill:#ffffff;fill-opacity:1">
      <use
         xlink:href="#a2UFzMBrOT"
         opacity="1"
         fill="#353735"
         fill-opacity="1"
         id="use75"
         x="0"
         y="0"
         width="100%"
         height="100%"
         style="fill:#ffffff;fill-opacity:1" />
      <g
         id="g79"
         style="fill:#ffffff;fill-opacity:1">
        <use
           xlink:href="#a2UFzMBrOT"
           opacity="1"
           fill-opacity="0"
           stroke="#000000"
           stroke-width="1"
           stroke-opacity="0"
           id="use77"
           x="0"
           y="0"
           width="100%"
           height="100%"
           style="fill:#ffffff;fill-opacity:1" />
      </g>
    </g>
    <g
       id="g89"
       transform="matrix(0.99262256,0,0,0.99262256,2.3995866,1.5415163)"
       style="fill:#ffffff;fill-opacity:1">
      <use
         xlink:href="#c244hYrYHe"
         opacity="1"
         fill="#353735"
         fill-opacity="1"
         id="use83"
         x="0"
         y="0"
         width="100%"
         height="100%"
         style="fill:#ffffff;fill-opacity:1" />
      <g
         id="g87"
         style="fill:#ffffff;fill-opacity:1">
        <use
           xlink:href="#c244hYrYHe"
           opacity="1"
           fill-opacity="0"
           stroke="#000000"
           stroke-width="1"
           stroke-opacity="0"
           id="use85"
           x="0"
           y="0"
           width="100%"
           height="100%"
           style="fill:#ffffff;fill-opacity:1" />
      </g>
    </g>
    <g
       id="g97">
      <use
         xlink:href="#aCwitReXB"
         opacity="1"
         fill="#0098c3"
         fill-opacity="1"
         id="use91"
         x="0"
         y="0"
         width="100%"
         height="100%" />
      <g
         id="g95">
        <use
           xlink:href="#aCwitReXB"
           opacity="1"
           fill-opacity="0"
           stroke="#000000"
           stroke-width="1"
           stroke-opacity="0"
           id="use93"
           x="0"
           y="0"
           width="100%"
           height="100%" />
      </g>
    </g>
    <g
       id="g105">
      <use
         xlink:href="#e6ZNQwHcd"
         opacity="1"
         fill="#0098c3"
         fill-opacity="1"
         id="use99"
         x="0"
         y="0"
         width="100%"
         height="100%" />
      <g
         id="g103">
        <use
           xlink:href="#e6ZNQwHcd"
           opacity="1"
           fill-opacity="0"
           stroke="#000000"
           stroke-width="1"
           stroke-opacity="0"
           id="use101"
           x="0"
           y="0"
           width="100%"
           height="100%" />
      </g>
    </g>
    <g
       id="g113">
      <use
         xlink:href="#a2Wz0TJWA"
         opacity="1"
         fill="#0098c3"
         fill-opacity="1"
         id="use107"
         x="0"
         y="0"
         width="100%"
         height="100%" />
      <g
         id="g111">
        <use
           xlink:href="#a2Wz0TJWA"
           opacity="1"
           fill-opacity="0"
           stroke="#000000"
           stroke-width="1"
           stroke-opacity="0"
           id="use109"
           x="0"
           y="0"
           width="100%"
           height="100%" />
      </g>
    </g>
    <g
       id="g121">
      <use
         xlink:href="#c1wzlCMztr"
         opacity="1"
         fill="#0098c3"
         fill-opacity="1"
         id="use115"
         x="0"
         y="0"
         width="100%"
         height="100%" />
      <g
         id="g119">
        <use
           xlink:href="#c1wzlCMztr"
           opacity="1"
           fill-opacity="0"
           stroke="#000000"
           stroke-width="1"
           stroke-opacity="0"
           id="use117"
           x="0"
           y="0"
           width="100%"
           height="100%" />
      </g>
    </g>
    <g
       id="g129">
      <use
         xlink:href="#a3XILkznOA"
         opacity="1"
         fill="#0098c3"
         fill-opacity="1"
         id="use123"
         x="0"
         y="0"
         width="100%"
         height="100%" />
      <g
         id="g127">
        <use
           xlink:href="#a3XILkznOA"
           opacity="1"
           fill-opacity="0"
           stroke="#000000"
           stroke-width="1"
           stroke-opacity="0"
           id="use125"
           x="0"
           y="0"
           width="100%"
           height="100%" />
      </g>
    </g>
    <g
       id="g137">
      <use
         xlink:href="#i1uCwnNgx1"
         opacity="1"
         fill="#0098c3"
         fill-opacity="1"
         id="use131"
         x="0"
         y="0"
         width="100%"
         height="100%" />
      <g
         id="g135">
        <use
           xlink:href="#i1uCwnNgx1"
           opacity="1"
           fill-opacity="0"
           stroke="#000000"
           stroke-width="1"
           stroke-opacity="0"
           id="use133"
           x="0"
           y="0"
           width="100%"
           height="100%" />
      </g>
    </g>
  </g>
</svg>
